<svg width="14" height="14" viewBox="0 0 14 14" fill="none" xmlns="http://www.w3.org/2000/svg">
<path d="M13.7499 7.56242C13.6396 8.84496 13.1653 10.0693 12.3827 11.0914C11.6002 12.1135 10.542 12.8909 9.33269 13.3321C8.12337 13.7732 6.8132 13.8598 5.55634 13.5816C4.29947 13.3035 3.1482 12.6721 2.23796 11.7619C1.32771 10.8516 0.696373 9.70037 0.418211 8.44351C0.140049 7.18664 0.226637 5.87648 0.667789 4.66715C1.10894 3.45783 1.8863 2.39965 2.90842 1.61712C3.93054 0.834585 5.15489 0.36025 6.43743 0.249916C6.63634 0.23334 6.83369 0.29646 6.98606 0.425392C7.13844 0.554323 7.23335 0.738504 7.24993 0.937416C7.2665 1.13633 7.20338 1.33368 7.07445 1.48605C6.94552 1.63843 6.76134 1.73334 6.56243 1.74992C5.56453 1.83549 4.61184 2.20433 3.81647 2.81302C3.02109 3.4217 2.41613 4.24491 2.07277 5.18578C1.7294 6.12664 1.66193 7.14601 1.87829 8.12392C2.09465 9.10183 2.58583 9.99759 3.29404 10.7058C4.00225 11.414 4.89802 11.9052 5.87593 12.1216C6.85384 12.3379 7.8732 12.2704 8.81407 11.9271C9.75493 11.5837 10.5781 10.9788 11.1868 10.1834C11.7955 9.388 12.1643 8.43531 12.2499 7.43742C12.2581 7.33892 12.2857 7.24301 12.3309 7.15516C12.3762 7.06731 12.4383 6.98923 12.5138 6.92539C12.5892 6.86155 12.6765 6.8132 12.7707 6.78309C12.8648 6.75298 12.9639 6.74171 13.0624 6.74992C13.1609 6.75812 13.2568 6.78565 13.3447 6.83092C13.4325 6.8762 13.5106 6.93833 13.5745 7.01378C13.6383 7.08923 13.6866 7.17651 13.7168 7.27065C13.7469 7.36478 13.7581 7.46392 13.7499 7.56242ZM6.24993 3.74992V6.99992C6.24993 7.19883 6.32894 7.38959 6.4696 7.53025C6.61025 7.6709 6.80101 7.74992 6.99993 7.74992H10.2499C10.4488 7.74992 10.6396 7.6709 10.7803 7.53025C10.9209 7.38959 10.9999 7.19883 10.9999 6.99992C10.9999 6.801 10.9209 6.61024 10.7803 6.46959C10.6396 6.32893 10.4488 6.24992 10.2499 6.24992H7.74993V3.74992C7.74993 3.551 7.67091 3.36024 7.53026 3.21959C7.3896 3.07893 7.19884 2.99992 6.99993 2.99992C6.80101 2.99992 6.61025 3.07893 6.4696 3.21959C6.32894 3.36024 6.24993 3.551 6.24993 3.74992ZM11.9999 4.99992C12.1977 4.99992 12.391 4.94127 12.5555 4.83139C12.7199 4.7215 12.8481 4.56533 12.9238 4.3826C12.9995 4.19987 13.0193 3.99881 12.9807 3.80483C12.9421 3.61084 12.8469 3.43266 12.707 3.29281C12.5672 3.15296 12.389 3.05772 12.195 3.01913C12.001 2.98055 11.8 3.00035 11.6172 3.07604C11.4345 3.15172 11.2783 3.2799 11.1685 3.44435C11.0586 3.6088 10.9999 3.80213 10.9999 3.99992C10.9999 4.26513 11.1053 4.51949 11.2928 4.70702C11.4804 4.89456 11.7347 4.99992 11.9999 4.99992ZM9.99993 2.99992C10.1977 2.99992 10.391 2.94127 10.5555 2.83139C10.7199 2.7215 10.8481 2.56533 10.9238 2.3826C10.9995 2.19987 11.0193 1.99881 10.9807 1.80483C10.9421 1.61084 10.8469 1.43266 10.707 1.29281C10.5672 1.15296 10.389 1.05772 10.195 1.01913C10.001 0.980545 9.79997 1.00035 9.61724 1.07604C9.43452 1.15172 9.27834 1.2799 9.16846 1.44435C9.05858 1.60879 8.99993 1.80213 8.99993 1.99992C8.99993 2.26513 9.10528 2.51949 9.29282 2.70702C9.48036 2.89456 9.73471 2.99992 9.99993 2.99992Z" fill="#868682"/>
</svg>
