<svg width="30" height="34" viewBox="0 0 30 34" fill="none" xmlns="http://www.w3.org/2000/svg">
<path fill-rule="evenodd" clip-rule="evenodd" d="M-0.00012207 11.3164L12.9004 18.7645C13.0393 18.8447 13.1849 18.9026 13.3332 18.9394V33.3846L0.919943 26.0385C0.349662 25.701 -0.00012207 25.0875 -0.00012207 24.4248V11.3164ZM29.9999 11.1184V24.4248C29.9999 25.0875 29.6501 25.701 29.0798 26.0385L16.6665 33.3846V18.8129C16.6968 18.7978 16.7268 18.7816 16.7564 18.7645L29.9999 11.1184Z" fill="#FEC53D"/>
<path opacity="0.499209" fill-rule="evenodd" clip-rule="evenodd" d="M0.405029 7.70142C0.562604 7.50244 0.761492 7.33426 0.993371 7.21076L14.1184 0.2201C14.6694 -0.0733665 15.3303 -0.0733665 15.8812 0.2201L29.0062 7.21076C29.185 7.30596 29.3441 7.42771 29.4799 7.56966L15.0897 15.8778C14.9951 15.9325 14.9078 15.995 14.8283 16.064C14.7488 15.995 14.6616 15.9325 14.567 15.8778L0.405029 7.70142Z" fill="#FEC53D"/>
</svg>
