<svg width="21" height="21" viewBox="0 0 21 21" fill="none" xmlns="http://www.w3.org/2000/svg">
<path fill-rule="evenodd" clip-rule="evenodd" d="M20.1515 13.1434C20.6962 11.9635 21 10.6496 21 9.26471C21 4.14795 16.8521 0 11.7353 0C6.61857 0 2.47062 4.14795 2.47062 9.26471C2.47062 10.4396 2.68933 11.5635 3.08827 12.5978C3.1362 12.7221 3.18674 12.845 3.23981 12.9667L0.371321 14.3149C0.293373 14.3513 0.223637 14.4022 0.166113 14.4647C0.10859 14.5271 0.0644118 14.5999 0.0361141 14.6789C0.0078164 14.7579 -0.00404402 14.8415 0.00121359 14.9249C0.0064712 15.0083 0.0287434 15.0899 0.0667519 15.165C0.10445 15.2403 0.15717 15.3076 0.221885 15.3631C0.2866 15.4186 0.362038 15.4613 0.443868 15.4886C0.525699 15.5159 0.612312 15.5273 0.698738 15.5223C0.785163 15.5172 0.8697 15.4957 0.947497 15.459L6.05397 13.0588C6.12385 13.0258 6.20296 13.0079 6.28207 13.0079H11.941C12.2877 13.0079 12.5778 13.2485 12.6306 13.5806C12.656 13.7396 12.6214 13.9021 12.533 14.0385C12.4447 14.175 12.3085 14.2762 12.1493 14.3238L9.62837 15.0874C9.35413 15.1714 9.16822 15.417 9.1669 15.6944C9.16558 15.9719 9.35281 16.2175 9.62705 16.3015L12.4737 17.1694C12.7572 17.2562 13.0572 17.2812 13.3519 17.2427C13.6467 17.2042 13.929 17.1031 14.1784 16.9467L18.6152 14.1722L18.8136 14.0842C19.0926 14.0098 19.4023 14.1135 19.5697 14.3595C19.6588 14.4913 19.6964 14.6495 19.6759 14.8057C19.6553 14.9618 19.578 15.1059 19.4576 15.2121L14.4474 19.1522C13.7275 19.7172 12.7387 19.8801 11.8658 19.5747L6.62883 17.7446C6.45611 17.6836 6.26361 17.6963 6.10012 17.779L2.88962 19.3965C2.81281 19.4352 2.74464 19.4881 2.68902 19.5522C2.63339 19.6163 2.5914 19.6903 2.56544 19.7701C2.53948 19.8499 2.53007 19.9338 2.53773 20.0171C2.54539 20.1004 2.56998 20.1814 2.6101 20.2555C2.77887 20.5673 3.17837 20.6882 3.50007 20.5253L6.45347 19.0376L11.4175 20.7735C11.854 20.9262 12.3102 21 12.7637 21C13.6682 21 14.5634 20.7048 15.282 20.1423L20.3041 16.1933C20.3107 16.187 20.3173 16.1819 20.3239 16.1768C21.0675 15.5443 21.2178 14.4638 20.6746 13.6646C20.5318 13.4544 20.3532 13.2798 20.1515 13.1434Z" fill="#EBF479"/>
</svg>
