<svg width="16" height="19" viewBox="0 0 16 19" fill="none" xmlns="http://www.w3.org/2000/svg">
<path fill-rule="evenodd" clip-rule="evenodd" d="M9.80193 10.1848C13.4711 9.28616 14.3966 11.383 14.1621 11.1765C14.1621 10.5794 13.8617 9.67863 13.1648 8.51671C12.4938 7.39823 11.5731 6.22921 10.6119 5.14588C9.66921 4.08348 8.72121 3.14099 8 2.45689C7.27879 3.14099 6.33079 4.08348 5.38812 5.14588C4.42687 6.22921 3.50615 7.39823 2.83524 8.51671C2.13827 9.67863 1.83786 10.5794 1.83786 11.1765C1.83786 14.5047 6.73883 10.935 9.80193 10.1848ZM8 19C12.4183 19 16 15.4973 16 11.1765C16 6.85565 8 0 8 0C8 0 0 6.85565 0 11.1765C0 15.4973 3.58172 19 8 19Z" fill="#EBF479"/>
</svg>
