<svg width="17" height="15" viewBox="0 0 17 15" fill="none" xmlns="http://www.w3.org/2000/svg">
<path fill-rule="evenodd" clip-rule="evenodd" d="M0.000121621 3.62261C-1.62888e-05 3.6226 -3.66687e-05 3.6226 5.92328e-05 3.6226V0C0.634175 0 1.37268 0.184967 2.09001 0.44824C2.84274 0.724506 3.69817 1.13393 4.59563 1.68403C6.39086 2.78442 8.41188 4.48325 10.1413 6.9028C12.9487 10.8305 15.9264 11.3774 17 11.3774V15C14.8574 15 10.8132 13.9436 7.31823 9.0539C5.89643 7.06471 4.24179 5.68002 2.80456 4.79907C2.0858 4.3585 1.4358 4.0528 0.914865 3.86161C0.654561 3.76607 0.43763 3.70322 0.26949 3.66554C0.186006 3.64682 0.120091 3.63556 0.0712859 3.62921C0.0246953 3.62315 0.0019605 3.62265 0.000121621 3.62261Z" fill="#EBF479"/>
<path fill-rule="evenodd" clip-rule="evenodd" d="M5.16869 9.40994C2.83695 11.1348 0.675467 11.6191 0 11.6191V15C1.62183 15 4.5144 14.1561 7.30521 12.0917L5.16869 9.40994ZM13.173 2.18196C11.9247 2.86261 10.6453 3.80061 9.53594 4.86955L12.0169 7.26018C12.9125 6.39721 13.9407 5.64798 14.901 5.1244C15.9136 4.57223 16.6488 4.38086 17 4.38086V1C15.7431 1 14.3689 1.52989 13.173 2.18196Z" fill="#979ABE"/>
</svg>
