<svg width="35" height="27" viewBox="0 0 35 27" fill="none" xmlns="http://www.w3.org/2000/svg">
<path opacity="0.587821" fill-rule="evenodd" clip-rule="evenodd" d="M7.29163 5.83334C7.29163 9.05501 9.9033 11.6667 13.125 11.6667C16.3466 11.6667 18.9583 9.05501 18.9583 5.83334C18.9583 2.61168 16.3466 0 13.125 0C9.9033 0 7.29163 2.61168 7.29163 5.83334ZM21.8749 11.6666C21.8749 14.0828 23.8337 16.0416 26.2499 16.0416C28.6662 16.0416 30.6249 14.0828 30.6249 11.6666C30.6249 9.25035 28.6662 7.29159 26.2499 7.29159C23.8337 7.29159 21.8749 9.25035 21.8749 11.6666Z" fill="#8280FF"/>
<path fill-rule="evenodd" clip-rule="evenodd" d="M13.1007 14.5834C6.2153 14.5834 0.566211 18.122 0.000950374 25.0822C-0.0298401 25.4614 0.695206 26.2501 1.06094 26.2501H25.1515C26.247 26.2501 26.264 25.3685 26.247 25.0834C25.8197 17.9276 20.0831 14.5834 13.1007 14.5834ZM25.6683 17.5009C27.4987 19.9381 28.5833 22.9674 28.5833 26.25H34.2065C34.9977 26.25 35.01 25.5888 34.9977 25.375C34.6925 20.0669 30.6362 17.5552 25.6683 17.5009Z" fill="#8280FF"/>
</svg>
