<svg width="28" height="28" viewBox="0 0 28 28" fill="none" xmlns="http://www.w3.org/2000/svg">
<path d="M3.11111 24.8889H26.4444C27.3036 24.8889 28 25.5853 28 26.4444C28 27.3036 27.3036 28 26.4444 28H1.55556C0.696446 28 0 27.3036 0 26.4444V1.55556C0 0.696446 0.696446 0 1.55556 0C2.41467 0 3.11111 0.696446 3.11111 1.55556V24.8889Z" fill="#2BF1FF"/>
<path opacity="0.5" d="M8.91269 18.175C8.32511 18.8017 7.34069 18.8335 6.71394 18.2459C6.08719 17.6583 6.05543 16.6739 6.64301 16.0472L12.4763 9.82494C13.0446 9.21879 13.9889 9.16623 14.6209 9.70555L19.225 13.6343L25.2236 6.03606C25.7559 5.36176 26.7341 5.24668 27.4084 5.77903C28.0827 6.31137 28.1978 7.28955 27.6654 7.96385L20.6654 16.8305C20.1187 17.5231 19.106 17.6227 18.4348 17.0499L13.7307 13.0358L8.91269 18.175Z" fill="#2BF1FF"/>
</svg>
