<svg width="30" height="30" viewBox="0 0 30 30" fill="none" xmlns="http://www.w3.org/2000/svg">
<path opacity="0.78" fill-rule="evenodd" clip-rule="evenodd" d="M13.5346 9.24778C13.5554 8.98801 13.7723 8.78784 14.0329 8.78784H14.5496C14.8056 8.78784 15.0203 8.98124 15.0469 9.23588L15.7144 15.6234L20.4543 18.2154C20.6146 18.3031 20.7144 18.4713 20.7144 18.6541V19.0775C20.7144 19.4049 20.4049 19.644 20.0881 19.5613L13.263 17.78C13.0283 17.7187 12.8714 17.4979 12.8908 17.2561L13.5346 9.24778Z" fill="#FF9066"/>
<path opacity="0.901274" fill-rule="evenodd" clip-rule="evenodd" d="M7.16936 0.17646C6.89903 -0.131844 6.37997 -0.0170595 6.28288 0.372494L4.51325 7.47229C4.43361 7.7918 4.69984 8.09635 5.04254 8.07777L12.6745 7.66388C13.093 7.64119 13.3025 7.1712 13.0317 6.86237L11.0694 4.62439C12.3175 4.21621 13.641 4.00302 15 4.00302C21.7063 4.00302 27.1429 9.20567 27.1429 15.6235C27.1429 22.0413 21.7063 27.2439 15 27.2439C8.29368 27.2439 2.85714 22.0413 2.85714 15.6235C2.85714 14.5461 3.0096 13.4909 3.30687 12.4767L0.555905 11.7382C0.193706 12.9739 0 14.277 0 15.6235C0 23.5513 6.71573 29.9781 15 29.9781C23.2843 29.9781 30 23.5513 30 15.6235C30 7.6956 23.2843 1.26879 15 1.26879C12.9161 1.26879 10.9315 1.67545 9.12809 2.41035L7.16936 0.17646Z" fill="#FF9066"/>
</svg>
