<svg width="274" height="47" viewBox="0 0 274 47" fill="none" xmlns="http://www.w3.org/2000/svg">
<path fill-rule="evenodd" clip-rule="evenodd" d="M35.5 19C40.7467 19 45 14.7467 45 9.5C45 4.25329 40.7467 0 35.5 0C30.2533 0 26 4.25329 26 9.5C26 14.7467 30.2533 19 35.5 19ZM35.5 14C37.9853 14 40 11.9853 40 9.5C40 7.01472 37.9853 5 35.5 5C33.0147 5 31 7.01472 31 9.5C31 11.9853 33.0147 14 35.5 14ZM27 22.5C27 29.9558 20.9558 36 13.5 36C6.04416 36 0 29.9558 0 22.5C0 19.2786 1.12833 16.3207 3.01134 14H3L9 2H16L12.4811 9.03788C12.8174 9.01278 13.1572 9 13.5 9C20.9558 9 27 15.0442 27 22.5ZM20 22.5C20 26.0899 17.0899 29 13.5 29C9.91015 29 7 26.0899 7 22.5C7 18.9101 9.91015 16 13.5 16C17.0899 16 20 18.9101 20 22.5ZM55 33.5C55 40.9558 48.9558 47 41.5 47C34.0442 47 28 40.9558 28 33.5C28 26.0442 34.0442 20 41.5 20C48.9558 20 55 26.0442 55 33.5ZM48 33.5C48 37.0899 45.0899 40 41.5 40C37.9101 40 35 37.0899 35 33.5C35 29.9101 37.9101 27 41.5 27C45.0899 27 48 29.9101 48 33.5ZM70.9642 16.0002H69.8362V10.3602H70.9162V11.2002C71.0842 10.9042 71.3282 10.6722 71.6482 10.5042C71.9682 10.3282 72.3562 10.2402 72.8122 10.2402C73.4602 10.2402 73.9642 10.4242 74.3242 10.7922C74.6922 11.1602 74.8762 11.7362 74.8762 12.5202V16.0002H73.7482V12.6642C73.7482 12.1602 73.6442 11.7962 73.4362 11.5722C73.2362 11.3402 72.9282 11.2242 72.5122 11.2242C72.0162 11.2242 71.6322 11.3922 71.3602 11.7282C71.0962 12.0642 70.9642 12.5242 70.9642 13.1082V16.0002ZM67.6862 10.3602H66.5582V16.0002H67.6862V10.3602ZM66.5582 9.5V8.36035H67.6862V9.5H66.5582ZM60.2241 15.7602C60.6721 16.0002 61.1841 16.1202 61.7601 16.1202C62.3441 16.1202 62.8561 16.0002 63.2961 15.7602C63.7441 15.5122 64.0921 15.1682 64.3401 14.7282C64.5881 14.2882 64.7121 13.7722 64.7121 13.1802C64.7121 12.5882 64.5881 12.0722 64.3401 11.6322C64.0921 11.1922 63.7441 10.8522 63.2961 10.6122C62.8561 10.3642 62.3441 10.2402 61.7601 10.2402C61.1841 10.2402 60.6721 10.3642 60.2241 10.6122C59.7761 10.8522 59.4281 11.1922 59.1801 11.6322C58.9321 12.0722 58.8081 12.5882 58.8081 13.1802C58.8081 13.7722 58.9321 14.2882 59.1801 14.7282C59.4281 15.1682 59.7761 15.5122 60.2241 15.7602ZM62.7081 14.8962C62.4361 15.0562 62.1201 15.1362 61.7601 15.1362C61.4001 15.1362 61.0841 15.0562 60.8121 14.8962C60.5401 14.7362 60.3281 14.5122 60.1761 14.2242C60.0321 13.9282 59.9601 13.5802 59.9601 13.1802C59.9601 12.7802 60.0321 12.4362 60.1761 12.1482C60.3281 11.8522 60.5401 11.6242 60.8121 11.4642C61.0841 11.3042 61.4001 11.2242 61.7601 11.2242C62.1201 11.2242 62.4361 11.3042 62.7081 11.4642C62.9801 11.6242 63.1881 11.8522 63.3321 12.1482C63.4841 12.4362 63.5601 12.7802 63.5601 13.1802C63.5601 13.5802 63.4841 13.9282 63.3321 14.2242C63.1881 14.5122 62.9801 14.7362 62.7081 14.8962ZM78.8888 28.256L78.8168 27.296C78.9928 27.296 79.1568 27.26 79.3088 27.188C79.4608 27.116 79.6048 27 79.7408 26.84C79.8848 26.68 80.0248 26.468 80.1608 26.204L77.8208 20.36H79.0328L80.7008 24.872L82.3688 20.36H83.5808L81.3248 26C81.0928 26.584 80.8448 27.04 80.5808 27.368C80.3248 27.696 80.0528 27.924 79.7648 28.052C79.4848 28.188 79.1928 28.256 78.8888 28.256ZM74.5228 25.664C74.8108 25.936 75.2468 26.072 75.8308 26.072C75.9908 26.072 76.1468 26.064 76.2988 26.048C76.4588 26.032 76.5908 26.008 76.6948 25.976V25.064C76.6228 25.08 76.5228 25.092 76.3948 25.1C76.2668 25.108 76.1548 25.112 76.0588 25.112C75.7788 25.112 75.5708 25.044 75.4348 24.908C75.2988 24.764 75.2308 24.552 75.2308 24.272V21.32H76.6948V20.36H75.2308V18.752H74.1028V20.36H72.8668V21.32H74.1028V24.368C74.1028 24.952 74.2428 25.384 74.5228 25.664ZM66.1438 26L68.3038 23.084L66.2638 20.36H67.5598L69.0238 22.388L70.4878 20.36H71.7838L69.7438 23.084L71.9038 26H70.6078L69.0238 23.852L67.4398 26H66.1438ZM63.4658 20.36V26H64.5938V20.36H63.4658ZM63.4658 18.5H64.5938V19.5H63.4658V18.5ZM87.3086 36.6644C87.5966 36.9364 88.0326 37.0724 88.6166 37.0724C88.7766 37.0724 88.9326 37.0644 89.0846 37.0484C89.2446 37.0324 89.3766 37.0084 89.4806 36.9764V36.0644C89.4086 36.0804 89.3086 36.0924 89.1806 36.1004C89.0526 36.1084 88.9406 36.1124 88.8446 36.1124C88.5646 36.1124 88.3566 36.0444 88.2206 35.9084C88.0846 35.7644 88.0166 35.5524 88.0166 35.2724V32.3204H89.4806V31.3604H88.0166V29.7524H86.8886V31.3604H85.6526V32.3204H86.8886V35.3684C86.8886 35.9524 87.0286 36.3844 87.3086 36.6644ZM79.3655 37.0004V28.9844H80.4935V32.1284C80.6695 31.8564 80.9095 31.6404 81.2135 31.4804C81.5255 31.3204 81.9015 31.2404 82.3415 31.2404C82.9895 31.2404 83.4935 31.4244 83.8535 31.7924C84.2215 32.1604 84.4055 32.7364 84.4055 33.5204V37.0004H83.2775V33.6644C83.2775 33.1604 83.1735 32.7964 82.9655 32.5724C82.7655 32.3404 82.4575 32.2244 82.0415 32.2244C81.5455 32.2244 81.1615 32.3924 80.8895 32.7284C80.6255 33.0644 80.4935 33.5244 80.4935 34.1084V37.0004H79.3655ZM68.4502 31.3604V37.0004H69.5782V31.3604H68.4502ZM68.4502 29.0004V30.3604H69.5782V29.0004H68.4502ZM61.0015 28.9844V37.0004H66.5455V35.9684H62.2015V33.3644H66.1855V32.3804H62.2015V30.0164H66.5455V28.9844H61.0015ZM76.0672 36.5586C75.6111 36.8386 75.0744 37 74.5 37C72.8431 37 71.5 35.6569 71.5 34C71.5 32.3431 72.8431 31 74.5 31C75.0968 31 75.6528 31.1742 76.1201 31.4746V31.3604H77.2001V36.2084C77.2001 36.8724 77.0801 37.4324 76.8401 37.8884C76.6001 38.3524 76.2561 38.7044 75.8081 38.9444C75.3601 39.1844 74.8201 39.3044 74.1881 39.3044C73.7241 39.3044 73.2841 39.2324 72.8681 39.0884C72.4601 38.9444 72.0721 38.7124 71.7041 38.3924L72.1121 37.5644C72.4721 37.8444 72.8161 38.0404 73.1441 38.1524C73.4801 38.2644 73.8081 38.3204 74.1281 38.3204C74.7361 38.3204 75.2121 38.1564 75.5561 37.8284C75.8667 37.5322 76.037 37.109 76.0672 36.5586ZM76.1 34.2104V34.8255C75.8007 35.4043 75.1966 35.8 74.5 35.8C73.5059 35.8 72.7 34.9941 72.7 34C72.7 33.0059 73.5059 32.2 74.5 32.2C75.1966 32.2 75.8007 32.5957 76.1 33.1745V33.7903C76.1054 33.8582 76.1081 33.9282 76.1081 34.0004C76.1081 34.0725 76.1054 34.1426 76.1 34.2104ZM57.3439 23.144C57.3625 23.4061 57.4164 23.6464 57.5056 23.8648C57.5985 24.0796 57.7193 24.2653 57.868 24.4218C58.0167 24.5784 58.1914 24.7003 58.3922 24.7877C58.5929 24.8714 58.8141 24.9133 59.0558 24.9133C59.2677 24.9133 59.4703 24.8915 59.6636 24.8478C59.8606 24.8041 60.0335 24.7331 60.1822 24.6348C60.3309 24.5365 60.4498 24.4091 60.539 24.2526C60.6283 24.0924 60.6729 23.8958 60.6729 23.6628C60.6729 23.4589 60.6078 23.286 60.4777 23.144C60.3513 23.002 60.184 22.8801 59.9758 22.7782C59.7677 22.6726 59.5297 22.5779 59.2621 22.4942C58.9944 22.4105 58.7212 22.3231 58.4424 22.2321C58.1673 22.1374 57.8959 22.0337 57.6283 21.9208C57.3606 21.808 57.1227 21.6696 56.9145 21.5058C56.7063 21.3383 56.5372 21.1381 56.4071 20.9051C56.2807 20.6721 56.2175 20.3918 56.2175 20.0642C56.2175 19.7292 56.2844 19.4344 56.4182 19.1795C56.552 18.921 56.7398 18.7044 56.9814 18.5297C57.2268 18.3549 57.5167 18.2239 57.8513 18.1365C58.1896 18.0455 58.5595 18 58.961 18C59.3178 18 59.6338 18.0364 59.9089 18.1092C60.184 18.1784 60.4238 18.2749 60.6283 18.3986C60.8364 18.5188 61.0112 18.6608 61.1524 18.8246C61.2937 18.9848 61.4089 19.1577 61.4981 19.3433C61.5911 19.529 61.6599 19.7201 61.7045 19.9167C61.7491 20.1133 61.7788 20.3063 61.7937 20.4956H60.4498C60.4275 20.2516 60.3736 20.0405 60.2881 19.8621C60.2026 19.6837 60.0929 19.5363 59.9591 19.4198C59.829 19.3033 59.6784 19.2177 59.5074 19.1631C59.3364 19.1049 59.1543 19.0758 58.961 19.0758C58.7862 19.0758 58.6134 19.094 58.4424 19.1304C58.2751 19.1631 58.1245 19.2196 57.9907 19.2997C57.8569 19.3761 57.7472 19.478 57.6617 19.6055C57.5799 19.7292 57.539 19.8821 57.539 20.0642C57.539 20.2753 57.6022 20.4537 57.7286 20.5993C57.8587 20.7413 58.0279 20.8669 58.2361 20.9761C58.4442 21.0817 58.6822 21.1782 58.9498 21.2655C59.2175 21.3493 59.4907 21.4385 59.7695 21.5331C60.0483 21.6241 60.3216 21.7279 60.5892 21.8444C60.8569 21.9572 61.0948 22.0956 61.303 22.2594C61.5112 22.4196 61.6784 22.6143 61.8048 22.8437C61.9349 23.0694 62 23.3424 62 23.6628C62 24.0523 61.9257 24.3927 61.777 24.684C61.632 24.9752 61.4275 25.2191 61.1636 25.4157C60.9033 25.6086 60.5929 25.7543 60.2323 25.8526C59.8755 25.9509 59.4833 26 59.0558 26C58.6729 26 58.3011 25.9345 57.9405 25.8034C57.5799 25.6724 57.2565 25.483 56.9703 25.2355C56.6877 24.9879 56.4572 24.6894 56.2788 24.3399C56.1041 23.9868 56.0112 23.5882 56 23.144H57.3439ZM54 14.8C55.1248 14.8 56.0947 14.1367 56.54 13.18L57.6838 13.5613C57.0756 14.9947 55.6552 16 54 16C51.7909 16 50 14.2091 50 12C50 9.79086 51.7909 8 54 8C55.6552 8 57.0756 9.00535 57.6838 10.4387L56.54 10.82C56.0947 9.86326 55.1248 9.2 54 9.2C52.4536 9.2 51.2 10.4536 51.2 12C51.2 13.5464 52.4536 14.8 54 14.8Z" fill="#FF0000"/>
<path d="M260.894 40.5279C258.313 40.5279 256.054 40.1465 254.118 39.3839C252.182 38.5919 250.671 37.4919 249.586 36.0839C248.501 34.6465 247.958 32.9745 247.958 31.0679C247.958 29.1612 248.486 27.5479 249.542 26.2279C250.627 24.8785 252.138 23.8665 254.074 23.1919C256.01 22.4879 258.283 22.1359 260.894 22.1359C263.534 22.1359 265.822 22.4879 267.758 23.1919C269.723 23.8665 271.234 24.8785 272.29 26.2279C273.375 27.5479 273.918 29.1612 273.918 31.0679C273.918 32.9745 273.375 34.6465 272.29 36.0839C271.205 37.4919 269.679 38.5919 267.714 39.3839C265.778 40.1465 263.505 40.5279 260.894 40.5279ZM260.894 35.2919C262.683 35.2919 264.091 34.8959 265.118 34.1039C266.174 33.3119 266.702 32.2265 266.702 30.8479C266.702 29.4692 266.174 28.3985 265.118 27.6359C264.091 26.8439 262.683 26.4479 260.894 26.4479C259.134 26.4479 257.741 26.8439 256.714 27.6359C255.687 28.3985 255.174 29.4692 255.174 30.8479C255.174 32.2265 255.687 33.3119 256.714 34.1039C257.741 34.8959 259.134 35.2919 260.894 35.2919ZM260.894 25.7439C258.518 25.7439 256.435 25.4212 254.646 24.7759C252.886 24.1305 251.507 23.1919 250.51 21.9599C249.542 20.6985 249.058 19.2025 249.058 17.4719C249.058 15.6532 249.557 14.0985 250.554 12.8079C251.551 11.4879 252.945 10.4759 254.734 9.77188C256.523 9.03854 258.577 8.67188 260.894 8.67188C263.27 8.67188 265.338 9.03854 267.098 9.77188C268.887 10.4759 270.281 11.4879 271.278 12.8079C272.305 14.0985 272.818 15.6532 272.818 17.4719C272.818 19.2025 272.319 20.6985 271.322 21.9599C270.354 23.1919 268.975 24.1305 267.186 24.7759C265.397 25.4212 263.299 25.7439 260.894 25.7439ZM260.894 21.5639C262.39 21.5639 263.563 21.2265 264.414 20.5519C265.294 19.8772 265.734 18.9532 265.734 17.7799C265.734 16.5479 265.279 15.5945 264.37 14.9199C263.49 14.2452 262.331 13.9079 260.894 13.9079C259.486 13.9079 258.342 14.2452 257.462 14.9199C256.582 15.5945 256.142 16.5479 256.142 17.7799C256.142 18.9532 256.567 19.8772 257.418 20.5519C258.269 21.2265 259.427 21.5639 260.894 21.5639Z" fill="white"/>
<path d="M233.89 40.5279C231.074 40.5279 228.625 39.9412 226.542 38.7679C224.489 37.5945 222.905 35.8785 221.79 33.6199C220.675 31.3612 220.118 28.5745 220.118 25.2599C220.118 21.7105 220.778 18.7039 222.098 16.2399C223.447 13.7759 225.295 11.8985 227.642 10.6079C230.018 9.31721 232.746 8.67188 235.826 8.67188C237.469 8.67188 239.038 8.84787 240.534 9.19987C242.03 9.55187 243.321 10.0799 244.406 10.7839L241.766 16.0199C240.915 15.4332 240.006 15.0372 239.038 14.8319C238.07 14.5972 237.058 14.4799 236.002 14.4799C233.333 14.4799 231.221 15.2865 229.666 16.8999C228.111 18.5132 227.334 20.9039 227.334 24.0719C227.334 24.5999 227.334 25.1865 227.334 25.8319C227.363 26.4772 227.451 27.1225 227.598 27.7679L225.618 25.9199C226.175 24.7759 226.894 23.8225 227.774 23.0599C228.654 22.2679 229.695 21.6812 230.898 21.2999C232.13 20.8892 233.479 20.6839 234.946 20.6839C236.941 20.6839 238.73 21.0799 240.314 21.8719C241.898 22.6639 243.159 23.7785 244.098 25.2159C245.066 26.6532 245.55 28.3399 245.55 30.2759C245.55 32.3585 245.022 34.1772 243.966 35.7319C242.939 37.2572 241.546 38.4452 239.786 39.2959C238.055 40.1172 236.09 40.5279 233.89 40.5279ZM233.494 35.2039C234.491 35.2039 235.371 35.0279 236.134 34.6759C236.926 34.2945 237.542 33.7519 237.982 33.0479C238.422 32.3439 238.642 31.5372 238.642 30.6279C238.642 29.2199 238.158 28.1052 237.19 27.2839C236.251 26.4332 234.99 26.0079 233.406 26.0079C232.35 26.0079 231.426 26.2132 230.634 26.6239C229.842 27.0052 229.211 27.5479 228.742 28.2519C228.302 28.9265 228.082 29.7185 228.082 30.6279C228.082 31.5079 228.302 32.2999 228.742 33.0039C229.182 33.6785 229.798 34.2212 230.59 34.6319C231.382 35.0132 232.35 35.2039 233.494 35.2039Z" fill="white"/>
<path d="M193.076 15.9756C194.953 15.9756 196.625 16.3569 198.091 17.1196C199.587 17.8529 200.761 18.9969 201.612 20.5516C202.462 22.0769 202.888 24.0423 202.888 26.4476V39.9996H196.023V27.5036C196.023 25.5969 195.598 24.1889 194.747 23.2796C193.926 22.3703 192.753 21.9156 191.228 21.9156C190.142 21.9156 189.16 22.1503 188.28 22.6196C187.429 23.0596 186.754 23.7489 186.256 24.6876C185.786 25.6263 185.551 26.8289 185.551 28.2956V39.9996H178.688V16.3276H185.243V22.8836L184.011 20.9036C184.862 19.3196 186.079 18.1023 187.663 17.2516C189.247 16.4009 191.052 15.9756 193.076 15.9756Z" fill="white"/>
<path d="M165.453 40.0001V16.3281H172.317V40.0001H165.453ZM168.885 13.0281C167.624 13.0281 166.597 12.6614 165.805 11.9281C165.013 11.1947 164.617 10.2854 164.617 9.20007C164.617 8.11474 165.013 7.2054 165.805 6.47207C166.597 5.73874 167.624 5.37207 168.885 5.37207C170.147 5.37207 171.173 5.72407 171.965 6.42807C172.757 7.10274 173.153 7.98274 173.153 9.06807C173.153 10.2121 172.757 11.1654 171.965 11.9281C171.203 12.6614 170.176 13.0281 168.885 13.0281Z" fill="white"/>
<path d="M147.885 40.3516C145.363 40.3516 143.119 39.8236 141.153 38.7676C139.217 37.7116 137.677 36.2743 136.533 34.4556C135.419 32.6076 134.861 30.5103 134.861 28.1636C134.861 25.7876 135.419 23.6903 136.533 21.8716C137.677 20.0236 139.217 18.5863 141.153 17.5596C143.119 16.5036 145.363 15.9756 147.885 15.9756C150.379 15.9756 152.608 16.5036 154.573 17.5596C156.539 18.5863 158.079 20.0089 159.193 21.8276C160.308 23.6463 160.865 25.7583 160.865 28.1636C160.865 30.5103 160.308 32.6076 159.193 34.4556C158.079 36.2743 156.539 37.7116 154.573 38.7676C152.608 39.8236 150.379 40.3516 147.885 40.3516ZM147.885 34.7196C149.029 34.7196 150.056 34.4556 150.965 33.9276C151.875 33.3996 152.593 32.6516 153.121 31.6836C153.649 30.6863 153.913 29.5129 153.913 28.1636C153.913 26.7849 153.649 25.6116 153.121 24.6436C152.593 23.6756 151.875 22.9276 150.965 22.3996C150.056 21.8716 149.029 21.6076 147.885 21.6076C146.741 21.6076 145.715 21.8716 144.805 22.3996C143.896 22.9276 143.163 23.6756 142.605 24.6436C142.077 25.6116 141.813 26.7849 141.813 28.1636C141.813 29.5129 142.077 30.6863 142.605 31.6836C143.163 32.6516 143.896 33.3996 144.805 33.9276C145.715 34.4556 146.741 34.7196 147.885 34.7196Z" fill="white"/>
<path d="M120.392 40.5279C118.016 40.5279 115.801 40.1465 113.748 39.3839C111.724 38.5919 109.964 37.4772 108.468 36.0399C106.972 34.6025 105.798 32.9159 104.948 30.9799C104.126 29.0439 103.716 26.9172 103.716 24.5999C103.716 22.2825 104.126 20.1559 104.948 18.2199C105.798 16.2839 106.972 14.5972 108.468 13.1599C109.993 11.7225 111.768 10.6225 113.792 9.85987C115.816 9.06787 118.03 8.67188 120.436 8.67188C123.105 8.67188 125.51 9.14121 127.652 10.0799C129.822 10.9892 131.641 12.3385 133.108 14.1279L128.532 18.3519C127.476 17.1492 126.302 16.2545 125.012 15.6679C123.721 15.0519 122.313 14.7439 120.788 14.7439C119.35 14.7439 118.03 14.9785 116.828 15.4479C115.625 15.9172 114.584 16.5919 113.704 17.4719C112.824 18.3519 112.134 19.3932 111.636 20.5959C111.166 21.7985 110.932 23.1332 110.932 24.5999C110.932 26.0665 111.166 27.4012 111.636 28.6039C112.134 29.8065 112.824 30.8479 113.704 31.7279C114.584 32.6079 115.625 33.2825 116.828 33.7519C118.03 34.2212 119.35 34.4559 120.788 34.4559C122.313 34.4559 123.721 34.1625 125.012 33.5759C126.302 32.9599 127.476 32.0359 128.532 30.8039L133.108 35.0279C131.641 36.8172 129.822 38.1812 127.652 39.1199C125.51 40.0585 123.09 40.5279 120.392 40.5279Z" fill="white"/>
</svg>
