<svg width="119" height="32" viewBox="0 0 119 32" fill="none" xmlns="http://www.w3.org/2000/svg">
<path d="M1.87861 15.3236C1.36267 13.0718 3.79471 7.29571 3.79471 7.29571L16.8218 6.42994C19.3414 5.75482 21.9312 7.25004 22.6063 9.76961L28.115 18.8478C27.2295 23.2757 26.4956 25.786 23.9761 26.4611L10.7722 30.2667C8.25267 30.9419 5.66287 29.4466 4.98776 26.9271L1.87861 15.3236Z" fill="#EBF479"/>
<path d="M3.51392 10.418C2.81864 7.82324 4.35852 5.15609 6.95333 4.46081L18.9034 1.25881C21.4982 0.563531 24.1653 2.10341 24.8606 4.69822L28.0626 16.6483C28.7579 19.2431 27.218 21.9102 24.6232 22.6055L12.6732 25.8075C10.0783 26.5028 7.4112 24.9629 6.71592 22.3681L3.51392 10.418Z" fill="black"/>
<path fill-rule="evenodd" clip-rule="evenodd" d="M19.2181 2.43339L7.26806 5.6354C5.32195 6.15685 4.16704 8.15721 4.6885 10.1033L7.8905 22.0534C8.41196 23.9995 10.4123 25.1544 12.3584 24.6329L24.3085 21.4309C26.2546 20.9095 27.4095 18.9091 26.888 16.963L23.686 5.01295C23.1646 3.06684 21.1642 1.91193 19.2181 2.43339ZM6.95333 4.46081C4.35852 5.15609 2.81864 7.82324 3.51392 10.418L6.71592 22.3681C7.4112 24.9629 10.0783 26.5028 12.6732 25.8075L24.6232 22.6055C27.218 21.9102 28.7579 19.2431 28.0626 16.6483L24.8606 4.69822C24.1653 2.10341 21.4982 0.563531 18.9034 1.25881L6.95333 4.46081Z" fill="#EBF479"/>
<path fill-rule="evenodd" clip-rule="evenodd" d="M14.7334 7.78568L11.5647 8.63474C11.0312 8.77768 10.7146 9.32601 10.8576 9.85948L11.1985 11.132C11.3415 11.6655 11.8898 11.9821 12.4233 11.8391L15.3001 11.0683C16.3647 10.783 17.4589 11.4148 17.7441 12.4793C18.0293 13.5438 17.3976 14.638 16.3331 14.9233L13.4562 15.6941C12.9228 15.837 12.6062 16.3854 12.7491 16.9189L13.1048 18.2464C13.2478 18.7798 13.7961 19.0964 14.3296 18.9535L17.4983 18.1044C20.3477 17.3409 22.0387 14.412 21.2752 11.5626C20.5117 8.71316 17.5828 7.02218 14.7334 7.78568Z" fill="#EBF479"/>
<path d="M37.212 6.85547H42.9557C44.3388 6.85547 45.5618 7.13081 46.6248 7.68148C47.7005 8.23216 48.5329 9.00055 49.122 9.98665C49.7239 10.9727 50.0249 12.0997 50.0249 13.3676C50.0249 14.6994 49.7303 15.8712 49.1413 16.8829C48.565 17.8946 47.7389 18.6822 46.6632 19.2457C45.6003 19.7964 44.3644 20.0717 42.9557 20.0717H37.212V6.85547ZM42.7636 16.614C43.7241 16.614 44.4541 16.313 44.9535 15.7111C45.4658 15.0964 45.7219 14.3024 45.7219 13.3291C45.7219 12.4071 45.4722 11.6771 44.9728 11.1392C44.4861 10.5886 43.7497 10.3132 42.7636 10.3132H41.4574V16.614H42.7636Z" fill="#EBF479"/>
<path d="M55.8391 20.2254C55.0067 20.2254 54.2255 20.0077 53.4955 19.5723C52.7784 19.1241 52.2021 18.5222 51.7667 17.7666C51.3313 16.9982 51.1135 16.1466 51.1135 15.2117C51.1135 14.2896 51.3313 13.4572 51.7667 12.7144C52.2021 11.9588 52.7848 11.3697 53.5148 10.9471C54.2447 10.5245 55.0195 10.3132 55.8391 10.3132C56.5051 10.3132 57.1198 10.4989 57.6833 10.8703C58.2596 11.2417 58.695 11.7988 58.9895 12.5415V10.3132H63.0236V20.0717H58.9895V18.2852C58.3492 19.5787 57.2991 20.2254 55.8391 20.2254ZM57.0878 17.1903C57.6 17.1903 58.0354 17.011 58.394 16.6524C58.7654 16.281 58.9639 15.8456 58.9895 15.3462V15.1925C58.9639 14.6802 58.759 14.2448 58.3748 13.8862C58.0034 13.5276 57.5744 13.3483 57.0878 13.3483C56.5499 13.3483 56.0889 13.5404 55.7047 13.9246C55.3333 14.296 55.1476 14.7442 55.1476 15.2693C55.1476 15.8072 55.3397 16.2618 55.7239 16.6332C56.1081 17.0046 56.5627 17.1903 57.0878 17.1903Z" fill="#EBF479"/>
<path d="M64.9693 10.5821H69.0225V12.2534C69.6372 10.9599 70.681 10.3132 72.1537 10.3132C73.0117 10.3132 73.7993 10.5309 74.5165 10.9663C75.2465 11.389 75.8164 11.9781 76.2262 12.7336C76.6488 13.4892 76.8601 14.3344 76.8601 15.2693C76.8601 16.2042 76.6424 17.0494 76.207 17.805C75.7843 18.5606 75.208 19.1561 74.4781 19.5915C73.7609 20.0141 72.9925 20.2254 72.1729 20.2254C70.713 20.2254 69.6628 19.5787 69.0225 18.2852V22.569L64.9693 23.3374V10.5821ZM70.9435 17.1903C71.4686 17.1903 71.9168 16.9982 72.2882 16.614C72.6596 16.2298 72.8453 15.7816 72.8453 15.2693C72.8453 14.7314 72.6532 14.2768 72.269 13.9054C71.8976 13.534 71.4558 13.3483 70.9435 13.3483C70.4184 13.3483 69.9702 13.534 69.5988 13.9054C69.2274 14.264 69.0417 14.693 69.0417 15.1925V15.2693C69.0417 15.8072 69.2274 16.2618 69.5988 16.6332C69.983 17.0046 70.4312 17.1903 70.9435 17.1903Z" fill="#EBF479"/>
<path d="M78.5016 6.85547H84.2453C85.6284 6.85547 86.8514 7.13081 87.9144 7.68148C88.9901 8.23216 89.8225 9.00055 90.4116 9.98665C91.0135 10.9727 91.3145 12.0997 91.3145 13.3676C91.3145 14.6994 91.0199 15.8712 90.4308 16.8829C89.8545 17.8946 89.0285 18.6822 87.9528 19.2457C86.8898 19.7964 85.654 20.0717 84.2453 20.0717H78.5016V6.85547ZM84.0532 16.614C85.0137 16.614 85.7437 16.313 86.2431 15.7111C86.7554 15.0964 87.0115 14.3024 87.0115 13.3291C87.0115 12.4071 86.7618 11.6771 86.2623 11.1392C85.7757 10.5886 85.0393 10.3132 84.0532 10.3132H82.7469V16.614H84.0532Z" fill="#EBF479"/>
<path d="M97.1287 20.2254C96.2963 20.2254 95.5151 20.0077 94.7851 19.5723C94.068 19.1241 93.4917 18.5222 93.0563 17.7666C92.6208 16.9982 92.4031 16.1466 92.4031 15.2117C92.4031 14.2896 92.6208 13.4572 93.0563 12.7144C93.4917 11.9588 94.0744 11.3697 94.8043 10.9471C95.5343 10.5245 96.3091 10.3132 97.1287 10.3132C97.7946 10.3132 98.4094 10.4989 98.9728 10.8703C99.5491 11.2417 99.9845 11.7988 100.279 12.5415V10.3132H104.313V20.0717H100.279V18.2852C99.6388 19.5787 98.5886 20.2254 97.1287 20.2254ZM98.3773 17.1903C98.8896 17.1903 99.325 17.011 99.6836 16.6524C100.055 16.281 100.253 15.8456 100.279 15.3462V15.1925C100.253 14.6802 100.049 14.2448 99.6644 13.8862C99.293 13.5276 98.864 13.3483 98.3773 13.3483C97.8395 13.3483 97.3784 13.5404 96.9942 13.9246C96.6228 14.296 96.4372 14.7442 96.4372 15.2693C96.4372 15.8072 96.6293 16.2618 97.0134 16.6332C97.3976 17.0046 97.8523 17.1903 98.3773 17.1903Z" fill="#EBF479"/>
<path d="M106.259 10.5821H110.312V12.2534C110.927 10.9599 111.971 10.3132 113.443 10.3132C114.301 10.3132 115.089 10.5309 115.806 10.9663C116.536 11.389 117.106 11.9781 117.516 12.7336C117.938 13.4892 118.15 14.3344 118.15 15.2693C118.15 16.2042 117.932 17.0494 117.497 17.805C117.074 18.5606 116.498 19.1561 115.768 19.5915C115.05 20.0141 114.282 20.2254 113.462 20.2254C112.003 20.2254 110.952 19.5787 110.312 18.2852V22.569L106.259 23.3374V10.5821ZM112.233 17.1903C112.758 17.1903 113.206 16.9982 113.578 16.614C113.949 16.2298 114.135 15.7816 114.135 15.2693C114.135 14.7314 113.943 14.2768 113.559 13.9054C113.187 13.534 112.745 13.3483 112.233 13.3483C111.708 13.3483 111.26 13.534 110.888 13.9054C110.517 14.264 110.331 14.693 110.331 15.1925V15.2693C110.331 15.8072 110.517 16.2618 110.888 16.6332C111.273 17.0046 111.721 17.1903 112.233 17.1903Z" fill="#EBF479"/>
</svg>
