<svg width="18" height="19" viewBox="0 0 18 19" fill="none" xmlns="http://www.w3.org/2000/svg">
<path d="M17.9717 1.17778C17.9592 0.680445 17.5803 0.367008 17.0375 0.378434C16.4937 0.38986 16.2136 0.721472 16.1243 1.21901C16.078 1.47703 16.0929 1.74696 16.0902 2.01166C16.0857 2.46325 16.089 2.91493 16.089 3.3666C16.0184 3.39861 15.9477 3.43064 15.8771 3.46269C15.6398 3.2348 15.4066 3.0026 15.1648 2.7797C12.9852 0.770933 10.3991 0.0231151 7.50308 0.467573C3.41411 1.09508 0.384525 4.49831 0.0290244 8.74666C-0.304471 12.7319 2.26733 16.5824 6.12765 17.8778C10.0328 19.1881 14.378 17.6629 16.5743 14.2071C16.7157 13.9846 16.8627 13.7562 16.9489 13.5102C17.1165 13.0324 17.0323 12.5876 16.5602 12.3324C16.1054 12.0864 15.6743 12.1852 15.3514 12.6026C15.1898 12.8113 15.0671 13.0494 14.9163 13.267C13.5546 15.2328 11.684 16.3039 9.29037 16.4205C6.08533 16.5767 3.1473 14.4985 2.21324 11.4352C1.24852 8.27152 2.58287 4.86267 5.43692 3.19968C8.21124 1.5831 11.7729 2.04702 14.018 4.32644C14.1824 4.49336 14.2932 4.71309 14.5597 5.09632C13.6832 5.09632 13.0084 5.06065 12.3393 5.10676C11.7213 5.14938 11.394 5.51701 11.3991 6.0331C11.404 6.53559 11.7543 6.95137 12.3489 6.96599C13.901 7.00416 15.4547 6.99031 17.0076 6.97377C17.5192 6.96833 17.9427 6.67557 17.9582 6.1702C18.0092 4.50717 18.0133 2.84108 17.9717 1.17778Z" fill="#979ABE"/>
</svg>
