<svg width="129" height="148" viewBox="0 0 129 148" fill="none" xmlns="http://www.w3.org/2000/svg">
<path d="M8.81601 106.802C18.5541 103.15 23.9462 94.8278 26.8383 88.3635C28.2902 85.1184 32.0679 83.404 35.2867 84.9134L35.4149 84.9736C38.2502 86.3032 39.5198 89.629 38.1649 92.4523C36.2923 96.3544 33.4374 101.884 30.1586 106.802C27.5156 110.766 24.7958 114.157 24.3211 115.145C20.4294 123.247 16.1269 124.343 14.2997 125.439C12.9016 126.278 11.1672 124.665 12.31 123.095C11.2262 124.412 10.0212 125.604 8.81609 125.805C7.06198 126.097 7.11063 124.099 7.35426 123.247C4.79619 125.439 2.96945 123.978 3.33425 122.881C3.69905 121.785 5.16163 121.054 6.62338 118.131C6.91845 117.54 7.12666 116.922 7.26914 116.31C7.81897 113.949 5.68649 113.157 3.33425 113.745C1.8725 114.111 0.0477033 112.649 1.50831 111.187C3.28592 109.408 5.89294 107.898 8.81601 106.802Z" fill="#F4E079"/>
<path fill-rule="evenodd" clip-rule="evenodd" d="M34.8753 85.7959C32.2211 84.5512 28.9917 85.9382 27.7281 88.7624C24.7922 95.3245 19.2541 103.928 9.15941 107.714C6.31822 108.78 3.84677 110.227 2.19827 111.876C1.96297 112.112 1.94712 112.255 1.94595 112.29C1.94469 112.327 1.95521 112.397 2.04736 112.499C2.26603 112.74 2.72172 112.898 3.10002 112.803C4.40275 112.477 5.80536 112.487 6.86271 113.072C7.41191 113.376 7.86854 113.839 8.12173 114.47C8.37199 115.094 8.38984 115.797 8.21844 116.533C8.06154 117.207 7.82972 117.898 7.49532 118.567C6.716 120.126 5.93045 121.108 5.30435 121.83C5.19793 121.953 5.10231 122.061 5.01507 122.16C4.83601 122.363 4.69223 122.526 4.56273 122.691C4.39335 122.906 4.31021 123.05 4.26739 123.166C4.27156 123.199 4.30583 123.297 4.54012 123.37C4.84293 123.465 5.59847 123.473 6.72283 122.51C8.56835 120.928 9.73848 118.255 10.0785 117.122L11.9423 117.681C11.5661 118.935 10.3339 121.832 8.23812 123.766C8.22294 123.863 8.21148 123.971 8.20718 124.086C8.19846 124.317 8.22102 124.52 8.267 124.668C8.28903 124.74 8.31236 124.785 8.32971 124.811C8.34541 124.834 8.35493 124.84 8.35623 124.841L8.3563 124.841C8.35757 124.842 8.36042 124.844 8.36638 124.846C8.37246 124.849 8.3846 124.853 8.40491 124.856C8.44588 124.863 8.526 124.869 8.65788 124.847C9.0166 124.787 9.46083 124.56 9.98877 124.121C10.5017 123.696 11.0232 123.13 11.5439 122.499C11.606 122.415 11.6728 122.333 11.7442 122.253C12.4957 121.317 13.1928 120.145 13.7757 118.833L15.5538 119.624C14.9107 121.071 14.1247 122.401 13.2434 123.494C13.1906 123.559 13.1374 123.624 13.0838 123.69C12.9315 123.907 12.9077 124.073 12.9147 124.179C12.9225 124.296 12.9723 124.41 13.0623 124.505C13.2491 124.704 13.5362 124.766 13.8009 124.607C14.0912 124.432 14.4791 124.238 14.88 124.036C15.1333 123.909 15.3917 123.779 15.634 123.65C16.3208 123.285 17.0973 122.823 17.9324 122.159C19.5953 120.837 21.5563 118.659 23.4458 114.725C23.6046 114.395 23.911 113.934 24.2664 113.426C24.6332 112.902 25.1021 112.259 25.6297 111.535L25.6424 111.518C26.7129 110.05 28.0422 108.227 29.3508 106.264C32.5932 101.4 35.4254 95.9173 37.2895 92.033C38.3996 89.7198 37.3724 86.9669 35.0036 85.856L34.8753 85.7959L35.2884 84.915L34.8753 85.7959ZM11.3748 125.497C11.4546 125.618 11.5451 125.733 11.6453 125.839C12.3894 126.63 13.6686 126.955 14.802 126.275C15.0488 126.127 15.3111 125.996 15.6379 125.834C15.8938 125.706 16.1893 125.559 16.5477 125.368C17.3032 124.966 18.1881 124.442 19.1435 123.682C21.0616 122.157 23.1977 119.736 25.1998 115.568C25.2784 115.404 25.49 115.071 25.8606 114.541C26.2165 114.033 26.6763 113.402 27.2123 112.668L27.2145 112.664C28.2833 111.199 29.6354 109.345 30.9698 107.343C34.2851 102.37 37.1626 96.7947 39.0438 92.8748C40.6435 89.5413 39.1316 85.6427 35.8297 84.0943L35.4166 84.9752L35.8297 84.0943L35.7015 84.0342C31.9182 82.26 27.5922 84.3017 25.952 87.9678C23.1036 94.3343 17.8575 102.374 8.47609 105.893C5.47114 107.02 2.72854 108.593 0.821826 110.501C0.326829 110.997 0.0230474 111.584 0.00125089 112.223C-0.0204563 112.86 0.242714 113.406 0.606911 113.807C1.30092 114.571 2.48851 114.962 3.57196 114.691C4.62147 114.428 5.46122 114.52 5.92071 114.775C6.12993 114.89 6.25034 115.031 6.31587 115.195C6.38431 115.365 6.42683 115.647 6.32331 116.091C6.19526 116.641 6.01066 117.186 5.75492 117.697C5.07248 119.062 4.39587 119.907 3.83404 120.555C3.75704 120.644 3.67741 120.735 3.59757 120.825C3.39838 121.051 3.19792 121.279 3.03378 121.487C2.79227 121.794 2.55517 122.148 2.41284 122.576C2.01189 123.781 2.86258 124.885 3.95971 125.228C4.67329 125.451 5.49226 125.395 6.35099 125.032C6.36759 125.103 6.38669 125.175 6.40853 125.245C6.5397 125.668 6.79469 126.138 7.27399 126.458C7.76586 126.788 8.35794 126.869 8.97777 126.766C9.82416 126.625 10.585 126.156 11.2318 125.618C11.2797 125.579 11.3274 125.538 11.3748 125.497ZM4.26717 123.156C4.2673 123.156 4.26734 123.157 4.26689 123.16C4.26681 123.157 4.26704 123.156 4.26717 123.156Z" fill="black"/>
<path d="M112.546 90.4428C106.19 89.6655 100.281 84.3574 96.0528 79.6681C93.6324 76.9839 89.4257 76.8239 87.0164 79.518L86.3272 80.2886C84.3714 82.4756 84.3436 85.7715 86.3521 87.9102C88.49 90.1866 91.3415 93.0816 94.071 95.4104C97.6957 98.5031 102.132 100.863 102.536 101.882C105.151 108.477 112.216 109.444 114.319 109.789C115.928 110.054 116.945 107.915 115.304 106.877C116.797 107.701 118.357 108.365 119.551 108.107C121.289 107.733 120.508 105.893 119.967 105.191C123.153 106.286 124.312 104.254 123.569 103.369C122.826 102.484 121.197 102.344 118.76 100.165C118.268 99.7255 117.847 99.2277 117.489 98.7114C116.107 96.7189 117.798 95.1968 120.201 94.8764C121.695 94.6772 122.852 92.6457 120.955 91.8254C118.647 90.8269 115.667 90.3843 112.546 90.4428Z" fill="#F4E079"/>
<path fill-rule="evenodd" clip-rule="evenodd" d="M87.7392 80.1663C89.7303 77.9399 93.2614 78.0277 95.3279 80.3193C97.4664 82.691 100.053 85.2459 102.932 87.3125C105.805 89.3751 109.025 90.9924 112.425 91.4082L112.493 91.4165L112.562 91.4153C115.596 91.3585 118.426 91.7921 120.567 92.718C120.872 92.8502 120.94 92.9777 120.954 93.0092C120.968 93.0431 120.985 93.1128 120.937 93.241C120.822 93.5455 120.457 93.8602 120.07 93.9117C118.739 94.0892 117.439 94.6153 116.672 95.5489C116.273 96.0338 116.019 96.6326 116.017 97.3124C116.014 97.9845 116.256 98.6444 116.687 99.2655C117.081 99.8341 117.552 100.392 118.109 100.89C119.408 102.052 120.5 102.675 121.349 103.116C121.493 103.19 121.622 103.256 121.739 103.316C121.981 103.439 122.174 103.537 122.355 103.643C122.592 103.78 122.723 103.883 122.805 103.976C122.813 104.007 122.818 104.111 122.627 104.266C122.38 104.465 121.681 104.752 120.281 104.27C117.982 103.48 115.909 101.427 115.175 100.499L113.649 101.706C114.461 102.733 116.674 104.972 119.335 105.996C119.385 106.081 119.436 106.178 119.482 106.282C119.575 106.494 119.629 106.692 119.641 106.846C119.647 106.92 119.642 106.971 119.635 107.002C119.629 107.029 119.623 107.039 119.622 107.04L119.622 107.04C119.621 107.041 119.619 107.044 119.614 107.048C119.609 107.053 119.6 107.061 119.582 107.072C119.547 107.093 119.474 107.128 119.343 107.156C118.988 107.233 118.491 107.185 117.839 106.972C117.205 106.766 116.512 106.432 115.795 106.037C115.706 105.982 115.614 105.931 115.518 105.883C114.475 105.289 113.395 104.457 112.369 103.453L111.008 104.843C112.139 105.951 113.36 106.897 114.582 107.589C114.655 107.63 114.729 107.671 114.803 107.712C115.024 107.858 115.108 108.004 115.14 108.105C115.176 108.216 115.172 108.34 115.123 108.462C115.023 108.716 114.779 108.879 114.474 108.829C114.426 108.821 114.375 108.813 114.323 108.804C112.005 108.426 105.772 107.41 103.438 101.523C103.312 101.206 103.083 100.944 102.892 100.752C102.684 100.542 102.427 100.326 102.148 100.108C101.591 99.6732 100.859 99.1684 100.058 98.6206C99.9842 98.5698 99.9094 98.5187 99.8339 98.467C98.2559 97.3875 96.3851 96.1077 94.7001 94.67C92.0111 92.3757 89.188 89.5109 87.0589 87.2439C85.4107 85.4889 85.4158 82.7643 87.05 80.9369L87.7392 80.1663ZM117.057 108.762C117.117 108.783 117.176 108.803 117.235 108.822C118.034 109.083 118.915 109.239 119.754 109.058C120.368 108.926 120.888 108.631 121.224 108.144C121.551 107.669 121.615 107.139 121.581 106.697C121.575 106.624 121.567 106.55 121.556 106.478C122.488 106.498 123.27 106.249 123.851 105.778C124.745 105.055 125.128 103.715 124.311 102.743C124.021 102.398 123.671 102.156 123.333 101.96C123.104 101.827 122.833 101.689 122.565 101.552C122.457 101.498 122.35 101.443 122.246 101.389C121.484 100.993 120.544 100.457 119.406 99.4398C118.98 99.0586 118.608 98.6208 118.286 98.1567C118.026 97.7816 117.962 97.5041 117.962 97.3204C117.963 97.1444 118.023 96.9691 118.175 96.7844C118.508 96.3787 119.255 95.9835 120.327 95.8405C121.434 95.6929 122.394 94.8923 122.758 93.9261C122.949 93.4191 122.992 92.8146 122.737 92.2307C122.481 91.6443 121.982 91.2102 121.339 90.9321C118.882 89.869 115.78 89.4163 112.595 89.4685C109.663 89.0941 106.774 87.6753 104.067 85.7318C101.345 83.7777 98.8628 81.3339 96.7729 79.0163C93.9986 75.9395 89.1164 75.7073 86.2888 78.8692L85.5996 79.6398C83.3222 82.1864 83.2717 86.0537 85.6405 88.576C87.7873 90.8618 90.6673 93.787 93.4372 96.1503C95.2035 97.6574 97.1518 98.99 98.7159 100.06C98.7981 100.116 98.8792 100.171 98.9592 100.226C99.7714 100.782 100.451 101.252 100.952 101.642C101.202 101.838 101.386 101.997 101.512 102.123C101.599 102.21 101.632 102.257 101.64 102.267C104.399 109.181 111.649 110.346 113.944 110.714C114.021 110.727 114.093 110.738 114.159 110.749C115.463 110.963 116.532 110.189 116.932 109.18C116.986 109.044 117.028 108.904 117.057 108.762ZM122.802 103.966C122.801 103.966 122.802 103.967 122.803 103.97C122.802 103.967 122.802 103.966 122.802 103.966Z" fill="black"/>
<path d="M83.3871 120.323C88.0431 115.177 85.1504 99.9143 82.1556 89.5148C81.2857 86.4942 78.0826 84.8751 75.0776 85.7973L68.2456 87.8941C65.1392 88.8474 63.4166 92.1516 64.2422 95.2943C65.7927 101.197 67.1771 108.313 65.8914 110.456C63.6987 114.11 48.7157 124.343 45.0613 126.901C41.407 129.459 39.2143 146.269 45.0613 146.269C49.739 146.269 51.3956 142.099 51.6392 140.014C61.8938 139.73 78.3508 125.889 83.3871 120.323Z" fill="#F4E079"/>
<path fill-rule="evenodd" clip-rule="evenodd" d="M75.3652 86.7251C77.8815 85.9528 80.5124 87.3147 81.2229 89.7817C82.7113 94.9503 84.1657 101.3 84.6736 106.973C84.9276 109.811 84.9414 112.444 84.6195 114.658C84.2953 116.889 83.646 118.587 82.6679 119.668C80.2066 122.388 74.8912 127.192 68.9166 131.348C65.9331 133.424 62.8069 135.322 59.8098 136.716C56.7993 138.115 53.9875 138.973 51.6145 139.039C50.5674 139.068 49.595 139.081 48.7179 139.081V141.027C49.2577 141.027 49.8316 141.022 50.4351 141.012C50.2093 141.753 49.8291 142.587 49.2518 143.318C48.382 144.419 47.0666 145.294 45.0635 145.294C44.2137 145.294 43.5046 144.732 43.0023 143.282C42.5024 141.838 42.3382 139.803 42.4716 137.601C42.6041 135.415 43.0244 133.155 43.625 131.304C43.9253 130.379 44.264 129.576 44.6214 128.944C44.9865 128.298 45.3339 127.897 45.6215 127.695C45.9154 127.49 46.2841 127.233 46.7148 126.934C48.9471 125.381 52.8426 122.672 56.6079 119.867C58.8535 118.195 61.0659 116.478 62.8599 114.945C64.6145 113.445 66.0858 112.024 66.7278 110.954C67.1851 110.192 67.3413 109.131 67.3689 108.035C67.3975 106.902 67.2897 105.57 67.0966 104.151C66.7098 101.311 65.9652 98.0132 65.1854 95.0448C64.4846 92.3771 65.9545 89.6132 68.5332 88.8218L75.3652 86.7251ZM52.4665 140.938C52.2191 142.031 51.6963 143.362 50.7787 144.524C49.5898 146.029 47.7381 147.24 45.0635 147.24C42.9899 147.24 41.7804 145.7 41.1636 143.918C40.5443 142.13 40.3887 139.803 40.5294 137.483C40.671 135.147 41.1186 132.724 41.7742 130.704C42.102 129.693 42.4885 128.763 42.9276 127.986C43.3591 127.223 43.8795 126.54 44.5056 126.101C44.8041 125.892 45.1768 125.633 45.6107 125.331C47.8464 123.777 51.7091 121.09 55.4455 118.307C57.6765 116.645 59.8494 114.958 61.5956 113.466C63.3812 111.939 64.605 110.71 65.0593 109.953C65.2449 109.644 65.3978 109.012 65.4237 107.986C65.4487 106.998 65.3546 105.78 65.1685 104.414C64.7969 101.685 64.0741 98.4731 63.3034 95.5392C62.353 91.9213 64.3283 88.0769 67.9624 86.9616L74.7943 84.8649C78.2881 83.7926 82.0634 85.6689 83.0927 89.2432C84.5991 94.474 86.0885 100.955 86.6117 106.8C86.8732 109.721 86.8968 112.519 86.5451 114.938C86.1958 117.342 85.4606 119.481 84.1108 120.973C81.5357 123.819 76.1044 128.719 70.0278 132.946C66.9858 135.062 63.7601 137.025 60.6302 138.48C57.8111 139.791 55.0133 140.717 52.4665 140.938Z" fill="black"/>
<path d="M40.2008 120.323C35.5273 115.158 38.4592 99.8004 41.4659 89.3988C42.325 86.4267 45.4506 84.8031 48.4274 85.6456L56.6868 87.9831C59.8618 88.8817 61.6547 92.2295 60.8198 95.4219C59.2829 101.299 57.9275 108.329 59.204 110.456C61.3966 114.111 80.5108 119.635 84.1652 122.193C87.8195 124.751 90.0122 141.561 84.1652 141.561C79.4875 141.561 77.8309 137.391 77.5873 135.306C67.3327 135.022 45.2371 125.89 40.2008 120.323Z" fill="#F4E079"/>
<path fill-rule="evenodd" clip-rule="evenodd" d="M48.1593 86.5795C45.6671 85.8742 43.0993 87.2385 42.3974 89.6667C40.903 94.8363 39.4359 101.21 38.9191 106.91C38.6605 109.761 38.6432 112.408 38.9638 114.634C39.2868 116.876 39.9372 118.583 40.919 119.668C42.0658 120.936 44.273 122.487 47.1966 124.121C50.0942 125.741 53.611 127.396 57.2996 128.892C64.7137 131.898 72.6665 134.195 77.611 134.331C78.6581 134.36 79.6306 134.374 80.5076 134.374V136.319C79.9679 136.319 79.394 136.315 78.7905 136.304C79.0162 137.046 79.3964 137.879 79.9738 138.61C80.8435 139.711 82.1589 140.586 84.162 140.586C85.0118 140.586 85.721 140.025 86.2233 138.574C86.7231 137.131 86.8873 135.095 86.7539 132.893C86.6214 130.707 86.2012 128.448 85.6005 126.597C85.3002 125.671 84.9615 124.868 84.6041 124.236C84.239 123.59 83.8916 123.189 83.6041 122.988C82.8016 122.426 81.038 121.642 78.6676 120.695C77.351 120.169 75.9036 119.614 74.3945 119.036C73.2158 118.584 71.9995 118.118 70.7785 117.639C68.0208 116.56 65.2777 115.433 63.0792 114.341C61.9805 113.795 60.9955 113.247 60.2038 112.706C59.4351 112.18 58.7521 111.597 58.3665 110.955C57.9123 110.198 57.7555 109.146 57.7261 108.06C57.6957 106.937 57.8002 105.619 57.9895 104.213C58.3684 101.399 59.1024 98.1292 59.8754 95.1735C60.5842 92.463 59.0541 89.6629 56.4187 88.917L48.1593 86.5795ZM76.761 136.239C77.0093 137.33 77.5317 138.658 78.4468 139.816C79.6357 141.322 81.4875 142.532 84.162 142.532C86.2357 142.532 87.4451 140.992 88.062 139.211C88.6813 137.422 88.8368 135.096 88.6962 132.775C88.5546 130.439 88.1069 128.016 87.4513 125.996C87.1235 124.986 86.7371 124.055 86.298 123.279C85.8665 122.515 85.346 121.832 84.7199 121.394C83.6952 120.676 81.6991 119.811 79.3893 118.888C78.0717 118.362 76.5932 117.795 75.0654 117.209C73.8852 116.757 72.6756 116.293 71.488 115.828C68.7363 114.75 66.0613 113.65 63.945 112.599C62.8863 112.073 61.9897 111.57 61.3022 111.1C60.5916 110.614 60.1976 110.224 60.0351 109.954C59.8511 109.647 59.6987 109.022 59.6712 108.008C59.6447 107.03 59.7358 105.825 59.9179 104.473C60.2818 101.771 60.994 98.587 61.7579 95.6658C62.7188 91.9915 60.6632 88.096 56.9486 87.0447L48.6892 84.7072C45.2277 83.7276 41.5444 85.6103 40.5281 89.1263C39.0157 94.3583 37.5136 100.864 36.9812 106.734C36.7151 109.669 36.6878 112.48 37.0379 114.911C37.3857 117.326 38.1213 119.476 39.4761 120.974C40.8475 122.489 43.2909 124.167 46.2472 125.82C49.2295 127.487 52.8218 129.176 56.5685 130.695C63.6617 133.571 71.4481 135.893 76.761 136.239Z" fill="black"/>
<path d="M46.9043 5.57027L19.346 72.5371C18.5296 74.521 18.8672 76.7929 20.2252 78.4538L37.4453 99.5137C39.1902 101.648 42.1902 102.27 44.6402 101.007L71.4867 87.1603C72.3141 86.7336 73.2315 86.5109 74.1625 86.5109H97.2844C100.166 86.5109 102.048 83.4888 100.777 80.9029L73.0319 24.4451C72.8418 24.0581 72.6093 23.6933 72.3387 23.3575L56.8484 4.12956C54.0639 0.673201 48.5934 1.46578 46.9043 5.57027Z" fill="#EBF479"/>
<path fill-rule="evenodd" clip-rule="evenodd" d="M17.5462 71.7897L45.1045 4.82285C47.3566 -0.649792 54.6506 -1.70657 58.3633 2.90192L73.8536 22.1299C74.2143 22.5776 74.5243 23.0639 74.7779 23.5799L102.523 80.0377C104.429 83.9166 101.606 88.4498 97.284 88.4498H74.162C73.5414 88.4498 72.9298 88.5983 72.3782 88.8828L45.5317 102.729C42.265 104.414 38.2651 103.584 35.9385 100.738L18.7184 79.6785C16.9077 77.4641 16.4576 74.4349 17.5462 71.7897ZM19.3456 72.5302L46.9039 5.56335C48.593 1.45886 54.0635 0.666287 56.848 4.12265L72.3383 23.3506C72.6088 23.6864 72.8413 24.0511 73.0315 24.4381L100.777 80.8959C102.047 83.4818 100.165 86.504 97.284 86.504H74.162C73.2311 86.504 72.3136 86.7267 71.4863 87.1534L44.6397 101C42.1898 102.263 39.1898 101.641 37.4448 99.5067L20.2248 78.4468C18.8668 76.786 18.5292 74.5141 19.3456 72.5302Z" fill="black"/>
<path d="M46.9044 5.57025L19.346 72.5371C18.5296 74.5211 18.8672 76.7929 20.2252 78.4538L36.2922 98.1035C38.1612 100.389 41.7951 99.8426 42.909 97.1082L71.4481 27.0485C72.2489 25.0826 71.9194 22.8371 70.5878 21.1841L56.8484 4.12957C54.0639 0.673212 48.5934 1.46576 46.9044 5.57025Z" fill="#F4E079"/>
<path fill-rule="evenodd" clip-rule="evenodd" d="M78.4766 77.4448C78.88 77.7996 78.9194 78.4144 78.5645 78.8178L77.834 78.1753C78.5645 78.8178 78.5643 78.818 78.5642 78.8182L78.5638 78.8186L78.5629 78.8196L78.5604 78.8225L78.5525 78.8314L78.5254 78.8615C78.5024 78.8869 78.4696 78.9228 78.4275 78.9679C78.3434 79.058 78.2221 79.1851 78.0679 79.339C77.7601 79.6463 77.3183 80.0635 76.7778 80.5078C75.7144 81.3818 74.1932 82.4239 72.5103 82.8784C69.6307 83.656 67.4817 82.5304 66.5076 81.84C66.0692 81.5293 65.9657 80.9221 66.2764 80.4837C66.5871 80.0453 67.1944 79.9418 67.6328 80.2525C68.3428 80.7558 69.8917 81.57 72.003 80.9998C73.2927 80.6515 74.5601 79.8117 75.5423 79.0045C76.0245 78.6082 76.4197 78.235 76.6932 77.9619C76.8296 77.8257 76.935 77.7152 77.005 77.6402C77.0399 77.6028 77.066 77.5742 77.0826 77.5559L77.1004 77.5362L77.1035 77.5327L77.1037 77.5324C77.4586 77.1292 78.0732 77.0899 78.4766 77.4448Z" fill="black"/>
<path fill-rule="evenodd" clip-rule="evenodd" d="M66.9952 72.8578C67.4148 73.1934 67.4828 73.8057 67.1472 74.2253C66.2456 75.3522 65.1524 75.882 64.148 76.0255C63.2011 76.1607 62.2545 75.9568 61.6782 75.4958C61.2586 75.1601 61.1906 74.5479 61.5262 74.1283C61.8619 73.7087 62.4741 73.6407 62.8937 73.9764C62.8934 73.9761 62.8934 73.9761 62.8938 73.9764C62.8965 73.9783 62.9186 73.9938 62.9671 74.0149C63.0199 74.0378 63.0926 74.0624 63.1844 74.0822C63.3686 74.1219 63.606 74.1373 63.8728 74.0992C64.391 74.0252 65.0378 73.7471 65.6277 73.0097C65.9634 72.5901 66.5756 72.5221 66.9952 72.8578Z" fill="black"/>
<path fill-rule="evenodd" clip-rule="evenodd" d="M81.1666 68.7562C81.5862 69.0919 81.6542 69.7041 81.3186 70.1237C80.417 71.2506 79.3238 71.7804 78.3194 71.9239C77.3725 72.0592 76.4258 71.8553 75.8495 71.3942C75.43 71.0586 75.3619 70.4463 75.6976 70.0267C76.0333 69.6072 76.6455 69.5391 77.0651 69.8748C77.0648 69.8746 77.0648 69.8746 77.0652 69.8748C77.0679 69.8767 77.09 69.8923 77.1385 69.9133C77.1913 69.9362 77.264 69.9608 77.3557 69.9806C77.54 70.0203 77.7774 70.0358 78.0442 69.9976C78.5624 69.9236 79.2092 69.6455 79.7991 68.9081C80.1348 68.4886 80.747 68.4205 81.1666 68.7562Z" fill="black"/>
</svg>
