<svg width="141" height="141" viewBox="0 0 141 141" fill="none" xmlns="http://www.w3.org/2000/svg">
<g filter="url(#filter0_d_4104_4594)">
<path d="M70.7211 15.56C75.2385 11.9336 81.8824 12.8923 85.1904 17.6479L88.4177 22.2876C90.3844 25.115 93.6677 26.7313 97.1078 26.5657L102.753 26.294C108.539 26.0155 113.351 30.6963 113.232 36.4879L113.116 42.1386C113.045 45.582 114.751 48.8194 117.631 50.7075L122.358 53.8059C127.203 56.9816 128.344 63.5966 124.844 68.2122L121.428 72.7154C119.347 75.4595 118.825 79.0815 120.045 82.3021L122.048 87.5871C124.101 93.0041 121.136 99.0266 115.591 100.703L110.181 102.339C106.884 103.335 104.333 105.959 103.427 109.281L101.941 114.734C100.418 120.323 94.4793 123.453 89.0078 121.55L83.6697 119.693C80.4167 118.562 76.8105 119.184 74.1247 121.34L69.7173 124.878C65.1998 128.505 58.5559 127.546 55.248 122.79L52.0206 118.151C50.0539 115.323 46.7707 113.707 43.3305 113.873L37.6852 114.144C31.8991 114.423 27.0875 109.742 27.2066 103.95L27.3227 98.2998C27.3935 94.8564 25.6874 91.6189 22.8069 89.7308L18.0801 86.6325C13.2352 83.4567 12.0939 76.8417 15.5945 72.2261L19.0099 67.723C21.0911 64.9788 21.6137 61.3568 20.3932 58.1362L18.3903 52.8512C16.3374 47.4343 19.3022 41.4118 24.8472 39.7353L30.2572 38.0996C33.5539 37.1029 36.1057 34.4798 37.0113 31.1569L38.4974 25.7039C40.0205 20.1149 45.9591 16.9853 51.4305 18.8882L56.7687 20.7449C60.0216 21.8763 63.6279 21.2541 66.3137 19.098L70.7211 15.56Z" fill="white"/>
<path d="M85.6008 17.3624C82.1275 12.369 75.1514 11.3624 70.4081 15.1701L66.0007 18.7081C63.4492 20.7563 60.0232 21.3474 56.9329 20.2726L51.5947 18.416C45.8497 16.4179 39.6143 19.704 38.0149 25.5725L36.5289 31.0254C35.6686 34.1822 33.2444 36.6741 30.1125 37.621L24.7025 39.2567C18.8803 41.017 15.7672 47.3406 17.9227 53.0284L19.9257 58.3134C21.0852 61.373 20.5887 64.8139 18.6115 67.4208L15.1961 71.924C11.5205 76.7704 12.7189 83.7161 17.806 87.0506L22.5328 90.149C25.2693 91.9427 26.8901 95.0183 26.8228 98.2895L26.7067 103.94C26.5817 110.021 31.6338 114.936 37.7093 114.644L43.3546 114.372C46.6227 114.215 49.7418 115.75 51.6101 118.436L54.8375 123.076C58.3108 128.069 65.287 129.076 70.0303 125.268L74.4377 121.73C76.9892 119.682 80.4151 119.091 83.5054 120.166L88.8436 122.022C94.5886 124.02 100.824 120.734 102.423 114.866L103.909 109.413C104.77 106.256 107.194 103.764 110.326 102.817L115.736 101.182C121.558 99.4213 124.671 93.0977 122.516 87.4099L120.513 82.1249C119.353 79.0654 119.85 75.6245 121.827 73.0175L125.242 68.5143C128.918 63.668 127.719 56.7222 122.632 53.3877L117.905 50.2894C115.169 48.4957 113.548 45.4201 113.615 42.1489L113.732 36.4982C113.857 30.417 108.805 25.5021 102.729 25.7946L97.0838 26.0663C93.8156 26.2236 90.6966 24.6881 88.8282 22.0021L85.6008 17.3624Z" stroke="#979ABE"/>
</g>
<path d="M73.0624 19.8059C75.7729 17.6301 79.7592 18.2053 81.744 21.0586L87.2705 29.0036C88.4505 30.7001 90.4205 31.6698 92.4845 31.5705L102.151 31.1052C105.623 30.9381 108.51 33.7466 108.439 37.2216L108.24 46.8976C108.197 48.9636 109.221 50.9061 110.949 52.039L119.043 57.3446C121.95 59.25 122.635 63.219 120.535 65.9884L114.686 73.6996C113.438 75.346 113.124 77.5192 113.856 79.4516L117.286 88.5016C118.518 91.7517 116.739 95.3652 113.412 96.3711L104.148 99.172C102.17 99.7701 100.639 101.344 100.096 103.338L97.5509 112.675C96.637 116.029 93.0738 117.906 89.791 116.765L80.65 113.585C78.6982 112.907 76.5345 113.28 74.923 114.573L67.3758 120.632C64.6653 122.808 60.679 122.233 58.6942 119.379L53.1677 111.434C51.9877 109.738 50.0178 108.768 47.9537 108.867L38.2868 109.333C34.8151 109.5 31.9281 106.691 31.9996 103.216L32.1985 93.5403C32.241 91.4742 31.2173 89.5317 29.489 88.3989L21.3948 83.0933C18.4879 81.1878 17.8031 77.2188 19.9035 74.4495L25.7519 66.7383C27.0006 65.0918 27.3142 62.9186 26.5819 60.9863L23.1521 51.9363C21.9203 48.6861 23.6993 45.0726 27.0263 44.0667L36.2902 41.2659C38.2682 40.6678 39.7993 39.094 40.3427 37.1002L42.8874 27.7627C43.8013 24.4092 47.3644 22.5315 50.6472 23.6732L59.7882 26.8525C61.74 27.5313 63.9038 27.158 65.5152 25.8644L73.0624 19.8059Z" fill="url(#paint0_linear_4104_4594)"/>
<path d="M43.8977 80.9711C41.6542 80.6474 39.7263 79.9112 38.1138 78.7625C36.5316 77.5911 35.3797 76.0509 34.6584 74.1416C33.9408 72.2059 33.7724 69.9184 34.1533 67.2791C34.5912 64.2439 35.4491 61.6599 36.7268 59.5272C38.0347 57.3719 39.717 55.796 41.7737 54.7995C43.8304 53.803 46.2444 53.5047 49.0157 53.9046C50.7577 54.156 52.3541 54.6693 53.8049 55.4444C55.2822 56.2234 56.4555 57.2414 57.3248 58.4984L54.4108 63.0085C53.3374 62.0453 52.3465 61.35 51.4383 60.9226C50.5564 60.4989 49.7196 60.23 48.9278 60.1157C48.0832 59.9939 47.1894 60.0266 46.2463 60.2138C45.3296 60.4048 44.5106 60.8524 43.7893 61.5567C43.068 62.2609 42.563 63.3331 42.2744 64.7733C42.9426 64.25 43.7804 63.859 44.7877 63.6002C45.8214 63.3452 46.9057 63.2996 48.0406 63.4634C49.9145 63.7338 51.4731 64.3224 52.7163 65.2292C53.9859 66.1399 54.8988 67.282 55.4551 68.6555C56.0113 70.029 56.1675 71.5604 55.9237 73.2495C55.6762 74.9651 55.0292 76.4614 53.9828 77.7383C52.9363 79.0153 51.5472 79.9599 49.8153 80.5722C48.1137 81.1619 46.1411 81.2949 43.8977 80.9711ZM44.3815 74.8172C45.4637 74.9733 46.3501 74.8049 47.041 74.3118C47.762 73.7962 48.1854 73.1029 48.311 72.2319C48.4367 71.3609 48.2247 70.5894 47.6751 69.9173C47.1556 69.2227 46.3549 68.7973 45.2727 68.6411C44.1906 68.485 43.289 68.6647 42.568 69.1804C41.8772 69.6734 41.4689 70.3554 41.3432 71.2264C41.3759 72.1203 41.6388 72.9126 42.1318 73.6034C42.6287 74.2679 43.3786 74.6724 44.3815 74.8172ZM68.3367 84.4976C65.6974 84.1168 63.5906 83.22 62.0162 81.8074C60.472 80.3721 59.4242 78.5774 58.8729 76.4233C58.3254 74.2427 58.242 71.8328 58.6229 69.1934C59.0037 66.5541 59.7631 64.2792 60.9009 62.3688C62.0426 60.432 63.555 59.0067 65.4381 58.093C67.3514 57.1567 69.6278 56.8789 72.2671 57.2598C74.9064 57.6406 76.9982 58.5487 78.5424 59.9839C80.1168 61.3966 81.1777 63.1932 81.7252 65.3737C82.2766 67.5279 82.3618 69.9246 81.981 72.564C81.6001 75.2033 80.8389 77.4914 79.6972 79.4282C78.5594 81.3386 77.0338 82.762 75.1204 83.6983C73.2373 84.612 70.9761 84.8785 68.3367 84.4976ZM69.2165 78.4008C70.0875 78.5265 70.8627 78.3824 71.5421 77.9685C72.2215 77.5546 72.7995 76.8163 73.2762 75.7535C73.7529 74.6906 74.1207 73.2619 74.3797 71.4671C74.6425 69.646 74.6936 68.1715 74.533 67.0437C74.3762 65.8894 74.0305 65.0178 73.4958 64.4287C72.9612 63.8397 72.2583 63.4823 71.3873 63.3566C70.5428 63.2347 69.7676 63.3788 69.0618 63.7889C68.3824 64.2028 67.8043 64.9411 67.3276 66.0039C66.8548 67.0404 66.4869 68.4692 66.2242 70.2903C65.9652 72.085 65.9141 73.5595 66.0708 74.7137C66.2276 75.868 66.5733 76.7396 67.108 77.3287C67.6691 77.9215 68.3719 78.2789 69.2165 78.4008Z" fill="white"/>
<path d="M88.7716 70.8769L95.9673 61.1166L97.8676 61.3908L90.6719 71.1511L88.7716 70.8769ZM89.1464 66.5986C88.5236 66.5087 88.0261 66.2968 87.6539 65.9629C87.2818 65.629 87.0305 65.2048 86.9 64.6902C86.7695 64.1756 86.7491 63.6069 86.839 62.984C86.9289 62.3611 87.1092 61.8213 87.3798 61.3646C87.6505 60.908 88.0115 60.5721 88.4629 60.357C88.9142 60.1419 89.4513 60.0793 90.0742 60.1692C90.7076 60.2606 91.2051 60.4725 91.5667 60.8049C91.9388 61.1388 92.1902 61.563 92.3207 62.0776C92.4512 62.5922 92.4715 63.1609 92.3816 63.7838C92.2917 64.4067 92.1115 64.9465 91.8408 65.4032C91.5701 65.8598 91.2091 66.1957 90.7578 66.4108C90.317 66.6274 89.7799 66.69 89.1464 66.5986ZM89.391 64.9042C89.6127 64.9361 89.7915 64.8542 89.9276 64.6583C90.0636 64.4624 90.1743 64.0688 90.2596 63.4776C90.3449 62.8864 90.35 62.4776 90.2749 62.2512C90.1998 62.0248 90.0514 61.8956 89.8297 61.8636C89.608 61.8317 89.4291 61.9136 89.2931 62.1095C89.157 62.3054 89.0464 62.699 88.961 63.2902C88.8757 63.8814 88.8706 64.2902 88.9457 64.5166C89.0208 64.743 89.1692 64.8722 89.391 64.9042ZM96.565 72.0985C95.9421 72.0086 95.4446 71.7967 95.0725 71.4628C94.7004 71.1289 94.4491 70.7047 94.3185 70.1901C94.188 69.6755 94.1677 69.1068 94.2576 68.4839C94.3475 67.861 94.5277 67.3212 94.7984 66.8645C95.0691 66.4078 95.4301 66.072 95.8814 65.8569C96.3328 65.6418 96.8699 65.5792 97.4928 65.6691C98.1262 65.7605 98.6237 65.9724 98.9853 66.3048C99.3574 66.6387 99.6087 67.0629 99.7392 67.5775C99.8697 68.0921 99.8901 68.6608 99.8002 69.2837C99.7103 69.9066 99.53 70.4463 99.2594 70.903C98.9887 71.3597 98.6277 71.6956 98.1764 71.9107C97.7356 72.1273 97.1985 72.1899 96.565 72.0985ZM96.8095 70.404C97.0312 70.436 97.2101 70.3541 97.3461 70.1582C97.4822 69.9622 97.5929 69.5687 97.6782 68.9775C97.7635 68.3863 97.7686 67.9775 97.6935 67.7511C97.6184 67.5247 97.47 67.3955 97.2483 67.3635C97.0266 67.3315 96.8477 67.4135 96.7116 67.6094C96.5756 67.8053 96.4649 68.1989 96.3796 68.7901C96.2943 69.3813 96.2892 69.7901 96.3643 70.0165C96.4394 70.2429 96.5878 70.372 96.8095 70.404Z" fill="white"/>
<path d="M87.8576 86.0615C87.0974 85.9518 86.4446 85.696 85.8991 85.2939C85.3551 84.8813 84.9614 84.3611 84.7179 83.7332C84.4744 83.1054 84.409 82.4008 84.5218 81.6196C84.6345 80.8383 84.8964 80.181 85.3075 79.6476C85.7185 79.1141 86.2425 78.7317 86.8794 78.5003C87.5179 78.2583 88.2171 78.1922 88.9773 78.3019C89.7479 78.4131 90.4 78.6742 90.9334 79.0853C91.4789 79.4873 91.8734 80.0023 92.1169 80.6301C92.3604 81.258 92.4258 81.9626 92.3131 82.7438C92.2003 83.5251 91.9384 84.1824 91.5274 84.7158C91.1163 85.2493 90.5916 85.637 89.9531 85.8789C89.3268 86.1119 88.6282 86.1727 87.8576 86.0615ZM88.0449 84.763C88.52 84.8315 88.9523 84.7861 89.3417 84.6268C89.7311 84.4674 90.0482 84.2114 90.2931 83.8588C90.5501 83.4971 90.7166 83.0523 90.7928 82.5245C90.869 81.9966 90.8342 81.5282 90.6884 81.1191C90.5548 80.7011 90.3237 80.3606 89.9952 80.0977C89.6667 79.8347 89.265 79.669 88.7899 79.6004C88.3148 79.5319 87.8826 79.5773 87.4931 79.7366C87.1037 79.896 86.7805 80.1565 86.5236 80.5182C86.2787 80.8708 86.1182 81.3111 86.042 81.8389C85.9658 82.3668 85.9946 82.8397 86.1283 83.2578C86.274 83.6668 86.5111 84.0028 86.8396 84.2657C87.1681 84.5287 87.5699 84.6944 88.0449 84.763ZM94.5607 86.8671L95.4519 80.6911L93.8208 80.4557L94.0036 79.1888L95.6347 79.4242L95.7764 78.4424C95.8876 77.6717 96.1539 77.1335 96.5752 76.8279C97.0085 76.5132 97.6106 76.4115 98.3813 76.5227C98.5924 76.5532 98.7967 76.5934 98.9943 76.6435C99.2024 76.6951 99.372 76.7519 99.5032 76.8139L99.3295 78.0175C99.2375 77.9826 99.1079 77.9477 98.9405 77.9128C98.7731 77.8779 98.626 77.8513 98.4993 77.833C98.1298 77.7797 97.8416 77.8351 97.6347 77.9992C97.4294 78.1528 97.3008 78.4091 97.249 78.768L97.1233 79.639L99.0553 79.9178L98.8725 81.1846L96.9405 80.9059L96.0493 87.0819L94.5607 86.8671ZM100.36 87.7039L101.251 81.5279L99.6201 81.2925L99.8029 80.0257L101.434 80.261L101.576 79.2792C101.687 78.5085 101.953 77.9703 102.374 77.6647C102.808 77.35 103.41 77.2483 104.181 77.3595C104.392 77.39 104.596 77.4303 104.794 77.4803C105.002 77.5319 105.171 77.5887 105.302 77.6507L105.129 78.8543C105.037 78.8195 104.907 78.7846 104.74 78.7496C104.572 78.7147 104.425 78.6881 104.299 78.6698C103.929 78.6165 103.641 78.6719 103.434 78.836C103.229 78.9896 103.1 79.2459 103.048 79.6048L102.923 80.4758L104.855 80.7546L104.672 82.0215L102.74 81.7427L101.849 87.9187L100.36 87.7039Z" fill="white"/>
<defs>
<filter id="filter0_d_4104_4594" x="2.56104" y="2.35742" width="135.316" height="135.723" filterUnits="userSpaceOnUse" color-interpolation-filters="sRGB">
<feFlood flood-opacity="0" result="BackgroundImageFix"/>
<feColorMatrix in="SourceAlpha" type="matrix" values="0 0 0 0 0 0 0 0 0 0 0 0 0 0 0 0 0 0 127 0" result="hardAlpha"/>
<feOffset/>
<feGaussianBlur stdDeviation="5"/>
<feComposite in2="hardAlpha" operator="out"/>
<feColorMatrix type="matrix" values="0 0 0 0 0 0 0 0 0 0 0 0 0 0 0 0 0 0 0.25 0"/>
<feBlend mode="normal" in2="BackgroundImageFix" result="effect1_dropShadow_4104_4594"/>
<feBlend mode="normal" in="SourceGraphic" in2="effect1_dropShadow_4104_4594" result="shape"/>
</filter>
<linearGradient id="paint0_linear_4104_4594" x1="15.7829" y1="62.3638" x2="124.655" y2="78.0738" gradientUnits="userSpaceOnUse">
<stop stop-color="#06D0FF"/>
<stop offset="0.5" stop-color="#C55EEC"/>
<stop offset="1" stop-color="#FF9802"/>
</linearGradient>
</defs>
</svg>
