<svg width="141" height="141" viewBox="0 0 141 141" fill="none" xmlns="http://www.w3.org/2000/svg">
<g filter="url(#filter0_d_3508_33786)">
<path d="M70.7211 15.56C75.2385 11.9336 81.8824 12.8923 85.1904 17.6479L88.4177 22.2876C90.3844 25.115 93.6677 26.7313 97.1078 26.5657L102.753 26.294C108.539 26.0155 113.351 30.6963 113.232 36.4879L113.116 42.1386C113.045 45.582 114.751 48.8194 117.631 50.7075L122.358 53.8059C127.203 56.9816 128.344 63.5966 124.844 68.2122L121.428 72.7154C119.347 75.4595 118.825 79.0815 120.045 82.3021L122.048 87.5871C124.101 93.0041 121.136 99.0266 115.591 100.703L110.181 102.339C106.884 103.335 104.333 105.959 103.427 109.281L101.941 114.734C100.418 120.323 94.4793 123.453 89.0078 121.55L83.6697 119.693C80.4167 118.562 76.8105 119.184 74.1247 121.34L69.7173 124.878C65.1998 128.505 58.5559 127.546 55.248 122.79L52.0206 118.151C50.0539 115.323 46.7707 113.707 43.3305 113.873L37.6852 114.144C31.8991 114.423 27.0875 109.742 27.2066 103.95L27.3227 98.2998C27.3935 94.8564 25.6874 91.6189 22.8069 89.7308L18.0801 86.6325C13.2352 83.4567 12.0939 76.8417 15.5945 72.2261L19.0099 67.723C21.0911 64.9788 21.6137 61.3568 20.3932 58.1362L18.3903 52.8512C16.3374 47.4343 19.3022 41.4118 24.8472 39.7353L30.2572 38.0996C33.5539 37.1029 36.1057 34.4798 37.0113 31.1569L38.4974 25.7039C40.0205 20.1149 45.9591 16.9853 51.4305 18.8882L56.7687 20.7449C60.0216 21.8763 63.6279 21.2541 66.3137 19.098L70.7211 15.56Z" fill="white"/>
<path d="M85.6008 17.3624C82.1275 12.369 75.1514 11.3624 70.4081 15.1701L66.0007 18.7081C63.4492 20.7563 60.0232 21.3474 56.9329 20.2726L51.5947 18.416C45.8497 16.4179 39.6143 19.704 38.0149 25.5725L36.5289 31.0254C35.6686 34.1822 33.2444 36.6741 30.1125 37.621L24.7025 39.2567C18.8803 41.017 15.7672 47.3406 17.9227 53.0284L19.9257 58.3134C21.0852 61.373 20.5887 64.8139 18.6115 67.4208L15.1961 71.924C11.5205 76.7704 12.7189 83.7161 17.806 87.0506L22.5328 90.149C25.2693 91.9427 26.8901 95.0183 26.8228 98.2895L26.7067 103.94C26.5817 110.021 31.6338 114.936 37.7093 114.644L43.3546 114.372C46.6227 114.215 49.7418 115.75 51.6101 118.436L54.8375 123.076C58.3108 128.069 65.287 129.076 70.0303 125.268L74.4377 121.73C76.9892 119.682 80.4151 119.091 83.5054 120.166L88.8436 122.022C94.5886 124.02 100.824 120.734 102.423 114.866L103.909 109.413C104.77 106.256 107.194 103.764 110.326 102.817L115.736 101.182C121.558 99.4213 124.671 93.0977 122.516 87.4099L120.513 82.1249C119.353 79.0654 119.85 75.6245 121.827 73.0175L125.242 68.5143C128.918 63.668 127.719 56.7222 122.632 53.3877L117.905 50.2894C115.169 48.4957 113.548 45.4201 113.615 42.1489L113.732 36.4982C113.857 30.417 108.805 25.5021 102.729 25.7946L97.0838 26.0663C93.8156 26.2236 90.6966 24.6881 88.8282 22.0021L85.6008 17.3624Z" stroke="#979ABE"/>
</g>
<path d="M73.0625 19.8059C75.7729 17.6301 79.7593 18.2053 81.744 21.0586L87.2706 29.0036C88.4506 30.7001 90.4205 31.6698 92.4846 31.5705L102.151 31.1052C105.623 30.9381 108.51 33.7466 108.439 37.2216L108.24 46.8976C108.197 48.9636 109.221 50.9061 110.949 52.039L119.043 57.3446C121.95 59.25 122.635 63.219 120.535 65.9884L114.686 73.6996C113.438 75.346 113.124 77.5192 113.856 79.4516L117.286 88.5016C118.518 91.7517 116.739 95.3652 113.412 96.3711L104.148 99.172C102.17 99.7701 100.639 101.344 100.096 103.338L97.5509 112.675C96.637 116.029 93.0739 117.906 89.791 116.765L80.65 113.585C78.6983 112.907 76.5345 113.28 74.923 114.573L67.3758 120.632C64.6654 122.808 60.679 122.233 58.6943 119.379L53.1678 111.434C51.9877 109.738 50.0178 108.768 47.9537 108.867L38.2868 109.333C34.8151 109.5 31.9282 106.691 31.9996 103.216L32.1985 93.5403C32.241 91.4742 31.2173 89.5317 29.4891 88.3989L21.3949 83.0933C18.488 81.1878 17.8032 77.2188 19.9035 74.4495L25.7519 66.7383C27.0007 65.0918 27.3142 62.9186 26.5819 60.9863L23.1521 51.9363C21.9204 48.6861 23.6993 45.0726 27.0263 44.0667L36.2903 41.2659C38.2683 40.6678 39.7994 39.094 40.3427 37.1002L42.8874 27.7627C43.8013 24.4092 47.3644 22.5315 50.6473 23.6732L59.7883 26.8525C61.7401 27.5313 63.9038 27.158 65.5153 25.8644L73.0625 19.8059Z" fill="url(#paint0_linear_3508_33786)"/>
<path d="M37.5771 79.654L50.3317 60.7215L37.7421 58.9049L38.6219 52.808L58.496 55.6758L57.742 60.9017L44.7825 80.6937L37.5771 79.654ZM67.5557 84.384C64.9164 84.0031 62.8096 83.1064 61.2352 81.6937C59.691 80.2585 58.6432 78.4638 58.0919 76.3096C57.5444 74.1291 57.461 71.7191 57.8419 69.0798C58.2227 66.4405 58.9821 64.1656 60.1199 62.2552C61.2616 60.3184 62.774 58.8931 64.6571 57.9793C66.5704 57.043 68.8468 56.7653 71.4861 57.1461C74.1254 57.527 76.2172 58.435 77.7614 59.8703C79.3358 61.2829 80.3967 63.0795 80.9442 65.2601C81.4956 67.4142 81.5808 69.811 81.2 72.4503C80.8191 75.0896 80.0579 77.3777 78.9162 79.3145C77.7784 81.2249 76.2528 82.6483 74.3394 83.5846C72.4563 84.4984 70.1951 84.7648 67.5557 84.384ZM68.4355 78.2871C69.3065 78.4128 70.0817 78.2687 70.7611 77.8548C71.4405 77.441 72.0185 76.7026 72.4952 75.6398C72.9719 74.577 73.3397 73.1482 73.5987 71.3535C73.8615 69.5323 73.9126 68.0578 73.752 66.93C73.5952 65.7758 73.2495 64.9041 72.7148 64.3151C72.1802 63.726 71.4773 63.3686 70.6063 63.243C69.7618 63.1211 68.9866 63.2652 68.2808 63.6753C67.6014 64.0891 67.0233 64.8275 66.5466 65.8903C66.0738 66.9267 65.7059 68.3555 65.4432 70.1766C65.1842 71.9714 65.1331 73.4459 65.2898 74.6001C65.4466 75.7543 65.7923 76.6259 66.327 77.215C66.8881 77.8079 67.5909 78.1653 68.4355 78.2871Z" fill="white"/>
<path d="M88.7716 70.875L95.9673 61.1146L97.8676 61.3888L90.6719 71.1492L88.7716 70.875ZM89.1465 66.5967C88.5236 66.5068 88.0261 66.2949 87.654 65.961C87.2818 65.6271 87.0305 65.2028 86.9 64.6882C86.7695 64.1737 86.7492 63.6049 86.839 62.9821C86.9289 62.3592 87.1092 61.8194 87.3799 61.3627C87.6505 60.906 88.0115 60.5701 88.4629 60.355C88.9142 60.14 89.4513 60.0774 90.0742 60.1672C90.7077 60.2586 91.2052 60.4705 91.5667 60.8029C91.9389 61.1368 92.1902 61.5611 92.3207 62.0756C92.4512 62.5902 92.4715 63.159 92.3816 63.7818C92.2918 64.4047 92.1115 64.9445 91.8408 65.4012C91.5702 65.8579 91.2092 66.1938 90.7578 66.4089C90.317 66.6255 89.7799 66.6881 89.1465 66.5967ZM89.391 64.9022C89.6127 64.9342 89.7916 64.8522 89.9276 64.6563C90.0636 64.4604 90.1743 64.0668 90.2596 63.4756C90.3449 62.8844 90.35 62.4756 90.2749 62.2492C90.1998 62.0229 90.0514 61.8937 89.8297 61.8617C89.608 61.8297 89.4291 61.9117 89.2931 62.1076C89.1571 62.3035 89.0464 62.697 88.9611 63.2883C88.8758 63.8795 88.8707 64.2883 88.9458 64.5146C89.0209 64.741 89.1693 64.8702 89.391 64.9022ZM96.565 72.0965C95.9422 72.0067 95.4446 71.7948 95.0725 71.4609C94.7004 71.127 94.4491 70.7027 94.3186 70.1881C94.188 69.6736 94.1677 69.1048 94.2576 68.4819C94.3475 67.8591 94.5278 67.3193 94.7984 66.8626C95.0691 66.4059 95.4301 66.07 95.8814 65.8549C96.3328 65.6398 96.8699 65.5772 97.4928 65.6671C98.1262 65.7585 98.6237 65.9704 98.9853 66.3028C99.3574 66.6367 99.6087 67.0609 99.7393 67.5755C99.8698 68.0901 99.8901 68.6588 99.8002 69.2817C99.7103 69.9046 99.5301 70.4444 99.2594 70.9011C98.9887 71.3578 98.6277 71.6937 98.1764 71.9087C97.7356 72.1253 97.1985 72.1879 96.565 72.0965ZM96.8095 70.4021C97.0312 70.4341 97.2101 70.3521 97.3462 70.1562C97.4822 69.9603 97.5929 69.5667 97.6782 68.9755C97.7635 68.3843 97.7686 67.9755 97.6935 67.7491C97.6184 67.5228 97.47 67.3936 97.2483 67.3616C97.0266 67.3296 96.8477 67.4115 96.7117 67.6075C96.5756 67.8034 96.4649 68.1969 96.3796 68.7881C96.2943 69.3794 96.2892 69.7881 96.3643 70.0145C96.4394 70.2409 96.5878 70.3701 96.8095 70.4021Z" fill="white"/>
<path d="M87.8575 86.0615C87.0974 85.9518 86.4446 85.696 85.8991 85.2939C85.3551 84.8813 84.9613 84.3611 84.7179 83.7332C84.4744 83.1054 84.409 82.4008 84.5217 81.6196C84.6345 80.8383 84.8963 80.181 85.3074 79.6476C85.7185 79.1141 86.2425 78.7317 86.8794 78.5003C87.5178 78.2583 88.2171 78.1922 88.9772 78.3019C89.7479 78.4131 90.4 78.6742 90.9334 79.0853C91.4789 79.4873 91.8734 80.0023 92.1169 80.6301C92.3604 81.258 92.4258 81.9626 92.313 82.7438C92.2003 83.5251 91.9384 84.1824 91.5273 84.7158C91.1163 85.2493 90.5915 85.637 89.9531 85.8789C89.3267 86.1119 88.6282 86.1727 87.8575 86.0615ZM88.0449 84.763C88.52 84.8315 88.9522 84.7861 89.3416 84.6268C89.7311 84.4674 90.0482 84.2114 90.2931 83.8588C90.55 83.4971 90.7166 83.0523 90.7928 82.5245C90.8689 81.9966 90.8342 81.5282 90.6884 81.1191C90.5547 80.7011 90.3237 80.3606 89.9952 80.0977C89.6667 79.8347 89.2649 79.669 88.7898 79.6004C88.3148 79.5319 87.8825 79.5773 87.4931 79.7366C87.1037 79.896 86.7805 80.1565 86.5235 80.5182C86.2787 80.8708 86.1181 81.3111 86.042 81.8389C85.9658 82.3668 85.9946 82.8397 86.1282 83.2578C86.274 83.6668 86.5111 84.0028 86.8396 84.2657C87.168 84.5287 87.5698 84.6944 88.0449 84.763ZM94.5607 86.8671L95.4519 80.6911L93.8208 80.4557L94.0036 79.1888L95.6347 79.4242L95.7764 78.4424C95.8876 77.6717 96.1538 77.1335 96.5751 76.8279C97.0085 76.5132 97.6105 76.4115 98.3812 76.5227C98.5924 76.5532 98.7967 76.5934 98.9943 76.6435C99.2024 76.6951 99.372 76.7519 99.5031 76.8139L99.3295 78.0175C99.2375 77.9826 99.1078 77.9477 98.9404 77.9128C98.773 77.8779 98.626 77.8513 98.4993 77.833C98.1298 77.7797 97.8416 77.8351 97.6347 77.9992C97.4293 78.1528 97.3007 78.4091 97.2489 78.768L97.1233 79.639L99.0553 79.9178L98.8724 81.1846L96.9405 80.9059L96.0493 87.0819L94.5607 86.8671ZM100.36 87.7039L101.251 81.5279L99.6201 81.2925L99.8029 80.0257L101.434 80.261L101.576 79.2792C101.687 78.5085 101.953 77.9703 102.374 77.6647C102.808 77.35 103.41 77.2483 104.181 77.3595C104.392 77.39 104.596 77.4303 104.794 77.4803C105.002 77.5319 105.171 77.5887 105.302 77.6507L105.129 78.8543C105.037 78.8195 104.907 78.7846 104.74 78.7496C104.572 78.7147 104.425 78.6881 104.299 78.6698C103.929 78.6165 103.641 78.6719 103.434 78.836C103.229 78.9896 103.1 79.2459 103.048 79.6048L102.923 80.4758L104.855 80.7546L104.672 82.0215L102.74 81.7427L101.849 87.9187L100.36 87.7039Z" fill="white"/>
<defs>
<filter id="filter0_d_3508_33786" x="2.56108" y="2.35742" width="135.316" height="135.723" filterUnits="userSpaceOnUse" color-interpolation-filters="sRGB">
<feFlood flood-opacity="0" result="BackgroundImageFix"/>
<feColorMatrix in="SourceAlpha" type="matrix" values="0 0 0 0 0 0 0 0 0 0 0 0 0 0 0 0 0 0 127 0" result="hardAlpha"/>
<feOffset/>
<feGaussianBlur stdDeviation="5"/>
<feComposite in2="hardAlpha" operator="out"/>
<feColorMatrix type="matrix" values="0 0 0 0 0 0 0 0 0 0 0 0 0 0 0 0 0 0 0.25 0"/>
<feBlend mode="normal" in2="BackgroundImageFix" result="effect1_dropShadow_3508_33786"/>
<feBlend mode="normal" in="SourceGraphic" in2="effect1_dropShadow_3508_33786" result="shape"/>
</filter>
<linearGradient id="paint0_linear_3508_33786" x1="15.783" y1="62.3638" x2="124.655" y2="78.0738" gradientUnits="userSpaceOnUse">
<stop stop-color="#06D0FF"/>
<stop offset="0.5" stop-color="#C55EEC"/>
<stop offset="1" stop-color="#FF9802"/>
</linearGradient>
</defs>
</svg>
