<svg width="99" height="99" viewBox="0 0 99 99" fill="none" xmlns="http://www.w3.org/2000/svg">
<path fill-rule="evenodd" clip-rule="evenodd" d="M99 10C99 4.47715 94.5229 0 89 0H54C48.4772 0 44 4.47715 44 10V34C44 39.5228 39.5228 44 34 44H10C4.47715 44 -2.41411e-07 48.4772 0 54L1.5299e-06 89C1.77131e-06 94.5229 4.47716 99 10 99H44H89C94.5229 99 99 94.5229 99 89V44V10Z" fill="#EBF479"/>
<path d="M20.2675 76V63.976H29.0155V66.19H22.8955V68.764H28.4755V70.852H22.8955V73.786H29.0155V76H20.2675ZM30.9345 76V67.54H33.2925V68.566C33.5565 68.194 33.9045 67.9 34.3365 67.684C34.7685 67.468 35.3085 67.36 35.9565 67.36C36.9045 67.36 37.6545 67.636 38.2065 68.188C38.7585 68.728 39.0345 69.568 39.0345 70.708V76H36.5505V71.086C36.5505 70.558 36.4365 70.168 36.2085 69.916C35.9925 69.652 35.6505 69.52 35.1825 69.52C34.6425 69.52 34.2105 69.7 33.8865 70.06C33.5745 70.408 33.4185 70.918 33.4185 71.59V76H30.9345ZM44.7734 76.108C43.7174 76.108 42.9554 75.88 42.4874 75.424C42.0314 74.968 41.8034 74.266 41.8034 73.318V69.574H40.0934V67.54H41.8034V65.128H44.3054V67.54H46.3574V69.574H44.3054V73.066C44.3054 73.402 44.3894 73.654 44.5574 73.822C44.7374 73.99 44.9954 74.074 45.3314 74.074C45.4754 74.074 45.6494 74.068 45.8534 74.056C46.0574 74.044 46.2254 74.026 46.3574 74.002V75.928C46.1534 75.988 45.9074 76.03 45.6194 76.054C45.3434 76.09 45.0614 76.108 44.7734 76.108ZM52.4292 76.18C51.5532 76.18 50.7552 76.018 50.0352 75.694C49.3152 75.358 48.7392 74.866 48.3072 74.218C47.8752 73.558 47.6592 72.742 47.6592 71.77C47.6592 70.87 47.8572 70.09 48.2532 69.43C48.6492 68.77 49.1832 68.26 49.8552 67.9C50.5272 67.54 51.2832 67.36 52.1232 67.36C52.9752 67.36 53.7192 67.516 54.3552 67.828C55.0032 68.14 55.5072 68.578 55.8672 69.142C56.2272 69.694 56.4072 70.33 56.4072 71.05C56.4072 71.266 56.3772 71.506 56.3172 71.77C56.2572 72.022 56.1792 72.238 56.0832 72.418H50.1972C50.2572 72.802 50.3892 73.126 50.5932 73.39C50.7972 73.642 51.0792 73.834 51.4392 73.966C51.7992 74.098 52.2132 74.164 52.6812 74.164C53.1732 74.164 53.6352 74.092 54.0672 73.948C54.4992 73.792 54.9072 73.588 55.2912 73.336L56.0472 75.082C55.5312 75.442 54.9672 75.718 54.3552 75.91C53.7552 76.09 53.1132 76.18 52.4292 76.18ZM50.1972 70.798H53.8512C53.8632 70.774 53.8692 70.75 53.8692 70.726C53.8692 70.702 53.8692 70.666 53.8692 70.618C53.8692 70.342 53.8092 70.108 53.6892 69.916C53.5692 69.712 53.3832 69.556 53.1312 69.448C52.8912 69.328 52.5792 69.268 52.1952 69.268C51.8472 69.268 51.5292 69.334 51.2412 69.466C50.9652 69.586 50.7372 69.76 50.5572 69.988C50.3772 70.216 50.2572 70.486 50.1972 70.798ZM58.1454 76V67.54H60.5034V68.818C60.7434 68.314 61.0554 67.96 61.4394 67.756C61.8234 67.54 62.2494 67.432 62.7174 67.432C62.8734 67.432 63.0114 67.444 63.1314 67.468C63.2634 67.48 63.3654 67.504 63.4374 67.54V69.916C63.2694 69.88 63.0954 69.85 62.9154 69.826C62.7474 69.802 62.5734 69.79 62.3934 69.79C61.9014 69.79 61.4814 69.97 61.1334 70.33C60.7974 70.69 60.6294 71.218 60.6294 71.914V76H58.1454Z" fill="black"/>
<path d="M81 63V72H70M70 72L74 68M70 72L74 76" stroke="black" stroke-width="2"/>
</svg>
