<svg width="20" height="18" viewBox="0 0 20 18" fill="none" xmlns="http://www.w3.org/2000/svg">
<path d="M17.5092 18H2.49149C1.4844 18 0.675363 17.6164 0.271319 16.9472C-0.132835 16.2781 -0.0836614 15.404 0.406721 14.5499L7.98397 1.35347C8.47719 0.493135 9.21064 0 9.99533 0C10.7801 0 11.5128 0.492517 12.0074 1.35209L19.5926 14.5513C20.0829 15.4054 20.1336 16.2788 19.7287 16.9479C19.3253 17.617 18.5156 18 17.5092 18ZM9.99608 1.38529C9.74659 1.38529 9.46079 1.62562 9.22911 2.0281L1.6519 15.2259C1.41449 15.6401 1.35891 16.0122 1.50072 16.2469C1.64265 16.481 2.00395 16.6155 2.49149 16.6155H17.5092C17.9975 16.6155 18.3581 16.4818 18.4999 16.2469C18.641 16.0128 18.5862 15.6409 18.3481 15.2267L10.763 2.02809C10.532 1.62562 10.2448 1.38529 9.99608 1.38529ZM10.0003 11.7509C9.60696 11.7509 9.28764 11.4413 9.28764 11.0582V4.82435C9.28764 4.44197 9.60696 4.13166 10.0003 4.13166C10.3938 4.13166 10.7131 4.44198 10.7131 4.82435V11.0582C10.7131 11.4413 10.3938 11.7509 10.0003 11.7509ZM9.99524 15.1367C10.6086 15.1367 11.1058 14.6526 11.1058 14.0555C11.1058 13.4584 10.6086 12.9743 9.99524 12.9743C9.38189 12.9743 8.88466 13.4584 8.88466 14.0555C8.88466 14.6526 9.38189 15.1367 9.99524 15.1367V15.1367Z" fill="#FF83C6"/>
</svg>
