<svg width="97" height="60" viewBox="0 0 97 60" fill="none" xmlns="http://www.w3.org/2000/svg">
<rect opacity="0.8" x="0.612372" y="23.6465" width="89" height="37" rx="7.5" transform="rotate(-15 0.612372 23.6465)" fill="#00FFE0" stroke="#00FFE0"/>
<path opacity="0.8" d="M23.2515 21.2035L10.6945 24.5682C7.49368 25.4258 5.59419 28.7159 6.45184 31.9166L8.78121 40.61M65.2693 9.9449L78.3093 6.45085C81.5101 5.5932 84.8001 7.49269 85.6578 10.6935L86.8224 15.0402M25.7035 51.6048L68.6872 40.0874M89.3459 24.4579L90.3165 28.0802C91.1742 31.2809 89.2747 34.571 86.0739 35.4286L80.2783 36.9815" stroke="white"/>
<path d="M15.2914 44.0416L16.6979 32.5997L18.3979 32.1442L25.337 41.3499L23.6679 41.7971L22.2577 39.8725L17.204 41.2267L16.9605 43.5944L15.2914 44.0416ZM17.3548 39.8114L21.4349 38.7182L17.9869 34.0101L17.3548 39.8114ZM29.7383 40.3362C28.9965 40.535 28.2957 40.5571 27.6359 40.4026C26.9733 40.2378 26.4064 39.9149 25.9352 39.4338C25.464 38.9527 25.1262 38.3309 24.9219 37.5685C24.7176 36.806 24.6992 36.0987 24.8668 35.4464C25.0343 34.7942 25.3652 34.2362 25.8594 33.7725C26.3508 33.2985 26.9674 32.9621 27.7092 32.7633C28.2347 32.6225 28.7293 32.5728 29.1932 32.6142C29.6673 32.6528 30.1117 32.7656 30.5262 32.9527L30.2948 34.1908C29.9016 34.0422 29.5146 33.9581 29.1339 33.9386C28.7505 33.9089 28.3888 33.9395 28.0488 34.0306C27.5851 34.1549 27.2058 34.3669 26.9107 34.6669C26.6156 34.9668 26.4198 35.3285 26.3235 35.7518C26.2374 36.1724 26.2648 36.6455 26.4056 37.1709C26.5464 37.6964 26.7592 38.1197 27.044 38.441C27.3392 38.7594 27.6895 38.9748 28.095 39.087C28.5005 39.1992 28.9351 39.1931 29.3988 39.0689C29.7388 38.9778 30.0688 38.8286 30.3887 38.6214C30.7059 38.4039 30.9976 38.1325 31.2638 37.8072L32.0833 38.7637C31.8178 39.133 31.4894 39.4529 31.0981 39.7234C30.7171 39.9911 30.2638 40.1954 29.7383 40.3362ZM34.1148 38.9979L31.3486 28.6741L32.8013 28.2848L33.8863 32.334C34.0191 31.9229 34.2537 31.5619 34.59 31.2509C34.9366 30.9372 35.3932 30.7044 35.9599 30.5526C36.7945 30.3289 37.5071 30.392 38.0977 30.7417C38.6986 31.0887 39.1344 31.767 39.4049 32.7767L40.6059 37.2586L39.1531 37.6479L38.0019 33.3514C37.828 32.7023 37.5684 32.2694 37.2232 32.0527C36.8856 31.8229 36.4489 31.7798 35.9131 31.9234C35.2743 32.0946 34.8377 32.4434 34.6034 32.97C34.3793 33.4939 34.3681 34.1319 34.5696 34.884L35.5676 38.6086L34.1148 38.9979ZM42.9289 36.6361L40.9826 29.3724L42.4353 28.9831L44.3817 36.2469L42.9289 36.6361ZM41.2918 27.6828C41.0342 27.7518 40.8023 27.7311 40.5961 27.6207C40.4001 27.5076 40.269 27.3274 40.2027 27.0801C40.1365 26.8328 40.1613 26.6164 40.2772 26.4307C40.4006 26.232 40.5911 26.0981 40.8487 26.0291C41.1166 25.9573 41.3537 25.9766 41.5599 26.087C41.7635 26.1871 41.8983 26.3608 41.9646 26.608C42.0308 26.8553 42.0023 27.0783 41.8788 27.277C41.7554 27.4758 41.5597 27.611 41.2918 27.6828ZM50.1903 34.8561C49.4587 35.0521 48.7607 35.0846 48.0961 34.9534C47.439 34.8093 46.866 34.5045 46.3769 34.0393C45.8851 33.5637 45.5301 32.9189 45.312 32.105C45.1049 31.3322 45.0852 30.6197 45.2527 29.9675C45.4306 29.3124 45.7512 28.7572 46.2144 28.3018C46.688 27.8436 47.2647 27.5234 47.9447 27.3412C48.6557 27.1507 49.3111 27.1242 49.9111 27.2616C50.5111 27.399 51.0137 27.6674 51.4189 28.0668C51.8316 28.4531 52.1181 28.9451 52.2782 29.5427C52.3251 29.7178 52.3504 29.9153 52.3541 30.1352C52.3681 30.3523 52.3556 30.5324 52.3166 30.6753L46.9075 32.1247C47.0832 32.5745 47.3169 32.9316 47.6085 33.1957C47.9077 33.4469 48.2597 33.6065 48.6645 33.6748C49.0665 33.7327 49.5045 33.6981 49.9785 33.5712C50.4524 33.4442 50.8504 33.2602 51.1723 33.0194C51.5046 32.7757 51.8062 32.4796 52.0772 32.1309L52.8884 33.0565C52.5749 33.4938 52.1892 33.8677 51.7313 34.1782C51.2809 34.4755 50.7672 34.7015 50.1903 34.8561ZM46.6093 31.012L50.7666 29.898C50.7687 29.8643 50.7669 29.8372 50.7614 29.8166C50.7559 29.796 50.749 29.7702 50.7407 29.7393C50.6468 29.389 50.4946 29.1095 50.2841 28.9009C50.0709 28.682 49.8007 28.539 49.4735 28.4721C49.1464 28.4052 48.7613 28.431 48.3183 28.5497C47.9576 28.6464 47.6435 28.8134 47.3758 29.0507C47.1157 29.275 46.9147 29.5553 46.7729 29.8914C46.6386 30.2145 46.5841 30.588 46.6093 31.012ZM56.8188 32.9144L51.967 26.4291L53.5279 26.0109L57.2166 31.1845L57.8244 24.8597L59.3853 24.4414L58.4261 32.4837L56.8188 32.9144ZM65.7507 30.6867C65.0192 30.8827 64.3211 30.9152 63.6566 30.784C62.9995 30.6398 62.4264 30.3351 61.9374 29.8698C61.4455 29.3943 61.0905 28.7495 60.8724 27.9356C60.6654 27.1628 60.6456 26.4503 60.8132 25.7981C60.9911 25.143 61.3116 24.5878 61.7749 24.1324C62.2484 23.6742 62.8252 23.354 63.5052 23.1718C64.2161 22.9813 64.8716 22.9548 65.4716 23.0922C66.0716 23.2296 66.5742 23.498 66.9794 23.8974C67.3921 24.2837 67.6785 24.7757 67.8386 25.3733C67.8856 25.5484 67.9109 25.7459 67.9146 25.9658C67.9286 26.1829 67.9161 26.3629 67.8771 26.5059L62.4679 27.9553C62.6437 28.4051 62.8774 28.7621 63.169 29.0263C63.4682 29.2774 63.8202 29.4371 64.225 29.5053C64.627 29.5633 65.065 29.5287 65.5389 29.4017C66.0129 29.2747 66.4108 29.0908 66.7328 28.8499C67.0651 28.6063 67.3667 28.3102 67.6377 27.9615L68.4489 28.8871C68.1354 29.3244 67.7497 29.6983 67.2918 30.0088C66.8414 30.3061 66.3277 30.5321 65.7507 30.6867ZM62.1698 26.8425L66.3271 25.7286C66.3291 25.6949 66.3274 25.6678 66.3219 25.6472C66.3163 25.6266 66.3094 25.6008 66.3011 25.5699C66.2073 25.2196 66.0551 24.9401 65.8446 24.7315C65.6313 24.5126 65.3611 24.3696 65.034 24.3027C64.7068 24.2357 64.3218 24.2616 63.8787 24.3803C63.5181 24.477 63.204 24.644 62.9363 24.8813C62.6761 25.1056 62.4751 25.3859 62.3333 25.722C62.199 26.0451 62.1445 26.4186 62.1698 26.8425ZM74.0124 28.473C73.353 28.6497 72.7192 28.6539 72.1109 28.4856C71.5026 28.3173 70.968 27.9912 70.507 27.5074C70.0564 27.0207 69.7276 26.3911 69.5205 25.6183C69.3107 24.8353 69.2806 24.1255 69.4303 23.4891C69.5876 22.8396 69.8875 22.2899 70.3302 21.84C70.7728 21.3901 71.3239 21.0768 71.9833 20.9001C72.5602 20.7455 73.0955 20.7236 73.5889 20.8343C74.0796 20.9347 74.4932 21.1387 74.8295 21.4461L73.7239 17.3196L75.1766 16.9304L77.9429 27.2542L76.5519 27.6269L76.2414 26.4678C76.1196 26.92 75.8703 27.3292 75.4935 27.6951C75.114 28.0508 74.6203 28.3101 74.0124 28.473ZM73.9665 27.127C74.4198 27.0055 74.7889 26.7962 75.0737 26.4991C75.3585 26.2019 75.549 25.8416 75.6454 25.4183C75.739 24.9846 75.7168 24.5102 75.5788 23.995C75.4407 23.4798 75.2242 23.063 74.929 22.7446C74.6311 22.4158 74.2845 22.1939 73.8893 22.079C73.4941 21.964 73.075 21.9659 72.6319 22.0846C72.1786 22.2061 71.8044 22.4168 71.5093 22.7167C71.2245 23.0139 71.0353 23.3793 70.9417 23.813C70.8556 24.2336 70.8816 24.7015 71.0196 25.2166C71.1577 25.7318 71.3756 26.1538 71.6735 26.4825C71.9687 26.801 72.3139 27.0177 72.7091 27.1326C73.1043 27.2476 73.5234 27.2457 73.9665 27.127ZM79.7602 23.4378L78.3172 19.1036L77.5635 16.2908L79.109 15.8767L79.8627 18.6895L80.7956 23.1603L79.7602 23.4378ZM81.1274 26.5003C80.8492 26.5748 80.607 26.5569 80.4007 26.4465C80.202 26.3231 80.0709 26.1429 80.0074 25.9059C79.9439 25.6689 79.9725 25.4459 80.0932 25.2369C80.2138 25.0279 80.4081 24.8875 80.676 24.8157C80.9336 24.7467 81.1669 24.7725 81.3759 24.8932C81.5849 25.0139 81.7212 25.1927 81.7847 25.4297C81.8482 25.6667 81.8196 25.8897 81.6989 26.0987C81.5858 26.2946 81.3953 26.4285 81.1274 26.5003Z" fill="white"/>
</svg>
