<svg width="409" height="123" viewBox="0 0 409 123" fill="none" xmlns="http://www.w3.org/2000/svg">
<path d="M7.27781 111V104.422L0.595813 93.632H5.04181L9.20181 100.86L13.3098 93.632H17.7558L11.0738 104.422V111H7.27781ZM19.5059 111.26C18.2059 111.26 17.0446 111 16.0219 110.48C15.0166 109.943 14.2279 109.197 13.6559 108.244C13.0839 107.273 12.7979 106.155 12.7979 104.89C12.7979 103.607 13.0839 102.489 13.6559 101.536C14.2279 100.583 15.0166 99.846 16.0219 99.326C17.0273 98.7887 18.1886 98.52 19.5059 98.52C20.8233 98.52 21.9846 98.7887 22.9899 99.326C23.9953 99.846 24.7839 100.583 25.3559 101.536C25.9279 102.489 26.2139 103.607 26.2139 104.89C26.2139 106.155 25.9279 107.273 25.3559 108.244C24.7839 109.197 23.9953 109.943 22.9899 110.48C21.9846 111 20.8233 111.26 19.5059 111.26ZM19.5059 108.14C20.1126 108.14 20.6413 108.01 21.0919 107.75C21.5599 107.49 21.9153 107.117 22.1579 106.632C22.4179 106.129 22.5479 105.549 22.5479 104.89C22.5479 104.214 22.4179 103.633 22.1579 103.148C21.9153 102.663 21.5599 102.29 21.0919 102.03C20.6413 101.77 20.1126 101.64 19.5059 101.64C18.8993 101.64 18.3619 101.77 17.8939 102.03C17.4433 102.29 17.0879 102.663 16.8279 103.148C16.5853 103.633 16.4639 104.214 16.4639 104.89C16.4639 105.549 16.5853 106.129 16.8279 106.632C17.0879 107.117 17.4433 107.49 17.8939 107.75C18.3619 108.01 18.8993 108.14 19.5059 108.14ZM33.1779 111.26C31.8085 111.26 30.7252 110.87 29.9279 110.09C29.1305 109.293 28.7319 108.071 28.7319 106.424V98.78H32.3199V105.878C32.3199 106.641 32.4845 107.213 32.8139 107.594C33.1432 107.958 33.6372 108.14 34.2959 108.14C35.0759 108.14 35.6912 107.889 36.1419 107.386C36.6099 106.866 36.8439 106.121 36.8439 105.15V98.78H40.4319V111H37.0259V109.518C36.6445 110.055 36.1332 110.48 35.4919 110.792C34.8679 111.104 34.0965 111.26 33.1779 111.26ZM43.56 111V98.78H46.966V100.626C47.3127 99.898 47.7633 99.3867 48.318 99.092C48.8727 98.78 49.488 98.624 50.164 98.624C50.3893 98.624 50.5887 98.6413 50.762 98.676C50.9527 98.6933 51.1 98.728 51.204 98.78V102.212C50.9613 102.16 50.71 102.117 50.45 102.082C50.2073 102.047 49.956 102.03 49.696 102.03C48.9853 102.03 48.3787 102.29 47.876 102.81C47.3907 103.33 47.148 104.093 47.148 105.098V111H43.56ZM67.2799 111.26C64.8706 111.26 62.9986 110.662 61.6639 109.466C60.3293 108.253 59.6619 106.372 59.6619 103.824V93.632H63.4579V103.824C63.4579 104.743 63.5966 105.505 63.8739 106.112C64.1686 106.719 64.6019 107.178 65.1739 107.49C65.7459 107.802 66.4479 107.958 67.2799 107.958C68.1293 107.958 68.8313 107.802 69.3859 107.49C69.9579 107.178 70.3826 106.719 70.6599 106.112C70.9546 105.505 71.1019 104.743 71.1019 103.824V93.632H74.8979V103.824C74.8979 106.372 74.2306 108.253 72.8959 109.466C71.5613 110.662 69.6893 111.26 67.2799 111.26ZM78.1928 111V98.78H81.5988V100.262C81.9801 99.7247 82.4828 99.3 83.1068 98.988C83.7308 98.676 84.5108 98.52 85.4468 98.52C86.8161 98.52 87.8995 98.9187 88.6968 99.716C89.4941 100.496 89.8928 101.709 89.8928 103.356V111H86.3048V103.902C86.3048 103.139 86.1401 102.576 85.8108 102.212C85.4988 101.831 85.0048 101.64 84.3288 101.64C83.5488 101.64 82.9248 101.9 82.4568 102.42C82.0061 102.923 81.7808 103.659 81.7808 104.63V111H78.1928ZM93.0209 111V98.78H96.6089V111H93.0209ZM94.8149 96.908C94.1736 96.908 93.6709 96.726 93.3069 96.362C92.9429 95.9807 92.7609 95.504 92.7609 94.932C92.7609 94.36 92.9429 93.892 93.3069 93.528C93.6709 93.164 94.1736 92.982 94.8149 92.982C95.4389 92.982 95.9329 93.1727 96.2969 93.554C96.6783 93.918 96.8689 94.386 96.8689 94.958C96.8689 95.53 96.6783 95.998 96.2969 96.362C95.9329 96.726 95.4389 96.908 94.8149 96.908ZM103.13 111L98.5021 98.78H102.35L105.158 107.386L107.94 98.78H111.762L107.108 111H103.13ZM118.762 111.26C117.497 111.26 116.344 111.026 115.304 110.558C114.264 110.073 113.432 109.362 112.808 108.426C112.184 107.473 111.872 106.294 111.872 104.89C111.872 103.59 112.158 102.463 112.73 101.51C113.302 100.557 114.073 99.82 115.044 99.3C116.015 98.78 117.107 98.52 118.32 98.52C119.551 98.52 120.625 98.7453 121.544 99.196C122.48 99.6467 123.208 100.279 123.728 101.094C124.248 101.891 124.508 102.81 124.508 103.85C124.508 104.162 124.465 104.509 124.378 104.89C124.291 105.254 124.179 105.566 124.04 105.826H115.538C115.625 106.381 115.815 106.849 116.11 107.23C116.405 107.594 116.812 107.871 117.332 108.062C117.852 108.253 118.45 108.348 119.126 108.348C119.837 108.348 120.504 108.244 121.128 108.036C121.752 107.811 122.341 107.516 122.896 107.152L123.988 109.674C123.243 110.194 122.428 110.593 121.544 110.87C120.677 111.13 119.75 111.26 118.762 111.26ZM115.538 103.486H120.816C120.833 103.451 120.842 103.417 120.842 103.382C120.842 103.347 120.842 103.295 120.842 103.226C120.842 102.827 120.755 102.489 120.582 102.212C120.409 101.917 120.14 101.692 119.776 101.536C119.429 101.363 118.979 101.276 118.424 101.276C117.921 101.276 117.462 101.371 117.046 101.562C116.647 101.735 116.318 101.987 116.058 102.316C115.798 102.645 115.625 103.035 115.538 103.486ZM127.019 111V98.78H130.425V100.626C130.772 99.898 131.222 99.3867 131.777 99.092C132.332 98.78 132.947 98.624 133.623 98.624C133.848 98.624 134.048 98.6413 134.221 98.676C134.412 98.6933 134.559 98.728 134.663 98.78V102.212C134.42 102.16 134.169 102.117 133.909 102.082C133.666 102.047 133.415 102.03 133.155 102.03C132.444 102.03 131.838 102.29 131.335 102.81C130.85 103.33 130.607 104.093 130.607 105.098V111H127.019ZM141.549 111.26C140.63 111.26 139.737 111.13 138.871 110.87C138.004 110.61 137.163 110.22 136.349 109.7L137.571 107.1C138.403 107.603 139.157 107.975 139.833 108.218C140.509 108.443 141.107 108.556 141.627 108.556C142.251 108.556 142.719 108.469 143.031 108.296C143.343 108.123 143.499 107.854 143.499 107.49C143.499 107.195 143.395 106.97 143.187 106.814C142.979 106.658 142.606 106.537 142.069 106.45L140.457 106.164C139.209 105.939 138.273 105.54 137.649 104.968C137.042 104.396 136.739 103.642 136.739 102.706C136.739 101.943 136.921 101.25 137.285 100.626C137.666 99.9847 138.238 99.4733 139.001 99.092C139.763 98.7107 140.751 98.52 141.965 98.52C142.849 98.52 143.698 98.6413 144.513 98.884C145.327 99.1267 146.081 99.456 146.775 99.872L145.579 102.342C145.024 102.047 144.435 101.787 143.811 101.562C143.204 101.337 142.632 101.224 142.095 101.224C141.523 101.224 141.098 101.311 140.821 101.484C140.543 101.657 140.405 101.909 140.405 102.238C140.405 102.463 140.491 102.645 140.665 102.784C140.855 102.923 141.202 103.035 141.705 103.122L143.317 103.408C144.565 103.633 145.518 104.049 146.177 104.656C146.835 105.245 147.165 106.051 147.165 107.074C147.165 108.287 146.697 109.293 145.761 110.09C144.825 110.87 143.421 111.26 141.549 111.26ZM153.567 111.26C152.735 111.26 151.972 111.121 151.279 110.844C150.603 110.567 150.065 110.151 149.667 109.596C149.285 109.041 149.095 108.365 149.095 107.568C149.095 106.736 149.294 106.069 149.693 105.566C150.091 105.046 150.629 104.656 151.305 104.396C151.981 104.119 152.735 103.928 153.567 103.824L157.493 103.356C157.371 102.697 157.068 102.221 156.583 101.926C156.097 101.631 155.534 101.484 154.893 101.484C154.355 101.484 153.783 101.579 153.177 101.77C152.587 101.961 151.894 102.281 151.097 102.732L149.979 100.132C150.759 99.5947 151.591 99.196 152.475 98.936C153.359 98.6587 154.243 98.52 155.127 98.52C157.068 98.52 158.55 98.936 159.573 99.768C160.613 100.583 161.133 101.848 161.133 103.564V111H157.727V109.622C157.224 110.211 156.643 110.636 155.985 110.896C155.343 111.139 154.537 111.26 153.567 111.26ZM154.659 108.504C155.265 108.504 155.777 108.391 156.193 108.166C156.626 107.941 156.955 107.637 157.181 107.256C157.423 106.875 157.545 106.467 157.545 106.034V105.67L154.763 106.034C154.087 106.121 153.584 106.268 153.255 106.476C152.925 106.667 152.761 106.961 152.761 107.36C152.761 107.741 152.917 108.027 153.229 108.218C153.558 108.409 154.035 108.504 154.659 108.504ZM164.242 111V93.632H167.83V111H164.242ZM177.119 111V93.632H189.755V96.83H180.915V100.548H188.975V103.564H180.915V107.802H189.755V111H177.119ZM192.527 111V98.78H195.933V100.262C196.314 99.7247 196.817 99.3 197.441 98.988C198.065 98.676 198.845 98.52 199.781 98.52C201.15 98.52 202.233 98.9187 203.031 99.716C203.828 100.496 204.227 101.709 204.227 103.356V111H200.639V103.902C200.639 103.139 200.474 102.576 200.145 102.212C199.833 101.831 199.339 101.64 198.663 101.64C197.883 101.64 197.259 101.9 196.791 102.42C196.34 102.923 196.115 103.659 196.115 104.63V111H192.527ZM212.516 111.156C210.991 111.156 209.89 110.827 209.214 110.168C208.556 109.509 208.226 108.495 208.226 107.126V101.718H205.756V98.78H208.226V95.296H211.84V98.78H214.804V101.718H211.84V106.762C211.84 107.247 211.962 107.611 212.204 107.854C212.464 108.097 212.837 108.218 213.322 108.218C213.53 108.218 213.782 108.209 214.076 108.192C214.371 108.175 214.614 108.149 214.804 108.114V110.896C214.51 110.983 214.154 111.043 213.738 111.078C213.34 111.13 212.932 111.156 212.516 111.156ZM217.283 111V98.78H220.689V100.626C221.035 99.898 221.486 99.3867 222.041 99.092C222.595 98.78 223.211 98.624 223.887 98.624C224.112 98.624 224.311 98.6413 224.485 98.676C224.675 98.6933 224.823 98.728 224.927 98.78V102.212C224.684 102.16 224.433 102.117 224.173 102.082C223.93 102.047 223.679 102.03 223.419 102.03C222.708 102.03 222.101 102.29 221.599 102.81C221.113 103.33 220.871 104.093 220.871 105.098V111H217.283ZM229.004 115.888C228.415 115.888 227.817 115.819 227.21 115.68C226.604 115.541 226.101 115.368 225.702 115.16L226.664 112.482C226.976 112.603 227.306 112.707 227.652 112.794C228.016 112.898 228.372 112.95 228.718 112.95C229.013 112.95 229.29 112.907 229.55 112.82C229.828 112.733 230.079 112.603 230.304 112.43C230.547 112.274 230.755 112.075 230.928 111.832L225.988 98.78H229.836L232.618 107.646L235.426 98.78H239.248L234.594 111C234.161 112.179 233.65 113.123 233.06 113.834C232.488 114.562 231.856 115.082 231.162 115.394C230.486 115.723 229.767 115.888 229.004 115.888ZM247.324 111V93.632H254.786C257.022 93.632 258.686 94.126 259.778 95.114C260.87 96.0847 261.416 97.4887 261.416 99.326C261.416 101.163 260.87 102.567 259.778 103.538C258.686 104.509 257.022 104.994 254.786 104.994H251.12V111H247.324ZM251.12 101.952H254.162C255.271 101.952 256.121 101.753 256.71 101.354C257.299 100.955 257.594 100.279 257.594 99.326C257.594 98.3727 257.299 97.6967 256.71 97.298C256.138 96.882 255.289 96.674 254.162 96.674H251.12V101.952ZM269.045 111.26C267.745 111.26 266.584 111 265.561 110.48C264.556 109.943 263.767 109.197 263.195 108.244C262.623 107.273 262.337 106.155 262.337 104.89C262.337 103.607 262.623 102.489 263.195 101.536C263.767 100.583 264.556 99.846 265.561 99.326C266.566 98.7887 267.728 98.52 269.045 98.52C270.362 98.52 271.524 98.7887 272.529 99.326C273.534 99.846 274.323 100.583 274.895 101.536C275.467 102.489 275.753 103.607 275.753 104.89C275.753 106.155 275.467 107.273 274.895 108.244C274.323 109.197 273.534 109.943 272.529 110.48C271.524 111 270.362 111.26 269.045 111.26ZM269.045 108.14C269.652 108.14 270.18 108.01 270.631 107.75C271.099 107.49 271.454 107.117 271.697 106.632C271.957 106.129 272.087 105.549 272.087 104.89C272.087 104.214 271.957 103.633 271.697 103.148C271.454 102.663 271.099 102.29 270.631 102.03C270.18 101.77 269.652 101.64 269.045 101.64C268.438 101.64 267.901 101.77 267.433 102.03C266.982 102.29 266.627 102.663 266.367 103.148C266.124 103.633 266.003 104.214 266.003 104.89C266.003 105.549 266.124 106.129 266.367 106.632C266.627 107.117 266.982 107.49 267.433 107.75C267.901 108.01 268.438 108.14 269.045 108.14ZM278.271 111V98.78H281.859V111H278.271ZM280.065 96.908C279.424 96.908 278.921 96.726 278.557 96.362C278.193 95.9807 278.011 95.504 278.011 94.932C278.011 94.36 278.193 93.892 278.557 93.528C278.921 93.164 279.424 92.982 280.065 92.982C280.689 92.982 281.183 93.1727 281.547 93.554C281.928 93.918 282.119 94.386 282.119 94.958C282.119 95.53 281.928 95.998 281.547 96.362C281.183 96.726 280.689 96.908 280.065 96.908ZM284.974 111V98.78H288.38V100.262C288.761 99.7247 289.264 99.3 289.888 98.988C290.512 98.676 291.292 98.52 292.228 98.52C293.597 98.52 294.681 98.9187 295.478 99.716C296.275 100.496 296.674 101.709 296.674 103.356V111H293.086V103.902C293.086 103.139 292.921 102.576 292.592 102.212C292.28 101.831 291.786 101.64 291.11 101.64C290.33 101.64 289.706 101.9 289.238 102.42C288.787 102.923 288.562 103.659 288.562 104.63V111H284.974ZM304.964 111.156C303.438 111.156 302.338 110.827 301.662 110.168C301.003 109.509 300.674 108.495 300.674 107.126V101.718H298.204V98.78H300.674V95.296H304.288V98.78H307.252V101.718H304.288V106.762C304.288 107.247 304.409 107.611 304.652 107.854C304.912 108.097 305.284 108.218 305.77 108.218C305.978 108.218 306.229 108.209 306.524 108.192C306.818 108.175 307.061 108.149 307.252 108.114V110.896C306.957 110.983 306.602 111.043 306.186 111.078C305.787 111.13 305.38 111.156 304.964 111.156ZM315.904 111V93.632H319.7V111H315.904ZM323.035 111V98.78H326.441V100.262C326.822 99.7247 327.325 99.3 327.949 98.988C328.573 98.676 329.353 98.52 330.289 98.52C331.658 98.52 332.741 98.9187 333.539 99.716C334.336 100.496 334.735 101.709 334.735 103.356V111H331.147V103.902C331.147 103.139 330.982 102.576 330.653 102.212C330.341 101.831 329.847 101.64 329.171 101.64C328.391 101.64 327.767 101.9 327.299 102.42C326.848 102.923 326.623 103.659 326.623 104.63V111H323.035ZM343.024 111.156C341.499 111.156 340.398 110.827 339.722 110.168C339.063 109.509 338.734 108.495 338.734 107.126V101.718H336.264V98.78H338.734V95.296H342.348V98.78H345.312V101.718H342.348V106.762C342.348 107.247 342.469 107.611 342.712 107.854C342.972 108.097 343.345 108.218 343.83 108.218C344.038 108.218 344.289 108.209 344.584 108.192C344.879 108.175 345.121 108.149 345.312 108.114V110.896C345.017 110.983 344.662 111.043 344.246 111.078C343.847 111.13 343.44 111.156 343.024 111.156ZM353.9 111.26C352.6 111.26 351.439 111 350.416 110.48C349.411 109.943 348.622 109.197 348.05 108.244C347.478 107.273 347.192 106.155 347.192 104.89C347.192 103.607 347.478 102.489 348.05 101.536C348.622 100.583 349.411 99.846 350.416 99.326C351.422 98.7887 352.583 98.52 353.9 98.52C355.218 98.52 356.379 98.7887 357.384 99.326C358.39 99.846 359.178 100.583 359.75 101.536C360.322 102.489 360.608 103.607 360.608 104.89C360.608 106.155 360.322 107.273 359.75 108.244C359.178 109.197 358.39 109.943 357.384 110.48C356.379 111 355.218 111.26 353.9 111.26ZM353.9 108.14C354.507 108.14 355.036 108.01 355.486 107.75C355.954 107.49 356.31 107.117 356.552 106.632C356.812 106.129 356.942 105.549 356.942 104.89C356.942 104.214 356.812 103.633 356.552 103.148C356.31 102.663 355.954 102.29 355.486 102.03C355.036 101.77 354.507 101.64 353.9 101.64C353.294 101.64 352.756 101.77 352.288 102.03C351.838 102.29 351.482 102.663 351.222 103.148C350.98 103.633 350.858 104.214 350.858 104.89C350.858 105.549 350.98 106.129 351.222 106.632C351.482 107.117 351.838 107.49 352.288 107.75C352.756 108.01 353.294 108.14 353.9 108.14Z" fill="white"/>
<path d="M369.301 111V93.632H373.097V107.698H380.637V111H369.301ZM382.562 111V107.88L389.452 101.562C389.972 101.111 390.344 100.661 390.57 100.21C390.812 99.7593 390.934 99.326 390.934 98.91C390.934 98.4073 390.821 97.974 390.596 97.61C390.37 97.246 390.058 96.9687 389.66 96.778C389.261 96.5873 388.784 96.492 388.23 96.492C387.571 96.492 386.904 96.648 386.228 96.96C385.569 97.2547 384.772 97.7053 383.836 98.312L382.562 95.608C383.532 94.8453 384.486 94.282 385.422 93.918C386.358 93.554 387.363 93.372 388.438 93.372C389.686 93.372 390.786 93.5973 391.74 94.048C392.693 94.4813 393.438 95.114 393.976 95.946C394.513 96.7607 394.782 97.7487 394.782 98.91C394.782 99.7593 394.539 100.583 394.054 101.38C393.586 102.177 392.806 103.053 391.714 104.006L387.372 107.88H395.042V111H382.562ZM402.158 111.26C401.239 111.26 400.347 111.13 399.48 110.87C398.613 110.61 397.773 110.22 396.958 109.7L398.18 107.1C399.012 107.603 399.766 107.975 400.442 108.218C401.118 108.443 401.716 108.556 402.236 108.556C402.86 108.556 403.328 108.469 403.64 108.296C403.952 108.123 404.108 107.854 404.108 107.49C404.108 107.195 404.004 106.97 403.796 106.814C403.588 106.658 403.215 106.537 402.678 106.45L401.066 106.164C399.818 105.939 398.882 105.54 398.258 104.968C397.651 104.396 397.348 103.642 397.348 102.706C397.348 101.943 397.53 101.25 397.894 100.626C398.275 99.9847 398.847 99.4733 399.61 99.092C400.373 98.7107 401.361 98.52 402.574 98.52C403.458 98.52 404.307 98.6413 405.122 98.884C405.937 99.1267 406.691 99.456 407.384 99.872L406.188 102.342C405.633 102.047 405.044 101.787 404.42 101.562C403.813 101.337 403.241 101.224 402.704 101.224C402.132 101.224 401.707 101.311 401.43 101.484C401.153 101.657 401.014 101.909 401.014 102.238C401.014 102.463 401.101 102.645 401.274 102.784C401.465 102.923 401.811 103.035 402.314 103.122L403.926 103.408C405.174 103.633 406.127 104.049 406.786 104.656C407.445 105.245 407.774 106.051 407.774 107.074C407.774 108.287 407.306 109.293 406.37 110.09C405.434 110.87 404.03 111.26 402.158 111.26Z" fill="#EBF479"/>
<path d="M69.424 36.0869C68.209 30.784 73.9364 17.1817 73.9364 17.1817L104.614 15.1428C110.548 13.553 116.647 17.0741 118.237 23.0076L131.209 44.3864C129.124 54.8137 127.396 60.7253 121.462 62.3152L90.3681 71.2773C84.4346 72.8672 78.3358 69.346 76.7459 63.4126L69.424 36.0869Z" fill="#EBF479"/>
<path d="M73.2752 24.535C71.6378 18.4244 75.2642 12.1434 81.3748 10.506L109.517 2.96546C115.627 1.32812 121.908 4.95445 123.546 11.0651L131.086 39.2069C132.724 45.3175 129.097 51.5985 122.987 53.2359L94.8447 60.7764C88.7341 62.4138 82.4531 58.7874 80.8158 52.6768L73.2752 24.535Z" fill="black"/>
<path fill-rule="evenodd" clip-rule="evenodd" d="M110.258 5.73154L82.116 13.2721C77.533 14.5001 74.8133 19.2109 76.0413 23.7939L83.5818 51.9356C84.8098 56.5186 89.5206 59.2384 94.1036 58.0104L122.245 50.4698C126.828 49.2418 129.548 44.531 128.32 39.9481L120.78 11.8063C119.552 7.22328 114.841 4.50353 110.258 5.73154ZM81.3748 10.506C75.2642 12.1434 71.6378 18.4244 73.2752 24.535L80.8158 52.6768C82.4531 58.7874 88.7341 62.4138 94.8447 60.7764L122.987 53.2359C129.097 51.5985 132.724 45.3175 131.086 39.2069L123.546 11.0651C121.908 4.95445 115.627 1.32812 109.517 2.96546L81.3748 10.506Z" fill="#EBF479"/>
<path fill-rule="evenodd" clip-rule="evenodd" d="M99.6965 18.3344L90.9256 20.6845C90.3921 20.8275 90.0756 21.3758 90.2185 21.9093L91.7228 27.5234C91.8657 28.0569 92.4141 28.3735 92.9476 28.2305L101.031 26.0645C103.538 25.3928 106.115 26.8805 106.787 29.3874C107.458 31.8943 105.971 34.4711 103.464 35.1428L95.3801 37.3088C94.8466 37.4518 94.53 38.0001 94.673 38.5336L96.2121 44.2776C96.355 44.811 96.9033 45.1276 97.4368 44.9847L106.208 42.6345C112.918 40.8365 116.9 33.9391 115.102 27.2288C113.304 20.5185 106.407 16.5364 99.6965 18.3344Z" fill="#EBF479"/>
<path d="M152.633 16.1426H166.159C169.416 16.1426 172.296 16.791 174.799 18.0878C177.332 19.3846 179.293 21.1941 180.68 23.5164C182.098 25.8386 182.806 28.4925 182.806 31.4782C182.806 34.6147 182.113 37.3742 180.725 39.7567C179.368 42.1393 177.423 43.994 174.89 45.321C172.386 46.6178 169.476 47.2662 166.159 47.2662H152.633V16.1426ZM165.706 39.1234C167.968 39.1234 169.687 38.4147 170.863 36.9972C172.07 35.5496 172.673 33.6798 172.673 31.3877C172.673 29.2163 172.085 27.4973 170.909 26.2306C169.763 24.9338 168.029 24.2854 165.706 24.2854H162.63V39.1234H165.706Z" fill="#EBF479"/>
<path d="M196.498 47.6281C194.538 47.6281 192.698 47.1154 190.979 46.09C189.291 45.0345 187.933 43.617 186.908 41.8377C185.883 40.0282 185.37 38.0226 185.37 35.8211C185.37 33.6496 185.883 31.6893 186.908 29.9401C187.933 28.1608 189.306 26.7735 191.025 25.7782C192.744 24.783 194.568 24.2854 196.498 24.2854C198.067 24.2854 199.514 24.7227 200.841 25.5973C202.198 26.4719 203.224 27.7838 203.917 29.533V24.2854H213.417V47.2662H203.917V43.0591C202.41 46.1051 199.937 47.6281 196.498 47.6281ZM199.439 40.4806C200.645 40.4806 201.671 40.0583 202.515 39.2139C203.39 38.3393 203.857 37.3139 203.917 36.1377V35.7758C203.857 34.5695 203.375 33.5441 202.47 32.6996C201.595 31.8552 200.585 31.433 199.439 31.433C198.172 31.433 197.087 31.8854 196.182 32.7901C195.307 33.6647 194.87 34.7203 194.87 35.9568C194.87 37.2234 195.322 38.2941 196.227 39.1687C197.132 40.0433 198.202 40.4806 199.439 40.4806Z" fill="#EBF479"/>
<path d="M218 24.9187H227.545V28.8544C228.992 25.8084 231.45 24.2854 234.918 24.2854C236.939 24.2854 238.794 24.7981 240.483 25.8235C242.202 26.8187 243.544 28.206 244.509 29.9854C245.504 31.7647 246.002 33.7552 246.002 35.9568C246.002 38.1583 245.489 40.1488 244.464 41.9282C243.468 43.7075 242.111 45.1099 240.392 46.1353C238.703 47.1305 236.894 47.6281 234.964 47.6281C231.526 47.6281 229.053 46.1051 227.545 43.0591V53.1472L218 54.9567V24.9187ZM232.068 40.4806C233.305 40.4806 234.361 40.0282 235.235 39.1234C236.11 38.2187 236.547 37.1631 236.547 35.9568C236.547 34.6901 236.095 33.6195 235.19 32.7449C234.315 31.8703 233.275 31.433 232.068 31.433C230.832 31.433 229.776 31.8703 228.902 32.7449C228.027 33.5893 227.59 34.5996 227.59 35.7758V35.9568C227.59 37.2234 228.027 38.2941 228.902 39.1687C229.807 40.0433 230.862 40.4806 232.068 40.4806Z" fill="#EBF479"/>
<path d="M249.867 16.1426H263.394C266.651 16.1426 269.531 16.791 272.034 18.0878C274.567 19.3846 276.528 21.1941 277.915 23.5164C279.332 25.8386 280.041 28.4925 280.041 31.4782C280.041 34.6147 279.348 37.3742 277.96 39.7567C276.603 42.1393 274.658 43.994 272.125 45.321C269.621 46.6178 266.711 47.2662 263.394 47.2662H249.867V16.1426ZM262.941 39.1234C265.203 39.1234 266.922 38.4147 268.098 36.9972C269.305 35.5496 269.908 33.6798 269.908 31.3877C269.908 29.2163 269.32 27.4973 268.144 26.2306C266.998 24.9338 265.263 24.2854 262.941 24.2854H259.865V39.1234H262.941Z" fill="#EBF479"/>
<path d="M293.733 47.6281C291.773 47.6281 289.933 47.1154 288.214 46.09C286.525 45.0345 285.168 43.617 284.143 41.8377C283.118 40.0282 282.605 38.0226 282.605 35.8211C282.605 33.6496 283.118 31.6893 284.143 29.9401C285.168 28.1608 286.541 26.7735 288.26 25.7782C289.979 24.783 291.803 24.2854 293.733 24.2854C295.302 24.2854 296.749 24.7227 298.076 25.5973C299.433 26.4719 300.459 27.7838 301.152 29.533V24.2854H310.652V47.2662H301.152V43.0591C299.644 46.1051 297.171 47.6281 293.733 47.6281ZM296.674 40.4806C297.88 40.4806 298.906 40.0583 299.75 39.2139C300.625 38.3393 301.092 37.3139 301.152 36.1377V35.7758C301.092 34.5695 300.61 33.5441 299.705 32.6996C298.83 31.8552 297.82 31.433 296.674 31.433C295.407 31.433 294.321 31.8854 293.417 32.7901C292.542 33.6647 292.105 34.7203 292.105 35.9568C292.105 37.2234 292.557 38.2941 293.462 39.1687C294.367 40.0433 295.437 40.4806 296.674 40.4806Z" fill="#EBF479"/>
<path d="M315.234 24.9187H324.78V28.8544C326.227 25.8084 328.685 24.2854 332.153 24.2854C334.174 24.2854 336.029 24.7981 337.718 25.8235C339.437 26.8187 340.779 28.206 341.744 29.9854C342.739 31.7647 343.237 33.7552 343.237 35.9568C343.237 38.1583 342.724 40.1488 341.699 41.9282C340.703 43.7075 339.346 45.1099 337.627 46.1353C335.938 47.1305 334.129 47.6281 332.199 47.6281C328.761 47.6281 326.288 46.1051 324.78 43.0591V53.1472L315.234 54.9567V24.9187ZM329.303 40.4806C330.54 40.4806 331.595 40.0282 332.47 39.1234C333.345 38.2187 333.782 37.1631 333.782 35.9568C333.782 34.6901 333.33 33.6195 332.425 32.7449C331.55 31.8703 330.51 31.433 329.303 31.433C328.067 31.433 327.011 31.8703 326.137 32.7449C325.262 33.5893 324.825 34.5996 324.825 35.7758V35.9568C324.825 37.2234 325.262 38.2941 326.137 39.1687C327.042 40.0433 328.097 40.4806 329.303 40.4806Z" fill="#EBF479"/>
</svg>
