<svg width="17" height="14" viewBox="0 0 17 14" fill="none" xmlns="http://www.w3.org/2000/svg">
<path d="M16.0383 7.6633L10.4133 13.2883C10.2372 13.4644 9.99829 13.5634 9.74922 13.5634C9.50015 13.5634 9.26128 13.4644 9.08516 13.2883C8.90904 13.1122 8.81009 12.8733 8.81009 12.6242C8.81009 12.3752 8.90904 12.1363 9.08516 11.9602L13.1094 7.93752H1.625C1.37636 7.93752 1.1379 7.83874 0.962087 7.66293C0.786272 7.48711 0.6875 7.24866 0.6875 7.00002C0.6875 6.75137 0.786272 6.51292 0.962087 6.3371C1.1379 6.16129 1.37636 6.06252 1.625 6.06252H13.1094L9.08672 2.03751C8.9106 1.86139 8.81166 1.62252 8.81166 1.37345C8.81166 1.12438 8.9106 0.88551 9.08672 0.70939C9.26284 0.533269 9.50171 0.434326 9.75078 0.434326C9.99985 0.434326 10.2387 0.533269 10.4148 0.70939L16.0398 6.33439C16.1273 6.4216 16.1966 6.52523 16.2438 6.63931C16.2911 6.75339 16.3153 6.87569 16.3152 6.99917C16.315 7.12265 16.2905 7.24489 16.243 7.35886C16.1955 7.47283 16.1259 7.57629 16.0383 7.6633Z" fill="#197650"/>
</svg>
