<svg width="14" height="12" viewBox="0 0 14 12" fill="none" xmlns="http://www.w3.org/2000/svg">
<path d="M13.0306 6.53061L8.53063 11.0306C8.38973 11.1715 8.19863 11.2507 7.99938 11.2507C7.80012 11.2507 7.60902 11.1715 7.46813 11.0306C7.32723 10.8897 7.24807 10.6986 7.24807 10.4994C7.24807 10.3001 7.32723 10.109 7.46813 9.96811L10.6875 6.74999H1.5C1.30109 6.74999 1.11032 6.67097 0.96967 6.53032C0.829018 6.38967 0.75 6.1989 0.75 5.99999C0.75 5.80108 0.829018 5.61031 0.96967 5.46966C1.11032 5.329 1.30109 5.24999 1.5 5.24999H10.6875L7.46937 2.02999C7.32848 1.88909 7.24932 1.69799 7.24932 1.49874C7.24932 1.29948 7.32848 1.10838 7.46937 0.967487C7.61027 0.826591 7.80137 0.747437 8.00062 0.747437C8.19988 0.747437 8.39098 0.826591 8.53187 0.967487L13.0319 5.46749C13.1018 5.53726 13.1573 5.62016 13.1951 5.71142C13.2329 5.80269 13.2523 5.90052 13.2522 5.99931C13.252 6.09809 13.2324 6.19588 13.1944 6.28706C13.1564 6.37824 13.1007 6.46101 13.0306 6.53061Z" fill="#A1A09A"/>
</svg>
