<svg width="48" height="49" viewBox="0 0 48 49" fill="none" xmlns="http://www.w3.org/2000/svg">
<rect y="0.5" width="48" height="48" rx="24" fill="#C4FDE1"/>
<path opacity="0.2" d="M18.75 27.5L21 29.75C21 29.75 20.25 32.75 15.75 32.75C15.75 28.25 18.75 27.5 18.75 27.5ZM24.75 19.25H18.9703C18.7717 19.2501 18.5812 19.329 18.4406 19.4694L15.2203 22.6897C15.122 22.7882 15.053 22.9122 15.0212 23.0477C14.9893 23.1832 14.9957 23.3249 15.0398 23.4569C15.0839 23.589 15.1638 23.7061 15.2707 23.7953C15.3776 23.8845 15.5072 23.9422 15.645 23.9619L19.5 24.5L24.75 19.25ZM24 29L24.5381 32.855C24.5578 32.9928 24.6155 33.1224 24.7047 33.2293C24.7939 33.3362 24.911 33.4161 25.0431 33.4602C25.1751 33.5043 25.3168 33.5107 25.4523 33.4788C25.5878 33.447 25.7118 33.378 25.8103 33.2797L29.0306 30.0594C29.171 29.9188 29.2499 29.7283 29.25 29.5297V23.75L24 29Z" fill="#197650"/>
<path d="M21.7284 29.9319C21.6919 30.0772 20.7778 33.5 15.75 33.5C15.5511 33.5 15.3603 33.421 15.2197 33.2804C15.079 33.1397 15 32.949 15 32.75C15 27.7222 18.4228 26.8082 18.5681 26.7716C18.7612 26.7234 18.9655 26.7538 19.1361 26.8562C19.3068 26.9586 19.4297 27.1246 19.478 27.3177C19.5262 27.5108 19.4958 27.7151 19.3933 27.8857C19.2909 28.0563 19.1249 28.1793 18.9319 28.2275C18.8475 28.251 16.83 28.8407 16.5356 31.9644C19.6594 31.67 20.25 29.6563 20.2744 29.5625C20.3241 29.3697 20.4484 29.2046 20.6199 29.1034C20.7914 29.0022 20.9961 28.9733 21.1889 29.023C21.3817 29.0727 21.5469 29.197 21.6481 29.3685C21.7492 29.54 21.7782 29.7447 21.7284 29.9375V29.9319ZM30.4472 23.6132L30 24.0604V29.5288C30.0011 29.7265 29.9629 29.9225 29.8876 30.1054C29.8122 30.2882 29.7013 30.4542 29.5612 30.5938L26.3437 33.8094C26.205 33.9492 26.0399 34.06 25.8581 34.1357C25.6763 34.2113 25.4813 34.2502 25.2844 34.25C25.1218 34.25 24.9604 34.2237 24.8062 34.1722C24.5416 34.0847 24.3067 33.9249 24.1281 33.7108C23.9495 33.4968 23.8343 33.237 23.7956 32.961L23.2922 29.3525L19.1475 25.2079L15.5409 24.7044C15.2645 24.6656 15.0044 24.5505 14.7898 24.372C14.5752 24.1934 14.4148 23.9586 14.3264 23.6938C14.238 23.429 14.2253 23.1448 14.2897 22.8732C14.354 22.6016 14.4929 22.3533 14.6906 22.1563L17.9062 18.9388C18.0458 18.7987 18.2118 18.6878 18.3947 18.6125C18.5775 18.5371 18.7735 18.4989 18.9712 18.5H24.4397L24.8869 18.0529C27.3881 15.5525 30.4022 15.4447 31.5816 15.515C31.9472 15.5373 32.2922 15.6926 32.5512 15.9516C32.8103 16.2107 32.9656 16.5556 32.9878 16.9213C33.0562 18.0979 32.9484 21.1119 30.4481 23.6132H30.4472ZM15.75 23.2194L19.2328 23.705L22.9397 20H18.9712L15.75 23.2194ZM20.5612 24.5L24 27.9388L29.3859 22.5529C30.1118 21.8319 30.6749 20.964 31.0374 20.0073C31.4 19.0507 31.5535 18.0275 31.4878 17.0066C30.4674 16.9433 29.4453 17.0984 28.4896 17.4617C27.534 17.825 26.6669 18.388 25.9462 19.1132L20.5612 24.5ZM28.5 25.5604L24.7941 29.2663L25.2816 32.75L28.5 29.5288V25.5604Z" fill="#197650"/>
</svg>
