<svg width="147" height="148" viewBox="0 0 147 148" fill="none" xmlns="http://www.w3.org/2000/svg">
<g filter="url(#filter0_d_6713_494)">
<path fill-rule="evenodd" clip-rule="evenodd" d="M43.3013 118.802C67.2159 132.609 97.7954 124.416 111.603 100.501C125.41 76.5865 117.216 46.0069 93.3013 32.1998C69.3866 18.3927 38.8071 26.5865 25 50.5011C11.1929 74.4157 19.3866 104.995 43.3013 118.802ZM60.0037 89.8727C67.9409 94.4553 78.0903 91.7358 82.6728 83.7985C87.2554 75.8613 84.5359 65.712 76.5987 61.1294C68.6614 56.5468 58.5121 59.2663 53.9295 67.2036C49.347 75.1408 52.0665 85.2901 60.0037 89.8727Z" fill="#ACFCED"/>
<circle cx="68.3022" cy="75.501" r="16.7104" transform="rotate(30 68.3022 75.501)" stroke="black" stroke-width="2"/>
<path d="M34.5596 81.5887C36.2923 91.1658 42.0697 99.9461 51.1584 105.193C60.2471 110.441 70.7397 111.054 79.9001 107.766" stroke="black" stroke-width="2" stroke-linecap="round"/>
<circle cx="88.1153" cy="102.611" r="5" transform="rotate(30 88.1153 102.611)" fill="black"/>
<circle cx="34.917" cy="71.8972" r="5" transform="rotate(30 34.917 71.8972)" fill="black"/>
<circle cx="68.3015" cy="75.5011" r="45.2857" transform="rotate(30 68.3015 75.5011)" stroke="black" stroke-width="2"/>
<path d="M48.3129 62.144C47.4917 62.9055 46.6116 63.4762 45.6727 63.8559C44.7337 64.2356 43.7831 64.4262 42.8207 64.4277C41.859 64.4103 40.9372 64.2104 40.0553 63.8281C39.1734 63.4457 38.3744 62.8684 37.6581 62.096C36.9419 61.3237 36.4264 60.4834 36.1115 59.5752C35.7967 58.667 35.6713 57.7377 35.7355 56.7872C35.8003 55.8179 36.0574 54.8794 36.5068 53.9717C36.9562 53.064 37.5915 52.2294 38.4127 51.4679C39.2437 50.6973 40.1238 50.1266 41.053 49.756C41.9919 49.3762 42.9422 49.1951 43.9039 49.2125C44.8565 49.2201 45.7738 49.415 46.6557 49.7974C47.5473 50.1707 48.3513 50.7435 49.0675 51.5158C49.7837 52.2882 50.2989 53.1379 50.613 54.0649C50.9279 54.9731 51.0532 55.9024 50.9891 56.8529C50.9249 57.8034 50.6682 58.7325 50.2188 59.6401C49.7792 60.5387 49.1439 61.3734 48.3129 62.144ZM46.0827 59.7389C46.4737 59.3763 46.772 58.9724 46.9775 58.5273C47.1927 58.0731 47.3047 57.6056 47.3134 57.1247C47.3228 56.625 47.2282 56.1309 47.0297 55.6422C46.8409 55.1445 46.5425 54.6756 46.1345 54.2357C45.7174 53.786 45.2724 53.4531 44.7994 53.2371C44.3271 53.0023 43.8459 52.8757 43.356 52.8572C42.8668 52.8199 42.3877 52.8915 41.9186 53.0719C41.4592 53.2433 41.034 53.5103 40.643 53.8729C40.2519 54.2356 39.9487 54.644 39.7335 55.0982C39.528 55.5433 39.4206 56.0157 39.4112 56.5154C39.4025 56.9962 39.4925 57.4855 39.6813 57.9833C39.8708 58.4621 40.1741 58.9264 40.5911 59.3762C40.9991 59.8161 41.4393 60.1535 41.9116 60.3883C42.3937 60.6141 42.8793 60.7456 43.3685 60.7829C43.8584 60.8014 44.3331 60.7249 44.7924 60.5536C45.2615 60.3731 45.6916 60.1016 46.0827 59.7389Z" fill="black"/>
<path d="M53.7901 54.8166L48.2609 41.9548L54.3427 39.3402C55.7637 38.7294 57.1263 38.4556 58.4307 38.5189C59.7351 38.5823 60.8928 38.9626 61.9037 39.6601C62.9269 40.3522 63.7229 41.3598 64.2916 42.6827C64.8551 43.9934 65.0386 45.2642 64.8421 46.4952C64.6526 47.7087 64.1321 48.8105 63.2806 49.8007C62.4291 50.7908 61.2929 51.5913 59.8719 52.2021L53.7901 54.8166ZM56.1802 50.3495L58.4769 49.3622C59.2119 49.0462 59.7909 48.6377 60.2141 48.1365C60.6442 47.6178 60.8991 47.0292 60.9789 46.3709C61.0535 45.7002 60.9328 44.9974 60.6168 44.2625C60.2956 43.5153 59.8686 42.9441 59.336 42.549C58.8033 42.154 58.2034 41.9402 57.5363 41.9077C56.8763 41.8576 56.1787 41.9906 55.4438 42.3065L53.147 43.2939L56.1802 50.3495Z" fill="black"/>
<path d="M70.3491 51.5531L70.8556 45.6548L71.5686 48.1048L66.2264 37.1476L70.3911 37.5052L74.2461 45.4441L71.8349 45.2371L77.0068 38.0732L80.8327 38.4018L73.7207 48.2896L74.8011 45.9936L74.2946 51.8919L70.3491 51.5531Z" fill="black"/>
<path d="M82.8636 55.8799C81.8936 55.2684 81.0322 54.5598 80.2792 53.754C79.5446 52.9441 79.0162 52.1697 78.694 51.4307L81.351 49.6539C81.6678 50.3265 82.0991 50.9924 82.6449 51.6518C83.209 52.307 83.8351 52.8514 84.5232 53.2852C84.9856 53.5767 85.3827 53.7719 85.7144 53.8707C86.0533 53.9583 86.3274 53.9735 86.5368 53.9164C86.7646 53.8551 86.9389 53.7286 87.0598 53.5368C87.2305 53.2661 87.2415 52.9736 87.0929 52.6593C86.9444 52.3449 86.7047 52.0125 86.3739 51.6622C86.0432 51.3118 85.6673 50.9329 85.2463 50.5256C84.8366 50.1255 84.439 49.6936 84.0536 49.2299C83.6794 48.7733 83.3732 48.2965 83.1348 47.7995C82.9036 47.2912 82.792 46.7558 82.7998 46.1934C82.8148 45.6196 83.0214 45.0169 83.4196 44.3853C83.8676 43.6747 84.4646 43.1527 85.2108 42.8193C85.9682 42.4929 86.8462 42.4003 87.8449 42.5413C88.8436 42.6823 89.9238 43.119 91.0855 43.8514C91.8638 44.3421 92.5682 44.9123 93.1988 45.5621C93.8479 46.2077 94.3589 46.8846 94.7321 47.5927L92.1322 49.429C91.7602 48.769 91.3441 48.1914 90.8839 47.6963C90.4308 47.19 89.9448 46.7733 89.426 46.4462C88.9636 46.1546 88.5593 45.9707 88.2134 45.8945C87.8745 45.8069 87.5933 45.803 87.3697 45.8827C87.146 45.9623 86.9702 46.1037 86.8422 46.3067C86.6787 46.5661 86.6656 46.8495 86.8029 47.1567C86.9586 47.4598 87.2018 47.7865 87.5325 48.1369C87.8817 48.4831 88.2611 48.8563 88.6708 49.2565C89.0918 49.6637 89.4894 50.0957 89.8636 50.5522C90.2561 51.0046 90.568 51.485 90.7992 51.9933C91.0375 52.4903 91.1436 53.0221 91.1173 53.5888C91.1095 54.1512 90.91 54.7426 90.5189 55.363C90.0851 56.051 89.486 56.5638 88.7214 56.9014C87.9753 57.2349 87.1029 57.3311 86.1042 57.1901C85.1168 57.0562 84.0366 56.6195 82.8636 55.8799Z" fill="black"/>
<path d="M90.248 65.3167C89.6745 64.3238 89.2421 63.2956 88.951 62.2319C88.6781 61.1731 88.5712 60.2416 88.6303 59.4376L91.809 59.1026C91.7761 59.8454 91.8476 60.6355 92.0235 61.4732C92.2177 62.3157 92.5182 63.0891 92.925 63.7934C93.1985 64.2668 93.459 64.6244 93.7065 64.8664C93.9656 65.1016 94.2011 65.2428 94.413 65.2897C94.6432 65.3416 94.8564 65.3108 95.0526 65.1974C95.3297 65.0373 95.4757 64.7836 95.4906 64.4363C95.5055 64.0889 95.4482 63.6831 95.3187 63.219C95.1892 62.7549 95.033 62.2446 94.8501 61.6881C94.6739 61.1432 94.5232 60.5758 94.398 59.986C94.2795 59.4077 94.2306 58.8432 94.2511 58.2924C94.2833 57.7349 94.4338 57.2091 94.7027 56.715C94.9831 56.2142 95.4466 55.7771 96.0931 55.4036C96.8205 54.9834 97.592 54.7995 98.4075 54.8519C99.2298 54.9159 100.05 55.2428 100.868 55.8326C101.686 56.4225 102.439 57.312 103.126 58.5012C103.586 59.2978 103.944 60.1305 104.199 60.9992C104.473 61.8728 104.61 62.7098 104.61 63.5102L101.454 63.9245C101.433 63.1671 101.333 62.4622 101.157 61.8098C100.991 61.1507 100.755 60.5556 100.449 60.0245C100.175 59.5512 99.9032 59.2002 99.6325 58.9716C99.3734 58.7363 99.1264 58.6019 98.8914 58.5682C98.6564 58.5346 98.435 58.5778 98.2272 58.6979C97.9616 58.8513 97.8181 59.0959 97.7965 59.4317C97.7931 59.7724 97.8562 60.1748 97.9857 60.6389C98.1335 61.1079 98.2955 61.6149 98.4717 62.1598C98.6546 62.7163 98.8052 63.2837 98.9237 63.862C99.0604 64.4451 99.1127 65.0154 99.0806 65.5729C99.06 66.1237 98.9062 66.6438 98.6191 67.133C98.3502 67.6271 97.8982 68.0575 97.2632 68.4244C96.559 68.8312 95.7899 69.006 94.9562 68.9487C94.1406 68.8963 93.3237 68.5752 92.5056 67.9853C91.6942 67.407 90.9417 66.5175 90.248 65.3167Z" fill="black"/>
<path d="M100.882 75.708L100.657 82.2041L97.6986 82.1014L97.924 75.6053L100.882 75.708ZM95.3558 75.7964L95.102 83.112L92.0438 83.0059L92.4336 71.7727L106.425 72.2581L106.044 83.2315L102.986 83.1254L103.231 76.0697L95.3558 75.7964Z" fill="black"/>
<path d="M90.9004 85.8311L96.2222 88.4242L93.6797 88.2088L105.825 87.1629L103.994 90.9206L95.2 91.6637L96.26 89.4882L101.086 96.8897L99.4036 100.342L92.7336 90.1505L94.4877 91.9841L89.1658 89.391L90.9004 85.8311Z" fill="black"/>
</g>
<defs>
<filter id="filter0_d_6713_494" x="16.293" y="25.4927" width="102.017" height="102.017" filterUnits="userSpaceOnUse" color-interpolation-filters="sRGB">
<feFlood flood-opacity="0" result="BackgroundImageFix"/>
<feColorMatrix in="SourceAlpha" type="matrix" values="0 0 0 0 0 0 0 0 0 0 0 0 0 0 0 0 0 0 127 0" result="hardAlpha"/>
<feOffset dx="-2" dy="2"/>
<feComposite in2="hardAlpha" operator="out"/>
<feColorMatrix type="matrix" values="0 0 0 0 0 0 0 0 0 0 0 0 0 0 0 0 0 0 0.25 0"/>
<feBlend mode="normal" in2="BackgroundImageFix" result="effect1_dropShadow_6713_494"/>
<feBlend mode="normal" in="SourceGraphic" in2="effect1_dropShadow_6713_494" result="shape"/>
</filter>
</defs>
</svg>
