<svg width="111" height="111" viewBox="0 0 111 111" fill="none" xmlns="http://www.w3.org/2000/svg">
<path d="M53.5454 1.67862C54.6696 0.713136 56.3304 0.713135 57.4546 1.67862L65.6396 8.70805C66.3628 9.32916 67.3382 9.56956 68.2672 9.35569L78.7814 6.9352C80.2255 6.60275 81.696 7.37453 82.2427 8.75187L86.2234 18.7799C86.5752 19.6659 87.3271 20.3321 88.2491 20.5744L98.6838 23.3174C100.117 23.6941 101.06 25.0609 100.904 26.5346L99.769 37.2638C99.6686 38.2119 100.025 39.1511 100.729 39.7942L108.693 47.0722C109.787 48.0719 109.987 49.7205 109.165 50.9529L103.173 59.9255C102.644 60.7183 102.522 61.7155 102.847 62.612L106.517 72.7578C107.021 74.1513 106.432 75.7041 105.131 76.4129L95.6557 81.5733C94.8185 82.0293 94.2478 82.856 94.1184 83.8005L92.6532 94.4898C92.452 95.9579 91.2089 97.0592 89.7272 97.082L78.9392 97.2481C77.986 97.2627 77.0965 97.7296 76.543 98.5057L70.2781 107.29C69.4176 108.496 67.8051 108.894 66.4825 108.225L56.8531 103.359C56.0023 102.929 54.9977 102.929 54.1469 103.359L44.5175 108.225C43.1949 108.894 41.5824 108.496 40.7219 107.29L34.457 98.5057C33.9035 97.7296 33.014 97.2627 32.0608 97.2481L21.2728 97.082C19.7911 97.0592 18.548 95.9579 18.3468 94.4898L16.8816 83.8005C16.7522 82.856 16.1815 82.0293 15.3443 81.5733L5.86924 76.4129C4.56784 75.7041 3.97894 74.1513 4.48304 72.7578L8.15322 62.612C8.47752 61.7155 8.35643 60.7183 7.82702 59.9255L1.83545 50.9529C1.01251 49.7205 1.21268 48.0719 2.30664 47.0722L10.2714 39.7942C10.9752 39.1511 11.3314 38.2119 11.231 37.2638L10.0956 26.5346C9.93959 25.0609 10.883 23.6941 12.3162 23.3174L22.7509 20.5744C23.6729 20.3321 24.4248 19.6659 24.7766 18.7799L28.7573 8.75187C29.304 7.37453 30.7745 6.60275 32.2186 6.9352L42.7328 9.35569C43.6618 9.56956 44.6372 9.32916 45.3604 8.70805L53.5454 1.67862Z" fill="#BC9BFF"/>
<path d="M54.1969 9.43725C54.9464 8.79359 56.0536 8.79359 56.803 9.43725L63.5641 15.2438C64.5284 16.0719 65.8289 16.3925 67.0676 16.1073L75.7526 14.1079C76.7154 13.8863 77.6957 14.4008 78.0602 15.319L81.3484 23.6025C81.8174 24.7839 82.82 25.6721 84.0493 25.9952L92.6687 28.261C93.6242 28.5121 94.2531 29.4233 94.1491 30.4058L93.2112 39.2685C93.0774 40.5325 93.5524 41.7849 94.4907 42.6423L101.07 48.6542C101.799 49.3206 101.933 50.4197 101.384 51.2413L96.4347 58.653C95.7289 59.71 95.5674 61.0397 95.9998 62.235L99.0315 70.6157C99.3676 71.5447 98.9749 72.5799 98.1074 73.0524L90.2806 77.3151C89.1644 77.9231 88.4035 79.0254 88.2309 80.2847L87.0206 89.1144C86.8864 90.0932 86.0577 90.8273 85.0699 90.8426L76.1587 90.9797C74.8878 90.9993 73.7018 91.6217 72.9637 92.6566L67.7887 99.9124C67.2151 100.717 66.1401 100.982 65.2584 100.536L57.3042 96.5163C56.1697 95.943 54.8303 95.943 53.6958 96.5163L45.7416 100.536C44.8599 100.982 43.7849 100.717 43.2113 99.9124L38.0363 92.6566C37.2982 91.6217 36.1122 90.9993 34.8413 90.9797L25.9301 90.8426C24.9423 90.8273 24.1136 90.0932 23.9794 89.1144L22.7691 80.2847C22.5965 79.0254 21.8356 77.9231 20.7194 77.3151L12.8926 73.0524C12.025 72.5799 11.6324 71.5447 11.9685 70.6157L15.0002 62.235C15.4326 61.0397 15.2711 59.71 14.5653 58.653L9.61604 51.2413C9.06741 50.4197 9.20086 49.3206 9.93016 48.6542L16.5093 42.6423C17.4477 41.7849 17.9226 40.5325 17.7888 39.2685L16.8509 30.4058C16.7469 29.4233 17.3758 28.5121 18.3313 28.261L26.9507 25.9952C28.18 25.6721 29.1826 24.7839 29.6516 23.6025L32.9398 15.319C33.3043 14.4008 34.2846 13.8863 35.2474 14.1079L43.9324 16.1073C45.1711 16.3925 46.4716 16.0719 47.4359 15.2438L54.1969 9.43725Z" stroke="black" stroke-width="2"/>
<path d="M28.0287 41.2862C27.2804 41.4867 26.5593 41.5543 25.8655 41.489C25.1782 41.4123 24.541 41.2158 23.9538 40.8997C23.3756 40.5812 22.8761 40.1594 22.4553 39.6344C22.0434 39.1071 21.742 38.4873 21.5512 37.7751C21.3604 37.0629 21.3115 36.3754 21.4045 35.7128C21.5065 35.0477 21.7327 34.4315 22.0831 33.8641C22.4335 33.2968 22.8929 32.8113 23.4612 32.4079C24.027 31.9953 24.6886 31.6876 25.4459 31.4847C26.2843 31.2601 27.0745 31.1981 27.8165 31.2988C28.5676 31.3971 29.2442 31.6506 29.8465 32.0593L28.788 33.7344C28.3488 33.4655 27.9034 33.2998 27.4518 33.2373C26.9978 33.1657 26.5319 33.1939 26.0541 33.3219C25.5943 33.4451 25.1944 33.6295 24.8544 33.8753C24.5144 34.121 24.2409 34.4165 24.0339 34.7618C23.8359 35.1047 23.7098 35.4816 23.6556 35.8923C23.6104 36.3005 23.6482 36.7301 23.769 37.1808C23.8873 37.6226 24.0682 38.0089 24.3115 38.3399C24.5638 38.6685 24.8626 38.9363 25.2079 39.1433C25.5599 39.3388 25.94 39.4592 26.3483 39.5044C26.7656 39.5472 27.1996 39.5082 27.6503 39.3874C28.0831 39.2715 28.4842 39.0915 28.8536 38.8476C29.2297 38.5922 29.5669 38.2458 29.8651 37.8084L31.5332 39.0572C31.1232 39.5826 30.6034 40.0407 29.9738 40.4317C29.3532 40.8202 28.7048 41.105 28.0287 41.2862ZM29.4557 39.3095L28.5027 35.753L30.5041 35.2167L31.5332 39.0572L29.4557 39.3095ZM33.8472 39.5532L31.3108 30.0871L35.4082 28.9892C36.2557 28.7622 37.0233 28.7062 37.7113 28.8214C38.3968 28.9276 38.9752 29.193 39.4464 29.6175C39.9177 30.042 40.2487 30.6103 40.4396 31.3225C40.628 32.0257 40.6243 32.679 40.4284 33.2822C40.2301 33.8764 39.8607 34.3909 39.3201 34.8256C38.7795 35.2604 38.0855 35.5913 37.2381 35.8183L34.3577 36.5901L35.0741 35.3691L36.0379 38.9662L33.8472 39.5532ZM39.8649 37.9408L36.578 35.1401L38.9175 34.5132L42.2314 37.3067L39.8649 37.9408ZM35.1393 35.6125L33.8903 34.8457L36.6489 34.1065C37.3251 33.9253 37.7913 33.6458 38.0476 33.2679C38.3014 32.881 38.3595 32.4307 38.2218 31.9168C38.0817 31.3939 37.8062 31.0329 37.3953 30.8338C36.9845 30.6347 36.441 30.6257 35.7648 30.8069L33.0061 31.5461L33.7008 30.2439L35.1393 35.6125ZM42.5472 37.2221L44.2299 26.6255L46.3936 26.0457L53.1627 34.3776L50.8638 34.9936L45.1626 27.564L46.0281 27.3321L44.792 36.6206L42.5472 37.2221ZM44.1133 34.6284L44.2491 32.8092L49.1173 31.5048L50.158 33.0087L44.1133 34.6284ZM54.1448 34.1145L51.6084 24.6484L53.4205 24.1629L60.8317 29.4819L59.9527 29.7175L58.1265 22.9019L60.2902 22.3221L62.8266 31.7882L61.028 32.2701L53.6033 26.9547L54.4823 26.7192L56.3085 33.5347L54.1448 34.1145ZM65.0662 31.1881L62.5298 21.722L66.8301 20.5698C67.8578 20.2944 68.817 20.25 69.7076 20.4365C70.5958 20.614 71.355 20.9951 71.9852 21.58C72.6154 22.1648 73.0597 22.9395 73.3182 23.9042C73.5742 24.8598 73.5768 25.7529 73.3259 26.5835C73.0726 27.405 72.6069 28.1192 71.9288 28.726C71.2484 29.3239 70.3943 29.7605 69.3665 30.0358L65.0662 31.1881ZM66.775 28.8026L68.7764 28.2663C69.4075 28.0972 69.9215 27.8338 70.3185 27.4762C70.7221 27.1072 70.9909 26.668 71.1249 26.1586C71.268 25.6468 71.2598 25.0934 71.1004 24.4984C70.9386 23.8944 70.6689 23.411 70.2915 23.0483C69.9207 22.6742 69.4695 22.4328 68.9379 22.324C68.4129 22.2038 67.8349 22.2282 67.2038 22.3973L65.2024 22.9336L66.775 28.8026Z" fill="black"/>
<path d="M32.0812 55.5758L29.5448 46.1098L33.6423 45.0119C34.4897 44.7848 35.2574 44.7289 35.9453 44.8441C36.6308 44.9503 37.2092 45.2156 37.6805 45.6401C38.1517 46.0646 38.4828 46.6329 38.6736 47.3452C38.862 48.0484 38.8583 48.7016 38.6624 49.3048C38.4666 49.9081 38.0995 50.4316 37.5614 50.8753C37.0208 51.31 36.3268 51.6409 35.4794 51.868L32.599 52.6398L33.3081 51.3917L34.272 54.9888L32.0812 55.5758ZM33.3733 51.6351L32.1207 50.8548L34.8794 50.1156C35.5555 49.9344 36.0217 49.6549 36.278 49.277C36.5342 48.8991 36.5935 48.4533 36.4558 47.9394C36.3157 47.4165 36.0403 47.0555 35.6294 46.8564C35.2185 46.6573 34.675 46.6483 33.9989 46.8295L31.2402 47.5687L31.9348 46.2665L33.3733 51.6351ZM41.8537 52.9573L39.3173 43.4912L43.4147 42.3933C44.2622 42.1663 45.0298 42.1103 45.7178 42.2255C46.4033 42.3317 46.9817 42.5971 47.4529 43.0216C47.9242 43.4461 48.2552 44.0144 48.4461 44.7266C48.6345 45.4298 48.6308 46.0831 48.4349 46.6863C48.2366 47.2805 47.8672 47.795 47.3266 48.2297C46.786 48.6645 46.092 48.9954 45.2446 49.2224L42.3642 49.9942L43.0806 48.7732L44.0444 52.3703L41.8537 52.9573ZM47.8714 51.3449L44.5845 48.5442L46.924 47.9173L50.2379 50.7108L47.8714 51.3449ZM43.1458 49.0166L41.8968 48.2498L44.6554 47.5106C45.3316 47.3294 45.7978 47.0499 46.0541 46.672C46.3079 46.2851 46.366 45.8348 46.2283 45.3209C46.0882 44.798 45.8127 44.437 45.4018 44.2379C44.991 44.0388 44.4475 44.0298 43.7713 44.211L41.0126 44.9502L41.7073 43.648L43.1458 49.0166ZM51.7978 50.2928L49.2614 40.8267L51.4521 40.2397L53.9885 49.7058L51.7978 50.2928ZM55.6265 49.2669L55.246 47.847L59.21 39.219L59.6943 39.9444L53.6766 41.5569L53.1983 39.7718L61.1633 37.6376L61.5438 39.0575L57.5933 47.6819L57.109 46.9565L63.4243 45.2643L63.9026 47.0493L55.6265 49.2669ZM65.8079 40.4804L70.3651 39.2593L70.8217 40.9632L66.2644 42.1843L65.8079 40.4804ZM67.0137 44.3315L72.166 42.951L72.637 44.709L65.3076 46.6729L62.7712 37.2068L69.9248 35.29L70.3958 37.048L65.4194 38.3814L67.0137 44.3315Z" fill="black"/>
<path d="M52.5739 88.3179L50.0374 78.8518L54.1349 77.7539C54.9823 77.5268 55.75 77.4709 56.4379 77.5861C57.1234 77.6923 57.7018 77.9576 58.1731 78.3821C58.6443 78.8066 58.9754 79.375 59.1662 80.0872C59.3546 80.7904 59.3509 81.4436 59.155 82.0468C58.9592 82.6501 58.5922 83.1736 58.054 83.6173C57.5134 84.052 56.8194 84.3829 55.972 84.61L53.0916 85.3818L53.8007 84.1337L54.7646 87.7309L52.5739 88.3179ZM53.866 84.3772L52.6133 83.5968L55.372 82.8576C56.0481 82.6764 56.5143 82.3969 56.7706 82.019C57.0269 81.6412 57.0861 81.1953 56.9485 80.6814C56.8084 80.1585 56.5329 79.7975 56.122 79.5984C55.7111 79.3993 55.1676 79.3903 54.4915 79.5715L51.7328 80.3107L52.4274 79.0085L53.866 84.3772ZM64.043 85.2447L61.9849 77.5637L58.9557 78.3753L58.4774 76.5903L66.7265 74.38L67.2047 76.165L64.1756 76.9767L66.2337 84.6577L64.043 85.2447ZM73.5293 82.8768C72.772 83.0797 72.0197 83.175 71.2724 83.1627C70.5227 83.1413 69.8925 83.0251 69.3818 82.8141L69.6835 80.965C70.1665 81.1448 70.7083 81.2557 71.309 81.2976C71.9162 81.3282 72.5038 81.2674 73.0718 81.1152C73.5045 80.9992 73.8408 80.8657 74.0805 80.7145C74.3268 80.5518 74.4925 80.377 74.5776 80.1899C74.6628 80.0028 74.6788 79.8101 74.6256 79.6118C74.558 79.3594 74.4057 79.1876 74.1687 79.0965C73.9293 78.9964 73.6352 78.9447 73.2865 78.9415C72.9354 78.9293 72.5506 78.9358 72.1322 78.9609C71.7204 78.9747 71.2993 78.9716 70.8688 78.9516C70.4473 78.9293 70.0477 78.8624 69.67 78.7511C69.2923 78.6397 68.9563 78.4495 68.662 78.1805C68.3767 77.9091 68.1664 77.521 68.0311 77.0161C67.8862 76.4752 67.8988 75.9452 68.0689 75.4262C68.2456 74.8957 68.592 74.4212 69.1079 74.0028C69.6304 73.5729 70.338 73.2383 71.2305 72.9992C71.8255 72.8398 72.4308 72.7549 73.0464 72.7445C73.6597 72.7251 74.2246 72.796 74.7412 72.9571L74.5108 74.8016C74.0014 74.6676 73.5101 74.6011 73.0369 74.6023C72.5614 74.5944 72.1117 74.6473 71.688 74.7608C71.2643 74.8743 70.9305 75.0169 70.6866 75.1886C70.4427 75.3602 70.2839 75.5429 70.2102 75.7365C70.1341 75.9212 70.1238 76.1172 70.1793 76.3246C70.2446 76.568 70.3969 76.7397 70.6363 76.8399C70.8733 76.931 71.1661 76.9781 71.5148 76.9813C71.8635 76.9845 72.2438 76.9792 72.6556 76.9655C73.0764 76.9494 73.4964 76.948 73.9154 76.9613C74.3435 76.9722 74.7464 77.0333 75.1241 77.1447C75.5018 77.2561 75.8333 77.4475 76.1186 77.7189C76.4129 77.9879 76.6265 78.3703 76.7594 78.8661C76.9019 79.398 76.8836 79.9247 76.7044 80.4462C76.5253 80.9677 76.1745 81.4433 75.6519 81.8732C75.1384 82.3007 74.4309 82.6352 73.5293 82.8768Z" fill="black"/>
<path d="M28.6134 77.8456L25.4144 65.9068L27.8625 67.2385L23.5931 68.3825L22.6717 64.9438L29.5491 63.101L33.1726 76.624L28.6134 77.8456ZM41.0402 74.8472C39.8424 75.1681 38.7057 75.1759 37.63 74.8706C36.5672 74.5618 35.6303 73.9501 34.8193 73.0355C34.0212 72.1175 33.422 70.9115 33.0217 69.4175C32.6214 67.9235 32.5373 66.5795 32.7695 65.3854C33.0145 64.1878 33.5201 63.1896 34.2861 62.3908C35.065 61.5886 36.0533 61.027 37.2511 60.706C38.4488 60.3851 39.5791 60.379 40.6419 60.6878C41.7176 60.9931 42.6545 61.6048 43.4526 62.5229C44.2636 63.4374 44.8693 64.6417 45.2696 66.1357C45.6699 67.6297 45.7475 68.9754 45.5025 70.173C45.2703 71.3671 44.7647 72.3653 43.9858 73.1676C43.2198 73.9664 42.2379 74.5262 41.0402 74.8472ZM40.0618 71.196C40.3581 71.1166 40.5945 70.9428 40.7711 70.6747C40.9477 70.4065 41.0331 70.004 41.0273 69.4672C41.0344 68.927 40.9223 68.2254 40.6911 67.3625C40.4564 66.4867 40.2027 65.8231 39.9299 65.3717C39.6665 64.9039 39.3913 64.598 39.1043 64.4541C38.8173 64.3101 38.5256 64.2779 38.2294 64.3572C37.9332 64.4366 37.6968 64.6104 37.5202 64.8786C37.3436 65.1467 37.2517 65.5509 37.2446 66.0912C37.247 66.6151 37.3655 67.3149 37.6001 68.1907C37.8314 69.0536 38.0787 69.7189 38.342 70.1867C38.6183 70.651 38.8999 70.9552 39.187 71.0991C39.474 71.2431 39.7656 71.2753 40.0618 71.196ZM48.8703 75.7307L49.0385 69.8674L50.3283 72.1307C49.5813 72.3308 48.9126 72.2822 48.3222 71.9849C47.7283 71.6747 47.3313 71.1461 47.1312 70.3991C46.9276 69.6393 47.0054 68.9766 47.3646 68.411C47.7332 67.8291 48.2845 67.4398 49.0187 67.2431C49.7528 67.0464 50.4185 67.1096 51.0158 67.4327C51.6225 67.7394 52.0277 68.2727 52.2313 69.0326C52.2865 69.2386 52.3224 69.4499 52.339 69.6663C52.3684 69.8793 52.3713 70.1477 52.3477 70.4715C52.3205 70.7824 52.2566 71.2137 52.156 71.7652L51.5749 75.006L48.8703 75.7307ZM59.7173 69.8427C58.5195 70.1636 57.3828 70.1714 56.3071 69.8661C55.2443 69.5573 54.3074 68.9456 53.4964 68.031C52.6983 67.113 52.099 65.907 51.6987 64.413C51.2984 62.919 51.2144 61.575 51.4466 60.3809C51.6916 59.1833 52.1972 58.1851 52.9632 57.3863C53.7421 56.5841 54.7304 56.0225 55.9282 55.7015C57.1259 55.3806 58.2562 55.3745 59.319 55.6833C60.3947 55.9886 61.3316 56.6003 62.1297 57.5183C62.9407 58.4329 63.5464 59.6372 63.9467 61.1312C64.347 62.6251 64.4246 63.9709 64.1795 65.1685C63.9474 66.3626 63.4418 67.3608 62.6629 68.163C61.8969 68.9619 60.915 69.5217 59.7173 69.8427ZM58.7389 66.1915C59.0351 66.1121 59.2716 65.9383 59.4482 65.6701C59.6248 65.402 59.7102 64.9995 59.7044 64.4627C59.7115 63.9224 59.5994 63.2209 59.3682 62.358C59.1335 61.4822 58.8798 60.8186 58.607 60.3672C58.3436 59.8994 58.0684 59.5935 57.7814 59.4496C57.4943 59.3056 57.2027 59.2733 56.9065 59.3527C56.6103 59.4321 56.3739 59.6059 56.1973 59.874C56.0206 60.1422 55.9288 60.5464 55.9217 61.0867C55.9241 61.6106 56.0426 62.3104 56.2772 63.1862C56.5084 64.0491 56.7557 64.7144 57.0191 65.1822C57.2954 65.6465 57.577 65.9507 57.864 66.0946C58.1511 66.2386 58.4427 66.2708 58.7389 66.1915ZM73.0931 66.2586C71.8953 66.5796 70.7586 66.5874 69.6829 66.282C68.6201 65.9733 67.6832 65.3616 66.8722 64.447C66.0741 63.5289 65.4749 62.3229 65.0745 60.829C64.6742 59.335 64.5902 57.991 64.8224 56.7968C65.0674 55.5993 65.573 54.6011 66.339 53.8023C67.1179 53 68.1062 52.4384 69.304 52.1175C70.5017 51.7965 71.632 51.7905 72.6948 52.0992C73.7705 52.4046 74.7074 53.0163 75.5055 53.9343C76.3165 54.8489 76.9222 56.0532 77.3225 57.5471C77.7228 59.0411 77.8004 60.3869 77.5554 61.5844C77.3232 62.7786 76.8176 63.7767 76.0387 64.579C75.2727 65.3778 74.2908 65.9377 73.0931 66.2586ZM72.1147 62.6074C72.411 62.5281 72.6474 62.3543 72.824 62.0861C73.0006 61.8179 73.086 61.4154 73.0802 60.8786C73.0873 60.3384 72.9752 59.6368 72.744 58.7739C72.5093 57.8982 72.2556 57.2346 71.9828 56.7831C71.7194 56.3153 71.4442 56.0095 71.1572 55.8655C70.8701 55.7216 70.5785 55.6893 70.2823 55.7687C69.9861 55.848 69.7497 56.0218 69.5731 56.29C69.3965 56.5582 69.3046 56.9624 69.2975 57.5026C69.2999 58.0266 69.4184 58.7264 69.653 59.6022C69.8842 60.4651 70.1315 61.1304 70.3949 61.5982C70.6712 62.0625 70.9528 62.3666 71.2399 62.5106C71.5269 62.6545 71.8185 62.6868 72.1147 62.6074ZM86.4689 62.6746C85.2711 62.9955 84.1344 63.0033 83.0587 62.698C81.9959 62.3892 81.059 61.7775 80.248 60.8629C79.4499 59.9449 78.8507 58.7389 78.4504 57.2449C78.0501 55.751 77.966 54.4069 78.1982 53.2128C78.4432 52.0152 78.9488 51.0171 79.7148 50.2182C80.4937 49.416 81.482 48.8544 82.6798 48.5334C83.8775 48.2125 85.0078 48.2064 86.0706 48.5152C87.1463 48.8205 88.0832 49.4322 88.8813 50.3503C89.6923 51.2649 90.298 52.4691 90.6983 53.9631C91.0986 55.4571 91.1762 56.8028 90.9312 58.0004C90.699 59.1945 90.1934 60.1927 89.4145 60.995C88.6485 61.7938 87.6666 62.3537 86.4689 62.6746ZM85.4905 59.0234C85.7868 58.944 86.0232 58.7702 86.1998 58.5021C86.3764 58.2339 86.4618 57.8314 86.456 57.2946C86.4631 56.7544 86.351 56.0528 86.1198 55.1899C85.8851 54.3141 85.6314 53.6505 85.3586 53.1991C85.0952 52.7313 84.82 52.4255 84.533 52.2815C84.246 52.1376 83.9543 52.1053 83.6581 52.1846C83.3619 52.264 83.1255 52.4378 82.9489 52.706C82.7723 52.9741 82.6804 53.3784 82.6733 53.9186C82.6757 54.4425 82.7942 55.1424 83.0288 56.0181C83.2601 56.881 83.5074 57.5464 83.7707 58.0141C84.047 58.4784 84.3286 58.7826 84.6157 58.9265C84.9027 59.0705 85.1943 59.1028 85.4905 59.0234Z" fill="black"/>
</svg>
