<svg width="48" height="49" viewBox="0 0 48 49" fill="none" xmlns="http://www.w3.org/2000/svg">
<rect y="0.5" width="48" height="48" rx="24" fill="#FFECBC"/>
<path opacity="0.2" d="M18 18.5L21.75 29.75H14.25L18 18.5ZM30.75 19.625C30.75 18.8092 30.5081 18.0116 30.0548 17.3333C29.6016 16.6549 28.9573 16.1262 28.2036 15.814C27.4498 15.5018 26.6204 15.4201 25.8203 15.5793C25.0201 15.7384 24.2851 16.1313 23.7082 16.7082C23.1313 17.2851 22.7384 18.0201 22.5793 18.8203C22.4201 19.6204 22.5018 20.4498 22.814 21.2036C23.1262 21.9573 23.6549 22.6016 24.3333 23.0548C25.0116 23.5081 25.8092 23.75 26.625 23.75C27.1667 23.75 27.7031 23.6433 28.2036 23.436C28.704 23.2287 29.1588 22.9249 29.5418 22.5418C29.9249 22.1588 30.2287 21.704 30.436 21.2036C30.6433 20.7031 30.75 20.1667 30.75 19.625ZM24.75 26.75V32H33V26.75H24.75Z" fill="#AD5700"/>
<path d="M33.0001 26H24.7501C24.5511 26 24.3604 26.079 24.2197 26.2197C24.0791 26.3603 24.0001 26.5511 24.0001 26.75V32C24.0001 32.1989 24.0791 32.3897 24.2197 32.5303C24.3604 32.671 24.5511 32.75 24.7501 32.75H33.0001C33.199 32.75 33.3897 32.671 33.5304 32.5303C33.671 32.3897 33.7501 32.1989 33.7501 32V26.75C33.7501 26.5511 33.671 26.3603 33.5304 26.2197C33.3897 26.079 33.199 26 33.0001 26ZM32.2501 31.25H25.5001V27.5H32.2501V31.25ZM18.7116 18.2628C18.6619 18.1134 18.5664 17.9835 18.4387 17.8914C18.3109 17.7994 18.1575 17.7498 18.0001 17.7498C17.8426 17.7498 17.6892 17.7994 17.5615 17.8914C17.4337 17.9835 17.3382 18.1134 17.2885 18.2628L13.5385 29.5128C13.5009 29.6256 13.4907 29.7456 13.5086 29.8631C13.5265 29.9806 13.5721 30.0921 13.6416 30.1885C13.7111 30.285 13.8025 30.3635 13.9083 30.4176C14.0141 30.4718 14.1312 30.5 14.2501 30.5H21.7501C21.8689 30.5 21.986 30.4718 22.0918 30.4176C22.1976 30.3635 22.289 30.285 22.3585 30.1885C22.428 30.0921 22.4736 29.9806 22.4915 29.8631C22.5095 29.7456 22.4992 29.6256 22.4616 29.5128L18.7116 18.2628ZM15.2907 29L18.0001 20.8719L20.7094 29H15.2907ZM31.5001 19.625C31.5001 18.6608 31.2141 17.7183 30.6785 16.9166C30.1428 16.1149 29.3814 15.4901 28.4906 15.1211C27.5998 14.7521 26.6196 14.6556 25.674 14.8437C24.7283 15.0318 23.8597 15.4961 23.1779 16.1779C22.4961 16.8596 22.0318 17.7283 21.8437 18.6739C21.6556 19.6196 21.7522 20.5998 22.1211 21.4906C22.4901 22.3814 23.115 23.1427 23.9167 23.6784C24.7183 24.2141 25.6609 24.5 26.6251 24.5C27.9175 24.4985 29.1566 23.9844 30.0706 23.0705C30.9845 22.1566 31.4986 20.9175 31.5001 19.625ZM23.2501 19.625C23.2501 18.9575 23.448 18.305 23.8188 17.75C24.1897 17.1949 24.7168 16.7624 25.3335 16.5069C25.9502 16.2515 26.6288 16.1846 27.2835 16.3149C27.9382 16.4451 28.5395 16.7665 29.0115 17.2385C29.4835 17.7105 29.805 18.3119 29.9352 18.9666C30.0654 19.6213 29.9986 20.2999 29.7431 20.9166C29.4877 21.5333 29.0551 22.0604 28.5001 22.4312C27.9451 22.8021 27.2926 23 26.6251 23C25.7299 23 24.8715 22.6444 24.2386 22.0115C23.6056 21.3786 23.2501 20.5201 23.2501 19.625Z" fill="#AD5700"/>
</svg>
