<svg width="139" height="162" viewBox="0 0 139 162" fill="none" xmlns="http://www.w3.org/2000/svg">
<circle cx="65.2984" cy="36.2986" r="33.5156" transform="rotate(-4.97983 65.2984 36.2986)" fill="url(#paint0_linear_89_3360)"/>
<path d="M67.5864 58.6879C79.7846 57.6251 88.8107 46.895 87.7496 34.7175C86.6886 22.54 75.9427 13.5327 63.7444 14.5956C52.1713 15.604 43.452 25.3138 43.4956 36.7035L72.6888 34.1598L73.0119 37.8676L43.8187 40.4113C45.746 51.6409 56.0133 59.6963 67.5864 58.6879Z" fill="url(#paint1_linear_89_3360)"/>
<path d="M125.386 103.773C123.145 112.258 114.436 117.307 105.959 115.036L76.4936 107.14C68.0381 104.875 63.0203 96.1836 65.2859 87.7282L73.2341 58.0652C75.485 49.6648 84.0842 44.647 92.5049 46.8203L113.903 52.343L131.339 81.2361L125.386 103.773Z" fill="url(#paint2_linear_89_3360)" stroke="url(#paint3_linear_89_3360)" stroke-width="0.3"/>
<g filter="url(#filter0_d_89_3360)">
<path d="M131.5 81.2128C128.999 72.7128 117.499 54.7133 114 52.2133C113.5 54.5466 109.151 61.7133 114.751 65.7133C120.351 69.7133 128 76.2128 131.5 81.2128Z" fill="url(#paint4_linear_89_3360)"/>
</g>
<path fill-rule="evenodd" clip-rule="evenodd" d="M110.44 79.243C113.385 80.0319 116.411 78.2845 117.2 75.34C117.989 72.3954 116.242 69.3688 113.297 68.5798C110.353 67.7908 107.326 69.5382 106.537 72.4828C105.748 75.4273 107.496 78.454 110.44 79.243ZM86.9889 66.5806L93.0645 68.2085L87.3169 89.6589L106.287 94.742L104.792 100.322L79.7463 93.6105L86.9889 66.5806Z" fill="black"/>
<path d="M32.1091 83.9808C34.6444 81.4636 38.33 80.4901 41.7775 81.4272L66.2964 88.091C69.744 89.028 72.4298 91.7331 73.3422 95.1873L79.8305 119.753C80.7429 123.207 79.7431 126.886 77.2078 129.403L59.1773 147.305C56.642 149.822 52.9564 150.796 49.5088 149.859L24.99 143.195C21.5424 142.258 18.8566 139.553 17.9442 136.099L11.4559 111.533C10.5435 108.079 11.5433 104.4 14.0786 101.883L32.1091 83.9808Z" fill="url(#paint5_linear_89_3360)"/>
<path fill-rule="evenodd" clip-rule="evenodd" d="M35.3402 90.9699C37.179 89.1515 39.8456 88.4472 42.3425 89.1205L62.425 94.5359C64.9368 95.2133 66.8949 97.1816 67.5593 99.6968L72.8417 119.697C73.506 122.212 72.7752 124.891 70.9254 126.72L56.1362 141.346C54.2975 143.164 51.6309 143.868 49.134 143.195L29.0515 137.78C26.5407 137.103 24.5825 135.138 23.9179 132.621L18.6333 112.613C17.9683 110.096 18.7029 107.423 20.551 105.596L35.3402 90.9699ZM27.2432 130.455L27.5612 131.659C27.8808 132.869 28.8221 133.815 30.0326 134.141L50.1151 139.557C51.3173 139.881 52.6012 139.542 53.4865 138.666L68.2757 124.041C69.1663 123.16 69.5182 121.87 69.1984 120.659L66.4916 110.411C65.2458 112.177 63.4419 113.563 61.191 114.158L31.3132 122.049C29.7174 122.471 28.4819 123.639 27.7372 125.24C26.9847 126.858 26.803 128.789 27.2432 130.455ZM64.4951 102.852C65.3079 105.929 63.3914 109.679 60.2287 110.514L30.3509 118.406C28.0317 119.018 26.2677 120.481 25.0839 122.28L22.2766 111.651C21.9573 110.442 22.3085 109.157 23.2007 108.275L37.9899 93.6492C38.8753 92.7737 40.1592 92.4346 41.3614 92.7588L61.4439 98.1742C62.6533 98.5003 63.5961 99.448 63.9159 100.659L64.4951 102.852ZM33.2666 107.897L34.8131 113.753L31.1698 114.715L29.4858 108.339C29.0303 106.614 30.0591 104.847 31.7838 104.391L36.9885 103.017C38.7132 102.561 40.4807 103.59 40.9362 105.315L42.6202 111.691L38.9769 112.653L37.4304 106.797L33.2666 107.897ZM49.141 103.704L50.6875 109.56L47.0442 110.522L45.3602 104.146C44.9047 102.422 45.9335 100.654 47.6582 100.199L52.863 98.824C54.5877 98.3684 56.3551 99.3973 56.8106 101.122L58.4946 107.498L54.8513 108.46L53.3048 102.605L49.141 103.704ZM37.4934 123.903L39.0399 129.758L43.2037 128.658L41.6572 122.803L45.3005 121.841L46.9844 128.216C47.44 129.941 46.4111 131.708 44.6864 132.164L39.4817 133.539C37.757 133.994 35.9896 132.965 35.534 131.241L33.8501 124.865L37.4934 123.903ZM53.3678 119.71L54.9143 125.565L59.0781 124.465L57.5316 118.61L61.1749 117.648L62.8589 124.024C63.3144 125.748 62.2855 127.516 60.5608 127.971L55.3561 129.346C53.6314 129.801 51.864 128.773 51.4085 127.048L49.7245 120.672L53.3678 119.71Z" fill="url(#paint6_linear_89_3360)"/>
<defs>
<filter id="filter0_d_89_3360" x="107.919" y="52.2133" width="27.5801" height="36.9995" filterUnits="userSpaceOnUse" color-interpolation-filters="sRGB">
<feFlood flood-opacity="0" result="BackgroundImageFix"/>
<feColorMatrix in="SourceAlpha" type="matrix" values="0 0 0 0 0 0 0 0 0 0 0 0 0 0 0 0 0 0 127 0" result="hardAlpha"/>
<feOffset dy="4"/>
<feGaussianBlur stdDeviation="2"/>
<feComposite in2="hardAlpha" operator="out"/>
<feColorMatrix type="matrix" values="0 0 0 0 0 0 0 0 0 0 0 0 0 0 0 0 0 0 0.25 0"/>
<feBlend mode="normal" in2="BackgroundImageFix" result="effect1_dropShadow_89_3360"/>
<feBlend mode="normal" in="SourceGraphic" in2="effect1_dropShadow_89_3360" result="shape"/>
</filter>
<linearGradient id="paint0_linear_89_3360" x1="65.2984" y1="2.78301" x2="65.2984" y2="69.8143" gradientUnits="userSpaceOnUse">
<stop stop-color="#0066FF"/>
<stop offset="1" stop-color="#004BBB"/>
</linearGradient>
<linearGradient id="paint1_linear_89_3360" x1="63.7825" y1="14.5923" x2="67.6244" y2="58.6846" gradientUnits="userSpaceOnUse">
<stop stop-color="white"/>
<stop offset="1" stop-color="white" stop-opacity="0.33"/>
</linearGradient>
<linearGradient id="paint2_linear_89_3360" x1="91.2153" y1="111.24" x2="107.408" y2="50.8096" gradientUnits="userSpaceOnUse">
<stop stop-color="#00E2FF"/>
<stop offset="1" stop-color="#00A2B7"/>
</linearGradient>
<linearGradient id="paint3_linear_89_3360" x1="91.2153" y1="111.24" x2="107.408" y2="50.8096" gradientUnits="userSpaceOnUse">
<stop stop-color="#01A9BF"/>
<stop offset="1" stop-color="#01DDF9"/>
</linearGradient>
<linearGradient id="paint4_linear_89_3360" x1="118.25" y1="61.2133" x2="125.75" y2="62.2133" gradientUnits="userSpaceOnUse">
<stop stop-color="#979ABE"/>
<stop offset="1" stop-color="#6C6E7D"/>
</linearGradient>
<linearGradient id="paint5_linear_89_3360" x1="36.2061" y1="79.9129" x2="55.0802" y2="151.373" gradientUnits="userSpaceOnUse">
<stop stop-color="#AF64EB"/>
<stop offset="1" stop-color="#7A1EC1"/>
</linearGradient>
<linearGradient id="paint6_linear_89_3360" x1="38.5946" y1="89.1108" x2="52.8819" y2="143.205" gradientUnits="userSpaceOnUse">
<stop stop-color="white"/>
<stop offset="1" stop-color="white" stop-opacity="0.4"/>
</linearGradient>
</defs>
</svg>
