<svg width="174" height="184" viewBox="0 0 174 184" fill="none" xmlns="http://www.w3.org/2000/svg">
<rect x="77" y="38" width="20" height="67.9999" rx="10" fill="url(#paint0_linear_4734_1012)"/>
<ellipse cx="87" cy="94.6667" rx="10" ry="11.3333" fill="url(#paint1_radial_4734_1012)"/>
<g filter="url(#filter0_d_4734_1012)">
<ellipse cx="87" cy="37" rx="35" ry="35" fill="url(#paint2_radial_4734_1012)"/>
<ellipse cx="87" cy="37" rx="35" ry="35" fill="url(#paint3_linear_4734_1012)" fill-opacity="0.2"/>
<path d="M87 73C106.882 73 123 56.8822 123 37C123 17.1177 106.882 1 87 1C67.1177 1 51 17.1177 51 37C51 56.8822 67.1177 73 87 73Z" stroke="url(#paint4_linear_4734_1012)" stroke-width="2"/>
</g>
<defs>
<filter id="filter0_d_4734_1012" x="0" y="0" width="174" height="184" filterUnits="userSpaceOnUse" color-interpolation-filters="sRGB">
<feFlood flood-opacity="0" result="BackgroundImageFix"/>
<feColorMatrix in="SourceAlpha" type="matrix" values="0 0 0 0 0 0 0 0 0 0 0 0 0 0 0 0 0 0 127 0" result="hardAlpha"/>
<feOffset dy="60"/>
<feGaussianBlur stdDeviation="25"/>
<feComposite in2="hardAlpha" operator="out"/>
<feColorMatrix type="matrix" values="0 0 0 0 0 0 0 0 0 0 0 0 0 0 0 0 0 0 0.5 0"/>
<feBlend mode="normal" in2="BackgroundImageFix" result="effect1_dropShadow_4734_1012"/>
<feBlend mode="normal" in="SourceGraphic" in2="effect1_dropShadow_4734_1012" result="shape"/>
</filter>
<linearGradient id="paint0_linear_4734_1012" x1="77" y1="75.7777" x2="97" y2="75.7777" gradientUnits="userSpaceOnUse">
<stop stop-color="#797979"/>
<stop offset="0.517656" stop-color="#B1B1B1"/>
<stop offset="1" stop-color="#686868"/>
</linearGradient>
<radialGradient id="paint1_radial_4734_1012" cx="0" cy="0" r="1" gradientUnits="userSpaceOnUse" gradientTransform="translate(86.697 103.596) rotate(-90) scale(20.2626 17.8788)">
<stop stop-color="#BDBDBD"/>
<stop offset="1" stop-color="#818181" stop-opacity="0"/>
</radialGradient>
<radialGradient id="paint2_radial_4734_1012" cx="0" cy="0" r="1" gradientUnits="userSpaceOnUse" gradientTransform="translate(87 22.7042) rotate(90) scale(49.2958 49.2958)">
<stop stop-color="#F9FFAB"/>
<stop offset="1" stop-color="#A2AA3A"/>
</radialGradient>
<linearGradient id="paint3_linear_4734_1012" x1="78.5865" y1="27.5769" x2="116.279" y2="53.8269" gradientUnits="userSpaceOnUse">
<stop stop-color="white" stop-opacity="0"/>
<stop offset="1" stop-color="white"/>
</linearGradient>
<linearGradient id="paint4_linear_4734_1012" x1="87" y1="2" x2="87" y2="72" gradientUnits="userSpaceOnUse">
<stop stop-color="#8F8F8F"/>
<stop offset="1" stop-color="#25272F"/>
</linearGradient>
</defs>
</svg>
