<svg width="138" height="72" viewBox="0 0 138 72" fill="none" xmlns="http://www.w3.org/2000/svg">
<g id="Group 48097326">
<g id="Group 48097246">
<rect id="Rectangle 5067" x="7.58984" width="62.5625" height="62.5625" rx="13" transform="rotate(6.96772 7.58984 0)" fill="url(#paint0_linear_4795_1742)"/>
<path id="Union" fill-rule="evenodd" clip-rule="evenodd" d="M17.6121 27.6557C15.9678 25.6149 14.9465 23.1102 15.286 20.3319L15.3221 20.0364C16.0564 15.3065 20.332 11.9493 24.9844 12.3779L54.4903 15.9839C55.2549 16.1173 55.8029 16.7443 55.7042 17.5522L52.5785 43.1281C53.2371 43.3287 53.552 43.4672 54.1772 43.7837C54.6725 44.0442 55.3336 44.5448 55.3336 44.5448L58.5894 17.9048C58.847 15.4764 57.2005 13.2954 54.8347 13.0062L25.3287 9.40023C18.9501 8.72066 13.1811 13.4352 12.3816 19.977C11.9168 23.7799 13.2121 27.238 15.7026 29.8621C15.7207 29.8811 15.7386 29.9005 15.7566 29.92C15.9107 30.0874 16.077 30.268 16.5248 30.3227C17.3903 30.4285 18.0925 29.7942 18.148 29.0211C18.2059 28.3939 17.9861 28.1207 17.6531 27.7067L17.6121 27.6557ZM50.2191 44.5396L27.0799 41.7117C25.5195 41.5409 24.1127 42.6691 23.9177 44.265L23.5011 47.6737C23.3469 49.2549 24.4911 50.7546 26.0491 50.945L27.761 51.1542L28.1174 48.2379L26.4055 48.0287L26.8125 44.6988L27.7549 44.814C30.6786 45.1713 32.4934 48.2128 32.1298 51.1882C31.8071 53.8286 29.0486 56.9111 25.1585 56.1558C21.7059 55.4938 20.2086 52.091 20.4928 49.766L24.0231 20.8796C24.182 19.5792 23.2734 18.3882 22.0039 18.2331L19.6957 17.951L19.3345 20.9066L21.0464 21.1158L17.586 49.4307C16.7866 55.1727 20.5296 58.5699 24.7997 59.0918L48.1025 62.0195C52.7957 62.5931 57.0809 59.1572 57.6709 54.3295C58.2609 49.5021 54.9124 45.1132 50.2191 44.5396ZM54.7446 54.152C54.2705 57.2338 51.4857 59.4134 48.4467 59.042L32.2392 57.001C33.7159 55.6217 34.7477 53.7278 35.0126 51.5604C35.4292 48.1517 33.7345 45.5647 33.7345 45.5647L49.8724 47.537C52.969 47.9154 55.1734 50.8047 54.7857 53.9769L54.7446 54.152ZM28.8666 22.6113L46.3124 24.7434C47.1204 24.8421 47.8369 24.2497 47.9357 23.4419C48.0368 22.6143 47.4622 21.8841 46.6736 21.7878L29.2278 19.6557L28.8666 22.6113ZM44.6126 38.6544L27.1668 36.5223L27.5281 33.5665L44.9738 35.6986C45.7624 35.795 46.337 36.5253 46.2359 37.3529C46.1371 38.1607 45.4206 38.7531 44.6126 38.6544ZM28.0178 29.567L48.5412 32.0752C49.3298 32.1716 50.0656 31.5815 50.1451 30.7713C50.2462 29.9437 49.6718 29.2136 48.883 29.1172L28.379 26.6114L28.0178 29.567Z" fill="black"/>
</g>
<g id="Group 48096359">
<path id="Vector 1735" d="M88.704 62.1722L86.3937 49.0079L102.206 32.1554C102.942 31.3707 103.094 30.2029 102.582 29.2562C102.07 28.3095 101.01 27.7965 99.9505 27.9825L83.219 30.9189L81.9668 23.7843C81.792 22.7884 81.0345 21.9958 80.0475 21.7762C79.0605 21.5565 78.0384 21.9531 77.4577 22.7809L61.6324 45.3434C60.8396 46.4738 61.1132 48.0329 62.2436 48.8257L84.8061 64.6511C85.6339 65.2317 86.73 65.2565 87.5832 64.7139C88.4365 64.1713 88.8788 63.1681 88.704 62.1722Z" fill="url(#paint1_linear_4795_1742)" stroke="#0469FF" stroke-width="5" stroke-linejoin="round"/>
<path id="Vector 1736" d="M105.833 19.5951L108.143 32.7593L92.3313 49.6118C91.595 50.3965 91.4435 51.5644 91.9551 52.511C92.4667 53.4577 93.5267 53.9708 94.5866 53.7848L111.318 50.8483L112.57 57.9829C112.745 58.9788 113.503 59.7714 114.49 59.991C115.477 60.2107 116.499 59.8141 117.079 58.9863L132.905 36.4238C133.698 35.2934 133.424 33.7343 132.294 32.9415L109.731 17.1162C108.903 16.5355 107.807 16.5108 106.954 17.0534C106.101 17.596 105.658 18.5991 105.833 19.5951Z" fill="url(#paint2_linear_4795_1742)" stroke="#0469FF" stroke-width="5" stroke-linejoin="round"/>
</g>
</g>
<defs>
<linearGradient id="paint0_linear_4795_1742" x1="38.8711" y1="0" x2="38.8711" y2="62.5625" gradientUnits="userSpaceOnUse">
<stop stop-color="#E2CDAE"/>
<stop offset="1" stop-color="#9A8D78"/>
</linearGradient>
<linearGradient id="paint1_linear_4795_1742" x1="89.5" y1="61.5001" x2="75.5" y2="32.0001" gradientUnits="userSpaceOnUse">
<stop stop-color="white"/>
<stop offset="0.0001" stop-color="#8FA5AF"/>
<stop offset="1" stop-color="white"/>
</linearGradient>
<linearGradient id="paint2_linear_4795_1742" x1="105.037" y1="20.2671" x2="119.037" y2="49.7671" gradientUnits="userSpaceOnUse">
<stop stop-color="white"/>
<stop offset="0.0001" stop-color="#8FA5AF"/>
<stop offset="1" stop-color="white"/>
</linearGradient>
</defs>
</svg>
