<svg width="118" height="101" viewBox="0 0 118 101" fill="none" xmlns="http://www.w3.org/2000/svg">
<rect x="7.58984" width="62.5625" height="62.5625" rx="13" transform="rotate(6.96772 7.58984 0)" fill="url(#paint0_linear_5162_12700)"/>
<path fill-rule="evenodd" clip-rule="evenodd" d="M17.6121 27.6557C15.9678 25.6149 14.9465 23.1102 15.286 20.3319L15.3221 20.0364C16.0564 15.3065 20.332 11.9493 24.9844 12.3779L54.4903 15.9839C55.2549 16.1173 55.8029 16.7443 55.7042 17.5522L52.5785 43.1281C53.2371 43.3287 53.552 43.4672 54.1772 43.7837C54.6725 44.0442 55.3336 44.5448 55.3336 44.5448L58.5894 17.9048C58.847 15.4764 57.2005 13.2954 54.8347 13.0062L25.3287 9.40023C18.9501 8.72066 13.1811 13.4352 12.3816 19.977C11.9168 23.7799 13.2121 27.238 15.7026 29.8621C15.7207 29.8811 15.7386 29.9005 15.7566 29.92C15.9107 30.0874 16.077 30.268 16.5248 30.3227C17.3903 30.4285 18.0925 29.7942 18.148 29.0211C18.2059 28.3939 17.9861 28.1207 17.6531 27.7067L17.6121 27.6557ZM50.2191 44.5396L27.0799 41.7117C25.5195 41.5409 24.1127 42.6691 23.9177 44.265L23.5011 47.6737C23.3469 49.2549 24.4911 50.7546 26.0491 50.945L27.761 51.1542L28.1174 48.2379L26.4055 48.0287L26.8125 44.6988L27.7549 44.814C30.6786 45.1713 32.4934 48.2128 32.1298 51.1882C31.8071 53.8286 29.0486 56.9111 25.1585 56.1558C21.7059 55.4938 20.2086 52.091 20.4928 49.766L24.0231 20.8796C24.182 19.5792 23.2734 18.3882 22.0039 18.2331L19.6957 17.951L19.3345 20.9066L21.0464 21.1158L17.586 49.4307C16.7866 55.1727 20.5296 58.5699 24.7997 59.0918L48.1025 62.0195C52.7957 62.5931 57.0809 59.1572 57.6709 54.3295C58.2609 49.5021 54.9124 45.1132 50.2191 44.5396ZM54.7446 54.152C54.2705 57.2338 51.4857 59.4134 48.4467 59.042L32.2392 57.001C33.7159 55.6217 34.7477 53.7278 35.0126 51.5604C35.4292 48.1517 33.7345 45.5647 33.7345 45.5647L49.8724 47.537C52.969 47.9154 55.1734 50.8047 54.7857 53.9769L54.7446 54.152ZM28.8666 22.6113L46.3124 24.7434C47.1204 24.8421 47.8369 24.2497 47.9357 23.4419C48.0368 22.6143 47.4622 21.8841 46.6736 21.7878L29.2278 19.6557L28.8666 22.6113ZM44.6126 38.6544L27.1668 36.5223L27.5281 33.5665L44.9738 35.6986C45.7624 35.795 46.337 36.5253 46.2359 37.3529C46.1371 38.1607 45.4206 38.7531 44.6126 38.6544ZM28.0178 29.567L48.5412 32.0752C49.3298 32.1716 50.0656 31.5815 50.1451 30.7713C50.2462 29.9437 49.6718 29.2136 48.883 29.1172L28.379 26.6114L28.0178 29.567Z" fill="black"/>
<path d="M68.704 91.1722L66.3937 78.0079L82.2058 61.1554C82.9421 60.3707 83.0936 59.2029 82.582 58.2562C82.0704 57.3095 81.0104 56.7965 79.9505 56.9825L63.219 59.9189L61.9668 52.7843C61.792 51.7884 61.0345 50.9958 60.0475 50.7762C59.0605 50.5565 58.0384 50.9531 57.4577 51.7809L41.6324 74.3434C40.8396 75.4738 41.1132 77.0329 42.2436 77.8257L64.8061 93.6511C65.6339 94.2317 66.73 94.2565 67.5832 93.7139C68.4365 93.1713 68.8788 92.1681 68.704 91.1722Z" fill="url(#paint1_linear_5162_12700)" stroke="#0469FF" stroke-width="5" stroke-linejoin="round"/>
<path d="M85.8331 48.5951L88.1435 61.7593L72.3313 78.6118C71.595 79.3965 71.4435 80.5644 71.9551 81.511C72.4667 82.4577 73.5267 82.9708 74.5866 82.7848L91.3181 79.8483L92.5703 86.9829C92.7451 87.9788 93.5026 88.7714 94.4896 88.991C95.4766 89.2107 96.4987 88.8141 97.0794 87.9863L112.905 65.4238C113.698 64.2934 113.424 62.7343 112.294 61.9415L89.731 46.1162C88.9032 45.5355 87.8071 45.5108 86.9539 46.0534C86.1006 46.596 85.6583 47.5991 85.8331 48.5951Z" fill="url(#paint2_linear_5162_12700)" stroke="#0469FF" stroke-width="5" stroke-linejoin="round"/>
<defs>
<linearGradient id="paint0_linear_5162_12700" x1="38.8711" y1="0" x2="38.8711" y2="62.5625" gradientUnits="userSpaceOnUse">
<stop stop-color="#E2CDAE"/>
<stop offset="1" stop-color="#9A8D78"/>
</linearGradient>
<linearGradient id="paint1_linear_5162_12700" x1="69.5" y1="90.5001" x2="55.5" y2="61.0001" gradientUnits="userSpaceOnUse">
<stop stop-color="white"/>
<stop offset="0.0001" stop-color="#8FA5AF"/>
<stop offset="1" stop-color="white"/>
</linearGradient>
<linearGradient id="paint2_linear_5162_12700" x1="85.0371" y1="49.2671" x2="99.0371" y2="78.7671" gradientUnits="userSpaceOnUse">
<stop stop-color="white"/>
<stop offset="0.0001" stop-color="#8FA5AF"/>
<stop offset="1" stop-color="white"/>
</linearGradient>
</defs>
</svg>
