<svg width="150" height="184" viewBox="0 0 150 184" fill="none" xmlns="http://www.w3.org/2000/svg">
<g id="Group 48097325">
<g id="Group 48097247">
<circle id="Ellipse 4586" cx="76.2984" cy="36.2986" r="33.5156" transform="rotate(-4.97983 76.2984 36.2986)" fill="url(#paint0_linear_4795_1741)"/>
<path id="Vector" d="M78.5864 58.6879C90.7846 57.625 99.8107 46.8949 98.7496 34.7174C97.6886 22.5399 86.9427 13.5327 74.7444 14.5955C63.1713 15.6039 54.452 25.3137 54.4956 36.7035L83.6888 34.1598L84.0119 37.8675L54.8187 40.4112C56.746 51.6409 67.0133 59.6963 78.5864 58.6879Z" fill="url(#paint1_linear_4795_1741)"/>
</g>
<g id="Linea">
<path id="Rectangle 4878" d="M136.386 103.773C134.145 112.258 125.436 117.307 116.959 115.036L87.4936 107.14C79.0381 104.875 74.0203 96.1836 76.2859 87.7282L84.2341 58.0652C86.485 49.6648 95.0842 44.647 103.505 46.8203L124.903 52.343L142.339 81.2361L136.386 103.773Z" fill="url(#paint2_linear_4795_1741)" stroke="url(#paint3_linear_4795_1741)" stroke-width="0.3"/>
<g id="Vector 3925" filter="url(#filter0_d_4795_1741)">
<path d="M142.499 81.2127C139.999 72.7127 128.499 54.7132 124.999 52.2132C124.499 54.5466 120.15 61.7132 125.75 65.7132C131.35 69.7132 138.999 76.2127 142.499 81.2127Z" fill="url(#paint4_linear_4795_1741)"/>
</g>
<path id="Union" fill-rule="evenodd" clip-rule="evenodd" d="M121.44 79.2429C124.384 80.0319 127.411 78.2845 128.2 75.3399C128.989 72.3954 127.241 69.3687 124.297 68.5797C121.352 67.7908 118.326 69.5382 117.537 72.4827C116.748 75.4273 118.495 78.4539 121.44 79.2429ZM97.9885 66.5806L104.064 68.2085L98.3164 89.6588L117.287 94.742L115.792 100.322L90.7458 93.6105L97.9885 66.5806Z" fill="black"/>
<g id="Group 48097249">
<g id="Group 48097347">
<circle id="Ellipse 4607" cx="59.2503" cy="119.25" r="35.019" transform="rotate(-15.8461 59.2503 119.25)" fill="url(#paint5_linear_4795_1741)"/>
<path id="Vector_2" fill-rule="evenodd" clip-rule="evenodd" d="M50.4445 140.637C43.8444 138.114 38.4657 132.614 36.387 125.29C32.8878 112.962 40.0509 100.121 52.3788 96.6222C62.5571 93.7331 75.3978 96.6611 80.7276 105.216C74.7691 95.6598 63.0126 90.7682 51.6339 93.9979C37.8548 97.909 29.8517 112.256 33.7627 126.035C37.6738 139.814 52.0209 147.817 65.8 143.906C79.5791 139.995 87.5822 125.648 83.6712 111.869L83.2978 110.554L81.9279 110.942C81.8874 110.954 81.8262 110.971 81.7448 110.994C81.5822 111.04 81.3497 111.099 81.0475 111.17C80.4517 111.317 79.6265 111.508 78.6879 111.686C76.7701 112.055 74.5436 112.342 72.927 112.171C70.3219 111.899 68.6494 111.04 66.7321 110.016L66.6208 109.96C64.6968 108.938 62.5376 107.785 59.1952 107.239C55.9061 106.7 52.7602 107.827 50.5457 108.983C49.4216 109.566 48.4832 110.184 47.8327 110.655C47.5031 110.888 47.2462 111.092 47.066 111.231C46.0216 112.07 45.0363 112.987 44.0327 113.866C44.0327 113.866 46.495 113.841 47.7206 113.874C47.7652 113.876 47.8321 113.879 47.9279 113.881C48.1129 113.887 48.382 113.906 48.7081 113.945C49.3743 114.02 50.2561 114.158 51.1715 114.441C52.6134 114.874 53.9048 115.577 54.6611 116.667C52.1737 117.739 50.0694 119.567 48.5543 121.148C47.6386 122.104 46.908 123.015 46.4004 123.679C46.151 124.014 45.9511 124.29 45.8152 124.483C45.7007 124.647 43.9512 127.364 43.9512 127.364C43.9512 127.364 47.0524 126.828 48.6222 126.705C49.668 126.62 51.0895 126.569 52.6231 126.654C54.1585 126.745 55.75 126.982 57.1559 127.47C58.5619 127.958 59.6907 128.656 60.419 129.621C62.55 132.431 62.2082 135.847 60.2646 138.267C58.3423 140.66 54.8029 142.104 50.4358 140.632L50.4445 140.637ZM60.0701 142.126C60.9628 141.528 61.7455 140.8 62.4072 139.982C65.0486 136.69 65.5672 131.882 62.6044 127.975C61.4354 126.438 59.7736 125.489 58.0579 124.891C56.3356 124.296 54.4798 124.031 52.7952 123.93C51.6915 123.862 50.6382 123.868 49.7328 123.906C49.982 123.622 50.2431 123.328 50.5311 123.027C52.2151 121.267 54.4549 119.451 56.8961 118.758C60.5781 117.713 63.6391 118.068 66.5992 118.532C66.8673 118.573 67.1374 118.621 67.4123 118.66C70.0636 119.095 72.8455 119.551 75.7002 118.741C78.5552 117.93 80.4021 116.563 81.656 115.328C83.4749 126.77 76.4928 138.028 65.0667 141.271C63.4054 141.743 61.7327 142.02 60.0837 142.122L60.0701 142.126ZM78.3519 114.529C77.4629 115.141 76.3388 115.724 74.9487 116.118C72.7109 116.753 70.531 116.405 67.7665 115.958C67.5207 115.918 67.2748 115.878 67.0222 115.84C64.2527 115.402 61.0844 115.005 57.3407 115.833C56.1547 113.539 53.8368 112.395 51.9613 111.828C51.7523 111.762 51.5451 111.704 51.34 111.652C51.4863 111.574 51.6375 111.487 51.7974 111.405C53.8015 110.36 56.3068 109.532 58.7452 109.939C61.6356 110.415 63.4726 111.389 65.3791 112.401L65.4469 112.433C67.4058 113.474 69.4808 114.563 72.6453 114.896C74.4044 115.078 76.5485 114.836 78.3519 114.529Z" fill="white"/>
</g>
</g>
</g>
</g>
<defs>
<filter id="filter0_d_4795_1741" x="118.919" y="52.2132" width="27.5801" height="36.9995" filterUnits="userSpaceOnUse" color-interpolation-filters="sRGB">
<feFlood flood-opacity="0" result="BackgroundImageFix"/>
<feColorMatrix in="SourceAlpha" type="matrix" values="0 0 0 0 0 0 0 0 0 0 0 0 0 0 0 0 0 0 127 0" result="hardAlpha"/>
<feOffset dy="4"/>
<feGaussianBlur stdDeviation="2"/>
<feComposite in2="hardAlpha" operator="out"/>
<feColorMatrix type="matrix" values="0 0 0 0 0 0 0 0 0 0 0 0 0 0 0 0 0 0 0.25 0"/>
<feBlend mode="normal" in2="BackgroundImageFix" result="effect1_dropShadow_4795_1741"/>
<feBlend mode="normal" in="SourceGraphic" in2="effect1_dropShadow_4795_1741" result="shape"/>
</filter>
<linearGradient id="paint0_linear_4795_1741" x1="76.2984" y1="2.78298" x2="76.2984" y2="69.8143" gradientUnits="userSpaceOnUse">
<stop stop-color="#0066FF"/>
<stop offset="1" stop-color="#004BBB"/>
</linearGradient>
<linearGradient id="paint1_linear_4795_1741" x1="74.7825" y1="14.5922" x2="78.6244" y2="58.6846" gradientUnits="userSpaceOnUse">
<stop stop-color="white"/>
<stop offset="1" stop-color="white" stop-opacity="0.33"/>
</linearGradient>
<linearGradient id="paint2_linear_4795_1741" x1="102.215" y1="111.24" x2="118.408" y2="50.8096" gradientUnits="userSpaceOnUse">
<stop stop-color="#00E2FF"/>
<stop offset="1" stop-color="#00A2B7"/>
</linearGradient>
<linearGradient id="paint3_linear_4795_1741" x1="102.215" y1="111.24" x2="118.408" y2="50.8096" gradientUnits="userSpaceOnUse">
<stop stop-color="#01A9BF"/>
<stop offset="1" stop-color="#01DDF9"/>
</linearGradient>
<linearGradient id="paint4_linear_4795_1741" x1="129.25" y1="61.2132" x2="136.75" y2="62.2132" gradientUnits="userSpaceOnUse">
<stop stop-color="#979ABE"/>
<stop offset="1" stop-color="#6C6E7D"/>
</linearGradient>
<linearGradient id="paint5_linear_4795_1741" x1="23.6033" y1="119.897" x2="94.8974" y2="118.594" gradientUnits="userSpaceOnUse">
<stop stop-color="#29CCB9"/>
<stop offset="0.49" stop-color="#0091FF"/>
<stop offset="1" stop-color="#FF66B7"/>
</linearGradient>
</defs>
</svg>
