<svg width="188" height="85" viewBox="0 0 188 85" fill="none" xmlns="http://www.w3.org/2000/svg">
<g opacity="0.6" filter="url(#filter0_b_5813_197)">
<path d="M2 22C2 10.9543 10.9543 2 22 2H135.502C143.149 2 150.126 6.36042 153.478 13.2337L173.472 54.2337C179.951 67.5192 170.277 83 155.496 83H22C10.9543 83 2 74.0457 2 63V22Z" fill="black"/>
<path d="M2 22C2 10.9543 10.9543 2 22 2H135.502C143.149 2 150.126 6.36042 153.478 13.2337L173.472 54.2337C179.951 67.5192 170.277 83 155.496 83H22C10.9543 83 2 74.0457 2 63V22Z" stroke="url(#paint0_linear_5813_197)" stroke-width="3"/>
</g>
<g filter="url(#filter1_b_5813_197)">
<path d="M9 56.5C9 47.6634 16.1634 40.5 25 40.5H156C164.837 40.5 172 47.6634 172 56.5V57C172 65.8366 164.837 73 156 73H25C16.1634 73 9 65.8366 9 57V56.5Z" fill="url(#paint1_linear_5813_197)"/>
<path d="M9 56.5C9 47.6634 16.1634 40.5 25 40.5H156C164.837 40.5 172 47.6634 172 56.5V57C172 65.8366 164.837 73 156 73H25C16.1634 73 9 65.8366 9 57V56.5Z" stroke="url(#paint2_linear_5813_197)"/>
</g>
<g filter="url(#filter2_b_5813_197)">
<path d="M9 18C9 9.16344 16.1634 2 25 2H139.773C146.009 2 151.676 5.62237 154.294 11.2813L170.488 46.2813C175.394 56.8846 167.651 69 155.967 69H25C16.1634 69 9 61.8366 9 53V18Z" fill="url(#paint3_linear_5813_197)"/>
<path d="M9 18C9 9.16344 16.1634 2 25 2H139.773C146.009 2 151.676 5.62237 154.294 11.2813L170.488 46.2813C175.394 56.8846 167.651 69 155.967 69H25C16.1634 69 9 61.8366 9 53V18Z" stroke="url(#paint4_linear_5813_197)"/>
</g>
<path d="M61.1953 39.32C59.7553 39.32 58.4953 39.06 57.4153 38.54C56.3353 38.0067 55.4953 37.2733 54.8953 36.34C54.3086 35.3933 54.0153 34.3 54.0153 33.06C54.0153 31.8333 54.2286 30.7067 54.6553 29.68C55.0953 28.6533 55.7086 27.7667 56.4953 27.02C57.282 26.2733 58.2153 25.7 59.2953 25.3C60.3753 24.8867 61.562 24.68 62.8553 24.68C64.202 24.68 65.3953 24.92 66.4353 25.4C67.4753 25.88 68.2486 26.5733 68.7553 27.48L65.3553 30.14C65.062 29.62 64.682 29.22 64.2153 28.94C63.7486 28.6467 63.1953 28.5 62.5553 28.5C61.9953 28.5 61.482 28.6067 61.0153 28.82C60.562 29.02 60.1686 29.3133 59.8353 29.7C59.502 30.0733 59.242 30.52 59.0553 31.04C58.8686 31.56 58.7753 32.1333 58.7753 32.76C58.7753 33.3067 58.8953 33.7867 59.1353 34.2C59.3753 34.6133 59.7086 34.9333 60.1353 35.16C60.5753 35.3867 61.082 35.5 61.6553 35.5C62.202 35.5 62.7353 35.3733 63.2553 35.12C63.7886 34.8667 64.2953 34.4533 64.7753 33.88L67.5553 36.54C66.702 37.58 65.7486 38.3067 64.6953 38.72C63.6553 39.12 62.4886 39.32 61.1953 39.32ZM68.1181 39L70.9181 25H75.6381L73.5781 35.34H79.8981L79.1581 39H68.1181ZM79.1372 39L88.0572 25H92.6972L96.0172 39H91.3172L89.0572 27.18H90.8972L84.1172 39H79.1372ZM83.2572 36.56L85.1372 33.16H91.5772L92.0972 36.56H83.2572ZM96.7705 39L99.5705 25H104.29L101.49 39H96.7705ZM103.763 39L106.563 25H110.403L114.143 34.14H112.103L119.303 25H123.323L120.563 39H116.263L117.723 31.48L118.403 31.44L113.563 37.74H111.483L108.763 31.42L109.563 31.48L108.063 39H103.763Z" fill="white"/>
<defs>
<filter id="filter0_b_5813_197" x="-19.5" y="-19.5" width="216.522" height="124" filterUnits="userSpaceOnUse" color-interpolation-filters="sRGB">
<feFlood flood-opacity="0" result="BackgroundImageFix"/>
<feGaussianBlur in="BackgroundImageFix" stdDeviation="10"/>
<feComposite in2="SourceAlpha" operator="in" result="effect1_backgroundBlur_5813_197"/>
<feBlend mode="normal" in="SourceGraphic" in2="effect1_backgroundBlur_5813_197" result="shape"/>
</filter>
<filter id="filter1_b_5813_197" x="-11.5" y="20" width="204" height="73.5" filterUnits="userSpaceOnUse" color-interpolation-filters="sRGB">
<feFlood flood-opacity="0" result="BackgroundImageFix"/>
<feGaussianBlur in="BackgroundImageFix" stdDeviation="10"/>
<feComposite in2="SourceAlpha" operator="in" result="effect1_backgroundBlur_5813_197"/>
<feBlend mode="normal" in="SourceGraphic" in2="effect1_backgroundBlur_5813_197" result="shape"/>
</filter>
<filter id="filter2_b_5813_197" x="-11.5" y="-18.5" width="203.987" height="108" filterUnits="userSpaceOnUse" color-interpolation-filters="sRGB">
<feFlood flood-opacity="0" result="BackgroundImageFix"/>
<feGaussianBlur in="BackgroundImageFix" stdDeviation="10"/>
<feComposite in2="SourceAlpha" operator="in" result="effect1_backgroundBlur_5813_197"/>
<feBlend mode="normal" in="SourceGraphic" in2="effect1_backgroundBlur_5813_197" result="shape"/>
</filter>
<linearGradient id="paint0_linear_5813_197" x1="117.296" y1="2" x2="117.296" y2="83" gradientUnits="userSpaceOnUse">
<stop stop-color="#191A20"/>
<stop offset="1" stop-color="#39393E"/>
</linearGradient>
<linearGradient id="paint1_linear_5813_197" x1="95" y1="2.00001" x2="95" y2="73" gradientUnits="userSpaceOnUse">
<stop stop-color="#17181C"/>
<stop offset="1" stop-color="#191A1F"/>
</linearGradient>
<linearGradient id="paint2_linear_5813_197" x1="95" y1="2.00001" x2="95" y2="73" gradientUnits="userSpaceOnUse">
<stop stop-color="#66676D"/>
<stop offset="1" stop-opacity="0"/>
</linearGradient>
<linearGradient id="paint3_linear_5813_197" x1="95" y1="2" x2="95" y2="69" gradientUnits="userSpaceOnUse">
<stop stop-color="#5B5E69"/>
<stop offset="1" stop-color="#3F424E"/>
</linearGradient>
<linearGradient id="paint4_linear_5813_197" x1="95" y1="2" x2="95" y2="69" gradientUnits="userSpaceOnUse">
<stop stop-color="#66676D"/>
<stop offset="1" stop-opacity="0"/>
</linearGradient>
</defs>
</svg>
