<svg width="188" height="95" viewBox="0 0 188 95" fill="none" xmlns="http://www.w3.org/2000/svg">
<g opacity="0.6" filter="url(#filter0_b_5813_139)">
<path d="M2 32C2 20.9543 10.9543 12 22 12H135.502C143.149 12 150.126 16.3604 153.478 23.2337L173.472 64.2337C179.951 77.5192 170.277 93 155.496 93H22C10.9543 93 2 84.0457 2 73V32Z" fill="black"/>
<path d="M2 32C2 20.9543 10.9543 12 22 12H135.502C143.149 12 150.126 16.3604 153.478 23.2337L173.472 64.2337C179.951 77.5192 170.277 93 155.496 93H22C10.9543 93 2 84.0457 2 73V32Z" stroke="url(#paint0_linear_5813_139)" stroke-width="3"/>
</g>
<g filter="url(#filter1_b_5813_139)">
<path d="M9 66.5C9 57.6634 16.1634 50.5 25 50.5H156C164.837 50.5 172 57.6634 172 66.5V67C172 75.8366 164.837 83 156 83H25C16.1634 83 9 75.8366 9 67V66.5Z" fill="url(#paint1_linear_5813_139)"/>
<path d="M9 66.5C9 57.6634 16.1634 50.5 25 50.5H156C164.837 50.5 172 57.6634 172 66.5V67C172 75.8366 164.837 83 156 83H25C16.1634 83 9 75.8366 9 67V66.5Z" stroke="url(#paint2_linear_5813_139)"/>
</g>
<g filter="url(#filter2_b_5813_139)">
<path d="M9 17C9 8.16344 16.1634 1 25 1H139.773C146.009 1 151.676 4.62237 154.294 10.2813L170.488 45.2813C175.394 55.8846 167.651 68 155.967 68H25C16.1634 68 9 60.8366 9 52V17Z" fill="url(#paint3_linear_5813_139)"/>
<path d="M9 17C9 8.16344 16.1634 1 25 1H139.773C146.009 1 151.676 4.62237 154.294 10.2813L170.488 45.2813C175.394 55.8846 167.651 68 155.967 68H25C16.1634 68 9 60.8366 9 52V17Z" stroke="url(#paint4_linear_5813_139)"/>
</g>
<path d="M61.1953 38.32C59.7553 38.32 58.4953 38.06 57.4153 37.54C56.3353 37.0067 55.4953 36.2733 54.8953 35.34C54.3086 34.3933 54.0153 33.3 54.0153 32.06C54.0153 30.8333 54.2286 29.7067 54.6553 28.68C55.0953 27.6533 55.7086 26.7667 56.4953 26.02C57.282 25.2733 58.2153 24.7 59.2953 24.3C60.3753 23.8867 61.562 23.68 62.8553 23.68C64.202 23.68 65.3953 23.92 66.4353 24.4C67.4753 24.88 68.2486 25.5733 68.7553 26.48L65.3553 29.14C65.062 28.62 64.682 28.22 64.2153 27.94C63.7486 27.6467 63.1953 27.5 62.5553 27.5C61.9953 27.5 61.482 27.6067 61.0153 27.82C60.562 28.02 60.1686 28.3133 59.8353 28.7C59.502 29.0733 59.242 29.52 59.0553 30.04C58.8686 30.56 58.7753 31.1333 58.7753 31.76C58.7753 32.3067 58.8953 32.7867 59.1353 33.2C59.3753 33.6133 59.7086 33.9333 60.1353 34.16C60.5753 34.3867 61.082 34.5 61.6553 34.5C62.202 34.5 62.7353 34.3733 63.2553 34.12C63.7886 33.8667 64.2953 33.4533 64.7753 32.88L67.5553 35.54C66.702 36.58 65.7486 37.3067 64.6953 37.72C63.6553 38.12 62.4886 38.32 61.1953 38.32ZM68.1181 38L70.9181 24H75.6381L73.5781 34.34H79.8981L79.1581 38H68.1181ZM79.1372 38L88.0572 24H92.6972L96.0172 38H91.3172L89.0572 26.18H90.8972L84.1172 38H79.1372ZM83.2572 35.56L85.1372 32.16H91.5772L92.0972 35.56H83.2572ZM96.7705 38L99.5705 24H104.29L101.49 38H96.7705ZM103.763 38L106.563 24H110.403L114.143 33.14H112.103L119.303 24H123.323L120.563 38H116.263L117.723 30.48L118.403 30.44L113.563 36.74H111.483L108.763 30.42L109.563 30.48L108.063 38H103.763Z" fill="white"/>
<defs>
<filter id="filter0_b_5813_139" x="-19.5" y="-9.5" width="216.522" height="124" filterUnits="userSpaceOnUse" color-interpolation-filters="sRGB">
<feFlood flood-opacity="0" result="BackgroundImageFix"/>
<feGaussianBlur in="BackgroundImageFix" stdDeviation="10"/>
<feComposite in2="SourceAlpha" operator="in" result="effect1_backgroundBlur_5813_139"/>
<feBlend mode="normal" in="SourceGraphic" in2="effect1_backgroundBlur_5813_139" result="shape"/>
</filter>
<filter id="filter1_b_5813_139" x="-11.5" y="30" width="204" height="73.5" filterUnits="userSpaceOnUse" color-interpolation-filters="sRGB">
<feFlood flood-opacity="0" result="BackgroundImageFix"/>
<feGaussianBlur in="BackgroundImageFix" stdDeviation="10"/>
<feComposite in2="SourceAlpha" operator="in" result="effect1_backgroundBlur_5813_139"/>
<feBlend mode="normal" in="SourceGraphic" in2="effect1_backgroundBlur_5813_139" result="shape"/>
</filter>
<filter id="filter2_b_5813_139" x="-11.5" y="-19.5" width="203.987" height="108" filterUnits="userSpaceOnUse" color-interpolation-filters="sRGB">
<feFlood flood-opacity="0" result="BackgroundImageFix"/>
<feGaussianBlur in="BackgroundImageFix" stdDeviation="10"/>
<feComposite in2="SourceAlpha" operator="in" result="effect1_backgroundBlur_5813_139"/>
<feBlend mode="normal" in="SourceGraphic" in2="effect1_backgroundBlur_5813_139" result="shape"/>
</filter>
<linearGradient id="paint0_linear_5813_139" x1="117.296" y1="12" x2="117.296" y2="93" gradientUnits="userSpaceOnUse">
<stop stop-color="#191A20"/>
<stop offset="1" stop-color="#39393E"/>
</linearGradient>
<linearGradient id="paint1_linear_5813_139" x1="95" y1="12" x2="95" y2="83" gradientUnits="userSpaceOnUse">
<stop stop-color="#17181C"/>
<stop offset="1" stop-color="#191A1F"/>
</linearGradient>
<linearGradient id="paint2_linear_5813_139" x1="95" y1="12" x2="95" y2="83" gradientUnits="userSpaceOnUse">
<stop stop-color="#66676D"/>
<stop offset="1" stop-opacity="0"/>
</linearGradient>
<linearGradient id="paint3_linear_5813_139" x1="95" y1="1" x2="95" y2="68" gradientUnits="userSpaceOnUse">
<stop stop-color="#5B5E69"/>
<stop offset="1" stop-color="#3F424E"/>
</linearGradient>
<linearGradient id="paint4_linear_5813_139" x1="95" y1="1" x2="95" y2="68" gradientUnits="userSpaceOnUse">
<stop stop-color="#66676D"/>
<stop offset="1" stop-opacity="0"/>
</linearGradient>
</defs>
</svg>
