<svg width="137" height="137" viewBox="0 0 137 137" fill="none" xmlns="http://www.w3.org/2000/svg">
<g filter="url(#filter0_d_4734_959)">
<path fill-rule="evenodd" clip-rule="evenodd" d="M43.3013 111.603C67.2159 125.41 97.7954 117.216 111.603 93.3013C125.41 69.3866 117.216 38.8071 93.3013 25C69.3866 11.1929 38.8071 19.3866 25 43.3013C11.1929 67.2159 19.3866 97.7954 43.3013 111.603ZM60.0037 82.6729C67.9409 87.2554 78.0903 84.5359 82.6728 76.5987C87.2554 68.6614 84.5359 58.5121 76.5987 53.9296C68.6614 49.347 58.5121 52.0665 53.9295 60.0037C49.347 67.941 52.0665 78.0903 60.0037 82.6729Z" fill="url(#paint0_linear_4734_959)"/>
<circle cx="68.3012" cy="68.3012" r="16.7104" transform="rotate(30 68.3012 68.3012)" stroke="black" stroke-width="2"/>
<path d="M34.5596 74.3889C36.2923 83.9659 42.0697 92.7462 51.1584 97.9936C60.2471 103.241 70.7397 103.854 79.9001 100.566" stroke="black" stroke-width="2" stroke-linecap="round"/>
<circle cx="88.1153" cy="95.4116" r="5" transform="rotate(30 88.1153 95.4116)" fill="black"/>
<circle cx="34.9161" cy="64.6973" r="5" transform="rotate(30 34.9161 64.6973)" fill="black"/>
<circle cx="68.3015" cy="68.3013" r="45.2857" transform="rotate(30 68.3015 68.3013)" stroke="black" stroke-width="2"/>
<path d="M47.3435 53.1686C46.2204 54.3715 44.9978 55.1897 43.6758 55.6231C42.3531 56.035 41.0393 56.0801 39.7345 55.7583C38.4186 55.426 37.2037 54.74 36.0899 53.7C34.9761 52.6601 34.214 51.5003 33.8036 50.2206C33.3924 48.9194 33.3525 47.6 33.684 46.2626C34.0148 44.9036 34.7365 43.6282 35.8492 42.4364C36.5356 41.7013 37.2754 41.11 38.0686 40.6623C38.8612 40.1931 39.755 39.8498 40.7502 39.6324L41.8091 42.2159C40.987 42.4489 40.2639 42.7433 39.64 43.0989C39.0265 43.4434 38.4702 43.8829 37.971 44.4175C37.3366 45.0969 36.9254 45.8388 36.7374 46.643C36.5597 47.4362 36.6086 48.2323 36.884 49.0315C37.1698 49.8195 37.6746 50.5515 38.3986 51.2274C39.1114 51.893 39.8707 52.3413 40.6764 52.5724C41.4926 52.7924 42.2958 52.7918 43.086 52.5707C43.8755 52.328 44.5874 51.8669 45.2218 51.1875C45.7209 50.6529 46.1214 50.0678 46.423 49.4321C46.735 48.7853 46.9791 48.0438 47.1553 47.2076L49.8053 48.087C49.6566 49.0948 49.3809 50.0153 48.9782 50.8485C48.5748 51.6601 48.0299 52.4335 47.3435 53.1686Z" fill="black"/>
<path d="M56.1476 45.4113C54.694 46.1828 53.2716 46.5581 51.8805 46.5374C50.4957 46.496 49.2389 46.1107 48.11 45.3815C46.974 44.6388 46.0489 43.5945 45.3345 42.2485C44.6202 40.9025 44.2773 39.5577 44.3061 38.2141C44.3411 36.8499 44.7331 35.5895 45.4821 34.433C46.2375 33.2558 47.3352 32.285 48.7755 31.5206C50.2291 30.7491 51.6484 30.3841 53.0331 30.4254C54.4243 30.4462 55.6878 30.8279 56.8238 31.5706C57.9526 32.2998 58.8742 33.3374 59.5886 34.6834C60.3029 36.0294 60.6493 37.3809 60.6277 38.738C60.599 40.0816 60.207 41.342 59.4516 42.5191C58.7026 43.6757 57.6013 44.6398 56.1476 45.4113ZM54.807 42.8364C55.628 42.4007 56.2517 41.8368 56.678 41.1448C57.0971 40.4393 57.2999 39.6675 57.2864 38.8294C57.2863 37.9841 57.0576 37.1307 56.6005 36.2693C56.1361 35.3944 55.554 34.7201 54.854 34.2463C54.1674 33.7653 53.4182 33.5074 52.6061 33.4726C51.7941 33.4378 50.9708 33.6418 50.1363 34.0848C49.3153 34.5205 48.6849 35.088 48.2451 35.7871C47.8188 36.4792 47.6057 37.2478 47.6058 38.0931C47.6194 38.9312 47.8583 39.7877 48.3226 40.6626C48.7798 41.524 49.3517 42.1952 50.0382 42.6762C50.7382 43.15 51.4978 43.411 52.317 43.4593C53.1424 43.4869 53.9724 43.2793 54.807 42.8364Z" fill="black"/>
<path d="M61.4359 41.5789L63.3848 26.4352L68.6216 27.1091L70.7804 38.4489L75.74 28.0252L80.9768 28.6992L79.0279 43.8429L75.7181 43.4169L77.2673 31.379L71.6601 42.8947L68.8037 42.5271L66.2949 29.967L64.7457 42.0048L61.4359 41.5789Z" fill="black"/>
<path d="M80.7793 43.9903L89.4092 31.3945L94.8209 35.1022C96.4425 36.2132 97.4038 37.3983 97.7048 38.6574C98.0145 39.904 97.7128 41.1935 96.7999 42.526C95.8869 43.8585 94.7933 44.6054 93.5191 44.7668C92.2448 44.9282 90.7969 44.4533 89.1753 43.3423L86.5166 41.5207L83.5323 45.8765L80.7793 43.9903ZM88.0281 39.3146L90.2342 40.8261C91.0388 41.3773 91.7538 41.6547 92.3793 41.6585C93.0048 41.6622 93.5544 41.3183 94.0281 40.6269C94.5017 39.9355 94.6239 39.2989 94.3946 38.7169C94.1865 38.131 93.6739 37.5581 92.8568 36.9983L90.6506 35.4868L88.0281 39.3146Z" fill="black"/>
<path d="M87.0366 48.0685L103.32 46.3308L105.007 49.6014L94.1614 61.8822L92.4955 58.6522L94.4426 56.5935L91.5193 50.9258L88.692 51.2782L87.0366 48.0685ZM94.3657 50.4607L96.4612 54.5236L101.092 49.5892L94.3657 50.4607Z" fill="black"/>
<path d="M94.013 67.5922C93.9262 66.5138 93.998 65.5067 94.2284 64.5709C94.4601 63.6503 94.8892 62.7138 95.5158 61.7614L98.1629 62.7408C97.6529 63.6226 97.276 64.4479 97.0321 65.2166C96.8047 65.9993 96.7172 66.7172 96.7698 67.3703C96.8407 68.2513 97.0621 68.9137 97.4342 69.3577C97.8075 69.8169 98.2903 70.0226 98.8827 69.9749C99.308 69.9407 99.6527 69.7601 99.9168 69.4331C100.196 69.1049 100.373 68.6473 100.448 68.0603L100.69 65.9312C100.831 64.4523 101.21 63.367 101.827 62.6753C102.459 61.9823 103.276 61.5955 104.279 61.5148C105.205 61.4403 106.056 61.5705 106.832 61.9055C107.624 62.2393 108.273 62.8062 108.781 63.6061C109.304 64.4048 109.618 65.4573 109.723 66.7636C109.794 67.6445 109.75 68.5271 109.592 69.4112C109.435 70.3105 109.072 71.2187 108.504 72.1358L105.857 71.1564C106.224 70.3931 106.509 69.6669 106.714 68.9778C106.934 68.3027 107.021 67.6689 106.973 67.0766C106.909 66.2715 106.701 65.6844 106.35 65.3152C106.016 64.9599 105.59 64.803 105.074 64.8446C104.649 64.8788 104.327 65.0576 104.108 65.3809C103.905 65.7031 103.766 66.1576 103.69 66.7446L103.449 68.8736C103.307 70.3374 102.874 71.4194 102.151 72.1197C101.429 72.8351 100.567 73.2332 99.5641 73.3139C98.0149 73.4386 96.7424 73.0136 95.7467 72.0389C94.751 71.0642 94.1731 69.5819 94.013 67.5922Z" fill="black"/>
<path d="M91.378 78.8633C91.5704 77.7987 91.8979 76.8436 92.3604 75.9981C92.8202 75.1676 93.4749 74.3723 94.3246 73.6122L96.6324 75.2371C95.9135 75.9589 95.3378 76.66 94.9051 77.3406C94.4847 78.0389 94.2162 78.7104 94.0997 79.3552C93.9425 80.2249 93.9868 80.922 94.2327 81.4465C94.4759 81.9859 94.8899 82.3085 95.4747 82.4142C95.8946 82.4901 96.2741 82.4038 96.6132 82.1554C96.9673 81.9097 97.2558 81.5128 97.4787 80.9646L98.2576 78.9685C98.7726 77.575 99.417 76.623 100.191 76.1124C100.979 75.6046 101.868 75.4401 102.858 75.6189C103.773 75.7842 104.562 76.1282 105.227 76.6509C105.906 77.1762 106.388 77.8906 106.674 78.7939C106.975 79.6999 107.009 80.7977 106.776 82.0873C106.619 82.9571 106.35 83.799 105.971 84.613C105.589 85.4421 105.006 86.2271 104.221 86.968L101.914 85.3431C102.464 84.6992 102.926 84.0704 103.3 83.4567C103.686 82.8607 103.932 82.2703 104.038 81.6855C104.182 80.8907 104.131 80.2699 103.887 79.8232C103.655 79.3941 103.284 79.1335 102.774 79.0413C102.354 78.9655 101.997 79.0558 101.703 79.3123C101.424 79.5716 101.173 79.9753 100.95 80.5234L100.171 82.5196C99.6585 83.8981 98.963 84.8331 98.0844 85.3247C97.2032 85.8313 96.2677 85.9952 95.278 85.8163C93.7485 85.5399 92.6274 84.8031 91.9146 83.6058C91.2019 82.4085 91.023 80.8277 91.378 78.8633Z" fill="black"/>
</g>
<defs>
<filter id="filter0_d_4734_959" x="16.293" y="18.2929" width="102.017" height="102.017" filterUnits="userSpaceOnUse" color-interpolation-filters="sRGB">
<feFlood flood-opacity="0" result="BackgroundImageFix"/>
<feColorMatrix in="SourceAlpha" type="matrix" values="0 0 0 0 0 0 0 0 0 0 0 0 0 0 0 0 0 0 127 0" result="hardAlpha"/>
<feOffset dx="-2" dy="2"/>
<feComposite in2="hardAlpha" operator="out"/>
<feColorMatrix type="matrix" values="0 0 0 0 0 0 0 0 0 0 0 0 0 0 0 0 0 0 0.25 0"/>
<feBlend mode="normal" in2="BackgroundImageFix" result="effect1_dropShadow_4734_959"/>
<feBlend mode="normal" in="SourceGraphic" in2="effect1_dropShadow_4734_959" result="shape"/>
</filter>
<linearGradient id="paint0_linear_4734_959" x1="93.3013" y1="25" x2="43.3013" y2="111.603" gradientUnits="userSpaceOnUse">
<stop stop-color="#ACFCED"/>
<stop offset="1" stop-color="#6EBDAE"/>
</linearGradient>
</defs>
</svg>
