<svg width="187" height="95" viewBox="0 0 187 95" fill="none" xmlns="http://www.w3.org/2000/svg">
<g opacity="0.6" filter="url(#filter0_b_83_2818)">
<path d="M185.5 32C185.5 20.9543 176.546 12 165.5 12H51.9983C44.3513 12 37.3736 16.3604 34.0218 23.2337L14.028 64.2337C7.54927 77.5192 17.2234 93 32.0044 93H165.5C176.546 93 185.5 84.0457 185.5 73V32Z" fill="black"/>
<path d="M185.5 32C185.5 20.9543 176.546 12 165.5 12H51.9983C44.3513 12 37.3736 16.3604 34.0218 23.2337L14.028 64.2337C7.54927 77.5192 17.2234 93 32.0044 93H165.5C176.546 93 185.5 84.0457 185.5 73V32Z" stroke="url(#paint0_linear_83_2818)" stroke-width="3"/>
</g>
<g filter="url(#filter1_b_83_2818)">
<path d="M178.5 66.5C178.5 57.6634 171.337 50.5 162.5 50.5H31.5C22.6634 50.5 15.5 57.6634 15.5 66.5V67C15.5 75.8366 22.6634 83 31.5 83H162.5C171.337 83 178.5 75.8366 178.5 67V66.5Z" fill="url(#paint1_linear_83_2818)"/>
<path d="M178.5 66.5C178.5 57.6634 171.337 50.5 162.5 50.5H31.5C22.6634 50.5 15.5 57.6634 15.5 66.5V67C15.5 75.8366 22.6634 83 31.5 83H162.5C171.337 83 178.5 75.8366 178.5 67V66.5Z" stroke="url(#paint2_linear_83_2818)"/>
</g>
<g filter="url(#filter2_b_83_2818)">
<path d="M178.5 17C178.5 8.16344 171.337 1 162.5 1H47.7267C41.4913 1 35.824 4.62237 33.2057 10.2813L17.0116 45.2813C12.1056 55.8846 19.8494 68 31.5326 68H162.5C171.337 68 178.5 60.8366 178.5 52V17Z" fill="url(#paint3_linear_83_2818)"/>
<path d="M178.5 17C178.5 8.16344 171.337 1 162.5 1H47.7267C41.4913 1 35.824 4.62237 33.2057 10.2813L17.0116 45.2813C12.1056 55.8846 19.8494 68 31.5326 68H162.5C171.337 68 178.5 60.8366 178.5 52V17Z" stroke="url(#paint4_linear_83_2818)"/>
</g>
<path d="M67.2744 38L70.0744 24H76.3544C78.2077 24 79.641 24.4067 80.6544 25.22C81.6677 26.02 82.1744 27.1467 82.1744 28.6C82.1744 29.7733 81.881 30.8 81.2944 31.68C80.721 32.56 79.901 33.2467 78.8344 33.74C77.781 34.2333 76.5344 34.48 75.0944 34.48H70.5744L73.0944 32.5L71.9944 38H67.2744ZM75.8344 38L72.9544 32.9H77.8144L80.7344 38H75.8344ZM72.9744 33.06L71.3144 30.92H75.3344C75.9877 30.92 76.4944 30.76 76.8544 30.44C77.2144 30.1067 77.3944 29.6467 77.3944 29.06C77.3944 28.5533 77.2344 28.1933 76.9144 27.98C76.6077 27.7533 76.181 27.64 75.6344 27.64H71.9744L74.4944 25.44L72.9744 33.06ZM89.2367 38.32C87.7834 38.32 86.5701 38.0467 85.5967 37.5C84.6234 36.94 83.9301 36.1667 83.5167 35.18C83.1167 34.18 83.0501 33.02 83.3167 31.7L84.8567 24H89.5767L88.0567 31.62C87.9634 32.1133 87.9301 32.54 87.9567 32.9C87.9834 33.26 88.0701 33.56 88.2167 33.8C88.3767 34.04 88.5901 34.22 88.8567 34.34C89.1234 34.4467 89.4434 34.5 89.8167 34.5C90.2701 34.5 90.6567 34.4067 90.9767 34.22C91.3101 34.0333 91.5834 33.7267 91.7967 33.3C92.0234 32.8733 92.2034 32.3133 92.3367 31.62L93.8567 24H98.4967L96.9167 31.9C96.5034 33.9933 95.6567 35.5867 94.3767 36.68C93.0967 37.7733 91.3834 38.32 89.2367 38.32ZM97.8603 38L100.66 24H105.38L103.32 34.34H109.64L108.9 38H97.8603ZM116.284 29.2H122.524L121.844 32.6H115.604L116.284 29.2ZM115.544 34.44H122.564L121.844 38H110.204L113.004 24H124.384L123.664 27.56H116.924L115.544 34.44ZM129.221 38.32C128.394 38.32 127.601 38.26 126.841 38.14C126.081 38.02 125.388 37.8533 124.761 37.64C124.148 37.4133 123.614 37.1667 123.161 36.9L124.981 33.42C125.501 33.7133 126.021 33.96 126.541 34.16C127.074 34.3467 127.601 34.4867 128.121 34.58C128.654 34.6733 129.181 34.72 129.701 34.72C130.114 34.72 130.454 34.6867 130.721 34.62C131.001 34.5533 131.208 34.46 131.341 34.34C131.488 34.2067 131.561 34.06 131.561 33.9C131.561 33.6867 131.441 33.5133 131.201 33.38C130.961 33.2467 130.641 33.1267 130.241 33.02C129.854 32.9133 129.421 32.8067 128.941 32.7C128.474 32.58 128.001 32.4333 127.521 32.26C127.041 32.0733 126.601 31.84 126.201 31.56C125.814 31.28 125.501 30.9267 125.261 30.5C125.021 30.0733 124.901 29.5533 124.901 28.94C124.901 27.8733 125.181 26.9467 125.741 26.16C126.314 25.3733 127.128 24.7667 128.181 24.34C129.248 23.9 130.514 23.68 131.981 23.68C133.021 23.68 133.988 23.7867 134.881 24C135.788 24.2 136.568 24.4933 137.221 24.88L135.521 28.32C134.961 27.9733 134.348 27.7133 133.681 27.54C133.028 27.3667 132.361 27.28 131.681 27.28C131.228 27.28 130.848 27.3267 130.541 27.42C130.234 27.5 130.001 27.6133 129.841 27.76C129.694 27.9067 129.621 28.06 129.621 28.22C129.621 28.4333 129.741 28.6133 129.981 28.76C130.221 28.8933 130.541 29.0133 130.941 29.12C131.341 29.2133 131.774 29.32 132.241 29.44C132.721 29.5467 133.194 29.6867 133.661 29.86C134.141 30.02 134.581 30.24 134.981 30.52C135.381 30.7867 135.701 31.1333 135.941 31.56C136.181 31.9733 136.301 32.4867 136.301 33.1C136.301 34.14 136.014 35.0533 135.441 35.84C134.868 36.6133 134.048 37.22 132.981 37.66C131.928 38.1 130.674 38.32 129.221 38.32Z" fill="#4C4C50"/>
<defs>
<filter id="filter0_b_83_2818" x="-9.52246" y="-9.5" width="216.522" height="124" filterUnits="userSpaceOnUse" color-interpolation-filters="sRGB">
<feFlood flood-opacity="0" result="BackgroundImageFix"/>
<feGaussianBlur in="BackgroundImageFix" stdDeviation="10"/>
<feComposite in2="SourceAlpha" operator="in" result="effect1_backgroundBlur_83_2818"/>
<feBlend mode="normal" in="SourceGraphic" in2="effect1_backgroundBlur_83_2818" result="shape"/>
</filter>
<filter id="filter1_b_83_2818" x="-5" y="30" width="204" height="73.5" filterUnits="userSpaceOnUse" color-interpolation-filters="sRGB">
<feFlood flood-opacity="0" result="BackgroundImageFix"/>
<feGaussianBlur in="BackgroundImageFix" stdDeviation="10"/>
<feComposite in2="SourceAlpha" operator="in" result="effect1_backgroundBlur_83_2818"/>
<feBlend mode="normal" in="SourceGraphic" in2="effect1_backgroundBlur_83_2818" result="shape"/>
</filter>
<filter id="filter2_b_83_2818" x="-4.98682" y="-19.5" width="203.987" height="108" filterUnits="userSpaceOnUse" color-interpolation-filters="sRGB">
<feFlood flood-opacity="0" result="BackgroundImageFix"/>
<feGaussianBlur in="BackgroundImageFix" stdDeviation="10"/>
<feComposite in2="SourceAlpha" operator="in" result="effect1_backgroundBlur_83_2818"/>
<feBlend mode="normal" in="SourceGraphic" in2="effect1_backgroundBlur_83_2818" result="shape"/>
</filter>
<linearGradient id="paint0_linear_83_2818" x1="70.2044" y1="12" x2="70.2044" y2="93" gradientUnits="userSpaceOnUse">
<stop stop-color="#191A20"/>
<stop offset="1" stop-color="#39393E"/>
</linearGradient>
<linearGradient id="paint1_linear_83_2818" x1="92.5" y1="12" x2="92.5" y2="83" gradientUnits="userSpaceOnUse">
<stop stop-color="#17181C"/>
<stop offset="1" stop-color="#191A1F"/>
</linearGradient>
<linearGradient id="paint2_linear_83_2818" x1="92.5" y1="12" x2="92.5" y2="83" gradientUnits="userSpaceOnUse">
<stop stop-color="#66676D"/>
<stop offset="1" stop-opacity="0"/>
</linearGradient>
<linearGradient id="paint3_linear_83_2818" x1="92.5" y1="1" x2="92.5" y2="68" gradientUnits="userSpaceOnUse">
<stop stop-color="#34363E"/>
<stop offset="1" stop-color="#25272F"/>
</linearGradient>
<linearGradient id="paint4_linear_83_2818" x1="92.5" y1="1" x2="92.5" y2="68" gradientUnits="userSpaceOnUse">
<stop stop-color="#66676D"/>
<stop offset="1" stop-opacity="0"/>
</linearGradient>
</defs>
</svg>
