<svg width="187" height="85" viewBox="0 0 187 85" fill="none" xmlns="http://www.w3.org/2000/svg">
<g opacity="0.6" filter="url(#filter0_b_5813_187)">
<path d="M185.5 22C185.5 10.9543 176.546 2 165.5 2H51.9983C44.3513 2 37.3736 6.36042 34.0218 13.2337L14.028 54.2337C7.54927 67.5192 17.2234 83 32.0044 83H165.5C176.546 83 185.5 74.0457 185.5 63V22Z" fill="black"/>
<path d="M185.5 22C185.5 10.9543 176.546 2 165.5 2H51.9983C44.3513 2 37.3736 6.36042 34.0218 13.2337L14.028 54.2337C7.54927 67.5192 17.2234 83 32.0044 83H165.5C176.546 83 185.5 74.0457 185.5 63V22Z" stroke="url(#paint0_linear_5813_187)" stroke-width="3"/>
</g>
<g filter="url(#filter1_b_5813_187)">
<path d="M178.5 56.5C178.5 47.6634 171.337 40.5 162.5 40.5H31.5C22.6634 40.5 15.5 47.6634 15.5 56.5V57C15.5 65.8366 22.6634 73 31.5 73H162.5C171.337 73 178.5 65.8366 178.5 57V56.5Z" fill="url(#paint1_linear_5813_187)"/>
<path d="M178.5 56.5C178.5 47.6634 171.337 40.5 162.5 40.5H31.5C22.6634 40.5 15.5 47.6634 15.5 56.5V57C15.5 65.8366 22.6634 73 31.5 73H162.5C171.337 73 178.5 65.8366 178.5 57V56.5Z" stroke="url(#paint2_linear_5813_187)"/>
</g>
<g filter="url(#filter2_b_5813_187)">
<path d="M178.5 18C178.5 9.16344 171.337 2 162.5 2H47.7267C41.4913 2 35.824 5.62237 33.2057 11.2813L17.0116 46.2813C12.1056 56.8846 19.8494 69 31.5326 69H162.5C171.337 69 178.5 61.8366 178.5 53V18Z" fill="url(#paint3_linear_5813_187)"/>
<path d="M178.5 18C178.5 9.16344 171.337 2 162.5 2H47.7267C41.4913 2 35.824 5.62237 33.2057 11.2813L17.0116 46.2813C12.1056 56.8846 19.8494 69 31.5326 69H162.5C171.337 69 178.5 61.8366 178.5 53V18Z" stroke="url(#paint4_linear_5813_187)"/>
</g>
<path d="M67.2744 39L70.0744 25H76.3544C78.2077 25 79.641 25.4067 80.6544 26.22C81.6677 27.02 82.1744 28.1467 82.1744 29.6C82.1744 30.7733 81.881 31.8 81.2944 32.68C80.721 33.56 79.901 34.2467 78.8344 34.74C77.781 35.2333 76.5344 35.48 75.0944 35.48H70.5744L73.0944 33.5L71.9944 39H67.2744ZM75.8344 39L72.9544 33.9H77.8144L80.7344 39H75.8344ZM72.9744 34.06L71.3144 31.92H75.3344C75.9877 31.92 76.4944 31.76 76.8544 31.44C77.2144 31.1067 77.3944 30.6467 77.3944 30.06C77.3944 29.5533 77.2344 29.1933 76.9144 28.98C76.6077 28.7533 76.181 28.64 75.6344 28.64H71.9744L74.4944 26.44L72.9744 34.06ZM89.2367 39.32C87.7834 39.32 86.5701 39.0467 85.5967 38.5C84.6234 37.94 83.9301 37.1667 83.5167 36.18C83.1167 35.18 83.0501 34.02 83.3167 32.7L84.8567 25H89.5767L88.0567 32.62C87.9634 33.1133 87.9301 33.54 87.9567 33.9C87.9834 34.26 88.0701 34.56 88.2167 34.8C88.3767 35.04 88.5901 35.22 88.8567 35.34C89.1234 35.4467 89.4434 35.5 89.8167 35.5C90.2701 35.5 90.6567 35.4067 90.9767 35.22C91.3101 35.0333 91.5834 34.7267 91.7967 34.3C92.0234 33.8733 92.2034 33.3133 92.3367 32.62L93.8567 25H98.4967L96.9167 32.9C96.5034 34.9933 95.6567 36.5867 94.3767 37.68C93.0967 38.7733 91.3834 39.32 89.2367 39.32ZM97.8603 39L100.66 25H105.38L103.32 35.34H109.64L108.9 39H97.8603ZM116.284 30.2H122.524L121.844 33.6H115.604L116.284 30.2ZM115.544 35.44H122.564L121.844 39H110.204L113.004 25H124.384L123.664 28.56H116.924L115.544 35.44ZM129.221 39.32C128.394 39.32 127.601 39.26 126.841 39.14C126.081 39.02 125.388 38.8533 124.761 38.64C124.148 38.4133 123.614 38.1667 123.161 37.9L124.981 34.42C125.501 34.7133 126.021 34.96 126.541 35.16C127.074 35.3467 127.601 35.4867 128.121 35.58C128.654 35.6733 129.181 35.72 129.701 35.72C130.114 35.72 130.454 35.6867 130.721 35.62C131.001 35.5533 131.208 35.46 131.341 35.34C131.488 35.2067 131.561 35.06 131.561 34.9C131.561 34.6867 131.441 34.5133 131.201 34.38C130.961 34.2467 130.641 34.1267 130.241 34.02C129.854 33.9133 129.421 33.8067 128.941 33.7C128.474 33.58 128.001 33.4333 127.521 33.26C127.041 33.0733 126.601 32.84 126.201 32.56C125.814 32.28 125.501 31.9267 125.261 31.5C125.021 31.0733 124.901 30.5533 124.901 29.94C124.901 28.8733 125.181 27.9467 125.741 27.16C126.314 26.3733 127.128 25.7667 128.181 25.34C129.248 24.9 130.514 24.68 131.981 24.68C133.021 24.68 133.988 24.7867 134.881 25C135.788 25.2 136.568 25.4933 137.221 25.88L135.521 29.32C134.961 28.9733 134.348 28.7133 133.681 28.54C133.028 28.3667 132.361 28.28 131.681 28.28C131.228 28.28 130.848 28.3267 130.541 28.42C130.234 28.5 130.001 28.6133 129.841 28.76C129.694 28.9067 129.621 29.06 129.621 29.22C129.621 29.4333 129.741 29.6133 129.981 29.76C130.221 29.8933 130.541 30.0133 130.941 30.12C131.341 30.2133 131.774 30.32 132.241 30.44C132.721 30.5467 133.194 30.6867 133.661 30.86C134.141 31.02 134.581 31.24 134.981 31.52C135.381 31.7867 135.701 32.1333 135.941 32.56C136.181 32.9733 136.301 33.4867 136.301 34.1C136.301 35.14 136.014 36.0533 135.441 36.84C134.868 37.6133 134.048 38.22 132.981 38.66C131.928 39.1 130.674 39.32 129.221 39.32Z" fill="white"/>
<defs>
<filter id="filter0_b_5813_187" x="-9.52246" y="-19.5" width="216.522" height="124" filterUnits="userSpaceOnUse" color-interpolation-filters="sRGB">
<feFlood flood-opacity="0" result="BackgroundImageFix"/>
<feGaussianBlur in="BackgroundImageFix" stdDeviation="10"/>
<feComposite in2="SourceAlpha" operator="in" result="effect1_backgroundBlur_5813_187"/>
<feBlend mode="normal" in="SourceGraphic" in2="effect1_backgroundBlur_5813_187" result="shape"/>
</filter>
<filter id="filter1_b_5813_187" x="-5" y="20" width="204" height="73.5" filterUnits="userSpaceOnUse" color-interpolation-filters="sRGB">
<feFlood flood-opacity="0" result="BackgroundImageFix"/>
<feGaussianBlur in="BackgroundImageFix" stdDeviation="10"/>
<feComposite in2="SourceAlpha" operator="in" result="effect1_backgroundBlur_5813_187"/>
<feBlend mode="normal" in="SourceGraphic" in2="effect1_backgroundBlur_5813_187" result="shape"/>
</filter>
<filter id="filter2_b_5813_187" x="-4.9873" y="-18.5" width="203.987" height="108" filterUnits="userSpaceOnUse" color-interpolation-filters="sRGB">
<feFlood flood-opacity="0" result="BackgroundImageFix"/>
<feGaussianBlur in="BackgroundImageFix" stdDeviation="10"/>
<feComposite in2="SourceAlpha" operator="in" result="effect1_backgroundBlur_5813_187"/>
<feBlend mode="normal" in="SourceGraphic" in2="effect1_backgroundBlur_5813_187" result="shape"/>
</filter>
<linearGradient id="paint0_linear_5813_187" x1="70.2044" y1="2" x2="70.2044" y2="83" gradientUnits="userSpaceOnUse">
<stop stop-color="#191A20"/>
<stop offset="1" stop-color="#39393E"/>
</linearGradient>
<linearGradient id="paint1_linear_5813_187" x1="92.5" y1="2.00001" x2="92.5" y2="73" gradientUnits="userSpaceOnUse">
<stop stop-color="#17181C"/>
<stop offset="1" stop-color="#191A1F"/>
</linearGradient>
<linearGradient id="paint2_linear_5813_187" x1="92.5" y1="2.00001" x2="92.5" y2="73" gradientUnits="userSpaceOnUse">
<stop stop-color="#66676D"/>
<stop offset="1" stop-opacity="0"/>
</linearGradient>
<linearGradient id="paint3_linear_5813_187" x1="92.5" y1="2" x2="92.5" y2="69" gradientUnits="userSpaceOnUse">
<stop stop-color="#5B5E69"/>
<stop offset="1" stop-color="#3F424E"/>
</linearGradient>
<linearGradient id="paint4_linear_5813_187" x1="92.5" y1="2" x2="92.5" y2="69" gradientUnits="userSpaceOnUse">
<stop stop-color="#66676D"/>
<stop offset="1" stop-opacity="0"/>
</linearGradient>
</defs>
</svg>
