<svg width="403" height="53" viewBox="0 0 403 53" fill="none" xmlns="http://www.w3.org/2000/svg">
<mask id="path-1-outside-1_5162_12430" maskUnits="userSpaceOnUse" x="-1" y="-1" width="405" height="56" fill="black">
<rect fill="white" x="-1" y="-1" width="405" height="56"/>
<path d="M20.6738 53.008C16.7858 53.008 13.3538 52.312 10.3778 50.92C7.40178 49.528 5.07378 47.536 3.39378 44.944C1.71378 42.352 0.873781 39.232 0.873781 35.584V33.568H10.2338V35.584C10.2338 38.608 11.1698 40.888 13.0418 42.424C14.9138 43.912 17.4578 44.656 20.6738 44.656C23.9378 44.656 26.3618 44.008 27.9458 42.712C29.5778 41.416 30.3938 39.76 30.3938 37.744C30.3938 36.352 29.9858 35.224 29.1698 34.36C28.4018 33.496 27.2498 32.8 25.7138 32.272C24.2258 31.696 22.4018 31.168 20.2418 30.688L18.5858 30.328C15.1298 29.56 12.1538 28.6 9.65778 27.448C7.20978 26.248 5.31378 24.688 3.96978 22.768C2.67378 20.848 2.02578 18.352 2.02578 15.28C2.02578 12.208 2.74578 9.592 4.18578 7.432C5.67378 5.224 7.73778 3.544 10.3778 2.392C13.0658 1.192 16.2098 0.591997 19.8098 0.591997C23.4098 0.591997 26.6018 1.216 29.3858 2.464C32.2178 3.664 34.4258 5.488 36.0098 7.936C37.6418 10.336 38.4578 13.36 38.4578 17.008V19.168H29.0978V17.008C29.0978 15.088 28.7138 13.552 27.9458 12.4C27.2258 11.2 26.1698 10.336 24.7778 9.808C23.3858 9.232 21.7298 8.944 19.8098 8.944C16.9298 8.944 14.7938 9.496 13.4018 10.6C12.0578 11.656 11.3858 13.12 11.3858 14.992C11.3858 16.24 11.6978 17.296 12.3218 18.16C12.9938 19.024 13.9778 19.744 15.2738 20.32C16.5698 20.896 18.2258 21.4 20.2418 21.832L21.8978 22.192C25.4978 22.96 28.6178 23.944 31.2578 25.144C33.9458 26.344 36.0338 27.928 37.5218 29.896C39.0098 31.864 39.7538 34.384 39.7538 37.456C39.7538 40.528 38.9618 43.24 37.3778 45.592C35.8418 47.896 33.6338 49.72 30.7538 51.064C27.9218 52.36 24.5618 53.008 20.6738 53.008ZM46.8418 52V1.6H67.5778C70.7458 1.6 73.5298 2.248 75.9298 3.544C78.3778 4.792 80.2738 6.568 81.6178 8.872C83.0098 11.176 83.7058 13.912 83.7058 17.08V18.088C83.7058 21.208 82.9858 23.944 81.5458 26.296C80.1538 28.6 78.2338 30.4 75.7858 31.696C73.3858 32.944 70.6498 33.568 67.5778 33.568H56.3458V52H46.8418ZM56.3458 24.928H66.6418C68.8978 24.928 70.7218 24.304 72.1138 23.056C73.5058 21.808 74.2018 20.104 74.2018 17.944V17.224C74.2018 15.064 73.5058 13.36 72.1138 12.112C70.7218 10.864 68.8978 10.24 66.6418 10.24H56.3458V24.928ZM90.295 52V1.6H99.799V52H90.295ZM109.279 52V1.6H127.351L137.359 45.52H138.655V1.6H148.015V52H129.943L119.935 8.08H118.639V52H109.279ZM185.279 52V10.24H170.591V1.6H209.471V10.24H194.783V52H185.279ZM233.488 53.008C227.152 53.008 222.112 51.28 218.368 47.824C214.624 44.32 212.752 39.328 212.752 32.848V20.752C212.752 14.272 214.624 9.304 218.368 5.848C222.112 2.344 227.152 0.591997 233.488 0.591997C239.824 0.591997 244.864 2.344 248.608 5.848C252.352 9.304 254.224 14.272 254.224 20.752V32.848C254.224 39.328 252.352 44.32 248.608 47.824C244.864 51.28 239.824 53.008 233.488 53.008ZM233.488 44.512C237.04 44.512 239.8 43.48 241.768 41.416C243.736 39.352 244.72 36.592 244.72 33.136V20.464C244.72 17.008 243.736 14.248 241.768 12.184C239.8 10.12 237.04 9.088 233.488 9.088C229.984 9.088 227.224 10.12 225.208 12.184C223.24 14.248 222.256 17.008 222.256 20.464V33.136C222.256 36.592 223.24 39.352 225.208 41.416C227.224 43.48 229.984 44.512 233.488 44.512ZM284.452 52L277.828 1.6H287.26L292.156 45.376H293.452L299.788 1.6H316.204L322.54 45.376H323.836L328.732 1.6H338.164L331.54 52H315.124L308.644 7.216H307.348L300.868 52H284.452ZM345.107 52V1.6H354.611V52H345.107ZM364.092 52V1.6H382.164L392.172 45.52H393.468V1.6H402.828V52H384.756L374.748 8.08H373.452V52H364.092Z"/>
</mask>
<path d="M20.6738 53.008C16.7858 53.008 13.3538 52.312 10.3778 50.92C7.40178 49.528 5.07378 47.536 3.39378 44.944C1.71378 42.352 0.873781 39.232 0.873781 35.584V33.568H10.2338V35.584C10.2338 38.608 11.1698 40.888 13.0418 42.424C14.9138 43.912 17.4578 44.656 20.6738 44.656C23.9378 44.656 26.3618 44.008 27.9458 42.712C29.5778 41.416 30.3938 39.76 30.3938 37.744C30.3938 36.352 29.9858 35.224 29.1698 34.36C28.4018 33.496 27.2498 32.8 25.7138 32.272C24.2258 31.696 22.4018 31.168 20.2418 30.688L18.5858 30.328C15.1298 29.56 12.1538 28.6 9.65778 27.448C7.20978 26.248 5.31378 24.688 3.96978 22.768C2.67378 20.848 2.02578 18.352 2.02578 15.28C2.02578 12.208 2.74578 9.592 4.18578 7.432C5.67378 5.224 7.73778 3.544 10.3778 2.392C13.0658 1.192 16.2098 0.591997 19.8098 0.591997C23.4098 0.591997 26.6018 1.216 29.3858 2.464C32.2178 3.664 34.4258 5.488 36.0098 7.936C37.6418 10.336 38.4578 13.36 38.4578 17.008V19.168H29.0978V17.008C29.0978 15.088 28.7138 13.552 27.9458 12.4C27.2258 11.2 26.1698 10.336 24.7778 9.808C23.3858 9.232 21.7298 8.944 19.8098 8.944C16.9298 8.944 14.7938 9.496 13.4018 10.6C12.0578 11.656 11.3858 13.12 11.3858 14.992C11.3858 16.24 11.6978 17.296 12.3218 18.16C12.9938 19.024 13.9778 19.744 15.2738 20.32C16.5698 20.896 18.2258 21.4 20.2418 21.832L21.8978 22.192C25.4978 22.96 28.6178 23.944 31.2578 25.144C33.9458 26.344 36.0338 27.928 37.5218 29.896C39.0098 31.864 39.7538 34.384 39.7538 37.456C39.7538 40.528 38.9618 43.24 37.3778 45.592C35.8418 47.896 33.6338 49.72 30.7538 51.064C27.9218 52.36 24.5618 53.008 20.6738 53.008ZM46.8418 52V1.6H67.5778C70.7458 1.6 73.5298 2.248 75.9298 3.544C78.3778 4.792 80.2738 6.568 81.6178 8.872C83.0098 11.176 83.7058 13.912 83.7058 17.08V18.088C83.7058 21.208 82.9858 23.944 81.5458 26.296C80.1538 28.6 78.2338 30.4 75.7858 31.696C73.3858 32.944 70.6498 33.568 67.5778 33.568H56.3458V52H46.8418ZM56.3458 24.928H66.6418C68.8978 24.928 70.7218 24.304 72.1138 23.056C73.5058 21.808 74.2018 20.104 74.2018 17.944V17.224C74.2018 15.064 73.5058 13.36 72.1138 12.112C70.7218 10.864 68.8978 10.24 66.6418 10.24H56.3458V24.928ZM90.295 52V1.6H99.799V52H90.295ZM109.279 52V1.6H127.351L137.359 45.52H138.655V1.6H148.015V52H129.943L119.935 8.08H118.639V52H109.279ZM185.279 52V10.24H170.591V1.6H209.471V10.24H194.783V52H185.279ZM233.488 53.008C227.152 53.008 222.112 51.28 218.368 47.824C214.624 44.32 212.752 39.328 212.752 32.848V20.752C212.752 14.272 214.624 9.304 218.368 5.848C222.112 2.344 227.152 0.591997 233.488 0.591997C239.824 0.591997 244.864 2.344 248.608 5.848C252.352 9.304 254.224 14.272 254.224 20.752V32.848C254.224 39.328 252.352 44.32 248.608 47.824C244.864 51.28 239.824 53.008 233.488 53.008ZM233.488 44.512C237.04 44.512 239.8 43.48 241.768 41.416C243.736 39.352 244.72 36.592 244.72 33.136V20.464C244.72 17.008 243.736 14.248 241.768 12.184C239.8 10.12 237.04 9.088 233.488 9.088C229.984 9.088 227.224 10.12 225.208 12.184C223.24 14.248 222.256 17.008 222.256 20.464V33.136C222.256 36.592 223.24 39.352 225.208 41.416C227.224 43.48 229.984 44.512 233.488 44.512ZM284.452 52L277.828 1.6H287.26L292.156 45.376H293.452L299.788 1.6H316.204L322.54 45.376H323.836L328.732 1.6H338.164L331.54 52H315.124L308.644 7.216H307.348L300.868 52H284.452ZM345.107 52V1.6H354.611V52H345.107ZM364.092 52V1.6H382.164L392.172 45.52H393.468V1.6H402.828V52H384.756L374.748 8.08H373.452V52H364.092Z" fill="url(#paint0_linear_5162_12430)" fill-opacity="0.3"/>
<path d="M10.3778 50.92L9.9541 51.8258L10.3778 50.92ZM3.39378 44.944L4.23293 44.4001L3.39378 44.944ZM0.873781 33.568V32.568H-0.126219V33.568H0.873781ZM10.2338 33.568H11.2338V32.568H10.2338V33.568ZM13.0418 42.424L12.4075 43.1971L12.4135 43.202L12.4195 43.2068L13.0418 42.424ZM27.9458 42.712L27.3239 41.9289L27.3182 41.9334L27.3125 41.938L27.9458 42.712ZM29.1698 34.36L28.4224 35.0244L28.4324 35.0356L28.4428 35.0466L29.1698 34.36ZM25.7138 32.272L25.3528 33.2046L25.3706 33.2115L25.3887 33.2177L25.7138 32.272ZM20.2418 30.688L20.4587 29.7118L20.4542 29.7108L20.2418 30.688ZM18.5858 30.328L18.3688 31.3042L18.3734 31.3052L18.5858 30.328ZM9.65778 27.448L9.21762 28.3459L9.22812 28.3511L9.23872 28.356L9.65778 27.448ZM3.96978 22.768L3.14093 23.3275L3.14568 23.3345L3.15055 23.3415L3.96978 22.768ZM4.18578 7.432L3.3565 6.87314L3.35373 6.8773L4.18578 7.432ZM10.3778 2.392L10.7777 3.30857L10.7854 3.30514L10.3778 2.392ZM29.3858 2.464L28.9767 3.37651L28.9861 3.38073L28.9956 3.38475L29.3858 2.464ZM36.0098 7.936L35.1702 8.47925L35.1764 8.48885L35.1829 8.49831L36.0098 7.936ZM38.4578 19.168V20.168H39.4578V19.168H38.4578ZM29.0978 19.168H28.0978V20.168H29.0978V19.168ZM27.9458 12.4L27.0883 12.9145L27.1005 12.9349L27.1137 12.9547L27.9458 12.4ZM24.7778 9.808L24.3954 10.732L24.4092 10.7377L24.4231 10.743L24.7778 9.808ZM13.4018 10.6L14.0196 11.3863L14.0232 11.3835L13.4018 10.6ZM12.3218 18.16L11.5111 18.7455L11.5215 18.7599L11.5324 18.7739L12.3218 18.16ZM20.2418 21.832L20.4542 20.8548L20.4513 20.8542L20.2418 21.832ZM21.8978 22.192L21.6854 23.1692L21.6891 23.17L21.8978 22.192ZM31.2578 25.144L30.844 26.0544L30.8501 26.0571L31.2578 25.144ZM37.5218 29.896L38.3194 29.2929L37.5218 29.896ZM37.3778 45.592L36.5483 45.0334L36.5457 45.0373L37.3778 45.592ZM30.7538 51.064L31.1699 51.9733L31.1767 51.9702L30.7538 51.064ZM20.6738 52.008C16.9056 52.008 13.6227 51.3338 10.8015 50.0142L9.9541 51.8258C13.0849 53.2902 16.6659 54.008 20.6738 54.008V52.008ZM10.8015 50.0142C7.98384 48.6963 5.8045 46.8248 4.23293 44.4001L2.55463 45.4879C4.34306 48.2472 6.81973 50.3597 9.9541 51.8258L10.8015 50.0142ZM4.23293 44.4001C2.67571 41.9975 1.87378 39.0745 1.87378 35.584H-0.126219C-0.126219 39.3895 0.751857 42.7065 2.55463 45.4879L4.23293 44.4001ZM1.87378 35.584V33.568H-0.126219V35.584H1.87378ZM0.873781 34.568H10.2338V32.568H0.873781V34.568ZM9.23378 33.568V35.584H11.2338V33.568H9.23378ZM9.23378 35.584C9.23378 38.8261 10.2477 41.4249 12.4075 43.1971L13.6761 41.6509C12.0919 40.3511 11.2338 38.3899 11.2338 35.584H9.23378ZM12.4195 43.2068C14.521 44.8772 17.3095 45.656 20.6738 45.656V43.656C17.6061 43.656 15.3066 42.9468 13.664 41.6412L12.4195 43.2068ZM20.6738 45.656C24.04 45.656 26.7372 44.9929 28.579 43.486L27.3125 41.938C25.9863 43.0231 23.8356 43.656 20.6738 43.656V45.656ZM28.5677 43.4951C30.4292 42.0168 31.3938 40.0768 31.3938 37.744H29.3938C29.3938 39.4432 28.7264 40.8152 27.3239 41.9289L28.5677 43.4951ZM31.3938 37.744C31.3938 36.1434 30.9178 34.7544 29.8968 33.6734L28.4428 35.0466C29.0538 35.6936 29.3938 36.5606 29.3938 37.744H31.3938ZM29.9172 33.6956C28.9979 32.6615 27.6751 31.8888 26.0389 31.3263L25.3887 33.2177C26.8245 33.7112 27.8056 34.3305 28.4224 35.0244L29.9172 33.6956ZM26.0748 31.3394C24.5259 30.7399 22.6505 30.1989 20.4587 29.7118L20.0249 31.6642C22.1531 32.1371 23.9257 32.6521 25.3528 33.2046L26.0748 31.3394ZM20.4542 29.7108L18.7982 29.3508L18.3734 31.3052L20.0294 31.6652L20.4542 29.7108ZM18.8027 29.3518C15.3976 28.5951 12.4927 27.655 10.0768 26.54L9.23872 28.356C11.8149 29.545 14.862 30.5249 18.3689 31.3042L18.8027 29.3518ZM10.0979 26.5501C7.77674 25.4122 6.02133 23.955 4.78901 22.1945L3.15055 23.3415C4.60623 25.421 6.64282 27.0838 9.21762 28.3459L10.0979 26.5501ZM4.79863 22.2085C3.64527 20.4998 3.02578 18.2166 3.02578 15.28H1.02578C1.02578 18.4874 1.7023 21.1962 3.14093 23.3275L4.79863 22.2085ZM3.02578 15.28C3.02578 12.3685 3.70616 9.9542 5.01783 7.9867L3.35373 6.8773C1.7854 9.22979 1.02578 12.0475 1.02578 15.28H3.02578ZM5.01505 7.99085C6.38814 5.95336 8.29708 4.391 10.7777 3.30854L9.97784 1.47546C7.17849 2.69699 4.95942 4.49463 3.35652 6.87315L5.01505 7.99085ZM10.7854 3.30514C13.3199 2.17368 16.3197 1.592 19.8098 1.592V-0.408003C16.0999 -0.408003 12.8117 0.210316 9.97013 1.47886L10.7854 3.30514ZM19.8098 1.592C23.2939 1.592 26.3424 2.19562 28.9767 3.37651L29.7948 1.55149C26.8611 0.236372 23.5257 -0.408003 19.8098 -0.408003V1.592ZM28.9956 3.38475C31.6541 4.51122 33.701 6.20867 35.1702 8.47925L36.8494 7.39275C35.1506 4.76732 32.7815 2.81677 29.7759 1.54325L28.9956 3.38475ZM35.1829 8.49831C36.6762 10.6944 37.4578 13.5089 37.4578 17.008H39.4578C39.4578 13.2111 38.6074 9.97763 36.8367 7.37369L35.1829 8.49831ZM37.4578 17.008V19.168H39.4578V17.008H37.4578ZM38.4578 18.168H29.0978V20.168H38.4578V18.168ZM30.0978 19.168V17.008H28.0978V19.168H30.0978ZM30.0978 17.008C30.0978 14.9644 29.6901 13.2138 28.7778 11.8453L27.1137 12.9547C27.7374 13.8902 28.0978 15.2116 28.0978 17.008H30.0978ZM28.8033 11.8855C27.96 10.48 26.7202 9.47524 25.1324 8.873L24.4231 10.743C25.6194 11.1968 26.4916 11.92 27.0883 12.9145L28.8033 11.8855ZM25.1601 8.88398C23.6186 8.24611 21.8264 7.944 19.8098 7.944V9.944C21.6331 9.944 23.153 10.2179 24.3954 10.732L25.1601 8.88398ZM19.8098 7.944C16.8341 7.944 14.4294 8.50865 12.7804 9.8165L14.0232 11.3835C15.1581 10.4833 17.0255 9.944 19.8098 9.944V7.944ZM12.784 9.81368C11.1735 11.079 10.3858 12.8466 10.3858 14.992H12.3858C12.3858 13.3934 12.9421 12.233 14.0196 11.3863L12.784 9.81368ZM10.3858 14.992C10.3858 16.4131 10.744 17.6833 11.5111 18.7455L13.1325 17.5745C12.6516 16.9087 12.3858 16.0669 12.3858 14.992H10.3858ZM11.5324 18.7739C12.331 19.8007 13.4643 20.6101 14.8676 21.2338L15.6799 19.4062C14.4912 18.8779 13.6565 18.2473 13.1111 17.5461L11.5324 18.7739ZM14.8676 21.2338C16.2482 21.8474 17.9762 22.3692 20.0323 22.8098L20.4513 20.8542C18.4754 20.4308 16.8914 19.9446 15.6799 19.4062L14.8676 21.2338ZM20.0294 22.8092L21.6854 23.1692L22.1102 21.2148L20.4542 20.8548L20.0294 22.8092ZM21.6891 23.17C25.2364 23.9267 28.2845 24.891 30.844 26.0544L31.6716 24.2336C28.951 22.997 25.7591 21.9933 22.1064 21.214L21.6891 23.17ZM30.8501 26.0571C33.4138 27.2016 35.3559 28.6895 36.7241 30.4991L38.3194 29.2929C36.7117 27.1665 34.4778 25.4864 31.6654 24.2309L30.8501 26.0571ZM36.7241 30.4991C38.0515 32.2546 38.7538 34.5474 38.7538 37.456H40.7538C40.7538 34.2206 39.9681 31.4734 38.3194 29.2929L36.7241 30.4991ZM38.7538 37.456C38.7538 40.3463 38.0118 42.8603 36.5483 45.0334L38.2072 46.1506C39.9117 43.6197 40.7538 40.7097 40.7538 37.456H38.7538ZM36.5457 45.0373C35.1256 47.1674 33.0699 48.8796 30.3309 50.1578L31.1767 51.9702C34.1977 50.5604 36.5579 48.6246 38.2098 46.1467L36.5457 45.0373ZM30.3377 50.1547C27.6645 51.378 24.4528 52.008 20.6738 52.008V54.008C24.6707 54.008 28.1791 53.342 31.1699 51.9733L30.3377 50.1547ZM46.8418 52H45.8418V53H46.8418V52ZM46.8418 1.6V0.599997H45.8418V1.6H46.8418ZM75.9298 3.544L75.4547 4.4239L75.4651 4.42953L75.4757 4.4349L75.9298 3.544ZM81.6178 8.872L80.7541 9.37587L80.7579 9.38252L80.7619 9.38911L81.6178 8.872ZM81.5458 26.296L80.693 25.7738L80.6899 25.7789L81.5458 26.296ZM75.7858 31.696L76.2472 32.5832L76.2537 32.5798L75.7858 31.696ZM56.3458 33.568V32.568H55.3458V33.568H56.3458ZM56.3458 52V53H57.3458V52H56.3458ZM56.3458 24.928H55.3458V25.928H56.3458V24.928ZM72.1138 23.056L72.7814 23.8006L72.1138 23.056ZM72.1138 12.112L72.7814 11.3674L72.1138 12.112ZM56.3458 10.24V9.24H55.3458V10.24H56.3458ZM47.8418 52V1.6H45.8418V52H47.8418ZM46.8418 2.6H67.5778V0.599997H46.8418V2.6ZM67.5778 2.6C70.6069 2.6 73.2227 3.2186 75.4547 4.4239L76.405 2.66409C73.837 1.27739 70.8848 0.599997 67.5778 0.599997V2.6ZM75.4757 4.4349C77.7583 5.5986 79.5097 7.24268 80.7541 9.37587L82.4816 8.36813C81.038 5.89332 78.9974 3.9854 76.384 2.65309L75.4757 4.4349ZM80.7619 9.38911C82.0441 11.5114 82.7058 14.0617 82.7058 17.08H84.7058C84.7058 13.7623 83.9756 10.8406 82.4738 8.35488L80.7619 9.38911ZM82.7058 17.08V18.088H84.7058V17.08H82.7058ZM82.7058 18.088C82.7058 21.0485 82.0246 23.5989 80.693 25.7738L82.3987 26.8182C83.9471 24.2891 84.7058 21.3675 84.7058 18.088H82.7058ZM80.6899 25.7789C79.3945 27.9231 77.6106 29.5984 75.318 30.8122L76.2537 32.5798C78.857 31.2016 80.9132 29.2769 82.4018 26.8131L80.6899 25.7789ZM75.3245 30.8088C73.0853 31.9732 70.5112 32.568 67.5778 32.568V34.568C70.7885 34.568 73.6864 33.9148 76.2472 32.5832L75.3245 30.8088ZM67.5778 32.568H56.3458V34.568H67.5778V32.568ZM55.3458 33.568V52H57.3458V33.568H55.3458ZM56.3458 51H46.8418V53H56.3458V51ZM56.3458 25.928H66.6418V23.928H56.3458V25.928ZM66.6418 25.928C69.0907 25.928 71.1696 25.2456 72.7814 23.8006L71.4463 22.3114C70.274 23.3624 68.705 23.928 66.6418 23.928V25.928ZM72.7814 23.8006C74.4187 22.3327 75.2018 20.3395 75.2018 17.944H73.2018C73.2018 19.8685 72.593 21.2833 71.4463 22.3114L72.7814 23.8006ZM75.2018 17.944V17.224H73.2018V17.944H75.2018ZM75.2018 17.224C75.2018 14.8285 74.4187 12.8353 72.7814 11.3674L71.4463 12.8566C72.593 13.8847 73.2018 15.2995 73.2018 17.224H75.2018ZM72.7814 11.3674C71.1696 9.92242 69.0907 9.24 66.6418 9.24V11.24C68.705 11.24 70.274 11.8056 71.4463 12.8566L72.7814 11.3674ZM66.6418 9.24H56.3458V11.24H66.6418V9.24ZM55.3458 10.24V24.928H57.3458V10.24H55.3458ZM90.295 52H89.295V53H90.295V52ZM90.295 1.6V0.599997H89.295V1.6H90.295ZM99.799 1.6H100.799V0.599997H99.799V1.6ZM99.799 52V53H100.799V52H99.799ZM91.295 52V1.6H89.295V52H91.295ZM90.295 2.6H99.799V0.599997H90.295V2.6ZM98.799 1.6V52H100.799V1.6H98.799ZM99.799 51H90.295V53H99.799V51ZM109.279 52H108.279V53H109.279V52ZM109.279 1.6V0.599997H108.279V1.6H109.279ZM127.351 1.6L128.326 1.37782L128.149 0.599997H127.351V1.6ZM137.359 45.52L136.384 45.7422L136.562 46.52H137.359V45.52ZM138.655 45.52V46.52H139.655V45.52H138.655ZM138.655 1.6V0.599997H137.655V1.6H138.655ZM148.015 1.6H149.015V0.599997H148.015V1.6ZM148.015 52V53H149.015V52H148.015ZM129.943 52L128.968 52.2222L129.146 53H129.943V52ZM119.935 8.08L120.91 7.85783L120.733 7.08H119.935V8.08ZM118.639 8.08V7.08H117.639V8.08H118.639ZM118.639 52V53H119.639V52H118.639ZM110.279 52V1.6H108.279V52H110.279ZM109.279 2.6H127.351V0.599997H109.279V2.6ZM126.376 1.82217L136.384 45.7422L138.334 45.2978L128.326 1.37782L126.376 1.82217ZM137.359 46.52H138.655V44.52H137.359V46.52ZM139.655 45.52V1.6H137.655V45.52H139.655ZM138.655 2.6H148.015V0.599997H138.655V2.6ZM147.015 1.6V52H149.015V1.6H147.015ZM148.015 51H129.943V53H148.015V51ZM130.918 51.7778L120.91 7.85783L118.96 8.30217L128.968 52.2222L130.918 51.7778ZM119.935 7.08H118.639V9.08H119.935V7.08ZM117.639 8.08V52H119.639V8.08H117.639ZM118.639 51H109.279V53H118.639V51ZM185.279 52H184.279V53H185.279V52ZM185.279 10.24H186.279V9.24H185.279V10.24ZM170.591 10.24H169.591V11.24H170.591V10.24ZM170.591 1.6V0.599997H169.591V1.6H170.591ZM209.471 1.6H210.471V0.599997H209.471V1.6ZM209.471 10.24V11.24H210.471V10.24H209.471ZM194.783 10.24V9.24H193.783V10.24H194.783ZM194.783 52V53H195.783V52H194.783ZM186.279 52V10.24H184.279V52H186.279ZM185.279 9.24H170.591V11.24H185.279V9.24ZM171.591 10.24V1.6H169.591V10.24H171.591ZM170.591 2.6H209.471V0.599997H170.591V2.6ZM208.471 1.6V10.24H210.471V1.6H208.471ZM209.471 9.24H194.783V11.24H209.471V9.24ZM193.783 10.24V52H195.783V10.24H193.783ZM194.783 51H185.279V53H194.783V51ZM218.368 47.824L217.685 48.5541L217.69 48.5588L218.368 47.824ZM218.368 5.848L219.047 6.58282L219.052 6.57812L218.368 5.848ZM248.608 5.848L247.925 6.57814L247.93 6.5828L248.608 5.848ZM248.608 47.824L249.287 48.5588L249.292 48.5541L248.608 47.824ZM241.768 41.416L241.045 40.7259L241.768 41.416ZM241.768 12.184L241.045 12.8741L241.768 12.184ZM225.208 12.184L224.493 11.4852L224.485 11.4939L225.208 12.184ZM225.208 41.416L224.485 42.1061L224.493 42.1147L225.208 41.416ZM233.488 52.008C227.34 52.008 222.564 50.3357 219.047 47.0892L217.69 48.5588C221.661 52.2243 226.965 54.008 233.488 54.008V52.008ZM219.052 47.0939C215.56 43.8261 213.752 39.1289 213.752 32.848H211.752C211.752 39.5271 213.689 44.8139 217.685 48.5541L219.052 47.0939ZM213.752 32.848V20.752H211.752V32.848H213.752ZM213.752 20.752C213.752 14.4704 215.56 9.80094 219.047 6.5828L217.69 5.11319C213.688 8.80706 211.752 14.0736 211.752 20.752H213.752ZM219.052 6.57812C222.569 3.28611 227.343 1.592 233.488 1.592V-0.408003C226.961 -0.408003 221.656 1.40188 217.685 5.11788L219.052 6.57812ZM233.488 1.592C239.633 1.592 244.408 3.28611 247.925 6.57812L249.292 5.11788C245.321 1.40188 240.015 -0.408003 233.488 -0.408003V1.592ZM247.93 6.5828C251.416 9.80094 253.224 14.4704 253.224 20.752H255.224C255.224 14.0736 253.288 8.80706 249.287 5.11319L247.93 6.5828ZM253.224 20.752V32.848H255.224V20.752H253.224ZM253.224 32.848C253.224 39.1289 251.417 43.8261 247.925 47.0939L249.292 48.5541C253.288 44.8139 255.224 39.5271 255.224 32.848H253.224ZM247.93 47.0892C244.413 50.3357 239.637 52.008 233.488 52.008V54.008C240.012 54.008 245.316 52.2243 249.287 48.5588L247.93 47.0892ZM233.488 45.512C237.242 45.512 240.291 44.4144 242.492 42.1061L241.045 40.7259C239.31 42.5456 236.838 43.512 233.488 43.512V45.512ZM242.492 42.1061C244.674 39.8182 245.72 36.7913 245.72 33.136H243.72C243.72 36.3927 242.799 38.8858 241.045 40.7259L242.492 42.1061ZM245.72 33.136V20.464H243.72V33.136H245.72ZM245.72 20.464C245.72 16.8087 244.674 13.7818 242.492 11.4939L241.045 12.8741C242.799 14.7142 243.72 17.2073 243.72 20.464H245.72ZM242.492 11.4939C240.291 9.18559 237.242 8.088 233.488 8.088V10.088C236.838 10.088 239.31 11.0544 241.045 12.8741L242.492 11.4939ZM233.488 8.088C229.777 8.088 226.736 9.18848 224.493 11.4853L225.924 12.8827C227.712 11.0515 230.192 10.088 233.488 10.088V8.088ZM224.485 11.4939C222.303 13.7818 221.256 16.8087 221.256 20.464H223.256C223.256 17.2073 224.178 14.7142 225.932 12.8741L224.485 11.4939ZM221.256 20.464V33.136H223.256V20.464H221.256ZM221.256 33.136C221.256 36.7913 222.303 39.8182 224.485 42.1061L225.932 40.7259C224.178 38.8858 223.256 36.3927 223.256 33.136H221.256ZM224.493 42.1147C226.736 44.4115 229.777 45.512 233.488 45.512V43.512C230.192 43.512 227.712 42.5485 225.924 40.7173L224.493 42.1147ZM284.452 52L283.461 52.1303L283.575 53H284.452V52ZM277.828 1.6V0.599997H276.688L276.836 1.7303L277.828 1.6ZM287.26 1.6L288.254 1.48885L288.154 0.599997H287.26V1.6ZM292.156 45.376L291.162 45.4872L291.262 46.376H292.156V45.376ZM293.452 45.376V46.376H294.318L294.442 45.5192L293.452 45.376ZM299.788 1.6V0.599997H298.922L298.798 1.45675L299.788 1.6ZM316.204 1.6L317.194 1.45675L317.07 0.599997H316.204V1.6ZM322.54 45.376L321.55 45.5192L321.674 46.376H322.54V45.376ZM323.836 45.376V46.376H324.73L324.83 45.4872L323.836 45.376ZM328.732 1.6V0.599997H327.838L327.738 1.48885L328.732 1.6ZM338.164 1.6L339.155 1.7303L339.304 0.599997H338.164V1.6ZM331.54 52V53H332.417L332.531 52.1303L331.54 52ZM315.124 52L314.134 52.1432L314.258 53H315.124V52ZM308.644 7.216L309.634 7.0728L309.51 6.216H308.644V7.216ZM307.348 7.216V6.216H306.482L306.358 7.0728L307.348 7.216ZM300.868 52V53H301.734L301.858 52.1432L300.868 52ZM285.443 51.8697L278.819 1.46969L276.836 1.7303L283.461 52.1303L285.443 51.8697ZM277.828 2.6H287.26V0.599997H277.828V2.6ZM286.266 1.71115L291.162 45.4872L293.15 45.2648L288.254 1.48885L286.266 1.71115ZM292.156 46.376H293.452V44.376H292.156V46.376ZM294.442 45.5192L300.778 1.74324L298.798 1.45675L292.462 45.2328L294.442 45.5192ZM299.788 2.6H316.204V0.599997H299.788V2.6ZM315.214 1.74324L321.55 45.5192L323.53 45.2328L317.194 1.45675L315.214 1.74324ZM322.54 46.376H323.836V44.376H322.54V46.376ZM324.83 45.4872L329.726 1.71115L327.738 1.48885L322.842 45.2648L324.83 45.4872ZM328.732 2.6H338.164V0.599997H328.732V2.6ZM337.172 1.46969L330.548 51.8697L332.531 52.1303L339.155 1.7303L337.172 1.46969ZM331.54 51H315.124V53H331.54V51ZM316.114 51.8568L309.634 7.0728L307.654 7.3592L314.134 52.1432L316.114 51.8568ZM308.644 6.216H307.348V8.216H308.644V6.216ZM306.358 7.0728L299.878 51.8568L301.858 52.1432L308.338 7.3592L306.358 7.0728ZM300.868 51H284.452V53H300.868V51ZM345.107 52H344.107V53H345.107V52ZM345.107 1.6V0.599997H344.107V1.6H345.107ZM354.611 1.6H355.611V0.599997H354.611V1.6ZM354.611 52V53H355.611V52H354.611ZM346.107 52V1.6H344.107V52H346.107ZM345.107 2.6H354.611V0.599997H345.107V2.6ZM353.611 1.6V52H355.611V1.6H353.611ZM354.611 51H345.107V53H354.611V51ZM364.092 52H363.092V53H364.092V52ZM364.092 1.6V0.599997H363.092V1.6H364.092ZM382.164 1.6L383.139 1.37782L382.962 0.599997H382.164V1.6ZM392.172 45.52L391.197 45.7422L391.374 46.52H392.172V45.52ZM393.468 45.52V46.52H394.468V45.52H393.468ZM393.468 1.6V0.599997H392.468V1.6H393.468ZM402.828 1.6H403.828V0.599997H402.828V1.6ZM402.828 52V53H403.828V52H402.828ZM384.756 52L383.781 52.2222L383.958 53H384.756V52ZM374.748 8.08L375.723 7.85783L375.546 7.08H374.748V8.08ZM373.452 8.08V7.08H372.452V8.08H373.452ZM373.452 52V53H374.452V52H373.452ZM365.092 52V1.6H363.092V52H365.092ZM364.092 2.6H382.164V0.599997H364.092V2.6ZM381.189 1.82217L391.197 45.7422L393.147 45.2978L383.139 1.37782L381.189 1.82217ZM392.172 46.52H393.468V44.52H392.172V46.52ZM394.468 45.52V1.6H392.468V45.52H394.468ZM393.468 2.6H402.828V0.599997H393.468V2.6ZM401.828 1.6V52H403.828V1.6H401.828ZM402.828 51H384.756V53H402.828V51ZM385.731 51.7778L375.723 7.85783L373.773 8.30217L383.781 52.2222L385.731 51.7778ZM374.748 7.08H373.452V9.08H374.748V7.08ZM372.452 8.08V52H374.452V8.08H372.452ZM373.452 51H364.092V53H373.452V51Z" fill="url(#paint1_linear_5162_12430)" fill-opacity="0.3" mask="url(#path-1-outside-1_5162_12430)"/>
<defs>
<linearGradient id="paint0_linear_5162_12430" x1="203" y1="0" x2="203" y2="52.2" gradientUnits="userSpaceOnUse">
<stop stop-color="#A6A6A6"/>
<stop offset="1" stop-color="#7C7C7C"/>
</linearGradient>
<linearGradient id="paint1_linear_5162_12430" x1="203" y1="1.2" x2="203" y2="55.2" gradientUnits="userSpaceOnUse">
<stop/>
<stop offset="0.9999" stop-color="#8E8E8E"/>
<stop offset="1" stop-opacity="0"/>
</linearGradient>
</defs>
</svg>
