<svg width="782" height="53" viewBox="0 0 782 53" fill="none" xmlns="http://www.w3.org/2000/svg">
<mask id="path-1-outside-1_5162_12430" maskUnits="userSpaceOnUse" x="-1" y="-1" width="784" height="56" fill="black">
<rect fill="white" x="-1" y="-1" width="784" height="56"/>
<path d="M0.519032 52V43.648H7.14303V9.952H0.519032V1.6H21.255C28.023 1.6 33.159 3.328 36.663 6.784C40.215 10.192 41.991 15.28 41.991 22.048V31.552C41.991 38.32 40.215 43.432 36.663 46.888C33.159 50.296 28.023 52 21.255 52H0.519032ZM16.647 43.36H21.399C25.239 43.36 28.047 42.352 29.823 40.336C31.599 38.32 32.487 35.488 32.487 31.84V21.76C32.487 18.064 31.599 15.232 29.823 13.264C28.047 11.248 25.239 10.24 21.399 10.24H16.647V43.36ZM46.0343 52L59.2823 1.6H75.8423L89.0903 52H79.2983L76.5623 40.912H58.5623L55.8263 52H46.0343ZM60.7943 32.128H74.3303L68.2103 7.576H66.9143L60.7943 32.128ZM95.1231 52V1.6H115.859C119.027 1.6 121.811 2.248 124.211 3.544C126.659 4.792 128.555 6.568 129.899 8.872C131.291 11.176 131.987 13.912 131.987 17.08V18.088C131.987 21.208 131.267 23.944 129.827 26.296C128.435 28.6 126.515 30.4 124.067 31.696C121.667 32.944 118.931 33.568 115.859 33.568H104.627V52H95.1231ZM104.627 24.928H114.923C117.179 24.928 119.003 24.304 120.395 23.056C121.787 21.808 122.483 20.104 122.483 17.944V17.224C122.483 15.064 121.787 13.36 120.395 12.112C119.003 10.864 117.179 10.24 114.923 10.24H104.627V24.928ZM136.855 52V43.648H143.479V9.952H136.855V1.6H157.591C164.359 1.6 169.495 3.328 172.999 6.784C176.551 10.192 178.327 15.28 178.327 22.048V31.552C178.327 38.32 176.551 43.432 172.999 46.888C169.495 50.296 164.359 52 157.591 52H136.855ZM152.983 43.36H157.735C161.575 43.36 164.383 42.352 166.159 40.336C167.935 38.32 168.823 35.488 168.823 31.84V21.76C168.823 18.064 167.935 15.232 166.159 13.264C164.383 11.248 161.575 10.24 157.735 10.24H152.983V43.36ZM182.37 52L195.618 1.6H212.178L225.426 52H215.634L212.898 40.912H194.898L192.162 52H182.37ZM197.13 32.128H210.666L204.546 7.576H203.25L197.13 32.128ZM231.459 52V1.6H252.195C255.363 1.6 258.147 2.248 260.547 3.544C262.995 4.792 264.891 6.568 266.235 8.872C267.627 11.176 268.323 13.912 268.323 17.08V18.088C268.323 21.208 267.603 23.944 266.163 26.296C264.771 28.6 262.851 30.4 260.403 31.696C258.003 32.944 255.267 33.568 252.195 33.568H240.963V52H231.459ZM240.963 24.928H251.259C253.515 24.928 255.339 24.304 256.731 23.056C258.123 21.808 258.819 20.104 258.819 17.944V17.224C258.819 15.064 258.123 13.36 256.731 12.112C255.339 10.864 253.515 10.24 251.259 10.24H240.963V24.928ZM310.689 53.008C306.801 53.008 303.369 52.312 300.393 50.92C297.417 49.528 295.089 47.536 293.409 44.944C291.729 42.352 290.889 39.232 290.889 35.584V33.568H300.249V35.584C300.249 38.608 301.185 40.888 303.057 42.424C304.929 43.912 307.473 44.656 310.689 44.656C313.953 44.656 316.377 44.008 317.961 42.712C319.593 41.416 320.409 39.76 320.409 37.744C320.409 36.352 320.001 35.224 319.185 34.36C318.417 33.496 317.265 32.8 315.729 32.272C314.241 31.696 312.417 31.168 310.257 30.688L308.601 30.328C305.145 29.56 302.169 28.6 299.673 27.448C297.225 26.248 295.329 24.688 293.985 22.768C292.689 20.848 292.041 18.352 292.041 15.28C292.041 12.208 292.761 9.592 294.201 7.432C295.689 5.224 297.753 3.544 300.393 2.392C303.081 1.192 306.225 0.591997 309.825 0.591997C313.425 0.591997 316.617 1.216 319.401 2.464C322.233 3.664 324.441 5.488 326.025 7.936C327.657 10.336 328.473 13.36 328.473 17.008V19.168H319.113V17.008C319.113 15.088 318.729 13.552 317.961 12.4C317.241 11.2 316.185 10.336 314.793 9.808C313.401 9.232 311.745 8.944 309.825 8.944C306.945 8.944 304.809 9.496 303.417 10.6C302.073 11.656 301.401 13.12 301.401 14.992C301.401 16.24 301.713 17.296 302.337 18.16C303.009 19.024 303.993 19.744 305.289 20.32C306.585 20.896 308.241 21.4 310.257 21.832L311.913 22.192C315.513 22.96 318.633 23.944 321.273 25.144C323.961 26.344 326.049 27.928 327.537 29.896C329.025 31.864 329.769 34.384 329.769 37.456C329.769 40.528 328.977 43.24 327.393 45.592C325.857 47.896 323.649 49.72 320.769 51.064C317.937 52.36 314.577 53.008 310.689 53.008ZM336.857 52V1.6H346.361V43.36H369.401V52H336.857ZM393.707 53.008C387.371 53.008 382.331 51.28 378.587 47.824C374.843 44.32 372.971 39.328 372.971 32.848V20.752C372.971 14.272 374.843 9.304 378.587 5.848C382.331 2.344 387.371 0.591997 393.707 0.591997C400.043 0.591997 405.083 2.344 408.827 5.848C412.571 9.304 414.443 14.272 414.443 20.752V32.848C414.443 39.328 412.571 44.32 408.827 47.824C405.083 51.28 400.043 53.008 393.707 53.008ZM393.707 44.512C397.259 44.512 400.019 43.48 401.987 41.416C403.955 39.352 404.939 36.592 404.939 33.136V20.464C404.939 17.008 403.955 14.248 401.987 12.184C400.019 10.12 397.259 9.088 393.707 9.088C390.203 9.088 387.443 10.12 385.427 12.184C383.459 14.248 382.475 17.008 382.475 20.464V33.136C382.475 36.592 383.459 39.352 385.427 41.416C387.443 43.48 390.203 44.512 393.707 44.512ZM432.404 52V10.24H417.716V1.6H456.596V10.24H441.908V52H432.404ZM479.17 52V1.6H496.81L505.522 45.52H506.818L515.53 1.6H533.17V52H523.954V8.584H522.658L514.018 52H498.322L489.682 8.584H488.386V52H479.17ZM539.206 52L552.454 1.6H569.014L582.262 52H572.47L569.734 40.912H551.734L548.998 52H539.206ZM553.966 32.128H567.502L561.382 7.576H560.086L553.966 32.128ZM607.025 53.008C600.785 53.008 595.841 51.28 592.193 47.824C588.545 44.32 586.721 39.328 586.721 32.848V20.752C586.721 14.272 588.545 9.304 592.193 5.848C595.841 2.344 600.785 0.591997 607.025 0.591997C613.217 0.591997 617.993 2.296 621.353 5.704C624.761 9.064 626.465 13.696 626.465 19.6V20.032H617.105V19.312C617.105 16.336 616.265 13.888 614.585 11.968C612.953 10.048 610.433 9.088 607.025 9.088C603.665 9.088 601.025 10.12 599.105 12.184C597.185 14.248 596.225 17.056 596.225 20.608V32.992C596.225 36.496 597.185 39.304 599.105 41.416C601.025 43.48 603.665 44.512 607.025 44.512C610.433 44.512 612.953 43.552 614.585 41.632C616.265 39.664 617.105 37.216 617.105 34.288V32.992H626.465V34C626.465 39.904 624.761 44.56 621.353 47.968C617.993 51.328 613.217 53.008 607.025 53.008ZM634.209 52V1.6H643.713V22.408H662.433V1.6H671.937V52H662.433V31.048H643.713V52H634.209ZM681.459 52V1.6H690.963V52H681.459ZM700.443 52V1.6H718.515L728.523 45.52H729.819V1.6H739.179V52H721.107L711.099 8.08H709.803V52H700.443ZM748.678 52V1.6H781.078V10.24H758.182V22.264H779.062V30.904H758.182V43.36H781.51V52H748.678Z"/>
</mask>
<path d="M0.519032 52V43.648H7.14303V9.952H0.519032V1.6H21.255C28.023 1.6 33.159 3.328 36.663 6.784C40.215 10.192 41.991 15.28 41.991 22.048V31.552C41.991 38.32 40.215 43.432 36.663 46.888C33.159 50.296 28.023 52 21.255 52H0.519032ZM16.647 43.36H21.399C25.239 43.36 28.047 42.352 29.823 40.336C31.599 38.32 32.487 35.488 32.487 31.84V21.76C32.487 18.064 31.599 15.232 29.823 13.264C28.047 11.248 25.239 10.24 21.399 10.24H16.647V43.36ZM46.0343 52L59.2823 1.6H75.8423L89.0903 52H79.2983L76.5623 40.912H58.5623L55.8263 52H46.0343ZM60.7943 32.128H74.3303L68.2103 7.576H66.9143L60.7943 32.128ZM95.1231 52V1.6H115.859C119.027 1.6 121.811 2.248 124.211 3.544C126.659 4.792 128.555 6.568 129.899 8.872C131.291 11.176 131.987 13.912 131.987 17.08V18.088C131.987 21.208 131.267 23.944 129.827 26.296C128.435 28.6 126.515 30.4 124.067 31.696C121.667 32.944 118.931 33.568 115.859 33.568H104.627V52H95.1231ZM104.627 24.928H114.923C117.179 24.928 119.003 24.304 120.395 23.056C121.787 21.808 122.483 20.104 122.483 17.944V17.224C122.483 15.064 121.787 13.36 120.395 12.112C119.003 10.864 117.179 10.24 114.923 10.24H104.627V24.928ZM136.855 52V43.648H143.479V9.952H136.855V1.6H157.591C164.359 1.6 169.495 3.328 172.999 6.784C176.551 10.192 178.327 15.28 178.327 22.048V31.552C178.327 38.32 176.551 43.432 172.999 46.888C169.495 50.296 164.359 52 157.591 52H136.855ZM152.983 43.36H157.735C161.575 43.36 164.383 42.352 166.159 40.336C167.935 38.32 168.823 35.488 168.823 31.84V21.76C168.823 18.064 167.935 15.232 166.159 13.264C164.383 11.248 161.575 10.24 157.735 10.24H152.983V43.36ZM182.37 52L195.618 1.6H212.178L225.426 52H215.634L212.898 40.912H194.898L192.162 52H182.37ZM197.13 32.128H210.666L204.546 7.576H203.25L197.13 32.128ZM231.459 52V1.6H252.195C255.363 1.6 258.147 2.248 260.547 3.544C262.995 4.792 264.891 6.568 266.235 8.872C267.627 11.176 268.323 13.912 268.323 17.08V18.088C268.323 21.208 267.603 23.944 266.163 26.296C264.771 28.6 262.851 30.4 260.403 31.696C258.003 32.944 255.267 33.568 252.195 33.568H240.963V52H231.459ZM240.963 24.928H251.259C253.515 24.928 255.339 24.304 256.731 23.056C258.123 21.808 258.819 20.104 258.819 17.944V17.224C258.819 15.064 258.123 13.36 256.731 12.112C255.339 10.864 253.515 10.24 251.259 10.24H240.963V24.928ZM310.689 53.008C306.801 53.008 303.369 52.312 300.393 50.92C297.417 49.528 295.089 47.536 293.409 44.944C291.729 42.352 290.889 39.232 290.889 35.584V33.568H300.249V35.584C300.249 38.608 301.185 40.888 303.057 42.424C304.929 43.912 307.473 44.656 310.689 44.656C313.953 44.656 316.377 44.008 317.961 42.712C319.593 41.416 320.409 39.76 320.409 37.744C320.409 36.352 320.001 35.224 319.185 34.36C318.417 33.496 317.265 32.8 315.729 32.272C314.241 31.696 312.417 31.168 310.257 30.688L308.601 30.328C305.145 29.56 302.169 28.6 299.673 27.448C297.225 26.248 295.329 24.688 293.985 22.768C292.689 20.848 292.041 18.352 292.041 15.28C292.041 12.208 292.761 9.592 294.201 7.432C295.689 5.224 297.753 3.544 300.393 2.392C303.081 1.192 306.225 0.591997 309.825 0.591997C313.425 0.591997 316.617 1.216 319.401 2.464C322.233 3.664 324.441 5.488 326.025 7.936C327.657 10.336 328.473 13.36 328.473 17.008V19.168H319.113V17.008C319.113 15.088 318.729 13.552 317.961 12.4C317.241 11.2 316.185 10.336 314.793 9.808C313.401 9.232 311.745 8.944 309.825 8.944C306.945 8.944 304.809 9.496 303.417 10.6C302.073 11.656 301.401 13.12 301.401 14.992C301.401 16.24 301.713 17.296 302.337 18.16C303.009 19.024 303.993 19.744 305.289 20.32C306.585 20.896 308.241 21.4 310.257 21.832L311.913 22.192C315.513 22.96 318.633 23.944 321.273 25.144C323.961 26.344 326.049 27.928 327.537 29.896C329.025 31.864 329.769 34.384 329.769 37.456C329.769 40.528 328.977 43.24 327.393 45.592C325.857 47.896 323.649 49.72 320.769 51.064C317.937 52.36 314.577 53.008 310.689 53.008ZM336.857 52V1.6H346.361V43.36H369.401V52H336.857ZM393.707 53.008C387.371 53.008 382.331 51.28 378.587 47.824C374.843 44.32 372.971 39.328 372.971 32.848V20.752C372.971 14.272 374.843 9.304 378.587 5.848C382.331 2.344 387.371 0.591997 393.707 0.591997C400.043 0.591997 405.083 2.344 408.827 5.848C412.571 9.304 414.443 14.272 414.443 20.752V32.848C414.443 39.328 412.571 44.32 408.827 47.824C405.083 51.28 400.043 53.008 393.707 53.008ZM393.707 44.512C397.259 44.512 400.019 43.48 401.987 41.416C403.955 39.352 404.939 36.592 404.939 33.136V20.464C404.939 17.008 403.955 14.248 401.987 12.184C400.019 10.12 397.259 9.088 393.707 9.088C390.203 9.088 387.443 10.12 385.427 12.184C383.459 14.248 382.475 17.008 382.475 20.464V33.136C382.475 36.592 383.459 39.352 385.427 41.416C387.443 43.48 390.203 44.512 393.707 44.512ZM432.404 52V10.24H417.716V1.6H456.596V10.24H441.908V52H432.404ZM479.17 52V1.6H496.81L505.522 45.52H506.818L515.53 1.6H533.17V52H523.954V8.584H522.658L514.018 52H498.322L489.682 8.584H488.386V52H479.17ZM539.206 52L552.454 1.6H569.014L582.262 52H572.47L569.734 40.912H551.734L548.998 52H539.206ZM553.966 32.128H567.502L561.382 7.576H560.086L553.966 32.128ZM607.025 53.008C600.785 53.008 595.841 51.28 592.193 47.824C588.545 44.32 586.721 39.328 586.721 32.848V20.752C586.721 14.272 588.545 9.304 592.193 5.848C595.841 2.344 600.785 0.591997 607.025 0.591997C613.217 0.591997 617.993 2.296 621.353 5.704C624.761 9.064 626.465 13.696 626.465 19.6V20.032H617.105V19.312C617.105 16.336 616.265 13.888 614.585 11.968C612.953 10.048 610.433 9.088 607.025 9.088C603.665 9.088 601.025 10.12 599.105 12.184C597.185 14.248 596.225 17.056 596.225 20.608V32.992C596.225 36.496 597.185 39.304 599.105 41.416C601.025 43.48 603.665 44.512 607.025 44.512C610.433 44.512 612.953 43.552 614.585 41.632C616.265 39.664 617.105 37.216 617.105 34.288V32.992H626.465V34C626.465 39.904 624.761 44.56 621.353 47.968C617.993 51.328 613.217 53.008 607.025 53.008ZM634.209 52V1.6H643.713V22.408H662.433V1.6H671.937V52H662.433V31.048H643.713V52H634.209ZM681.459 52V1.6H690.963V52H681.459ZM700.443 52V1.6H718.515L728.523 45.52H729.819V1.6H739.179V52H721.107L711.099 8.08H709.803V52H700.443ZM748.678 52V1.6H781.078V10.24H758.182V22.264H779.062V30.904H758.182V43.36H781.51V52H748.678Z" fill="url(#paint0_linear_5162_12430)" fill-opacity="0.3"/>
<path d="M0.519032 52H-0.480968V53H0.519032V52ZM0.519032 43.648V42.648H-0.480968V43.648H0.519032ZM7.14303 43.648V44.648H8.14303V43.648H7.14303ZM7.14303 9.952H8.14303V8.952H7.14303V9.952ZM0.519032 9.952H-0.480968V10.952H0.519032V9.952ZM0.519032 1.6V0.599997H-0.480968V1.6H0.519032ZM36.663 6.784L35.9608 7.49603L35.9707 7.50558L36.663 6.784ZM36.663 46.888L37.3603 47.6049L37.3604 47.6047L36.663 46.888ZM16.647 43.36H15.647V44.36H16.647V43.36ZM29.823 40.336L30.5734 40.997L29.823 40.336ZM29.823 13.264L29.0726 13.9251L29.0806 13.934L29.823 13.264ZM16.647 10.24V9.24H15.647V10.24H16.647ZM1.51903 52V43.648H-0.480968V52H1.51903ZM0.519032 44.648H7.14303V42.648H0.519032V44.648ZM8.14303 43.648V9.952H6.14303V43.648H8.14303ZM7.14303 8.952H0.519032V10.952H7.14303V8.952ZM1.51903 9.952V1.6H-0.480968V9.952H1.51903ZM0.519032 2.6H21.255V0.599997H0.519032V2.6ZM21.255 2.6C27.8607 2.6 32.705 4.28479 35.9608 7.49596L37.3652 6.07203C33.613 2.3712 28.1853 0.599997 21.255 0.599997V2.6ZM35.9707 7.50558C39.2614 10.6629 40.991 15.4474 40.991 22.048H42.991C42.991 15.1126 41.1686 9.72108 37.3554 6.06242L35.9707 7.50558ZM40.991 22.048V31.552H42.991V22.048H40.991ZM40.991 31.552C40.991 38.1516 39.2618 42.9642 35.9657 46.1713L37.3604 47.6047C41.1682 43.8998 42.991 38.4884 42.991 31.552H40.991ZM35.9658 46.1711C32.7105 49.3373 27.8643 51 21.255 51V53C28.1818 53 33.6076 51.2547 37.3603 47.6049L35.9658 46.1711ZM21.255 51H0.519032V53H21.255V51ZM16.647 44.36H21.399V42.36H16.647V44.36ZM21.399 44.36C25.3995 44.36 28.5374 43.3082 30.5734 40.997L29.0727 39.675C27.5567 41.3958 25.0785 42.36 21.399 42.36V44.36ZM30.5734 40.997C32.5601 38.7419 33.487 35.6437 33.487 31.84H31.487C31.487 35.3323 30.638 37.8981 29.0727 39.675L30.5734 40.997ZM33.487 31.84V21.76H31.487V31.84H33.487ZM33.487 21.76C33.487 17.9142 32.5627 14.8073 30.5654 12.594L29.0806 13.934C30.6353 15.6567 31.487 18.2138 31.487 21.76H33.487ZM30.5734 12.603C28.5374 10.2918 25.3995 9.24 21.399 9.24V11.24C25.0785 11.24 27.5567 12.2042 29.0727 13.925L30.5734 12.603ZM21.399 9.24H16.647V11.24H21.399V9.24ZM15.647 10.24V43.36H17.647V10.24H15.647ZM46.0343 52L45.0671 51.7458L44.7375 53H46.0343V52ZM59.2823 1.6V0.599997H58.5112L58.3151 1.34578L59.2823 1.6ZM75.8423 1.6L76.8094 1.34578L76.6134 0.599997H75.8423V1.6ZM89.0903 52V53H90.3871L90.0574 51.7458L89.0903 52ZM79.2983 52L78.3274 52.2396L78.515 53H79.2983V52ZM76.5623 40.912L77.5332 40.6724L77.3455 39.912H76.5623V40.912ZM58.5623 40.912V39.912H57.779L57.5914 40.6724L58.5623 40.912ZM55.8263 52V53H56.6095L56.7972 52.2396L55.8263 52ZM60.7943 32.128L59.824 31.8861L59.5144 33.128H60.7943V32.128ZM74.3303 32.128V33.128H75.6101L75.3006 31.8861L74.3303 32.128ZM68.2103 7.576L69.1806 7.33413L68.9916 6.576H68.2103V7.576ZM66.9143 7.576V6.576H66.1329L65.944 7.33413L66.9143 7.576ZM47.0014 52.2542L60.2494 1.85422L58.3151 1.34578L45.0671 51.7458L47.0014 52.2542ZM59.2823 2.6H75.8423V0.599997H59.2823V2.6ZM74.8751 1.85422L88.1231 52.2542L90.0574 51.7458L76.8094 1.34578L74.8751 1.85422ZM89.0903 51H79.2983V53H89.0903V51ZM80.2692 51.7604L77.5332 40.6724L75.5914 41.1516L78.3274 52.2396L80.2692 51.7604ZM76.5623 39.912H58.5623V41.912H76.5623V39.912ZM57.5914 40.6724L54.8554 51.7604L56.7972 52.2396L59.5332 41.1516L57.5914 40.6724ZM55.8263 51H46.0343V53H55.8263V51ZM60.7943 33.128H74.3303V31.128H60.7943V33.128ZM75.3006 31.8861L69.1806 7.33413L67.24 7.81786L73.36 32.3699L75.3006 31.8861ZM68.2103 6.576H66.9143V8.576H68.2103V6.576ZM65.944 7.33413L59.824 31.8861L61.7646 32.3699L67.8846 7.81786L65.944 7.33413ZM95.1231 52H94.1231V53H95.1231V52ZM95.1231 1.6V0.599997H94.1231V1.6H95.1231ZM124.211 3.544L123.736 4.4239L123.746 4.42953L123.757 4.4349L124.211 3.544ZM129.899 8.872L129.035 9.37587L129.039 9.38252L129.043 9.38911L129.899 8.872ZM129.827 26.296L128.974 25.7738L128.971 25.7789L129.827 26.296ZM124.067 31.696L124.528 32.5832L124.535 32.5798L124.067 31.696ZM104.627 33.568V32.568H103.627V33.568H104.627ZM104.627 52V53H105.627V52H104.627ZM104.627 24.928H103.627V25.928H104.627V24.928ZM120.395 23.056L121.063 23.8006L120.395 23.056ZM120.395 12.112L121.063 11.3674L120.395 12.112ZM104.627 10.24V9.24H103.627V10.24H104.627ZM96.1231 52V1.6H94.1231V52H96.1231ZM95.1231 2.6H115.859V0.599997H95.1231V2.6ZM115.859 2.6C118.888 2.6 121.504 3.2186 123.736 4.4239L124.686 2.66409C122.118 1.27739 119.166 0.599997 115.859 0.599997V2.6ZM123.757 4.4349C126.04 5.5986 127.791 7.24268 129.035 9.37587L130.763 8.36813C129.319 5.89332 127.279 3.9854 124.665 2.65309L123.757 4.4349ZM129.043 9.38911C130.325 11.5114 130.987 14.0617 130.987 17.08H132.987C132.987 13.7623 132.257 10.8406 130.755 8.35488L129.043 9.38911ZM130.987 17.08V18.088H132.987V17.08H130.987ZM130.987 18.088C130.987 21.0485 130.306 23.5989 128.974 25.7738L130.68 26.8182C132.228 24.2891 132.987 21.3675 132.987 18.088H130.987ZM128.971 25.7789C127.676 27.9231 125.892 29.5984 123.599 30.8122L124.535 32.5798C127.138 31.2016 129.194 29.2769 130.683 26.8131L128.971 25.7789ZM123.606 30.8088C121.367 31.9732 118.792 32.568 115.859 32.568V34.568C119.07 34.568 121.968 33.9148 124.528 32.5832L123.606 30.8088ZM115.859 32.568H104.627V34.568H115.859V32.568ZM103.627 33.568V52H105.627V33.568H103.627ZM104.627 51H95.1231V53H104.627V51ZM104.627 25.928H114.923V23.928H104.627V25.928ZM114.923 25.928C117.372 25.928 119.451 25.2456 121.063 23.8006L119.728 22.3114C118.555 23.3624 116.986 23.928 114.923 23.928V25.928ZM121.063 23.8006C122.7 22.3327 123.483 20.3395 123.483 17.944H121.483C121.483 19.8685 120.874 21.2833 119.728 22.3114L121.063 23.8006ZM123.483 17.944V17.224H121.483V17.944H123.483ZM123.483 17.224C123.483 14.8285 122.7 12.8353 121.063 11.3674L119.728 12.8566C120.874 13.8847 121.483 15.2995 121.483 17.224H123.483ZM121.063 11.3674C119.451 9.92242 117.372 9.24 114.923 9.24V11.24C116.986 11.24 118.555 11.8056 119.728 12.8566L121.063 11.3674ZM114.923 9.24H104.627V11.24H114.923V9.24ZM103.627 10.24V24.928H105.627V10.24H103.627ZM136.855 52H135.855V53H136.855V52ZM136.855 43.648V42.648H135.855V43.648H136.855ZM143.479 43.648V44.648H144.479V43.648H143.479ZM143.479 9.952H144.479V8.952H143.479V9.952ZM136.855 9.952H135.855V10.952H136.855V9.952ZM136.855 1.6V0.599997H135.855V1.6H136.855ZM172.999 6.784L172.297 7.49603L172.307 7.50558L172.999 6.784ZM172.999 46.888L173.696 47.6049L173.696 47.6047L172.999 46.888ZM152.983 43.36H151.983V44.36H152.983V43.36ZM166.159 40.336L166.909 40.997L166.159 40.336ZM166.159 13.264L165.409 13.9251L165.417 13.934L166.159 13.264ZM152.983 10.24V9.24H151.983V10.24H152.983ZM137.855 52V43.648H135.855V52H137.855ZM136.855 44.648H143.479V42.648H136.855V44.648ZM144.479 43.648V9.952H142.479V43.648H144.479ZM143.479 8.952H136.855V10.952H143.479V8.952ZM137.855 9.952V1.6H135.855V9.952H137.855ZM136.855 2.6H157.591V0.599997H136.855V2.6ZM157.591 2.6C164.197 2.6 169.041 4.28479 172.297 7.49596L173.701 6.07203C169.949 2.3712 164.521 0.599997 157.591 0.599997V2.6ZM172.307 7.50558C175.597 10.6629 177.327 15.4474 177.327 22.048H179.327C179.327 15.1126 177.505 9.72108 173.691 6.06242L172.307 7.50558ZM177.327 22.048V31.552H179.327V22.048H177.327ZM177.327 31.552C177.327 38.1516 175.598 42.9642 172.302 46.1713L173.696 47.6047C177.504 43.8998 179.327 38.4884 179.327 31.552H177.327ZM172.302 46.1711C169.046 49.3373 164.2 51 157.591 51V53C164.518 53 169.944 51.2547 173.696 47.6049L172.302 46.1711ZM157.591 51H136.855V53H157.591V51ZM152.983 44.36H157.735V42.36H152.983V44.36ZM157.735 44.36C161.735 44.36 164.873 43.3082 166.909 40.997L165.409 39.675C163.893 41.3958 161.414 42.36 157.735 42.36V44.36ZM166.909 40.997C168.896 38.7419 169.823 35.6437 169.823 31.84H167.823C167.823 35.3323 166.974 37.8981 165.409 39.675L166.909 40.997ZM169.823 31.84V21.76H167.823V31.84H169.823ZM169.823 21.76C169.823 17.9142 168.899 14.8073 166.901 12.594L165.417 13.934C166.971 15.6567 167.823 18.2138 167.823 21.76H169.823ZM166.909 12.603C164.873 10.2918 161.735 9.24 157.735 9.24V11.24C161.414 11.24 163.893 12.2042 165.409 13.925L166.909 12.603ZM157.735 9.24H152.983V11.24H157.735V9.24ZM151.983 10.24V43.36H153.983V10.24H151.983ZM182.37 52L181.403 51.7458L181.073 53H182.37V52ZM195.618 1.6V0.599997H194.847L194.651 1.34578L195.618 1.6ZM212.178 1.6L213.145 1.34578L212.949 0.599997H212.178V1.6ZM225.426 52V53H226.723L226.393 51.7458L225.426 52ZM215.634 52L214.663 52.2396L214.851 53H215.634V52ZM212.898 40.912L213.869 40.6724L213.681 39.912H212.898V40.912ZM194.898 40.912V39.912H194.115L193.927 40.6724L194.898 40.912ZM192.162 52V53H192.945L193.133 52.2396L192.162 52ZM197.13 32.128L196.16 31.8861L195.85 33.128H197.13V32.128ZM210.666 32.128V33.128H211.946L211.637 31.8861L210.666 32.128ZM204.546 7.576L205.517 7.33413L205.328 6.576H204.546V7.576ZM203.25 7.576V6.576H202.469L202.28 7.33413L203.25 7.576ZM183.337 52.2542L196.585 1.85422L194.651 1.34578L181.403 51.7458L183.337 52.2542ZM195.618 2.6H212.178V0.599997H195.618V2.6ZM211.211 1.85422L224.459 52.2542L226.393 51.7458L213.145 1.34578L211.211 1.85422ZM225.426 51H215.634V53H225.426V51ZM216.605 51.7604L213.869 40.6724L211.927 41.1516L214.663 52.2396L216.605 51.7604ZM212.898 39.912H194.898V41.912H212.898V39.912ZM193.927 40.6724L191.191 51.7604L193.133 52.2396L195.869 41.1516L193.927 40.6724ZM192.162 51H182.37V53H192.162V51ZM197.13 33.128H210.666V31.128H197.13V33.128ZM211.637 31.8861L205.517 7.33413L203.576 7.81786L209.696 32.3699L211.637 31.8861ZM204.546 6.576H203.25V8.576H204.546V6.576ZM202.28 7.33413L196.16 31.8861L198.101 32.3699L204.221 7.81786L202.28 7.33413ZM231.459 52H230.459V53H231.459V52ZM231.459 1.6V0.599997H230.459V1.6H231.459ZM260.547 3.544L260.072 4.4239L260.082 4.42953L260.093 4.4349L260.547 3.544ZM266.235 8.872L265.371 9.37587L265.375 9.38252L265.379 9.38911L266.235 8.872ZM266.163 26.296L265.31 25.7738L265.307 25.7789L266.163 26.296ZM260.403 31.696L260.864 32.5832L260.871 32.5798L260.403 31.696ZM240.963 33.568V32.568H239.963V33.568H240.963ZM240.963 52V53H241.963V52H240.963ZM240.963 24.928H239.963V25.928H240.963V24.928ZM256.731 23.056L257.399 23.8006L256.731 23.056ZM256.731 12.112L257.399 11.3674L256.731 12.112ZM240.963 10.24V9.24H239.963V10.24H240.963ZM232.459 52V1.6H230.459V52H232.459ZM231.459 2.6H252.195V0.599997H231.459V2.6ZM252.195 2.6C255.224 2.6 257.84 3.2186 260.072 4.4239L261.022 2.66409C258.454 1.27739 255.502 0.599997 252.195 0.599997V2.6ZM260.093 4.4349C262.375 5.5986 264.127 7.24268 265.371 9.37587L267.099 8.36813C265.655 5.89332 263.615 3.9854 261.001 2.65309L260.093 4.4349ZM265.379 9.38911C266.661 11.5114 267.323 14.0617 267.323 17.08H269.323C269.323 13.7623 268.593 10.8406 267.091 8.35488L265.379 9.38911ZM267.323 17.08V18.088H269.323V17.08H267.323ZM267.323 18.088C267.323 21.0485 266.642 23.5989 265.31 25.7738L267.016 26.8182C268.564 24.2891 269.323 21.3675 269.323 18.088H267.323ZM265.307 25.7789C264.012 27.9231 262.228 29.5984 259.935 30.8122L260.871 32.5798C263.474 31.2016 265.53 29.2769 267.019 26.8131L265.307 25.7789ZM259.942 30.8088C257.702 31.9732 255.128 32.568 252.195 32.568V34.568C255.406 34.568 258.304 33.9148 260.864 32.5832L259.942 30.8088ZM252.195 32.568H240.963V34.568H252.195V32.568ZM239.963 33.568V52H241.963V33.568H239.963ZM240.963 51H231.459V53H240.963V51ZM240.963 25.928H251.259V23.928H240.963V25.928ZM251.259 25.928C253.708 25.928 255.787 25.2456 257.399 23.8006L256.063 22.3114C254.891 23.3624 253.322 23.928 251.259 23.928V25.928ZM257.399 23.8006C259.036 22.3327 259.819 20.3395 259.819 17.944H257.819C257.819 19.8685 257.21 21.2833 256.063 22.3114L257.399 23.8006ZM259.819 17.944V17.224H257.819V17.944H259.819ZM259.819 17.224C259.819 14.8285 259.036 12.8353 257.399 11.3674L256.063 12.8566C257.21 13.8847 257.819 15.2995 257.819 17.224H259.819ZM257.399 11.3674C255.787 9.92242 253.708 9.24 251.259 9.24V11.24C253.322 11.24 254.891 11.8056 256.063 12.8566L257.399 11.3674ZM251.259 9.24H240.963V11.24H251.259V9.24ZM239.963 10.24V24.928H241.963V10.24H239.963ZM300.393 50.92L299.97 51.8258L300.393 50.92ZM293.409 44.944L294.249 44.4001L293.409 44.944ZM290.889 33.568V32.568H289.889V33.568H290.889ZM300.249 33.568H301.249V32.568H300.249V33.568ZM303.057 42.424L302.423 43.1971L302.429 43.202L302.435 43.2068L303.057 42.424ZM317.961 42.712L317.34 41.9289L317.334 41.9334L317.328 41.938L317.961 42.712ZM319.185 34.36L318.438 35.0244L318.448 35.0356L318.458 35.0466L319.185 34.36ZM315.729 32.272L315.368 33.2046L315.386 33.2115L315.404 33.2177L315.729 32.272ZM310.257 30.688L310.474 29.7118L310.47 29.7108L310.257 30.688ZM308.601 30.328L308.384 31.3042L308.389 31.3052L308.601 30.328ZM299.673 27.448L299.233 28.3459L299.244 28.3511L299.254 28.356L299.673 27.448ZM293.985 22.768L293.157 23.3275L293.161 23.3345L293.166 23.3415L293.985 22.768ZM294.201 7.432L293.372 6.87314L293.369 6.8773L294.201 7.432ZM300.393 2.392L300.793 3.30857L300.801 3.30514L300.393 2.392ZM319.401 2.464L318.992 3.37651L319.002 3.38073L319.011 3.38475L319.401 2.464ZM326.025 7.936L325.186 8.47925L325.192 8.48885L325.198 8.49831L326.025 7.936ZM328.473 19.168V20.168H329.473V19.168H328.473ZM319.113 19.168H318.113V20.168H319.113V19.168ZM317.961 12.4L317.104 12.9145L317.116 12.9349L317.129 12.9547L317.961 12.4ZM314.793 9.808L314.411 10.732L314.425 10.7377L314.439 10.743L314.793 9.808ZM303.417 10.6L304.035 11.3863L304.039 11.3835L303.417 10.6ZM302.337 18.16L301.527 18.7455L301.537 18.7599L301.548 18.7739L302.337 18.16ZM310.257 21.832L310.47 20.8548L310.467 20.8542L310.257 21.832ZM311.913 22.192L311.701 23.1692L311.705 23.17L311.913 22.192ZM321.273 25.144L320.86 26.0544L320.866 26.0571L321.273 25.144ZM327.537 29.896L328.335 29.2929L327.537 29.896ZM327.393 45.592L326.564 45.0334L326.561 45.0373L327.393 45.592ZM320.769 51.064L321.186 51.9733L321.192 51.9702L320.769 51.064ZM310.689 52.008C306.921 52.008 303.638 51.3338 300.817 50.0142L299.97 51.8258C303.1 53.2902 306.682 54.008 310.689 54.008V52.008ZM300.817 50.0142C297.999 48.6963 295.82 46.8248 294.249 44.4001L292.57 45.4879C294.359 48.2472 296.835 50.3597 299.97 51.8258L300.817 50.0142ZM294.249 44.4001C292.691 41.9975 291.889 39.0745 291.889 35.584H289.889C289.889 39.3895 290.767 42.7065 292.57 45.4879L294.249 44.4001ZM291.889 35.584V33.568H289.889V35.584H291.889ZM290.889 34.568H300.249V32.568H290.889V34.568ZM299.249 33.568V35.584H301.249V33.568H299.249ZM299.249 35.584C299.249 38.8261 300.263 41.4249 302.423 43.1971L303.692 41.6509C302.108 40.3511 301.249 38.3899 301.249 35.584H299.249ZM302.435 43.2068C304.537 44.8772 307.325 45.656 310.689 45.656V43.656C307.622 43.656 305.322 42.9468 303.68 41.6412L302.435 43.2068ZM310.689 45.656C314.056 45.656 316.753 44.9929 318.595 43.486L317.328 41.938C316.002 43.0231 313.851 43.656 310.689 43.656V45.656ZM318.583 43.4951C320.445 42.0168 321.409 40.0768 321.409 37.744H319.409C319.409 39.4432 318.742 40.8152 317.34 41.9289L318.583 43.4951ZM321.409 37.744C321.409 36.1434 320.933 34.7544 319.912 33.6734L318.458 35.0466C319.069 35.6936 319.409 36.5606 319.409 37.744H321.409ZM319.933 33.6956C319.014 32.6615 317.691 31.8888 316.054 31.3263L315.404 33.2177C316.84 33.7112 317.821 34.3305 318.438 35.0244L319.933 33.6956ZM316.09 31.3394C314.542 30.7399 312.666 30.1989 310.474 29.7118L310.04 31.6642C312.169 32.1371 313.941 32.6521 315.368 33.2046L316.09 31.3394ZM310.47 29.7108L308.814 29.3508L308.389 31.3052L310.045 31.6652L310.47 29.7108ZM308.818 29.3518C305.413 28.5951 302.508 27.655 300.092 26.54L299.254 28.356C301.831 29.545 304.878 30.5249 308.384 31.3042L308.818 29.3518ZM300.114 26.5501C297.792 25.4122 296.037 23.955 294.805 22.1945L293.166 23.3415C294.622 25.421 296.658 27.0838 299.233 28.3459L300.114 26.5501ZM294.814 22.2085C293.661 20.4998 293.041 18.2166 293.041 15.28H291.041C291.041 18.4874 291.718 21.1962 293.157 23.3275L294.814 22.2085ZM293.041 15.28C293.041 12.3685 293.722 9.9542 295.033 7.9867L293.369 6.8773C291.801 9.22979 291.041 12.0475 291.041 15.28H293.041ZM295.031 7.99085C296.404 5.95336 298.313 4.391 300.793 3.30854L299.993 1.47546C297.194 2.69699 294.975 4.49463 293.372 6.87315L295.031 7.99085ZM300.801 3.30514C303.336 2.17368 306.335 1.592 309.825 1.592V-0.408003C306.116 -0.408003 302.827 0.210316 299.986 1.47886L300.801 3.30514ZM309.825 1.592C313.309 1.592 316.358 2.19562 318.992 3.37651L319.81 1.55149C316.877 0.236372 313.541 -0.408003 309.825 -0.408003V1.592ZM319.011 3.38475C321.67 4.51122 323.717 6.20867 325.186 8.47925L326.865 7.39275C325.166 4.76732 322.797 2.81677 319.792 1.54325L319.011 3.38475ZM325.198 8.49831C326.692 10.6944 327.473 13.5089 327.473 17.008H329.473C329.473 13.2111 328.623 9.97763 326.852 7.37369L325.198 8.49831ZM327.473 17.008V19.168H329.473V17.008H327.473ZM328.473 18.168H319.113V20.168H328.473V18.168ZM320.113 19.168V17.008H318.113V19.168H320.113ZM320.113 17.008C320.113 14.9644 319.706 13.2138 318.793 11.8453L317.129 12.9547C317.753 13.8902 318.113 15.2116 318.113 17.008H320.113ZM318.819 11.8855C317.976 10.48 316.736 9.47524 315.148 8.873L314.439 10.743C315.635 11.1968 316.507 11.92 317.104 12.9145L318.819 11.8855ZM315.176 8.88398C313.634 8.24611 311.842 7.944 309.825 7.944V9.944C311.649 9.944 313.169 10.2179 314.411 10.732L315.176 8.88398ZM309.825 7.944C306.85 7.944 304.445 8.50865 302.796 9.8165L304.039 11.3835C305.174 10.4833 307.041 9.944 309.825 9.944V7.944ZM302.8 9.81368C301.189 11.079 300.401 12.8466 300.401 14.992H302.401C302.401 13.3934 302.958 12.233 304.035 11.3863L302.8 9.81368ZM300.401 14.992C300.401 16.4131 300.76 17.6833 301.527 18.7455L303.148 17.5745C302.667 16.9087 302.401 16.0669 302.401 14.992H300.401ZM301.548 18.7739C302.347 19.8007 303.48 20.6101 304.883 21.2338L305.696 19.4062C304.507 18.8779 303.672 18.2473 303.127 17.5461L301.548 18.7739ZM304.883 21.2338C306.264 21.8474 307.992 22.3692 310.048 22.8098L310.467 20.8542C308.491 20.4308 306.907 19.9446 305.696 19.4062L304.883 21.2338ZM310.045 22.8092L311.701 23.1692L312.126 21.2148L310.47 20.8548L310.045 22.8092ZM311.705 23.17C315.252 23.9267 318.3 24.891 320.86 26.0544L321.687 24.2336C318.967 22.997 315.775 21.9933 312.122 21.214L311.705 23.17ZM320.866 26.0571C323.429 27.2016 325.371 28.6895 326.74 30.4991L328.335 29.2929C326.727 27.1665 324.493 25.4864 321.681 24.2309L320.866 26.0571ZM326.74 30.4991C328.067 32.2546 328.769 34.5474 328.769 37.456H330.769C330.769 34.2206 329.984 31.4734 328.335 29.2929L326.74 30.4991ZM328.769 37.456C328.769 40.3463 328.027 42.8603 326.564 45.0334L328.223 46.1506C329.927 43.6197 330.769 40.7097 330.769 37.456H328.769ZM326.561 45.0373C325.141 47.1674 323.086 48.8796 320.347 50.1578L321.192 51.9702C324.213 50.5604 326.574 48.6246 328.225 46.1467L326.561 45.0373ZM320.353 50.1547C317.68 51.378 314.468 52.008 310.689 52.008V54.008C314.686 54.008 318.195 53.342 321.186 51.9733L320.353 50.1547ZM336.857 52H335.857V53H336.857V52ZM336.857 1.6V0.599997H335.857V1.6H336.857ZM346.361 1.6H347.361V0.599997H346.361V1.6ZM346.361 43.36H345.361V44.36H346.361V43.36ZM369.401 43.36H370.401V42.36H369.401V43.36ZM369.401 52V53H370.401V52H369.401ZM337.857 52V1.6H335.857V52H337.857ZM336.857 2.6H346.361V0.599997H336.857V2.6ZM345.361 1.6V43.36H347.361V1.6H345.361ZM346.361 44.36H369.401V42.36H346.361V44.36ZM368.401 43.36V52H370.401V43.36H368.401ZM369.401 51H336.857V53H369.401V51ZM378.587 47.824L377.904 48.5541L377.909 48.5588L378.587 47.824ZM378.587 5.848L379.265 6.58282L379.27 6.57812L378.587 5.848ZM408.827 5.848L408.144 6.57814L408.149 6.5828L408.827 5.848ZM408.827 47.824L409.505 48.5588L409.51 48.5541L408.827 47.824ZM401.987 41.416L401.263 40.7259L401.987 41.416ZM401.987 12.184L401.263 12.8741L401.987 12.184ZM385.427 12.184L384.712 11.4852L384.703 11.4939L385.427 12.184ZM385.427 41.416L384.703 42.1061L384.712 42.1147L385.427 41.416ZM393.707 52.008C387.559 52.008 382.782 50.3357 379.265 47.0892L377.909 48.5588C381.88 52.2243 387.184 54.008 393.707 54.008V52.008ZM379.27 47.0939C375.779 43.8261 373.971 39.1289 373.971 32.848H371.971C371.971 39.5271 373.907 44.8139 377.904 48.5541L379.27 47.0939ZM373.971 32.848V20.752H371.971V32.848H373.971ZM373.971 20.752C373.971 14.4704 375.779 9.80094 379.265 6.5828L377.909 5.11319C373.907 8.80706 371.971 14.0736 371.971 20.752H373.971ZM379.27 6.57812C382.788 3.28611 387.562 1.592 393.707 1.592V-0.408003C387.18 -0.408003 381.874 1.40188 377.904 5.11788L379.27 6.57812ZM393.707 1.592C399.852 1.592 404.626 3.28611 408.144 6.57812L409.51 5.11788C405.54 1.40188 400.234 -0.408003 393.707 -0.408003V1.592ZM408.149 6.5828C411.635 9.80094 413.443 14.4704 413.443 20.752H415.443C415.443 14.0736 413.507 8.80706 409.505 5.11319L408.149 6.5828ZM413.443 20.752V32.848H415.443V20.752H413.443ZM413.443 32.848C413.443 39.1289 411.635 43.8261 408.144 47.0939L409.51 48.5541C413.507 44.8139 415.443 39.5271 415.443 32.848H413.443ZM408.149 47.0892C404.632 50.3357 399.856 52.008 393.707 52.008V54.008C400.23 54.008 405.534 52.2243 409.505 48.5588L408.149 47.0892ZM393.707 45.512C397.461 45.512 400.51 44.4144 402.711 42.1061L401.263 40.7259C399.528 42.5456 397.057 43.512 393.707 43.512V45.512ZM402.711 42.1061C404.892 39.8182 405.939 36.7913 405.939 33.136H403.939C403.939 36.3927 403.018 38.8858 401.263 40.7259L402.711 42.1061ZM405.939 33.136V20.464H403.939V33.136H405.939ZM405.939 20.464C405.939 16.8087 404.892 13.7818 402.711 11.4939L401.263 12.8741C403.018 14.7142 403.939 17.2073 403.939 20.464H405.939ZM402.711 11.4939C400.51 9.18559 397.461 8.088 393.707 8.088V10.088C397.057 10.088 399.528 11.0544 401.263 12.8741L402.711 11.4939ZM393.707 8.088C389.996 8.088 386.955 9.18848 384.712 11.4853L386.142 12.8827C387.931 11.0515 390.411 10.088 393.707 10.088V8.088ZM384.703 11.4939C382.522 13.7818 381.475 16.8087 381.475 20.464H383.475C383.475 17.2073 384.396 14.7142 386.151 12.8741L384.703 11.4939ZM381.475 20.464V33.136H383.475V20.464H381.475ZM381.475 33.136C381.475 36.7913 382.522 39.8182 384.703 42.1061L386.151 40.7259C384.396 38.8858 383.475 36.3927 383.475 33.136H381.475ZM384.712 42.1147C386.955 44.4115 389.996 45.512 393.707 45.512V43.512C390.411 43.512 387.931 42.5485 386.142 40.7173L384.712 42.1147ZM432.404 52H431.404V53H432.404V52ZM432.404 10.24H433.404V9.24H432.404V10.24ZM417.716 10.24H416.716V11.24H417.716V10.24ZM417.716 1.6V0.599997H416.716V1.6H417.716ZM456.596 1.6H457.596V0.599997H456.596V1.6ZM456.596 10.24V11.24H457.596V10.24H456.596ZM441.908 10.24V9.24H440.908V10.24H441.908ZM441.908 52V53H442.908V52H441.908ZM433.404 52V10.24H431.404V52H433.404ZM432.404 9.24H417.716V11.24H432.404V9.24ZM418.716 10.24V1.6H416.716V10.24H418.716ZM417.716 2.6H456.596V0.599997H417.716V2.6ZM455.596 1.6V10.24H457.596V1.6H455.596ZM456.596 9.24H441.908V11.24H456.596V9.24ZM440.908 10.24V52H442.908V10.24H440.908ZM441.908 51H432.404V53H441.908V51ZM479.17 52H478.17V53H479.17V52ZM479.17 1.6V0.599997H478.17V1.6H479.17ZM496.81 1.6L497.791 1.40543L497.631 0.599997H496.81V1.6ZM505.522 45.52L504.541 45.7146L504.701 46.52H505.522V45.52ZM506.818 45.52V46.52H507.639L507.799 45.7146L506.818 45.52ZM515.53 1.6V0.599997H514.709L514.549 1.40543L515.53 1.6ZM533.17 1.6H534.17V0.599997H533.17V1.6ZM533.17 52V53H534.17V52H533.17ZM523.954 52H522.954V53H523.954V52ZM523.954 8.584H524.954V7.584H523.954V8.584ZM522.658 8.584V7.584H521.837L521.677 8.38882L522.658 8.584ZM514.018 52V53H514.839L514.999 52.1952L514.018 52ZM498.322 52L497.341 52.1952L497.501 53H498.322V52ZM489.682 8.584L490.663 8.38882L490.503 7.584H489.682V8.584ZM488.386 8.584V7.584H487.386V8.584H488.386ZM488.386 52V53H489.386V52H488.386ZM480.17 52V1.6H478.17V52H480.17ZM479.17 2.6H496.81V0.599997H479.17V2.6ZM495.829 1.79457L504.541 45.7146L506.503 45.3254L497.791 1.40543L495.829 1.79457ZM505.522 46.52H506.818V44.52H505.522V46.52ZM507.799 45.7146L516.511 1.79457L514.549 1.40543L505.837 45.3254L507.799 45.7146ZM515.53 2.6H533.17V0.599997H515.53V2.6ZM532.17 1.6V52H534.17V1.6H532.17ZM533.17 51H523.954V53H533.17V51ZM524.954 52V8.584H522.954V52H524.954ZM523.954 7.584H522.658V9.584H523.954V7.584ZM521.677 8.38882L513.037 51.8048L514.999 52.1952L523.639 8.77917L521.677 8.38882ZM514.018 51H498.322V53H514.018V51ZM499.303 51.8048L490.663 8.38882L488.701 8.77917L497.341 52.1952L499.303 51.8048ZM489.682 7.584H488.386V9.584H489.682V7.584ZM487.386 8.584V52H489.386V8.584H487.386ZM488.386 51H479.17V53H488.386V51ZM539.206 52L538.239 51.7458L537.909 53H539.206V52ZM552.454 1.6V0.599997H551.683L551.487 1.34578L552.454 1.6ZM569.014 1.6L569.981 1.34578L569.785 0.599997H569.014V1.6ZM582.262 52V53H583.559L583.229 51.7458L582.262 52ZM572.47 52L571.499 52.2396L571.687 53H572.47V52ZM569.734 40.912L570.705 40.6724L570.517 39.912H569.734V40.912ZM551.734 40.912V39.912H550.951L550.763 40.6724L551.734 40.912ZM548.998 52V53H549.781L549.969 52.2396L548.998 52ZM553.966 32.128L552.996 31.8861L552.686 33.128H553.966V32.128ZM567.502 32.128V33.128H568.782L568.472 31.8861L567.502 32.128ZM561.382 7.576L562.352 7.33413L562.164 6.576H561.382V7.576ZM560.086 7.576V6.576H559.305L559.116 7.33413L560.086 7.576ZM540.173 52.2542L553.421 1.85422L551.487 1.34578L538.239 51.7458L540.173 52.2542ZM552.454 2.6H569.014V0.599997H552.454V2.6ZM568.047 1.85422L581.295 52.2542L583.229 51.7458L569.981 1.34578L568.047 1.85422ZM582.262 51H572.47V53H582.262V51ZM573.441 51.7604L570.705 40.6724L568.763 41.1516L571.499 52.2396L573.441 51.7604ZM569.734 39.912H551.734V41.912H569.734V39.912ZM550.763 40.6724L548.027 51.7604L549.969 52.2396L552.705 41.1516L550.763 40.6724ZM548.998 51H539.206V53H548.998V51ZM553.966 33.128H567.502V31.128H553.966V33.128ZM568.472 31.8861L562.352 7.33413L560.412 7.81786L566.532 32.3699L568.472 31.8861ZM561.382 6.576H560.086V8.576H561.382V6.576ZM559.116 7.33413L552.996 31.8861L554.936 32.3699L561.056 7.81786L559.116 7.33413ZM592.193 47.824L591.5 48.5452L591.505 48.5499L592.193 47.824ZM592.193 5.848L592.881 6.57397L592.886 6.56919L592.193 5.848ZM621.353 5.704L620.641 6.40607L620.646 6.41113L620.651 6.4161L621.353 5.704ZM626.465 20.032V21.032H627.465V20.032H626.465ZM617.105 20.032H616.105V21.032H617.105V20.032ZM614.585 11.968L613.823 12.6156L613.828 12.6211L613.833 12.6265L614.585 11.968ZM599.105 41.416L598.365 42.0887L598.373 42.0971L599.105 41.416ZM614.585 41.632L613.825 40.9827L613.823 40.9844L614.585 41.632ZM617.105 32.992V31.992H616.105V32.992H617.105ZM626.465 32.992H627.465V31.992H626.465V32.992ZM621.353 47.968L620.646 47.2609L621.353 47.968ZM607.025 52.008C600.976 52.008 596.301 50.338 592.881 47.098L591.505 48.5499C595.381 52.222 600.594 54.008 607.025 54.008V52.008ZM592.886 47.1028C589.486 43.8368 587.721 39.1365 587.721 32.848H585.721C585.721 39.5195 587.605 44.8032 591.5 48.5452L592.886 47.1028ZM587.721 32.848V20.752H585.721V32.848H587.721ZM587.721 20.752C587.721 14.4628 589.486 9.79031 592.881 6.57395L591.505 5.12204C587.604 8.81768 585.721 14.0812 585.721 20.752H587.721ZM592.886 6.56919C596.306 3.28378 600.98 1.592 607.025 1.592V-0.408003C600.59 -0.408003 595.376 1.40422 591.5 5.1268L592.886 6.56919ZM607.025 1.592C613.032 1.592 617.52 3.24024 620.641 6.40607L622.065 5.00193C618.466 1.35176 613.402 -0.408003 607.025 -0.408003V1.592ZM620.651 6.4161C623.826 9.54613 625.465 13.8972 625.465 19.6H627.465C627.465 13.4948 625.696 8.58187 622.055 4.9919L620.651 6.4161ZM625.465 19.6V20.032H627.465V19.6H625.465ZM626.465 19.032H617.105V21.032H626.465V19.032ZM618.105 20.032V19.312H616.105V20.032H618.105ZM618.105 19.312C618.105 16.1365 617.203 13.4415 615.338 11.3095L613.833 12.6265C615.327 14.3345 616.105 16.5355 616.105 19.312H618.105ZM615.347 11.3203C613.464 9.10525 610.617 8.088 607.025 8.088V10.088C610.249 10.088 612.442 10.9907 613.823 12.6156L615.347 11.3203ZM607.025 8.088C603.445 8.088 600.518 9.19672 598.373 11.5029L599.837 12.8651C601.532 11.0433 603.885 10.088 607.025 10.088V8.088ZM598.373 11.5029C596.239 13.7966 595.225 16.8718 595.225 20.608H597.225C597.225 17.2402 598.131 14.6994 599.837 12.8651L598.373 11.5029ZM595.225 20.608V32.992H597.225V20.608H595.225ZM595.225 32.992C595.225 36.6855 596.242 39.753 598.365 42.0887L599.845 40.7433C598.128 38.855 597.225 36.3065 597.225 32.992H595.225ZM598.373 42.0971C600.518 44.4033 603.445 45.512 607.025 45.512V43.512C603.885 43.512 601.532 42.5567 599.837 40.7349L598.373 42.0971ZM607.025 45.512C610.617 45.512 613.464 44.4948 615.347 42.2796L613.823 40.9844C612.442 42.6092 610.249 43.512 607.025 43.512V45.512ZM615.346 42.2813C617.201 40.1084 618.105 37.4207 618.105 34.288H616.105C616.105 37.0113 615.33 39.2196 613.825 40.9827L615.346 42.2813ZM618.105 34.288V32.992H616.105V34.288H618.105ZM617.105 33.992H626.465V31.992H617.105V33.992ZM625.465 32.992V34H627.465V32.992H625.465ZM625.465 34C625.465 39.7022 623.826 44.081 620.646 47.2609L622.06 48.6751C625.696 45.039 627.465 40.1058 627.465 34H625.465ZM620.646 47.2609C617.525 50.3815 613.036 52.008 607.025 52.008V54.008C613.399 54.008 618.461 52.2745 622.06 48.6751L620.646 47.2609ZM634.209 52H633.209V53H634.209V52ZM634.209 1.6V0.599997H633.209V1.6H634.209ZM643.713 1.6H644.713V0.599997H643.713V1.6ZM643.713 22.408H642.713V23.408H643.713V22.408ZM662.433 22.408V23.408H663.433V22.408H662.433ZM662.433 1.6V0.599997H661.433V1.6H662.433ZM671.937 1.6H672.937V0.599997H671.937V1.6ZM671.937 52V53H672.937V52H671.937ZM662.433 52H661.433V53H662.433V52ZM662.433 31.048H663.433V30.048H662.433V31.048ZM643.713 31.048V30.048H642.713V31.048H643.713ZM643.713 52V53H644.713V52H643.713ZM635.209 52V1.6H633.209V52H635.209ZM634.209 2.6H643.713V0.599997H634.209V2.6ZM642.713 1.6V22.408H644.713V1.6H642.713ZM643.713 23.408H662.433V21.408H643.713V23.408ZM663.433 22.408V1.6H661.433V22.408H663.433ZM662.433 2.6H671.937V0.599997H662.433V2.6ZM670.937 1.6V52H672.937V1.6H670.937ZM671.937 51H662.433V53H671.937V51ZM663.433 52V31.048H661.433V52H663.433ZM662.433 30.048H643.713V32.048H662.433V30.048ZM642.713 31.048V52H644.713V31.048H642.713ZM643.713 51H634.209V53H643.713V51ZM681.459 52H680.459V53H681.459V52ZM681.459 1.6V0.599997H680.459V1.6H681.459ZM690.963 1.6H691.963V0.599997H690.963V1.6ZM690.963 52V53H691.963V52H690.963ZM682.459 52V1.6H680.459V52H682.459ZM681.459 2.6H690.963V0.599997H681.459V2.6ZM689.963 1.6V52H691.963V1.6H689.963ZM690.963 51H681.459V53H690.963V51ZM700.443 52H699.443V53H700.443V52ZM700.443 1.6V0.599997H699.443V1.6H700.443ZM718.515 1.6L719.49 1.37782L719.313 0.599997H718.515V1.6ZM728.523 45.52L727.548 45.7422L727.726 46.52H728.523V45.52ZM729.819 45.52V46.52H730.819V45.52H729.819ZM729.819 1.6V0.599997H728.819V1.6H729.819ZM739.179 1.6H740.179V0.599997H739.179V1.6ZM739.179 52V53H740.179V52H739.179ZM721.107 52L720.132 52.2222L720.31 53H721.107V52ZM711.099 8.08L712.074 7.85783L711.897 7.08H711.099V8.08ZM709.803 8.08V7.08H708.803V8.08H709.803ZM709.803 52V53H710.803V52H709.803ZM701.443 52V1.6H699.443V52H701.443ZM700.443 2.6H718.515V0.599997H700.443V2.6ZM717.54 1.82217L727.548 45.7422L729.498 45.2978L719.49 1.37782L717.54 1.82217ZM728.523 46.52H729.819V44.52H728.523V46.52ZM730.819 45.52V1.6H728.819V45.52H730.819ZM729.819 2.6H739.179V0.599997H729.819V2.6ZM738.179 1.6V52H740.179V1.6H738.179ZM739.179 51H721.107V53H739.179V51ZM722.082 51.7778L712.074 7.85783L710.124 8.30217L720.132 52.2222L722.082 51.7778ZM711.099 7.08H709.803V9.08H711.099V7.08ZM708.803 8.08V52H710.803V8.08H708.803ZM709.803 51H700.443V53H709.803V51ZM748.678 52H747.678V53H748.678V52ZM748.678 1.6V0.599997H747.678V1.6H748.678ZM781.078 1.6H782.078V0.599997H781.078V1.6ZM781.078 10.24V11.24H782.078V10.24H781.078ZM758.182 10.24V9.24H757.182V10.24H758.182ZM758.182 22.264H757.182V23.264H758.182V22.264ZM779.062 22.264H780.062V21.264H779.062V22.264ZM779.062 30.904V31.904H780.062V30.904H779.062ZM758.182 30.904V29.904H757.182V30.904H758.182ZM758.182 43.36H757.182V44.36H758.182V43.36ZM781.51 43.36H782.51V42.36H781.51V43.36ZM781.51 52V53H782.51V52H781.51ZM749.678 52V1.6H747.678V52H749.678ZM748.678 2.6H781.078V0.599997H748.678V2.6ZM780.078 1.6V10.24H782.078V1.6H780.078ZM781.078 9.24H758.182V11.24H781.078V9.24ZM757.182 10.24V22.264H759.182V10.24H757.182ZM758.182 23.264H779.062V21.264H758.182V23.264ZM778.062 22.264V30.904H780.062V22.264H778.062ZM779.062 29.904H758.182V31.904H779.062V29.904ZM757.182 30.904V43.36H759.182V30.904H757.182ZM758.182 44.36H781.51V42.36H758.182V44.36ZM780.51 43.36V52H782.51V43.36H780.51ZM781.51 51H748.678V53H781.51V51Z" fill="url(#paint1_linear_5162_12430)" fill-opacity="0.3" mask="url(#path-1-outside-1_5162_12430)"/>
<defs>
<linearGradient id="paint0_linear_5162_12430" x1="390.5" y1="0" x2="390.5" y2="52.2" gradientUnits="userSpaceOnUse">
<stop stop-color="#A6A6A6"/>
<stop offset="1" stop-color="#7C7C7C"/>
</linearGradient>
<linearGradient id="paint1_linear_5162_12430" x1="390.5" y1="1.2" x2="390.5" y2="55.2" gradientUnits="userSpaceOnUse">
<stop/>
<stop offset="0.9999" stop-color="#8E8E8E"/>
<stop offset="1" stop-opacity="0"/>
</linearGradient>
</defs>
</svg>
