<svg width="73" height="72" viewBox="0 0 73 72" fill="none" xmlns="http://www.w3.org/2000/svg">
<g id="Group 48097248">
<g id="Group 48097347">
<circle id="Ellipse 4607" cx="36.415" cy="36" r="34.5" fill="url(#paint0_linear_5049_7443)" stroke="#272A31" stroke-width="3"/>
<path id="Vector" fill-rule="evenodd" clip-rule="evenodd" d="M22.9298 53.1222C17.5959 49.1367 14.1351 42.7666 14.1351 35.5926C14.1351 23.5165 23.9328 13.7188 36.0089 13.7188C45.9793 13.7188 56.8664 19.6772 59.4968 28.8039C56.5541 18.6077 47.1551 11.1482 36.0089 11.1482C22.5113 11.1482 11.5645 22.095 11.5645 35.5926C11.5645 49.0902 22.5113 60.037 36.0089 60.037C49.5065 60.037 60.4533 49.0902 60.4533 35.5926V34.3039H59.1115C59.0718 34.3039 59.0119 34.3039 58.9321 34.3039C58.7728 34.3039 58.547 34.2974 58.2547 34.2841C57.6768 34.2641 56.8797 34.2242 55.9829 34.1446C54.1496 33.9851 52.0571 33.673 50.6357 33.1017C48.344 32.1851 47.0488 30.9761 45.5742 29.5545L45.4877 29.4749C44.0065 28.0533 42.3458 26.4525 39.4563 25.0974C36.6134 23.7623 33.4714 23.9748 31.1665 24.4531C29.9974 24.6922 28.9877 25.0111 28.277 25.2701C27.9182 25.3964 27.6327 25.5159 27.4335 25.5956C26.271 26.0872 25.1418 26.665 24.0059 27.2031C24.0059 27.2031 26.2444 27.8142 27.347 28.1597C27.3869 28.173 27.4468 28.1928 27.5331 28.2194C27.6992 28.2726 27.9383 28.3589 28.2238 28.4785C28.8085 28.7176 29.5724 29.0696 30.3295 29.5612C31.5252 30.3251 32.5149 31.295 32.9202 32.4773C30.3893 32.8095 28.0113 33.9253 26.2311 34.9682C25.155 35.5992 24.2583 36.2369 23.6273 36.7085C23.315 36.9477 23.0626 37.147 22.8899 37.2865C22.7438 37.4061 20.4588 39.4186 20.4588 39.4186C20.4588 39.4186 23.408 39.7309 24.8628 40.0232C25.8326 40.2158 27.1345 40.5347 28.5029 41.0063C29.8712 41.4845 31.2529 42.1089 32.402 42.9126C33.5512 43.7164 34.3948 44.6396 34.8065 45.7025C36.0155 48.798 34.8265 51.8069 32.4418 53.5008C30.0837 55.1747 26.5035 55.5733 22.9231 53.1156L22.9298 53.1222ZM31.2728 56.9483C32.2359 56.6361 33.1327 56.1777 33.943 55.6065C37.1847 53.3015 38.8918 49.0769 37.2113 44.7726C36.547 43.0787 35.2849 41.79 33.8833 40.8069C32.4751 39.8239 30.8609 39.1065 29.3597 38.5817C28.3766 38.2363 27.4202 37.9706 26.5898 37.7714C26.8887 37.5787 27.201 37.3795 27.5397 37.1801C29.5192 36.0178 32.0168 34.9483 34.4081 34.9483C38.0149 34.9483 40.6986 36.0575 43.2625 37.24C43.495 37.3462 43.7275 37.4591 43.9666 37.5654C46.2583 38.6416 48.6629 39.7708 51.4593 39.7708C54.2559 39.7708 56.2819 39.0069 57.7365 38.2097C56.4412 49.0503 47.2148 57.4597 36.0222 57.4597C34.3948 57.4597 32.8071 57.2805 31.2861 56.9483H31.2728ZM54.9468 36.6355C53.9835 36.961 52.8144 37.2001 51.4527 37.2001C49.2607 37.2001 47.3742 36.3233 44.9829 35.2073C44.7704 35.1077 44.5579 35.0081 44.3386 34.9085C41.9406 33.7991 39.1708 32.6234 35.5639 32.4109C35.0789 30.0261 33.2722 28.3922 31.7178 27.3958C31.5452 27.2829 31.3724 27.1765 31.1998 27.0769C31.3525 27.0436 31.5119 27.0039 31.678 26.9706C33.7637 26.5388 36.248 26.4325 38.3537 27.4289C40.8513 28.6047 42.2662 29.9597 43.7341 31.368L43.7873 31.4144C45.2952 32.8625 46.896 34.3837 49.6791 35.4996C51.2269 36.1174 53.2329 36.4495 54.9468 36.6355Z" fill="white"/>
</g>
</g>
<defs>
<linearGradient id="paint0_linear_5049_7443" x1="2.82319" y1="36.6099" x2="70.007" y2="35.3813" gradientUnits="userSpaceOnUse">
<stop stop-color="#29CCB9"/>
<stop offset="0.49" stop-color="#0091FF"/>
<stop offset="1" stop-color="#FF66B7"/>
</linearGradient>
</defs>
</svg>
