<svg width="71" height="70" viewBox="0 0 71 70" fill="none" xmlns="http://www.w3.org/2000/svg">
<rect x="1.91504" y="1.5" width="67" height="67" rx="14.5" fill="#E2CDAE" stroke="black" stroke-width="3"/>
<path fill-rule="evenodd" clip-rule="evenodd" d="M17.0238 29.8391C15.101 27.9709 13.753 25.5543 13.753 22.6911V22.3865C13.9116 17.4925 17.8365 13.553 22.6139 13.4108H53.0223C53.8152 13.4514 54.4496 14.02 54.4496 14.8526V41.2109C55.1433 41.3329 55.4802 41.4344 56.1543 41.6781C56.6896 41.8812 57.423 42.3075 57.423 42.3075V14.8526C57.3833 12.3549 55.4407 10.3445 53.0025 10.3445H22.5941C16.0327 10.446 10.7598 15.9492 10.7598 22.6911C10.7598 26.6103 12.5042 29.9609 15.3587 32.3165C15.3792 32.3333 15.3995 32.3506 15.42 32.368L15.4206 32.3685L15.4207 32.3686C15.598 32.5194 15.7893 32.6822 16.2507 32.6822C17.1428 32.6822 17.7771 31.951 17.7374 31.159C17.7184 30.515 17.4613 30.2648 17.0718 29.8858L17.0238 29.8391ZM52.2288 42.9373H28.3818C26.7762 42.9575 25.4877 44.2776 25.4877 45.9224V49.4354C25.5273 51.0601 26.8753 52.4409 28.481 52.4409H30.2452V49.4354H28.481V46.0037H29.4523C32.4653 46.0037 34.6856 48.8668 34.6856 51.9332C34.6856 54.6544 32.2671 58.1267 28.2232 57.8426C24.6353 57.5989 22.6926 54.3294 22.6926 51.9332V22.1633C22.6926 20.8231 21.6222 19.7265 20.3139 19.7265H17.9351V22.7725H19.6994V51.9535C19.6003 57.8832 23.8226 60.8684 28.2232 60.8684L52.2487 60.9494C57.0855 60.9494 61.0104 56.9288 61.0104 51.9535C61.0104 46.9784 57.0657 42.9373 52.2288 42.9373ZM58.017 52.1363C57.918 55.3245 55.3608 57.8832 52.2288 57.8832L35.5181 57.8221C36.8463 56.2383 37.659 54.1872 37.659 51.9535C37.659 48.4405 35.6172 46.0239 35.6172 46.0239H52.2487C55.4401 46.0239 58.037 48.6842 58.037 51.9535L58.017 52.1363ZM27.8265 23.3207H45.8059C46.6386 23.3207 47.2927 22.6302 47.2927 21.7977C47.2927 20.9448 46.6186 20.2746 45.8059 20.2746H27.8265V23.3207ZM45.8059 37.657H27.8265V34.6108H45.8059C46.6186 34.6108 47.2927 35.2811 47.2927 36.134C47.2927 36.9665 46.6386 37.657 45.8059 37.657ZM27.8265 30.4885H48.9776C49.7903 30.4885 50.4642 29.7981 50.4445 28.9655C50.4445 28.1126 49.7706 27.4425 48.9576 27.4425H27.8265V30.4885Z" fill="black"/>
</svg>
