<svg width="89" height="75" viewBox="0 0 89 75" fill="none" xmlns="http://www.w3.org/2000/svg">
<g id="Group 48096359">
<path id="Vector 1735" d="M31.94 56.923V43.4531L50.5666 29.4832C51.4274 28.8375 51.7786 27.7135 51.4383 26.6926C51.098 25.6718 50.1426 24.9832 49.0666 24.9832H31.94V17.6699C31.94 16.6588 31.3309 15.7472 30.3967 15.3602C29.4625 14.9733 28.3872 15.1872 27.6723 15.9022L8.04571 35.5287C7.0694 36.505 7.0694 38.0879 8.04571 39.0642L27.6723 58.6908C28.3872 59.4058 29.4625 59.6197 30.3967 59.2327C31.3309 58.8458 31.94 57.9342 31.94 56.923Z" fill="white" stroke="#0469FF" stroke-width="5" stroke-linejoin="round"/>
<path id="Vector 1736" d="M56.3813 17.6695V31.1394L37.7547 45.1093C36.8939 45.755 36.5427 46.879 36.883 47.8999C37.2233 48.9207 38.1786 49.6093 39.2547 49.6093H56.3813V56.9226C56.3813 57.9337 56.9904 58.8453 57.9246 59.2323C58.8587 59.6192 59.934 59.4054 60.649 58.6904L80.2756 39.0638C81.2519 38.0875 81.2519 36.5046 80.2756 35.5283L60.649 15.9017C59.934 15.1867 58.8587 14.9729 57.9246 15.3598C56.9904 15.7468 56.3813 16.6583 56.3813 17.6695Z" fill="white" stroke="#0469FF" stroke-width="5" stroke-linejoin="round"/>
</g>
</svg>
