<svg width="77" height="82" viewBox="0 0 77 82" fill="none" xmlns="http://www.w3.org/2000/svg">
<g id="DapDap logo1-lite bg">
<g id="Group 48095829">
<g id="Group 24992">
<g id="Group 24942">
<path id="Rectangle 5019" d="M4.85282 39.5845C3.52006 33.7676 9.80249 18.8469 9.80249 18.8469L43.454 16.6105C49.9626 14.8665 56.6525 18.729 58.3965 25.2375L72.6267 48.6884C70.3391 60.1263 68.4435 66.611 61.9349 68.3549L27.8268 78.1857C21.3183 79.9296 14.6283 76.0672 12.8844 69.5587L4.85282 39.5845Z" fill="#181A27"/>
<path id="Rectangle 5018" d="M9.07721 26.9122C7.28117 20.2093 11.259 13.3196 17.9619 11.5235L48.8312 3.25211C55.5342 1.45606 62.4239 5.43388 64.22 12.1368L72.4914 43.0061C74.2874 49.7091 70.3096 56.5988 63.6067 58.3949L32.7374 66.6663C26.0344 68.4623 19.1447 64.4845 17.3486 57.7816L9.07721 26.9122Z" fill="#EBF479"/>
<path id="Rectangle 5018 (Stroke)" fill-rule="evenodd" clip-rule="evenodd" d="M49.6443 6.28628L18.7749 14.5577C13.7477 15.9047 10.7644 21.0721 12.1114 26.0992L20.3828 56.9686C21.7298 61.9958 26.8972 64.9791 31.9243 63.6321L62.7937 55.3607C67.8209 54.0137 70.8042 48.8463 69.4572 43.8191L61.1858 12.9498C59.8388 7.92261 54.6714 4.93925 49.6443 6.28628ZM17.9619 11.5235C11.259 13.3196 7.28117 20.2093 9.07721 26.9122L17.3486 57.7816C19.1447 64.4845 26.0344 68.4623 32.7374 66.6663L63.6067 58.3949C70.3096 56.5988 74.2874 49.7091 72.4914 43.0061L64.22 12.1368C62.4239 5.43387 55.5342 1.45606 48.8313 3.2521L17.9619 11.5235Z" fill="#181A27"/>
</g>
</g>
<path id="Subtract" fill-rule="evenodd" clip-rule="evenodd" d="M38.0595 20.1124L28.3448 22.7154C27.8114 22.8584 27.4948 23.4067 27.6377 23.9402L29.338 30.2857C29.4809 30.8191 30.0293 31.1357 30.5627 30.9928L39.5235 28.5917C42.2734 27.8549 45.1 29.4868 45.8368 32.2367C46.5736 34.9866 44.9417 37.8131 42.1918 38.5499L33.231 40.951C32.6976 41.0939 32.381 41.6423 32.5239 42.1757L34.2624 48.6637C34.4053 49.1971 34.9536 49.5137 35.4871 49.3708L45.2018 46.7678C52.5624 44.7955 56.9306 37.2296 54.9583 29.8689C52.986 22.5083 45.4202 18.1401 38.0595 20.1124Z" fill="#181A27"/>
</g>
</g>
</svg>
