<svg width="16" height="14" viewBox="0 0 16 14" fill="none" xmlns="http://www.w3.org/2000/svg">
<path d="M15.7262 1.47807C15.7154 1.2948 15.6377 1.12187 15.5079 0.992054C15.3781 0.862236 15.2051 0.784542 15.0219 0.773695C11.6919 0.577445 9.00937 1.60932 7.84437 3.53244C7.08562 4.78244 7.05937 6.29307 7.75312 7.7387C7.45641 8.11698 7.21948 8.53856 7.05062 8.9887L6.44437 8.38244C6.89374 7.33432 6.84624 6.25057 6.29437 5.33932C5.42062 3.89744 3.43062 3.12494 0.971869 3.26744C0.788599 3.27829 0.615672 3.35599 0.485854 3.4858C0.356035 3.61562 0.278342 3.78855 0.267494 3.97182C0.124994 6.43057 0.897494 8.42057 2.34062 9.29432C2.83006 9.59263 3.39243 9.74988 3.96562 9.74869C4.4543 9.74469 4.93705 9.64112 5.38437 9.44432L6.74999 10.8124V12.4999C6.74999 12.6989 6.82901 12.8896 6.96966 13.0303C7.11032 13.1709 7.30108 13.2499 7.49999 13.2499C7.69891 13.2499 7.88967 13.1709 8.03032 13.0303C8.17098 12.8896 8.24999 12.6989 8.24999 12.4999V10.6568C8.24845 9.9864 8.45576 9.33214 8.84312 8.78494C9.47017 9.08317 10.1544 9.24181 10.8487 9.24994C11.596 9.25171 12.3292 9.04711 12.9675 8.65869C14.8906 7.49057 15.9225 4.80745 15.7262 1.47807ZM3.11749 8.01119C2.29312 7.51119 1.79374 6.29494 1.75312 4.75307C3.29499 4.79369 4.51187 5.29369 5.01124 6.11744C5.20653 6.43509 5.28664 6.81024 5.23812 7.17994L4.52999 6.46932C4.3891 6.32842 4.198 6.24927 3.99874 6.24927C3.79949 6.24927 3.60839 6.32842 3.46749 6.46932C3.3266 6.61022 3.24744 6.80131 3.24744 7.00057C3.24744 7.19983 3.3266 7.39092 3.46749 7.53182L4.17624 8.24057C3.80754 8.28609 3.4343 8.20523 3.11749 8.01119ZM12.1906 7.37494C11.5244 7.77807 10.7531 7.85432 9.95249 7.60994L12.2806 5.28244C12.4215 5.14155 12.5007 4.95045 12.5007 4.75119C12.5007 4.55194 12.4215 4.36084 12.2806 4.21994C12.1397 4.07905 11.9486 3.99989 11.7494 3.99989C11.5501 3.99989 11.359 4.07905 11.2181 4.21994L8.88999 6.54744C8.64812 5.74994 8.72437 4.97557 9.12499 4.31244C9.92312 2.99432 11.8125 2.24557 14.25 2.24994C14.2587 4.68744 13.5087 6.57369 12.1906 7.37494Z" fill="#868682"/>
</svg>
