<svg width="222" height="70" viewBox="0 0 222 70" fill="none" xmlns="http://www.w3.org/2000/svg">
<path fill-rule="evenodd" clip-rule="evenodd" d="M188.779 63.8604C188.779 64.0552 188.682 64.445 188.487 65.0297C188.292 65.6143 187.98 66.2185 187.552 66.8421C187.123 67.4657 186.577 68.0114 185.915 68.4791C185.291 68.9468 184.531 69.1807 183.635 69.1807C182.582 69.1807 181.53 68.8299 180.477 68.1283C179.464 67.4267 178.451 66.4718 177.437 65.2635C176.424 64.0553 175.391 62.6326 174.339 60.9956C173.325 59.3196 172.292 57.5071 171.24 55.5583C171.084 57.6241 170.928 59.6509 170.772 61.6387C170.616 63.6265 170.46 65.5559 170.304 67.4267C170.266 67.8945 170.168 68.2063 170.012 68.3622C169.856 68.5181 169.525 68.596 169.018 68.596H166.914C165.705 68.596 164.711 68.4791 163.932 68.2453C163.152 67.9724 162.548 67.6021 162.119 67.1344C161.691 66.6667 161.379 66.082 161.184 65.3805C161.028 64.6399 160.95 63.8019 160.95 62.8665C160.95 62.3987 160.97 61.9115 161.009 61.4048C161.048 60.8981 161.106 60.1771 161.184 59.2416C161.262 58.3062 161.359 57.0784 161.476 55.5583C161.632 54.0382 161.808 52.0309 162.002 49.5364C162.197 47.0419 162.412 43.9822 162.646 40.3573C162.918 36.6935 163.211 32.2502 163.523 27.0273C163.562 26.1698 163.659 25.6631 163.815 25.5072C163.932 25.3903 164.244 25.3318 164.75 25.3318H167.03C168.239 25.3318 169.233 25.4682 170.012 25.741C170.792 26.0139 171.415 26.3842 171.883 26.8519C172.351 27.3196 172.663 27.8653 172.818 28.4889C173.013 29.1125 173.111 29.7557 173.111 30.4183C173.111 30.808 173.072 31.4706 172.994 32.4061C172.955 33.3025 172.896 34.4134 172.818 35.7386C172.741 37.0248 172.624 38.4865 172.468 40.1235C172.351 41.7605 172.234 43.4755 172.117 45.2684L181.471 36.7325C181.822 36.4207 182.134 36.2063 182.407 36.0894C182.719 35.9725 182.952 35.914 183.108 35.914C183.537 35.914 184.005 36.1868 184.512 36.7325C185.018 37.2782 185.486 37.9213 185.915 38.6619C186.382 39.3634 186.753 40.104 187.026 40.8835C187.337 41.6241 187.493 42.2282 187.493 42.696C187.493 43.8263 186.577 45.0151 184.745 46.2623C182.952 47.5096 180.224 48.9128 176.56 50.4718C178.197 52.3037 179.756 53.9797 181.237 55.4998C182.719 57.0199 184.005 58.3646 185.096 59.5339C186.227 60.7032 187.123 61.6582 187.786 62.3987C188.448 63.1393 188.779 63.6265 188.779 63.8604ZM190.773 61.4047C190.773 57.8968 192.351 55.1489 195.509 53.1611C198.666 51.1733 203.323 50.1014 209.482 49.9455C209.521 49.5168 209.54 49.166 209.54 48.8932C209.579 48.5813 209.599 48.2111 209.599 47.7823C209.599 46.5351 209.365 45.5411 208.897 44.8006C208.429 44.06 207.455 43.6897 205.974 43.6897C205.155 43.6897 204.493 43.8067 203.986 44.0405C203.479 44.2744 203.07 44.6057 202.758 45.0344C202.446 45.4242 202.193 45.9114 201.998 46.4961C201.803 47.0807 201.628 47.7238 201.472 48.4254C201.394 48.7762 201.219 49.0101 200.946 49.127C200.673 49.205 200.244 49.2439 199.66 49.2439C195.684 49.2439 193.696 47.7433 193.696 44.7421C193.696 43.5338 193.969 42.384 194.515 41.2927C195.099 40.2013 195.937 39.2659 197.029 38.4863C198.159 37.6678 199.562 37.0247 201.238 36.557C202.914 36.0893 204.863 35.8554 207.085 35.8554C211.411 35.8554 214.549 36.7519 216.498 38.5448C218.446 40.3377 219.421 42.8712 219.421 46.1453C219.421 46.574 219.362 47.3536 219.245 48.4839C219.167 49.5752 219.051 50.7446 218.895 51.9918C218.778 53.2001 218.661 54.3499 218.544 55.4413C218.466 56.5326 218.427 57.2927 218.427 57.7214C218.427 58.6958 218.602 59.3974 218.953 59.8261C219.304 60.2159 219.694 60.4888 220.122 60.6447C220.59 60.8006 220.999 60.9175 221.35 60.9954C221.701 61.0734 221.876 61.2683 221.876 61.5801C221.876 62.4376 221.759 63.3146 221.526 64.211C221.292 65.1075 220.902 65.926 220.356 66.6666C219.85 67.4071 219.128 68.0113 218.193 68.479C217.297 68.9467 216.186 69.1806 214.861 69.1806C212.99 69.1806 211.586 68.7323 210.651 67.8359C209.716 66.9394 209.092 65.6922 208.78 64.0941C207.845 65.4583 206.617 66.6471 205.097 67.6605C203.616 68.6739 201.667 69.1806 199.25 69.1806C198.081 69.1806 196.97 69.0442 195.918 68.7713C194.904 68.4985 194.008 68.0503 193.228 67.4266C192.488 66.803 191.884 66.004 191.416 65.0296C190.987 64.0162 190.773 62.8079 190.773 61.4047ZM208.956 54.7397C207.942 54.7397 206.948 54.8176 205.974 54.9735C204.999 55.1294 204.122 55.3828 203.343 55.7336C202.602 56.0454 201.998 56.4741 201.53 57.0198C201.063 57.5655 200.829 58.2281 200.829 59.0076C200.829 59.9041 201.102 60.5277 201.647 60.8785C202.232 61.2293 202.856 61.4047 203.518 61.4047C204.142 61.4047 204.766 61.2683 205.389 60.9954C206.013 60.7226 206.558 60.3134 207.026 59.7677C207.533 59.183 207.962 58.4814 208.312 57.6629C208.663 56.8444 208.878 55.87 208.956 54.7397ZM138.254 68.5375C139.969 68.9662 141.684 69.1806 143.399 69.1806C144.685 69.1806 146.011 69.0636 147.375 68.8298C148.739 68.5959 149.967 68.2257 151.058 67.719C152.188 67.2123 153.104 66.5496 153.806 65.7311C154.508 64.9126 154.858 63.9382 154.858 62.8079C154.858 61.9504 154.664 61.2488 154.274 60.7031C153.884 60.1574 153.436 59.7287 152.929 59.4169C152.422 59.1051 151.916 58.9102 151.409 58.8322C150.941 58.7153 150.61 58.6568 150.415 58.6568C149.986 58.6568 149.636 58.8322 149.363 59.183C149.129 59.4948 148.836 59.8651 148.486 60.2939C148.135 60.6836 147.667 61.0539 147.083 61.4047C146.537 61.7165 145.757 61.8724 144.744 61.8724C143.731 61.8724 142.873 61.697 142.171 61.3462C141.47 60.9954 140.905 60.5472 140.476 60.0015C140.047 59.4559 139.716 58.8322 139.482 58.1307C139.287 57.3901 139.19 56.6495 139.19 55.909C139.813 55.909 140.69 55.8895 141.821 55.8505C142.99 55.7726 144.257 55.6166 145.621 55.3828C146.985 55.1099 148.369 54.7397 149.772 54.2719C151.175 53.8042 152.442 53.1611 153.572 52.3426C154.741 51.4851 155.677 50.4327 156.379 49.1855C157.119 47.9382 157.489 46.4181 157.489 44.6252C157.489 43.4169 157.294 42.2866 156.905 41.2342C156.515 40.1818 155.891 39.2659 155.034 38.4863C154.176 37.6678 153.046 37.0247 151.643 36.557C150.24 36.0893 148.525 35.8554 146.498 35.8554C143.964 35.8554 141.782 36.2062 139.95 36.9078C138.118 37.6094 136.559 38.5253 135.273 39.6556C133.986 40.786 132.934 42.0722 132.115 43.5144C131.336 44.9175 130.712 46.3402 130.245 47.7823C129.816 49.2245 129.523 50.6276 129.368 51.9918C129.212 53.356 129.134 54.5253 129.134 55.4997C129.134 58.1501 129.562 60.3523 130.42 62.1063C131.277 63.8602 132.369 65.2634 133.694 66.3158C135.058 67.3682 136.578 68.1087 138.254 68.5375ZM142.288 44.3913C142.912 43.8846 143.653 43.6313 144.51 43.6313C145.523 43.6313 146.264 43.9431 146.732 44.5667C147.238 45.1904 147.492 45.8919 147.492 46.6715C147.492 48.1136 146.732 49.2245 145.212 50.004C143.731 50.7835 141.782 51.1928 139.365 51.2318C139.482 50.4132 139.638 49.5558 139.833 48.6593C140.067 47.7628 140.379 46.9443 140.768 46.2038C141.197 45.4632 141.704 44.8591 142.288 44.3913ZM120.805 50.4132H119.986L119.168 50.2963C118.895 50.2184 118.661 50.1404 118.466 50.0625C118.271 49.9455 118.174 49.8091 118.174 49.6532C118.174 49.1465 118.194 48.6788 118.232 48.25C118.271 47.8213 118.291 47.3731 118.291 46.9053C118.291 46.0478 118.174 45.3463 117.94 44.8006C117.706 44.2549 117.239 43.9821 116.537 43.9821C115.446 43.9821 114.53 44.7031 113.789 46.1453C113.088 47.5485 112.639 49.6727 112.444 52.518C112.366 53.7653 112.25 55.1879 112.094 56.786C111.977 58.345 111.86 59.8651 111.743 61.3462C111.626 62.7884 111.528 64.0746 111.451 65.2049C111.373 66.3353 111.334 67.0758 111.334 67.4266C111.334 67.8164 111.197 68.1087 110.924 68.3036C110.652 68.4985 110.359 68.5959 110.047 68.5959H107.943C106.734 68.5959 105.74 68.479 104.961 68.2451C104.22 67.9723 103.616 67.602 103.148 67.1343C102.72 66.6666 102.408 66.1014 102.213 65.4388C102.057 64.7372 101.979 63.9382 101.979 63.0417C101.979 62.4571 101.999 61.6386 102.038 60.5862C102.116 59.4948 102.233 58.0137 102.388 56.1428C102.544 54.233 102.72 51.8359 102.915 48.9516C103.148 46.0284 103.421 42.423 103.733 38.1356C103.811 37.0052 104.22 36.4401 104.961 36.4401H107.241C108.332 36.4401 109.248 36.557 109.989 36.7909C110.729 37.0247 111.334 37.356 111.801 37.7848C112.269 38.1745 112.6 38.6423 112.795 39.1879C113.029 39.7336 113.185 40.2988 113.263 40.8834C113.731 39.987 114.276 39.2269 114.9 38.6033C115.563 37.9407 116.245 37.4145 116.946 37.0247C117.648 36.596 118.369 36.3036 119.109 36.1477C119.85 35.9529 120.532 35.8554 121.156 35.8554C121.896 35.8554 122.637 35.9918 123.377 36.2647C124.157 36.5375 124.859 36.9468 125.482 37.4924C126.106 38.0381 126.593 38.7397 126.944 39.5972C127.334 40.4547 127.528 41.4681 127.528 42.6374C127.528 43.6897 127.373 44.6837 127.061 45.6191C126.749 46.5545 126.301 47.3925 125.716 48.1331C125.131 48.8347 124.41 49.3999 123.553 49.8286C122.734 50.2184 121.818 50.4132 120.805 50.4132ZM77.7956 44.8594C77.9515 43.3783 78.0294 42.2285 78.0294 41.41C78.0294 40.6304 77.932 39.9483 77.7371 39.3637C77.5812 38.74 77.2694 38.2139 76.8017 37.7851C76.3729 37.3564 75.7688 37.0251 74.9892 36.7912C74.2097 36.5573 73.2158 36.4404 72.0075 36.4404H70.1366C69.5909 36.4404 69.2012 36.5768 68.9673 36.8497C68.7335 37.0835 68.5775 37.5513 68.4996 38.2528C68.4606 38.7206 68.3827 39.5001 68.2657 40.5914C68.1878 41.6828 68.0903 42.9495 67.9734 44.3917C67.8955 45.8338 67.798 47.3734 67.6811 49.0104C67.5642 50.6085 67.4472 52.1286 67.3303 53.5707C67.2523 55.0129 67.1744 56.3186 67.0964 57.4879C67.0575 58.6182 67.038 59.4367 67.038 59.9434C67.038 61.2297 67.2523 62.438 67.6811 63.5683C68.1098 64.6986 68.714 65.673 69.4935 66.4915C70.312 67.3101 71.3059 67.9727 72.4752 68.4794C73.6445 68.9471 74.9697 69.1809 76.4509 69.1809C77.2304 69.1809 78.0294 69.0835 78.8479 68.8886C79.6664 68.7327 80.4655 68.4599 81.245 68.0701C82.0245 67.6414 82.7651 67.0762 83.4667 66.3746C84.2072 65.673 84.8699 64.8155 85.4545 63.8021C85.4935 64.4258 85.6104 65.0299 85.8053 65.6146C86.0002 66.1992 86.3315 66.7059 86.7992 67.1347C87.2669 67.5634 87.8711 67.9142 88.6116 68.187C89.3912 68.4599 90.3656 68.5963 91.5349 68.5963H93.815C94.3607 68.5963 94.6725 68.5183 94.7505 68.3624C94.8674 68.2065 94.9648 67.7193 95.0428 66.9008C95.3546 62.6133 95.608 59.0275 95.8028 56.1432C96.0367 53.2199 96.2316 50.8229 96.3875 48.952C96.5434 47.0421 96.6409 45.561 96.6798 44.5086C96.7578 43.4173 96.7968 42.5793 96.7968 41.9946C96.7968 41.0981 96.6993 40.3186 96.5044 39.656C96.3485 38.9544 96.0367 38.3698 95.569 37.902C95.1402 37.4343 94.5361 37.0835 93.7566 36.8497C93.016 36.5768 92.0416 36.4404 90.8333 36.4404H88.7286C88.2998 36.4404 87.988 36.5573 87.7931 36.7912C87.5982 37.0251 87.4813 37.2979 87.4423 37.6097C87.3254 38.818 87.2085 40.2601 87.0915 41.9361C87.0136 43.5732 86.8966 45.2687 86.7407 47.0226C86.6238 48.7766 86.4289 50.511 86.1561 52.226C85.8833 53.941 85.513 55.4806 85.0452 56.8448C84.6165 58.17 84.0319 59.2613 83.2913 60.1188C82.5897 60.9373 81.7127 61.3466 80.6604 61.3466C79.4521 61.3466 78.4971 60.9763 77.7956 60.2358C77.133 59.4562 76.8017 58.3844 76.8017 57.0202C76.8017 56.3965 76.8601 55.3831 76.9771 53.98C77.133 52.5768 77.2694 51.0762 77.3863 49.4782C77.5422 47.8801 77.6786 46.3405 77.7956 44.8594Z" fill="#EBF479"/>
<path d="M2.50597 58.8659L9.14276 53.9756L16.828 62.7082L11.2391 67.2492C9.25957 68.8792 4.53194 71.1614 1.45806 67.2492C-1.61582 63.3369 0.875885 60.0302 2.50597 58.8659Z" fill="url(#paint0_linear_84_4582)"/>
<path d="M32.8967 24.9834C38.765 24.145 39.3006 28.36 38.8349 30.5722C39.3004 30.223 40.5662 29.5244 44.7724 29.5244C47.2175 29.5244 49.5462 30.6888 49.6626 31.9695C50.3612 29.0587 50.501 22.678 45.471 17.6481C39.1835 11.3606 21.3695 12.0592 11.5889 26.3807C1.80839 40.7022 9.49309 55.373 11.5889 57.4688C13.6847 59.5646 23.8148 56.7702 20.671 51.1813C17.5273 45.5924 17.178 39.6543 19.2738 35.1133C21.3697 30.5723 25.5613 26.0313 32.8967 24.9834Z" fill="url(#paint1_linear_84_4582)"/>
<path d="M38.4849 30.9218C36.0398 34.7643 24.8621 43.264 18.9239 47.3392C19.9104 50.1337 21.3076 53.2774 25.15 56.0718C28.5266 53.5103 37.0179 47.1995 42.3273 42.449C48.9641 36.5108 49.6627 33.3669 49.6627 31.2711C49.6627 29.1753 40.6799 27.4725 38.4849 30.9218Z" fill="url(#paint2_linear_84_4582)"/>
<path d="M37.0877 58.8662C27.866 59.984 22.3004 54.2088 20.6704 51.1815C20.6704 51.9965 19.9718 54.0458 17.1773 55.7225C14.3829 57.3991 11.472 56.4211 10.5405 56.0718C11.5884 58.1676 14.6623 61.8004 17.1773 63.7565C20.3211 66.2016 30.4509 73.537 45.471 67.9481C60.4911 62.3592 62.5869 46.9898 62.9362 43.4968C63.2855 40.0037 61.8883 36.1614 57.6967 36.5107C53.505 36.86 52.4571 38.9558 51.7585 43.4968C51.0599 48.0377 48.6147 57.469 37.0877 58.8662Z" fill="url(#paint3_linear_84_4582)"/>
<path fill-rule="evenodd" clip-rule="evenodd" d="M38.8601 30.4457C39.2787 28.2036 38.655 24.1608 32.8968 24.9834C25.5614 26.0313 21.3697 30.5723 19.2739 35.1133C17.6564 38.6178 17.4953 42.9545 18.9511 47.3206C24.8961 43.2381 36.0435 34.7584 38.4849 30.9219C38.5939 30.7507 38.7196 30.5921 38.8601 30.4457ZM49.6435 31.8408C49.6524 31.8835 49.6588 31.9265 49.6627 31.9695C50.3613 29.0587 50.501 22.678 45.471 17.6481C39.1836 11.3606 21.3695 12.0592 11.589 26.3807C1.80845 40.7022 9.49315 55.373 11.589 57.4688C13.6434 59.5232 23.4173 56.8788 20.8422 51.5096C21.8048 53.0593 23.1442 54.6132 25.1499 56.0719C25.5442 55.7728 26.0083 55.4225 26.5289 55.0296C30.4663 52.0577 37.6378 46.6448 42.3273 42.449C48.3889 37.0255 49.497 33.9329 49.6435 31.8408Z" fill="url(#paint4_radial_84_4582)"/>
<g filter="url(#filter0_d_84_4582)">
<path d="M61.2315 10L62.929 17.5148L69.4431 13.4013L65.3296 19.9154L72.8444 21.6129L65.3296 23.3104L69.4431 29.8244L62.929 25.711L61.2315 33.2258L59.5341 25.711L53.02 29.8244L57.1335 23.3104L49.6187 21.6129L57.1335 19.9154L53.02 13.4013L59.5341 17.5148L61.2315 10Z" fill="#EBF479"/>
</g>
<defs>
<filter id="filter0_d_84_4582" x="39.6187" y="0" width="43.2258" height="43.2257" filterUnits="userSpaceOnUse" color-interpolation-filters="sRGB">
<feFlood flood-opacity="0" result="BackgroundImageFix"/>
<feColorMatrix in="SourceAlpha" type="matrix" values="0 0 0 0 0 0 0 0 0 0 0 0 0 0 0 0 0 0 127 0" result="hardAlpha"/>
<feOffset/>
<feGaussianBlur stdDeviation="5"/>
<feComposite in2="hardAlpha" operator="out"/>
<feColorMatrix type="matrix" values="0 0 0 0 0.921569 0 0 0 0 0.956863 0 0 0 0 0.47451 0 0 0 1 0"/>
<feBlend mode="normal" in2="BackgroundImageFix" result="effect1_dropShadow_84_4582"/>
<feBlend mode="normal" in="SourceGraphic" in2="effect1_dropShadow_84_4582" result="shape"/>
</filter>
<linearGradient id="paint0_linear_84_4582" x1="8.41401" y1="53.9756" x2="8.41401" y2="69.4093" gradientUnits="userSpaceOnUse">
<stop stop-color="#745DEF"/>
<stop offset="1" stop-color="#5696EC"/>
</linearGradient>
<linearGradient id="paint1_linear_84_4582" x1="42.9644" y1="30.9216" x2="15.3694" y2="52.9278" gradientUnits="userSpaceOnUse">
<stop stop-color="#755CEF"/>
<stop offset="1" stop-color="#6349FF"/>
</linearGradient>
<linearGradient id="paint2_linear_84_4582" x1="34.2933" y1="28.9492" x2="34.2933" y2="56.0719" gradientUnits="userSpaceOnUse">
<stop stop-color="#745DEF"/>
<stop offset="1" stop-color="#5696EC"/>
</linearGradient>
<linearGradient id="paint3_linear_84_4582" x1="63.9227" y1="50.4829" x2="25.4751" y2="70.899" gradientUnits="userSpaceOnUse">
<stop stop-color="#FFD951"/>
<stop offset="1" stop-color="#6349FF"/>
</linearGradient>
<radialGradient id="paint4_radial_84_4582" cx="0" cy="0" r="1" gradientUnits="userSpaceOnUse" gradientTransform="translate(59.2961 24.516) rotate(176.186) scale(29.0966 32.976)">
<stop stop-color="#EBF479"/>
<stop offset="1" stop-color="#EBF479" stop-opacity="0"/>
</radialGradient>
</defs>
</svg>
