<svg width="64" height="64" viewBox="0 0 64 64" fill="none" xmlns="http://www.w3.org/2000/svg">
<g filter="url(#filter0_dd_60_2737)">
<rect x="8" y="4" width="48" height="48" rx="24" fill="#1C1C1A"/>
<path d="M41.9375 23.5113C41.7263 23.2719 41.4666 23.0803 41.1757 22.949C40.8847 22.8178 40.5692 22.7499 40.25 22.75H35V21.25C35 20.2554 34.6049 19.3016 33.9017 18.5983C33.1984 17.8951 32.2446 17.5 31.25 17.5C31.1107 17.4999 30.9741 17.5386 30.8555 17.6118C30.7369 17.685 30.6411 17.7898 30.5787 17.9144L27.0369 25H23C22.6022 25 22.2206 25.158 21.9393 25.4393C21.658 25.7206 21.5 26.1022 21.5 26.5V34.75C21.5 35.1478 21.658 35.5294 21.9393 35.8107C22.2206 36.092 22.6022 36.25 23 36.25H39.125C39.6732 36.2502 40.2025 36.0503 40.6137 35.6878C41.0249 35.3253 41.2896 34.8251 41.3581 34.2812L42.4831 25.2812C42.523 24.9644 42.495 24.6427 42.4009 24.3375C42.3068 24.0323 42.1488 23.7507 41.9375 23.5113ZM23 26.5H26.75V34.75H23V26.5ZM40.9944 25.0938L39.8694 34.0938C39.8465 34.275 39.7583 34.4418 39.6212 34.5626C39.4842 34.6834 39.3077 34.7501 39.125 34.75H28.25V25.9272L31.6916 19.0431C32.2016 19.1452 32.6606 19.4209 32.9903 19.8233C33.32 20.2256 33.5001 20.7298 33.5 21.25V23.5C33.5 23.6989 33.579 23.8897 33.7197 24.0303C33.8603 24.171 34.0511 24.25 34.25 24.25H40.25C40.3564 24.25 40.4616 24.2726 40.5587 24.3163C40.6557 24.3601 40.7423 24.424 40.8127 24.5038C40.8831 24.5836 40.9357 24.6775 40.967 24.7792C40.9984 24.8809 41.0077 24.9882 40.9944 25.0938Z" fill="white"/>
</g>
<defs>
<filter id="filter0_dd_60_2737" x="0" y="0" width="64" height="64" filterUnits="userSpaceOnUse" color-interpolation-filters="sRGB">
<feFlood flood-opacity="0" result="BackgroundImageFix"/>
<feColorMatrix in="SourceAlpha" type="matrix" values="0 0 0 0 0 0 0 0 0 0 0 0 0 0 0 0 0 0 127 0" result="hardAlpha"/>
<feOffset dy="4"/>
<feGaussianBlur stdDeviation="4"/>
<feColorMatrix type="matrix" values="0 0 0 0 0 0 0 0 0 0 0 0 0 0 0 0 0 0 0.1 0"/>
<feBlend mode="normal" in2="BackgroundImageFix" result="effect1_dropShadow_60_2737"/>
<feColorMatrix in="SourceAlpha" type="matrix" values="0 0 0 0 0 0 0 0 0 0 0 0 0 0 0 0 0 0 127 0" result="hardAlpha"/>
<feMorphology radius="1" operator="dilate" in="SourceAlpha" result="effect2_dropShadow_60_2737"/>
<feOffset/>
<feComposite in2="hardAlpha" operator="out"/>
<feColorMatrix type="matrix" values="0 0 0 0 0 0 0 0 0 0 0 0 0 0 0 0 0 0 0.08 0"/>
<feBlend mode="normal" in2="effect1_dropShadow_60_2737" result="effect2_dropShadow_60_2737"/>
<feBlend mode="normal" in="SourceGraphic" in2="effect2_dropShadow_60_2737" result="shape"/>
</filter>
</defs>
</svg>
