<?xml version="1.0" encoding="utf-8"?>
<!-- Generator: Adobe Illustrator 26.1.0, SVG Export Plug-In . SVG Version: 6.00 Build 0)  -->
<svg version="1.1" id="Lodestar_x5F_Icon_x5F_FC_x5F_AW"
	 xmlns="http://www.w3.org/2000/svg" xmlns:xlink="http://www.w3.org/1999/xlink" x="0px" y="0px" viewBox="0 0 299.278 299.278"
	 style="enable-background:new 0 0 299.278 299.278;" xml:space="preserve">
<style type="text/css">
	.st0{fill:#E5D540;}
</style>
<g>
	<g>
		<g>
			<path class="st0" d="M149.632,39.058c3.694,14.063,9.271,27.384,16.51,39.548c2.745-2.15,5.429-4.183,8.026-6.082
				C161.751,51.178,154.616,26.39,154.616,0h-9.968c0,26.39-7.135,51.178-19.552,72.524c2.596,1.899,5.281,3.946,8.025,6.082
				C140.36,66.442,145.938,53.121,149.632,39.058z"/>
			<path class="st0" d="M226.754,125.096c-2.937-1.647-5.786-3.442-8.529-5.34c-2.996-2.003-5.83-4.139-8.634-6.379
				c-2.64-2.047-5.192-4.183-7.684-6.482c-3.293-3.041-6.482-6.231-9.524-9.524c-2.596,1.839-5.28,3.886-7.981,6.037
				c3.59,4.035,7.432,7.877,11.467,11.422c2.447,2.24,4.984,4.435,7.625,6.483c2.788,2.239,5.681,4.346,8.633,6.378
				c2.789,1.899,5.637,3.694,8.53,5.429c12.223,7.239,25.485,12.817,39.547,16.511c-14.062,3.694-27.339,9.271-39.547,16.51
				c-2.893,1.75-5.741,3.545-8.53,5.429c-2.937,2.048-5.829,4.139-8.633,6.379c-2.641,2.047-5.192,4.242-7.625,6.483
				c-4.034,3.545-7.877,7.387-11.467,11.422c2.7,2.15,5.385,4.183,7.981,6.037c3.042-3.294,6.231-6.483,9.524-9.524
				c2.492-2.299,5.044-4.435,7.684-6.483c2.789-2.239,5.637-4.391,8.634-6.378c2.744-1.899,5.592-3.694,8.529-5.34
				c21.347-12.416,46.09-19.552,72.524-19.552v-9.968C272.844,144.648,248.101,137.512,226.754,125.096z"/>
			<path class="st0" d="M81.053,179.508c2.996,2.002,5.83,4.139,8.634,6.378c2.64,2.048,5.192,4.183,7.684,6.483
				c3.293,3.041,6.483,6.23,9.524,9.524c2.596-1.839,5.28-3.887,7.981-6.037c-3.59-4.035-7.432-7.877-11.467-11.422
				c-2.448-2.24-4.984-4.436-7.625-6.483c-2.788-2.24-5.681-4.347-8.633-6.379c-2.789-1.899-5.637-3.694-8.529-5.429
				c-12.224-7.239-25.485-12.816-39.548-16.51c14.063-3.694,27.339-9.272,39.548-16.511c2.892-1.75,5.74-3.545,8.529-5.429
				c2.937-2.047,5.829-4.139,8.633-6.378c2.641-2.047,5.192-4.242,7.625-6.483c4.035-3.545,7.877-7.387,11.467-11.422
				c-2.7-2.151-5.385-4.183-7.981-6.037c-3.041,3.293-6.231,6.483-9.524,9.524c-2.492,2.299-5.044,4.435-7.684,6.482
				c-2.789,2.24-5.637,4.391-8.634,6.379c-2.744,1.899-5.592,3.694-8.529,5.34C51.178,137.512,26.434,144.648,0,144.648v9.968
				c26.434,0,51.178,7.135,72.524,19.552C75.461,175.813,78.309,177.608,81.053,179.508z"/>
			<path class="st0" d="M149.632,260.22c-3.694-14.063-9.272-27.384-16.511-39.548c-2.744,2.15-5.429,4.183-8.025,6.082
				c12.416,21.346,19.552,46.134,19.552,72.524h9.968c0-26.39,7.135-51.178,19.552-72.524c-2.596-1.899-5.281-3.946-8.026-6.082
				C158.903,232.836,153.325,246.157,149.632,260.22z"/>
			<path class="st0" d="M223.951,187.696c-2.937,1.988-5.83,4.139-8.634,6.438c12.372,18.602,18.053,33.362,20.546,41.743
				c-8.381-2.492-23.141-8.174-41.743-20.545c-2.64-1.795-5.385-3.694-8.233-5.741c-2.596-1.899-5.192-3.886-7.936-6.082
				c-2.492-2.003-5.088-4.139-7.729-6.379c-1.839-1.602-3.738-3.293-5.681-5.043h-0.045c-2.388-2.196-4.791-4.435-7.24-6.839
				l24.788-24.788l3.189-3.189c2.388,2.448,4.688,4.895,6.839,7.239h0.044c1.691,1.943,3.397,3.842,4.985,5.741
				c2.788-2.24,5.681-4.391,8.633-6.379c-1.899-2.24-3.886-4.54-6.082-6.883c-2.151-2.344-4.391-4.896-6.779-7.329
				c2.388-2.448,4.643-4.984,6.779-7.328c2.196-2.344,4.183-4.643,6.082-6.883c-2.937-2.003-5.829-4.139-8.633-6.379
				c-1.602,1.899-3.294,3.798-4.985,5.741h-0.044c-2.151,2.344-4.436,4.791-6.839,7.239l-3.189-3.189l-24.788-24.788
				c2.448-2.388,4.836-4.643,7.24-6.839h0.045c1.943-1.75,3.842-3.442,5.681-5.044c2.64-2.239,5.237-4.391,7.729-6.378
				c2.744-2.196,5.34-4.183,7.936-6.082c2.848-2.048,5.593-3.946,8.233-5.741c18.602-12.372,33.362-18.053,41.743-20.545
				c-2.493,8.381-8.174,23.142-20.546,41.744c2.789,2.299,5.682,4.435,8.634,6.437c21.495-31.967,24.239-53.521,24.388-54.723
				l0.801-6.735l-6.734,0.801c-1.202,0.148-22.741,2.893-54.723,24.388c-2.64,1.75-5.385,3.634-8.173,5.74
				c-2.596,1.899-5.237,3.887-7.937,6.082c-2.537,1.988-5.132,4.139-7.788,6.438c-2.24,1.839-4.539,3.887-6.838,6.037h-0.045
				c-2.388,2.151-4.791,4.436-7.24,6.839l-0.045-0.045l-0.045,0.045c-2.448-2.388-4.836-4.688-7.239-6.839h-0.045
				c-2.299-2.15-4.583-4.183-6.838-6.037c-2.641-2.299-5.237-4.435-7.788-6.438c-2.7-2.195-5.34-4.183-7.937-6.082
				c-2.788-2.091-5.533-3.99-8.173-5.74C79.585,53.863,58.031,51.118,56.829,50.97l-6.735-0.801l0.801,6.735
				c0.148,1.202,2.893,22.741,24.387,54.723c2.937-1.988,5.83-4.139,8.633-6.437C71.545,86.587,65.863,71.827,63.371,63.445
				c8.381,2.492,23.141,8.174,41.743,20.545c2.64,1.795,5.385,3.694,8.233,5.741c2.596,1.899,5.191,3.886,7.936,6.082
				c2.492,2.002,5.088,4.139,7.729,6.378c1.839,1.602,3.738,3.294,5.681,5.044h0.045c2.388,2.196,4.791,4.435,7.24,6.839
				l-24.788,24.788L114,142.051c-2.388-2.448-4.688-4.895-6.839-7.239h-0.045c-1.691-1.943-3.396-3.842-4.984-5.741
				c-2.788,2.24-5.681,4.391-8.633,6.379c1.899,2.239,3.886,4.539,6.082,6.883c2.15,2.344,4.391,4.896,6.779,7.328
				c-2.388,2.448-4.643,4.985-6.779,7.329c-2.196,2.343-4.183,4.642-6.082,6.883c2.937,2.003,5.829,4.139,8.633,6.379
				c1.602-1.899,3.294-3.798,4.984-5.741h0.045c2.151-2.344,4.436-4.791,6.839-7.239l3.189,3.189l24.788,24.788
				c-2.448,2.388-4.837,4.643-7.24,6.839h-0.045c-1.943,1.75-3.842,3.442-5.681,5.043c-2.64,2.24-5.237,4.391-7.729,6.379
				c-2.745,2.196-5.34,4.183-7.936,6.082c-2.848,2.047-5.593,3.946-8.233,5.741c-18.602,12.371-33.362,18.053-41.743,20.545
				c2.492-8.381,8.174-23.142,20.545-41.743c-2.788-2.299-5.681-4.435-8.633-6.438c-21.495,31.968-24.239,53.522-24.387,54.723
				l-0.801,6.734l6.735-0.801c1.202-0.148,22.741-2.893,54.723-24.388c2.64-1.75,5.385-3.634,8.173-5.74
				c2.596-1.899,5.237-3.887,7.937-6.083c2.537-1.988,5.132-4.138,7.788-6.437c2.239-1.839,4.539-3.887,6.838-6.038h0.045
				c2.388-2.15,4.791-4.435,7.239-6.838l0.045,0.045l0.045-0.045c2.448,2.388,4.836,4.688,7.24,6.838h0.045
				c2.299,2.151,4.583,4.183,6.838,6.038c2.64,2.299,5.237,4.435,7.788,6.437c2.7,2.196,5.34,4.183,7.937,6.083
				c2.788,2.091,5.533,3.99,8.173,5.74c31.967,21.495,53.522,24.239,54.723,24.388l6.734,0.801l-0.801-6.734
				C248.189,241.217,245.445,219.678,223.951,187.696z M152.88,174.478l-3.248,3.249l-3.249-3.249l-21.598-21.598l-3.248-3.248
				l3.248-3.249l21.598-21.598l3.249-3.248l3.248,3.248l21.598,21.598l3.249,3.249l-3.249,3.248L152.88,174.478z"/>
		</g>
	</g>
</g>
</svg>
