<svg width="95" height="95" viewBox="0 0 95 95" fill="none" xmlns="http://www.w3.org/2000/svg">
<path fill-rule="evenodd" clip-rule="evenodd" d="M1.77617 59.1826L62.7227 63.313C63.1185 63.4309 63.4788 63.6456 63.7708 63.9377C64.0629 64.2297 64.2775 64.5899 64.3954 64.9858L68.5259 78.8555C68.6787 79.3686 68.9932 79.8186 69.4224 80.1387C69.8516 80.4587 70.3727 80.6316 70.9082 80.6316C71.4436 80.6316 71.9647 80.4587 72.3939 80.1387C72.8231 79.8186 73.1376 79.3686 73.2904 78.8555L77.4209 64.9858C77.5388 64.5899 77.7534 64.2297 78.0455 63.9377C78.3376 63.6456 78.6978 63.4309 79.0936 63.313L92.9633 59.1826C93.4764 59.0297 93.9265 58.7153 94.2466 58.2861C94.5666 57.8568 94.7395 57.3357 94.7395 56.8003C94.7395 56.2649 94.5666 55.7438 94.2466 55.3146C93.9265 54.8853 93.4764 54.5709 92.9633 54.4181L79.0937 50.2876C78.6978 50.1697 78.3376 49.955 78.0455 49.663C77.7535 49.3709 77.5388 49.0107 77.4209 48.6148L73.2904 34.7452C73.1376 34.232 72.8232 33.7819 72.3939 33.4619C71.9647 33.1419 71.4436 32.969 70.9082 32.969C70.3728 32.969 69.8517 33.1419 69.4224 33.4619C68.9932 33.7819 68.6788 34.232 68.526 34.7452L64.3954 48.6148C64.2776 49.0107 64.0629 49.3709 63.7708 49.663C63.4788 49.955 63.1185 50.1697 62.7227 50.2876L1.77618 54.4181C1.26305 54.5709 0.812956 54.8853 0.49292 55.3146C0.172884 55.7438 2.24755e-06 56.2649 0 56.8003C-2.24751e-06 57.3357 0.172887 57.8568 0.49292 58.2861C0.812953 58.7153 1.26303 59.0297 1.77617 59.1826Z" fill="black"/>
<path fill-rule="evenodd" clip-rule="evenodd" d="M32.1637 29.4868L40.3578 31.9271C40.5917 31.9967 40.8045 32.1236 40.977 32.2961C41.1496 32.4687 41.2764 32.6815 41.3461 32.9154L43.7863 41.1095C43.8766 41.4126 44.0624 41.6785 44.316 41.8676C44.5696 42.0567 44.8774 42.1588 45.1937 42.1588C45.5101 42.1588 45.8179 42.0567 46.0715 41.8676C46.3251 41.6785 46.5109 41.4126 46.6011 41.1095L49.0414 32.9154C49.1111 32.6815 49.2379 32.4687 49.4104 32.2961C49.583 32.1236 49.7958 31.9967 50.0297 31.9271L58.2238 29.4868C58.5269 29.3966 58.7928 29.2108 58.9819 28.9572C59.171 28.7036 59.2731 28.3958 59.2731 28.0794C59.2731 27.7631 59.171 27.4553 58.9819 27.2017C58.7928 26.9481 58.5269 26.7623 58.2238 26.672L50.0296 24.2317C49.7958 24.1621 49.5829 24.0352 49.4104 23.8627C49.2379 23.6902 49.111 23.4773 49.0414 23.2434L46.6011 15.0493C46.5108 14.7462 46.325 14.4803 46.0715 14.2912C45.8179 14.1021 45.51 14 45.1937 14C44.8774 14 44.5695 14.1021 44.3159 14.2912C44.0623 14.4803 43.8766 14.7462 43.7863 15.0493L41.346 23.2434C41.2764 23.4773 41.1495 23.6902 40.977 23.8627C40.8044 24.0352 40.5916 24.1621 40.3578 24.2317L32.1637 26.672C31.8605 26.7622 31.5946 26.948 31.4055 27.2016C31.2164 27.4552 31.1143 27.7631 31.1143 28.0794C31.1143 28.3958 31.2164 28.7037 31.4055 28.9572C31.5946 29.2108 31.8605 29.3966 32.1637 29.4868Z" fill="black"/>
</svg>
