<svg xmlns="http://www.w3.org/2000/svg" width="34" height="34" fill="none">
  <g clip-path="url(#logo-mobile_svg__a)">
    <g fill="#999" clip-path="url(#logo-mobile_svg__b)">
      <path
        d="m19.968 1.326.887 2.077a17.2 17.2 0 0 0 9.067 9.067l2.077.887c.544.232.985.564 1.326.96C32.291 6.9 26.425 1.034 19.008 0c.395.34.728.782.96 1.326ZM1.326 13.357l2.077-.887a17.203 17.203 0 0 0 9.068-9.067l.886-2.077A3.6 3.6 0 0 1 14.317 0C6.9 1.034 1.034 6.9 0 14.317c.34-.396.782-.728 1.326-.96ZM32 19.965l-2.078.887a17.2 17.2 0 0 0-9.067 9.068l-.887 2.076a3.599 3.599 0 0 1-.96 1.327c7.417-1.035 13.283-6.901 14.317-14.318-.34.396-.782.728-1.326.96ZM13.357 31.997l-.886-2.077a17.204 17.204 0 0 0-9.068-9.068l-2.077-.887A3.587 3.587 0 0 1 0 19.005c1.034 7.417 6.9 13.284 14.317 14.318a3.61 3.61 0 0 1-.96-1.326Z"
      />
    </g>
    <path
      fill="#000"
      d="m9.103 15.033 1.023-.437a8.478 8.478 0 0 0 4.469-4.468l.436-1.023c.612-1.434 2.645-1.434 3.257 0l.436 1.023a8.478 8.478 0 0 0 4.469 4.468l1.024.437c1.433.612 1.433 2.644 0 3.256l-1.024.437a8.476 8.476 0 0 0-4.469 4.469l-.436 1.023c-.612 1.433-2.645 1.433-3.257 0l-.436-1.023a8.476 8.476 0 0 0-4.469-4.469l-1.023-.437c-1.434-.612-1.434-2.644 0-3.256Z"
    />
  </g>
  <defs>
    <clipPath id="logo-mobile_svg__a">
      <path fill="#fff" d="M0 0h33.323v33.323H0z" />
    </clipPath>
    <clipPath id="logo-mobile_svg__b">
      <path fill="#fff" d="M0 0h33.323v33.323H0z" />
    </clipPath>
  </defs>
</svg>