<svg width="179" height="50" fill="none" xmlns="http://www.w3.org/2000/svg"><g clip-path="url(#a)"><path d="m175.694 13.197-55.567-6.18a2.64 2.64 0 0 0-2.501 4.064l29.229 44.722a2.638 2.638 0 0 0 2.8 1.128l.008-.002a2.639 2.639 0 0 0 2.02-2.252l2.875-23.756 22.164-12.818a2.638 2.638 0 0 0-1.029-4.906h.001Z" fill="#fff"/><path d="M34.943 19.024c-1.54 0-2.66.364-3.61 1.203l-1.678 1.455c-.14.113-.42.196-.616.028s-.224-.392-.055-.615l.895-1.343c.14-.197.028-.448-.225-.448H27.5a.443.443 0 0 0-.448.448v13.096c0 .25.197.447.448.447h2.238a.443.443 0 0 0 .448-.447V25.46c0-3.386 2.827-3.918 3.89-3.918 2.265 0 3.077 1.624 3.077 2.855v8.45c0 .252.197.448.448.448h2.238a.443.443 0 0 0 .447-.447v-8.731c0-3.134-2.042-5.093-5.345-5.093h.002ZM49.41 18.967c-4.338 0-7.108 2.659-7.108 6.268v1.987c0 3.806 2.77 6.408 7.107 6.408 3.834 0 6.52-1.987 6.8-4.673.028-.28-.167-.476-.448-.476H53.58a.42.42 0 0 0-.42.309c-.28.895-1.595 2.238-3.75 2.238-2.154 0-4.17-1.567-4.141-3.806l.028-2.49c.028-1.875 1.987-3.162 4.113-3.162 1.932 0 3.806 1.092 4.001 2.883a.41.41 0 0 1-.33.433l-6.274 1.218a.573.573 0 0 0-.448.559v.028c0 .251.252.475.615.475h9.012a.448.448 0 0 0 .447-.447v-1.763c0-3.33-2.882-5.988-7.024-5.988l.001-.001ZM65.024 18.967c-3.498 0-6.52 2.043-6.52 4.729 0 .224.197.391.448.391h2.266c.224 0 .392-.167.42-.391.224-1.232 1.707-2.127 3.302-2.127 1.902 0 3.19 1.175 3.19 3.19v2.435c0 2.49-1.847 3.75-4.141 3.75-1.79 0-2.827-.672-2.827-1.763 0-.95.504-1.762 2.575-2.238l2.994-.811c.308-.084.42-.337.364-.616-.028-.224-.28-.335-.504-.335h-3.106c-2.63 0-5.289 1.678-5.289 4.141v.392c0 2.519 2.38 3.834 5.093 3.834 1.735 0 3.218-.672 4.142-1.455l1.372-1.176c.224-.196.447-.196.643 0 .167.168.111.42-.028.615l-.84 1.315c-.14.197-.028.448.225.448h2.015a.443.443 0 0 0 .447-.448V24.37c0-3.245-2.322-5.401-6.24-5.401l-.001-.001ZM83.352 19.303h-3.134c-1.09 0-2.154.672-2.91 1.315l-1.231 1.063c-.14.113-.392.196-.56.055-.197-.139-.28-.42-.112-.644l.895-1.343c.14-.196.028-.447-.224-.447h-2.1a.443.443 0 0 0-.447.447v13.096c0 .252.197.448.448.448h2.295a.443.443 0 0 0 .448-.448V26.13c0-2.882 1.175-4.17 3.722-4.17h2.91a.443.443 0 0 0 .448-.447V19.75a.443.443 0 0 0-.448-.447ZM18.641 16.148c-.752 0-1.45.389-1.844 1.03l-4.244 6.302a.45.45 0 0 0 .67.591l4.177-3.623a.169.169 0 0 1 .282.128v11.345a.168.168 0 0 1-.17.169.167.167 0 0 1-.13-.06L4.757 16.913a2.162 2.162 0 0 0-1.651-.767h-.442A2.163 2.163 0 0 0 .5 18.31V34.29a2.163 2.163 0 0 0 4.007 1.13l4.244-6.3a.45.45 0 0 0-.67-.592L3.903 32.15a.169.169 0 0 1-.281-.128V20.675c0-.094.076-.168.17-.168.05 0 .097.022.129.06l12.627 15.12a2.171 2.171 0 0 0 1.651.765h.442a2.165 2.165 0 0 0 2.165-2.161V18.31a2.163 2.163 0 0 0-2.164-2.163h-.001ZM91.454 18.973c4.145 0 6.026 2.54 6.204 4.736v.411h-2.25c-.138-1.454-1.181-3.157-3.9-3.157-2.718 0-4.584 1.868-4.584 5.34 0 3.474 1.77 5.327 4.585 5.327 2.813 0 3.747-1.674 3.926-3.24H97.7v.412c-.22 2.28-2.06 4.819-6.246 4.819-4.187 0-6.96-2.582-6.96-7.317 0-4.736 2.773-7.33 6.96-7.33v-.001ZM106.053 18.973c4.242 0 7.124 2.608 7.124 7.33 0 4.721-2.882 7.317-7.124 7.317-4.241 0-7.124-2.608-7.124-7.317 0-4.71 2.869-7.33 7.124-7.33Zm0 12.67c2.787 0 4.667-1.88 4.667-5.34 0-3.458-1.88-5.34-4.667-5.34s-4.681 1.868-4.681 5.34c0 3.474 1.88 5.34 4.681 5.34ZM117.447 19.303v1.798h.22c1.002-1.523 2.69-2.114 4.681-2.114 3.253 0 5.284 1.647 5.284 5.065v9.238h-2.416v-9.006c0-2.279-1.235-3.28-3.418-3.28-2.388 0-4.282 1.414-4.282 4.476v7.81h-2.417V19.304h2.348Z" fill="#000"/><path d="M144.9 36.122h-14.369v-2.411l7.402-6.713c2.056-1.884 3.315-3.135 3.315-5.008 0-1.873-1.224-2.849-3.358-2.849-2.377 0-3.712 1.18-3.76 3.322l-.004.153h-3.366v-.558c.106-3.64 2.855-5.898 7.171-5.898 4.316 0 6.822 2.12 6.822 5.668 0 3.55-2.215 5.33-5.019 7.733l-.146.125-3.941 3.469h9.253v2.967Zm-14.057-.312h13.744v-2.344h-9.767l4.711-4.141c2.743-2.35 4.91-4.207 4.91-7.497 0-3.289-2.434-5.356-6.51-5.356-4.077 0-6.757 2.09-6.859 5.589v.242h2.752c.114-2.21 1.587-3.474 4.067-3.474 2.299 0 3.671 1.181 3.671 3.16s-1.291 3.29-3.417 5.24l-7.3 6.62v1.961h-.002Z" fill="#7269E1" stroke="#7269E1" stroke-width=".5"/><path d="m151.638 26.356-1.183-.16-.16-1.183c-.018-.135-.214-.135-.231 0l-.159 1.184-1.184.16c-.135.018-.135.213 0 .23l1.184.16.159 1.184c.019.134.214.134.231 0l.16-1.184 1.183-.16c.135-.018.135-.213 0-.23Z" fill="#7269E1"/><mask id="b" style="mask-type:luminance" maskUnits="userSpaceOnUse" x="117" y="7" width="62" height="50"><path d="m175.694 13.197-55.567-6.18a2.64 2.64 0 0 0-2.501 4.064l29.229 44.722a2.638 2.638 0 0 0 2.8 1.128l.008-.002a2.639 2.639 0 0 0 2.02-2.252l2.875-23.756 22.164-12.818a2.638 2.638 0 0 0-1.029-4.906h.001Z" fill="#fff"/></mask><g mask="url(#b)"><path d="m154.367 24.06 6.095-5.042v-2.523h-14.073v2.967h9.248l-5.559 4.627v.146h.312l6.11-5.085h-9.799v-2.344h13.451v2.064l-6.649 5.501h.715c3.685 0 5.975 2.114 5.975 5.517-.013 3.91-2.633 6.243-7.007 6.243s-7.14-2.262-7.181-5.625v-.247h2.7c.145 2.149 1.871 3.528 4.44 3.528 2.57 0 4.233-1.442 4.248-3.858 0-2.315-1.67-3.643-4.583-3.643h-.445v.312h.445c2.754 0 4.271 1.183 4.271 3.33-.013 2.22-1.485 3.547-3.935 3.547-2.449 0-4.069-1.325-4.135-3.376l-.005-.151h-3.312v.56c.043 3.55 3.055 5.936 7.493 5.936 4.438 0 7.304-2.45 7.318-6.555 0-3.55-2.346-5.771-6.135-5.828h-.003Z" fill="#7269E1" stroke="#7269E1" stroke-width=".5"/></g></g><defs><clipPath id="a"><path fill="#fff" d="M.5 0h177.541v50H.5z"/></clipPath></defs></svg>
