<svg width="341" height="145" viewBox="0 0 341 145" fill="none" xmlns="http://www.w3.org/2000/svg">
<mask id="path-1-outside-1_89_3393" maskUnits="userSpaceOnUse" x="-1" y="-1" width="343" height="147" fill="black">
<rect fill="white" x="-1" y="-1" width="343" height="147"/>
<path d="M3.5443 63V52.56H11.8243V10.44H3.5443V-4.29153e-06H29.4643C37.9243 -4.29153e-06 44.3443 2.16 48.7243 6.48C53.1643 10.74 55.3843 17.1 55.3843 25.56V37.44C55.3843 45.9 53.1643 52.29 48.7243 56.61C44.3443 60.87 37.9243 63 29.4643 63H3.5443ZM23.7043 52.2H29.6443C34.4443 52.2 37.9543 50.94 40.1743 48.42C42.3943 45.9 43.5043 42.36 43.5043 37.8V25.2C43.5043 20.58 42.3943 17.04 40.1743 14.58C37.9543 12.06 34.4443 10.8 29.6443 10.8H23.7043V52.2ZM60.4384 63L76.9984 -4.29153e-06H97.6984L114.258 63H102.018L98.5984 49.14H76.0984L72.6784 63H60.4384ZM78.8884 38.16H95.8084L88.1584 7.47H86.5384L78.8884 38.16ZM121.799 63V-4.29153e-06H147.719C151.679 -4.29153e-06 155.159 0.809996 158.159 2.43C161.219 3.99 163.589 6.21 165.269 9.09C167.009 11.97 167.879 15.39 167.879 19.35V20.61C167.879 24.51 166.979 27.93 165.179 30.87C163.439 33.75 161.039 36 157.979 37.62C154.979 39.18 151.559 39.96 147.719 39.96H133.679V63H121.799ZM133.679 29.16H146.549C149.369 29.16 151.649 28.38 153.389 26.82C155.129 25.26 155.999 23.13 155.999 20.43V19.53C155.999 16.83 155.129 14.7 153.389 13.14C151.649 11.58 149.369 10.8 146.549 10.8H133.679V29.16ZM173.964 63V52.56H182.244V10.44H173.964V-4.29153e-06H199.884C208.344 -4.29153e-06 214.764 2.16 219.144 6.48C223.584 10.74 225.804 17.1 225.804 25.56V37.44C225.804 45.9 223.584 52.29 219.144 56.61C214.764 60.87 208.344 63 199.884 63H173.964ZM194.124 52.2H200.064C204.864 52.2 208.374 50.94 210.594 48.42C212.814 45.9 213.924 42.36 213.924 37.8V25.2C213.924 20.58 212.814 17.04 210.594 14.58C208.374 12.06 204.864 10.8 200.064 10.8H194.124V52.2ZM230.858 63L247.418 -4.29153e-06H268.118L284.678 63H272.438L269.018 49.14H246.518L243.098 63H230.858ZM249.308 38.16H266.228L258.578 7.47H256.958L249.308 38.16ZM292.219 63V-4.29153e-06H318.139C322.099 -4.29153e-06 325.579 0.809996 328.579 2.43C331.639 3.99 334.009 6.21 335.689 9.09C337.429 11.97 338.299 15.39 338.299 19.35V20.61C338.299 24.51 337.399 27.93 335.599 30.87C333.859 33.75 331.459 36 328.399 37.62C325.399 39.18 321.979 39.96 318.139 39.96H304.099V63H292.219ZM304.099 29.16H316.969C319.789 29.16 322.069 28.38 323.809 26.82C325.549 25.26 326.419 23.13 326.419 20.43V19.53C326.419 16.83 325.549 14.7 323.809 13.14C322.069 11.58 319.789 10.8 316.969 10.8H304.099V29.16ZM19.0163 144.12C13.2563 144.12 8.66958 142.547 5.25625 139.4C1.89625 136.253 0.21625 131.853 0.21625 126.2V120.92H10.7763V126.2C10.7763 128.707 11.4696 130.68 12.8563 132.12C14.2429 133.507 16.1896 134.2 18.6963 134.2C21.0429 134.2 22.8563 133.507 24.1363 132.12C25.4696 130.733 26.1363 128.76 26.1363 126.2V96.6H16.5363V87H43.0963V96.6H36.6963V126.2C36.6963 132.013 35.1229 136.467 31.9763 139.56C28.8296 142.6 24.5096 144.12 19.0163 144.12ZM44.8775 143L59.5975 87H77.9975L92.7175 143H81.8375L78.7975 130.68H58.7975L55.7575 143H44.8775ZM61.2775 120.92H76.3175L69.5175 93.64H68.0775L61.2775 120.92ZM120.232 144.12C113.299 144.12 107.805 142.2 103.752 138.36C99.6985 134.467 97.6719 128.92 97.6719 121.72V108.28C97.6719 101.08 99.6985 95.56 103.752 91.72C107.805 87.8267 113.299 85.88 120.232 85.88C127.112 85.88 132.419 87.7733 136.152 91.56C139.939 95.2933 141.832 100.44 141.832 107V107.48H131.432V106.68C131.432 103.373 130.499 100.653 128.632 98.52C126.819 96.3867 124.019 95.32 120.232 95.32C116.499 95.32 113.565 96.4667 111.432 98.76C109.299 101.053 108.232 104.173 108.232 108.12V121.88C108.232 125.773 109.299 128.893 111.432 131.24C113.565 133.533 116.499 134.68 120.232 134.68C124.019 134.68 126.819 133.613 128.632 131.48C130.499 129.293 131.432 126.573 131.432 123.32V121.88H141.832V123C141.832 129.56 139.939 134.733 136.152 138.52C132.419 142.253 127.112 144.12 120.232 144.12ZM150.436 143V87H160.996V109.24H162.436L180.596 87H194.116L170.756 114.6L194.916 143H180.996L162.436 120.28H160.996V143H150.436ZM200.514 143V87H223.554C227.074 87 230.168 87.72 232.834 89.16C235.554 90.5467 237.661 92.52 239.154 95.08C240.701 97.64 241.474 100.68 241.474 104.2V105.32C241.474 108.787 240.674 111.827 239.074 114.44C237.528 117 235.394 119 232.674 120.44C230.008 121.827 226.968 122.52 223.554 122.52H211.074V143H200.514ZM211.074 112.92H222.514C225.021 112.92 227.048 112.227 228.594 110.84C230.141 109.453 230.914 107.56 230.914 105.16V104.36C230.914 101.96 230.141 100.067 228.594 98.68C227.048 97.2933 225.021 96.6 222.514 96.6H211.074V112.92ZM270.556 144.12C263.516 144.12 257.916 142.2 253.756 138.36C249.596 134.467 247.516 128.92 247.516 121.72V108.28C247.516 101.08 249.596 95.56 253.756 91.72C257.916 87.8267 263.516 85.88 270.556 85.88C277.596 85.88 283.196 87.8267 287.356 91.72C291.516 95.56 293.596 101.08 293.596 108.28V121.72C293.596 128.92 291.516 134.467 287.356 138.36C283.196 142.2 277.596 144.12 270.556 144.12ZM270.556 134.68C274.502 134.68 277.569 133.533 279.756 131.24C281.942 128.947 283.036 125.88 283.036 122.04V107.96C283.036 104.12 281.942 101.053 279.756 98.76C277.569 96.4667 274.502 95.32 270.556 95.32C266.662 95.32 263.596 96.4667 261.356 98.76C259.169 101.053 258.076 104.12 258.076 107.96V122.04C258.076 125.88 259.169 128.947 261.356 131.24C263.596 133.533 266.662 134.68 270.556 134.68ZM313.553 143V96.6H297.233V87H340.433V96.6H324.113V143H313.553Z"/>
</mask>
<path d="M3.5443 63V52.56H11.8243V10.44H3.5443V-4.29153e-06H29.4643C37.9243 -4.29153e-06 44.3443 2.16 48.7243 6.48C53.1643 10.74 55.3843 17.1 55.3843 25.56V37.44C55.3843 45.9 53.1643 52.29 48.7243 56.61C44.3443 60.87 37.9243 63 29.4643 63H3.5443ZM23.7043 52.2H29.6443C34.4443 52.2 37.9543 50.94 40.1743 48.42C42.3943 45.9 43.5043 42.36 43.5043 37.8V25.2C43.5043 20.58 42.3943 17.04 40.1743 14.58C37.9543 12.06 34.4443 10.8 29.6443 10.8H23.7043V52.2ZM60.4384 63L76.9984 -4.29153e-06H97.6984L114.258 63H102.018L98.5984 49.14H76.0984L72.6784 63H60.4384ZM78.8884 38.16H95.8084L88.1584 7.47H86.5384L78.8884 38.16ZM121.799 63V-4.29153e-06H147.719C151.679 -4.29153e-06 155.159 0.809996 158.159 2.43C161.219 3.99 163.589 6.21 165.269 9.09C167.009 11.97 167.879 15.39 167.879 19.35V20.61C167.879 24.51 166.979 27.93 165.179 30.87C163.439 33.75 161.039 36 157.979 37.62C154.979 39.18 151.559 39.96 147.719 39.96H133.679V63H121.799ZM133.679 29.16H146.549C149.369 29.16 151.649 28.38 153.389 26.82C155.129 25.26 155.999 23.13 155.999 20.43V19.53C155.999 16.83 155.129 14.7 153.389 13.14C151.649 11.58 149.369 10.8 146.549 10.8H133.679V29.16ZM173.964 63V52.56H182.244V10.44H173.964V-4.29153e-06H199.884C208.344 -4.29153e-06 214.764 2.16 219.144 6.48C223.584 10.74 225.804 17.1 225.804 25.56V37.44C225.804 45.9 223.584 52.29 219.144 56.61C214.764 60.87 208.344 63 199.884 63H173.964ZM194.124 52.2H200.064C204.864 52.2 208.374 50.94 210.594 48.42C212.814 45.9 213.924 42.36 213.924 37.8V25.2C213.924 20.58 212.814 17.04 210.594 14.58C208.374 12.06 204.864 10.8 200.064 10.8H194.124V52.2ZM230.858 63L247.418 -4.29153e-06H268.118L284.678 63H272.438L269.018 49.14H246.518L243.098 63H230.858ZM249.308 38.16H266.228L258.578 7.47H256.958L249.308 38.16ZM292.219 63V-4.29153e-06H318.139C322.099 -4.29153e-06 325.579 0.809996 328.579 2.43C331.639 3.99 334.009 6.21 335.689 9.09C337.429 11.97 338.299 15.39 338.299 19.35V20.61C338.299 24.51 337.399 27.93 335.599 30.87C333.859 33.75 331.459 36 328.399 37.62C325.399 39.18 321.979 39.96 318.139 39.96H304.099V63H292.219ZM304.099 29.16H316.969C319.789 29.16 322.069 28.38 323.809 26.82C325.549 25.26 326.419 23.13 326.419 20.43V19.53C326.419 16.83 325.549 14.7 323.809 13.14C322.069 11.58 319.789 10.8 316.969 10.8H304.099V29.16ZM19.0163 144.12C13.2563 144.12 8.66958 142.547 5.25625 139.4C1.89625 136.253 0.21625 131.853 0.21625 126.2V120.92H10.7763V126.2C10.7763 128.707 11.4696 130.68 12.8563 132.12C14.2429 133.507 16.1896 134.2 18.6963 134.2C21.0429 134.2 22.8563 133.507 24.1363 132.12C25.4696 130.733 26.1363 128.76 26.1363 126.2V96.6H16.5363V87H43.0963V96.6H36.6963V126.2C36.6963 132.013 35.1229 136.467 31.9763 139.56C28.8296 142.6 24.5096 144.12 19.0163 144.12ZM44.8775 143L59.5975 87H77.9975L92.7175 143H81.8375L78.7975 130.68H58.7975L55.7575 143H44.8775ZM61.2775 120.92H76.3175L69.5175 93.64H68.0775L61.2775 120.92ZM120.232 144.12C113.299 144.12 107.805 142.2 103.752 138.36C99.6985 134.467 97.6719 128.92 97.6719 121.72V108.28C97.6719 101.08 99.6985 95.56 103.752 91.72C107.805 87.8267 113.299 85.88 120.232 85.88C127.112 85.88 132.419 87.7733 136.152 91.56C139.939 95.2933 141.832 100.44 141.832 107V107.48H131.432V106.68C131.432 103.373 130.499 100.653 128.632 98.52C126.819 96.3867 124.019 95.32 120.232 95.32C116.499 95.32 113.565 96.4667 111.432 98.76C109.299 101.053 108.232 104.173 108.232 108.12V121.88C108.232 125.773 109.299 128.893 111.432 131.24C113.565 133.533 116.499 134.68 120.232 134.68C124.019 134.68 126.819 133.613 128.632 131.48C130.499 129.293 131.432 126.573 131.432 123.32V121.88H141.832V123C141.832 129.56 139.939 134.733 136.152 138.52C132.419 142.253 127.112 144.12 120.232 144.12ZM150.436 143V87H160.996V109.24H162.436L180.596 87H194.116L170.756 114.6L194.916 143H180.996L162.436 120.28H160.996V143H150.436ZM200.514 143V87H223.554C227.074 87 230.168 87.72 232.834 89.16C235.554 90.5467 237.661 92.52 239.154 95.08C240.701 97.64 241.474 100.68 241.474 104.2V105.32C241.474 108.787 240.674 111.827 239.074 114.44C237.528 117 235.394 119 232.674 120.44C230.008 121.827 226.968 122.52 223.554 122.52H211.074V143H200.514ZM211.074 112.92H222.514C225.021 112.92 227.048 112.227 228.594 110.84C230.141 109.453 230.914 107.56 230.914 105.16V104.36C230.914 101.96 230.141 100.067 228.594 98.68C227.048 97.2933 225.021 96.6 222.514 96.6H211.074V112.92ZM270.556 144.12C263.516 144.12 257.916 142.2 253.756 138.36C249.596 134.467 247.516 128.92 247.516 121.72V108.28C247.516 101.08 249.596 95.56 253.756 91.72C257.916 87.8267 263.516 85.88 270.556 85.88C277.596 85.88 283.196 87.8267 287.356 91.72C291.516 95.56 293.596 101.08 293.596 108.28V121.72C293.596 128.92 291.516 134.467 287.356 138.36C283.196 142.2 277.596 144.12 270.556 144.12ZM270.556 134.68C274.502 134.68 277.569 133.533 279.756 131.24C281.942 128.947 283.036 125.88 283.036 122.04V107.96C283.036 104.12 281.942 101.053 279.756 98.76C277.569 96.4667 274.502 95.32 270.556 95.32C266.662 95.32 263.596 96.4667 261.356 98.76C259.169 101.053 258.076 104.12 258.076 107.96V122.04C258.076 125.88 259.169 128.947 261.356 131.24C263.596 133.533 266.662 134.68 270.556 134.68ZM313.553 143V96.6H297.233V87H340.433V96.6H324.113V143H313.553Z" fill="url(#paint0_linear_89_3393)" fill-opacity="0.2"/>
<path d="M3.5443 63H2.5443V64H3.5443V63ZM3.5443 52.56V51.56H2.5443V52.56H3.5443ZM11.8243 52.56V53.56H12.8243V52.56H11.8243ZM11.8243 10.44H12.8243V9.43999H11.8243V10.44ZM3.5443 10.44H2.5443V11.44H3.5443V10.44ZM3.5443 -3.8147e-06V-1H2.5443V-3.8147e-06H3.5443ZM48.7243 6.48L48.022 7.19203L48.032 7.20158L48.7243 6.48ZM48.7243 56.61L49.4215 57.3269L49.4217 57.3267L48.7243 56.61ZM23.7043 52.2H22.7043V53.2H23.7043V52.2ZM40.1743 48.42L40.9247 49.081L40.1743 48.42ZM40.1743 14.58L39.4239 15.2411L39.4319 15.25L40.1743 14.58ZM23.7043 10.8V9.8H22.7043V10.8H23.7043ZM4.5443 63V52.56H2.5443V63H4.5443ZM3.5443 53.56H11.8243V51.56H3.5443V53.56ZM12.8243 52.56V10.44H10.8243V52.56H12.8243ZM11.8243 9.43999H3.5443V11.44H11.8243V9.43999ZM4.5443 10.44V-3.8147e-06H2.5443V10.44H4.5443ZM3.5443 0.999996H29.4643V-1H3.5443V0.999996ZM29.4643 0.999996C37.762 0.999996 43.8903 3.11679 48.0221 7.19197L49.4265 5.76803C44.7983 1.2032 38.0866 -1 29.4643 -1V0.999996ZM48.032 7.20158C52.2107 11.2109 54.3843 17.2674 54.3843 25.56H56.3843C56.3843 16.9326 54.1179 10.2691 49.4166 5.75842L48.032 7.20158ZM54.3843 25.56V37.44H56.3843V25.56H54.3843ZM54.3843 37.44C54.3843 45.7316 52.2111 51.8222 48.0269 55.8933L49.4217 57.3267C54.1175 52.7578 56.3843 46.0684 56.3843 37.44H54.3843ZM48.0271 55.8931C43.8958 59.9113 37.7655 62 29.4643 62V64C38.0831 64 44.7928 61.8287 49.4215 57.3269L48.0271 55.8931ZM29.4643 62H3.5443V64H29.4643V62ZM23.7043 53.2H29.6443V51.2H23.7043V53.2ZM29.6443 53.2C34.6048 53.2 38.4446 51.8962 40.9247 49.081L39.4239 47.759C37.4639 49.9838 34.2838 51.2 29.6443 51.2V53.2ZM40.9247 49.081C43.3554 46.3219 44.5043 42.5157 44.5043 37.8H42.5043C42.5043 42.2043 41.4332 45.4781 39.4239 47.759L40.9247 49.081ZM44.5043 37.8V25.2H42.5043V37.8H44.5043ZM44.5043 25.2C44.5043 20.4302 43.358 16.6153 40.9167 13.91L39.4319 15.25C41.4306 17.4647 42.5043 20.7298 42.5043 25.2H44.5043ZM40.9247 13.919C38.4446 11.1038 34.6048 9.8 29.6443 9.8V11.8C34.2838 11.8 37.4639 13.0162 39.4239 15.241L40.9247 13.919ZM29.6443 9.8H23.7043V11.8H29.6443V9.8ZM22.7043 10.8V52.2H24.7043V10.8H22.7043ZM60.4384 63L59.4712 62.7458L59.1415 64H60.4384V63ZM76.9984 -3.8147e-06V-1H76.2272L76.0312 -0.254226L76.9984 -3.8147e-06ZM97.6984 -3.8147e-06L98.6655 -0.254226L98.4695 -1H97.6984V-3.8147e-06ZM114.258 63V64H115.555L115.226 62.7458L114.258 63ZM102.018 63L101.047 63.2396L101.235 64H102.018V63ZM98.5984 49.14L99.5692 48.9004L99.3816 48.14H98.5984V49.14ZM76.0984 49.14V48.14H75.3151L75.1275 48.9004L76.0984 49.14ZM72.6784 63V64H73.4616L73.6492 63.2396L72.6784 63ZM78.8884 38.16L77.9181 37.9181L77.6085 39.16H78.8884V38.16ZM95.8084 38.16V39.16H97.0882L96.7787 37.9181L95.8084 38.16ZM88.1584 7.47L89.1287 7.22813L88.9397 6.47H88.1584V7.47ZM86.5384 7.47V6.47H85.757L85.5681 7.22813L86.5384 7.47ZM61.4055 63.2542L77.9655 0.254217L76.0312 -0.254226L59.4712 62.7458L61.4055 63.2542ZM76.9984 0.999996H97.6984V-1H76.9984V0.999996ZM96.7312 0.254217L113.291 63.2542L115.226 62.7458L98.6655 -0.254226L96.7312 0.254217ZM114.258 62H102.018V64H114.258V62ZM102.989 62.7604L99.5692 48.9004L97.6275 49.3796L101.047 63.2396L102.989 62.7604ZM98.5984 48.14H76.0984V50.14H98.5984V48.14ZM75.1275 48.9004L71.7075 62.7604L73.6492 63.2396L77.0692 49.3796L75.1275 48.9004ZM72.6784 62H60.4384V64H72.6784V62ZM78.8884 39.16H95.8084V37.16H78.8884V39.16ZM96.7787 37.9181L89.1287 7.22813L87.188 7.71186L94.8381 38.4019L96.7787 37.9181ZM88.1584 6.47H86.5384V8.47H88.1584V6.47ZM85.5681 7.22813L77.9181 37.9181L79.8587 38.4019L87.5087 7.71186L85.5681 7.22813ZM121.799 63H120.799V64H121.799V63ZM121.799 -3.8147e-06V-1H120.799V-3.8147e-06H121.799ZM158.159 2.43L157.684 3.3099L157.695 3.31553L157.705 3.3209L158.159 2.43ZM165.269 9.09L164.406 9.59387L164.409 9.60052L164.413 9.60711L165.269 9.09ZM165.179 30.87L164.327 30.3478L164.323 30.3529L165.179 30.87ZM157.979 37.62L158.441 38.5072L158.447 38.5038L157.979 37.62ZM133.679 39.96V38.96H132.679V39.96H133.679ZM133.679 63V64H134.679V63H133.679ZM133.679 29.16H132.679V30.16H133.679V29.16ZM153.389 26.82L154.057 27.5646L153.389 26.82ZM153.389 13.14L154.057 12.3954L153.389 13.14ZM133.679 10.8V9.8H132.679V10.8H133.679ZM122.799 63V-3.8147e-06H120.799V63H122.799ZM121.799 0.999996H147.719V-1H121.799V0.999996ZM147.719 0.999996C151.54 0.999996 154.852 1.7806 157.684 3.3099L158.635 1.55009C155.467 -0.160608 151.818 -1 147.719 -1V0.999996ZM157.705 3.3209C160.6 4.7966 162.825 6.88467 164.406 9.59387L166.133 8.58613C164.354 5.53532 161.839 3.1834 158.614 1.53909L157.705 3.3209ZM164.413 9.60711C166.044 12.3054 166.879 15.5397 166.879 19.35H168.879C168.879 15.2403 167.975 11.6346 166.125 8.57288L164.413 9.60711ZM166.879 19.35V20.61H168.879V19.35H166.879ZM166.879 20.61C166.879 24.3505 166.018 27.5849 164.327 30.3478L166.032 31.3922C167.941 28.2751 168.879 24.6695 168.879 20.61H166.879ZM164.323 30.3529C162.68 33.0731 160.416 35.1984 157.511 36.7362L158.447 38.5038C161.663 36.8016 164.199 34.4269 166.035 31.3871L164.323 30.3529ZM157.518 36.7328C154.679 38.2092 151.421 38.96 147.719 38.96V40.96C151.698 40.96 155.28 40.1508 158.441 38.5072L157.518 36.7328ZM147.719 38.96H133.679V40.96H147.719V38.96ZM132.679 39.96V63H134.679V39.96H132.679ZM133.679 62H121.799V64H133.679V62ZM133.679 30.16H146.549V28.16H133.679V30.16ZM146.549 30.16C149.562 30.16 152.097 29.3216 154.057 27.5646L152.722 26.0754C151.202 27.4384 149.177 28.16 146.549 28.16V30.16ZM154.057 27.5646C156.042 25.7847 156.999 23.3655 156.999 20.43H154.999C154.999 22.8945 154.217 24.7353 152.722 26.0754L154.057 27.5646ZM156.999 20.43V19.53H154.999V20.43H156.999ZM156.999 19.53C156.999 16.5945 156.042 14.1753 154.057 12.3954L152.722 13.8846C154.217 15.2247 154.999 17.0655 154.999 19.53H156.999ZM154.057 12.3954C152.097 10.6384 149.562 9.8 146.549 9.8V11.8C149.177 11.8 151.202 12.5216 152.722 13.8846L154.057 12.3954ZM146.549 9.8H133.679V11.8H146.549V9.8ZM132.679 10.8V29.16H134.679V10.8H132.679ZM173.964 63H172.964V64H173.964V63ZM173.964 52.56V51.56H172.964V52.56H173.964ZM182.244 52.56V53.56H183.244V52.56H182.244ZM182.244 10.44H183.244V9.43999H182.244V10.44ZM173.964 10.44H172.964V11.44H173.964V10.44ZM173.964 -3.8147e-06V-1H172.964V-3.8147e-06H173.964ZM219.144 6.48L218.442 7.19203L218.452 7.20158L219.144 6.48ZM219.144 56.61L219.841 57.3269L219.842 57.3267L219.144 56.61ZM194.124 52.2H193.124V53.2H194.124V52.2ZM210.594 48.42L211.345 49.081L210.594 48.42ZM210.594 14.58L209.844 15.2411L209.852 15.25L210.594 14.58ZM194.124 10.8V9.8H193.124V10.8H194.124ZM174.964 63V52.56H172.964V63H174.964ZM173.964 53.56H182.244V51.56H173.964V53.56ZM183.244 52.56V10.44H181.244V52.56H183.244ZM182.244 9.43999H173.964V11.44H182.244V9.43999ZM174.964 10.44V-3.8147e-06H172.964V10.44H174.964ZM173.964 0.999996H199.884V-1H173.964V0.999996ZM199.884 0.999996C208.182 0.999996 214.31 3.11679 218.442 7.19197L219.846 5.76803C215.218 1.2032 208.507 -1 199.884 -1V0.999996ZM218.452 7.20158C222.631 11.2109 224.804 17.2674 224.804 25.56H226.804C226.804 16.9326 224.538 10.2691 219.837 5.75842L218.452 7.20158ZM224.804 25.56V37.44H226.804V25.56H224.804ZM224.804 37.44C224.804 45.7316 222.631 51.8222 218.447 55.8933L219.842 57.3267C224.537 52.7578 226.804 46.0684 226.804 37.44H224.804ZM218.447 55.8931C214.316 59.9113 208.185 62 199.884 62V64C208.503 64 215.213 61.8287 219.841 57.3269L218.447 55.8931ZM199.884 62H173.964V64H199.884V62ZM194.124 53.2H200.064V51.2H194.124V53.2ZM200.064 53.2C205.025 53.2 208.865 51.8962 211.345 49.081L209.844 47.759C207.884 49.9838 204.704 51.2 200.064 51.2V53.2ZM211.345 49.081C213.775 46.3219 214.924 42.5157 214.924 37.8H212.924C212.924 42.2043 211.853 45.4781 209.844 47.759L211.345 49.081ZM214.924 37.8V25.2H212.924V37.8H214.924ZM214.924 25.2C214.924 20.4302 213.778 16.6153 211.337 13.91L209.852 15.25C211.851 17.4647 212.924 20.7298 212.924 25.2H214.924ZM211.345 13.919C208.865 11.1038 205.025 9.8 200.064 9.8V11.8C204.704 11.8 207.884 13.0162 209.844 15.241L211.345 13.919ZM200.064 9.8H194.124V11.8H200.064V9.8ZM193.124 10.8V52.2H195.124V10.8H193.124ZM230.858 63L229.891 62.7458L229.561 64H230.858V63ZM247.418 -3.8147e-06V-1H246.647L246.451 -0.254226L247.418 -3.8147e-06ZM268.118 -3.8147e-06L269.085 -0.254226L268.889 -1H268.118V-3.8147e-06ZM284.678 63V64H285.975L285.645 62.7458L284.678 63ZM272.438 63L271.467 63.2396L271.655 64H272.438V63ZM269.018 49.14L269.989 48.9004L269.802 48.14H269.018V49.14ZM246.518 49.14V48.14H245.735L245.547 48.9004L246.518 49.14ZM243.098 63V64H243.882L244.069 63.2396L243.098 63ZM249.308 38.16L248.338 37.9181L248.028 39.16H249.308V38.16ZM266.228 38.16V39.16H267.508L267.199 37.9181L266.228 38.16ZM258.578 7.47L259.549 7.22813L259.36 6.47H258.578V7.47ZM256.958 7.47V6.47H256.177L255.988 7.22813L256.958 7.47ZM231.825 63.2542L248.385 0.254217L246.451 -0.254226L229.891 62.7458L231.825 63.2542ZM247.418 0.999996H268.118V-1H247.418V0.999996ZM267.151 0.254217L283.711 63.2542L285.645 62.7458L269.085 -0.254226L267.151 0.254217ZM284.678 62H272.438V64H284.678V62ZM273.409 62.7604L269.989 48.9004L268.047 49.3796L271.467 63.2396L273.409 62.7604ZM269.018 48.14H246.518V50.14H269.018V48.14ZM245.547 48.9004L242.127 62.7604L244.069 63.2396L247.489 49.3796L245.547 48.9004ZM243.098 62H230.858V64H243.098V62ZM249.308 39.16H266.228V37.16H249.308V39.16ZM267.199 37.9181L259.549 7.22813L257.608 7.71186L265.258 38.4019L267.199 37.9181ZM258.578 6.47H256.958V8.47H258.578V6.47ZM255.988 7.22813L248.338 37.9181L250.279 38.4019L257.929 7.71186L255.988 7.22813ZM292.219 63H291.219V64H292.219V63ZM292.219 -3.8147e-06V-1H291.219V-3.8147e-06H292.219ZM328.579 2.43L328.104 3.3099L328.115 3.31553L328.125 3.3209L328.579 2.43ZM335.689 9.09L334.826 9.59387L334.829 9.60052L334.833 9.60711L335.689 9.09ZM335.599 30.87L334.746 30.3478L334.743 30.3529L335.599 30.87ZM328.399 37.62L328.861 38.5072L328.867 38.5038L328.399 37.62ZM304.099 39.96V38.96H303.099V39.96H304.099ZM304.099 63V64H305.099V63H304.099ZM304.099 29.16H303.099V30.16H304.099V29.16ZM323.809 26.82L324.477 27.5646L323.809 26.82ZM323.809 13.14L324.477 12.3954L323.809 13.14ZM304.099 10.8V9.8H303.099V10.8H304.099ZM293.219 63V-3.8147e-06H291.219V63H293.219ZM292.219 0.999996H318.139V-1H292.219V0.999996ZM318.139 0.999996C321.96 0.999996 325.272 1.7806 328.104 3.3099L329.054 1.55009C325.886 -0.160608 322.238 -1 318.139 -1V0.999996ZM328.125 3.3209C331.02 4.7966 333.245 6.88467 334.826 9.59387L336.553 8.58613C334.773 5.53532 332.259 3.1834 329.033 1.53909L328.125 3.3209ZM334.833 9.60711C336.464 12.3054 337.299 15.5397 337.299 19.35H339.299C339.299 15.2403 338.395 11.6346 336.545 8.57288L334.833 9.60711ZM337.299 19.35V20.61H339.299V19.35H337.299ZM337.299 20.61C337.299 24.3505 336.438 27.5849 334.746 30.3478L336.452 31.3922C338.361 28.2751 339.299 24.6695 339.299 20.61H337.299ZM334.743 30.3529C333.1 33.0731 330.836 35.1984 327.931 36.7362L328.867 38.5038C332.082 36.8016 334.619 34.4269 336.455 31.3871L334.743 30.3529ZM327.938 36.7328C325.099 38.2092 321.841 38.96 318.139 38.96V40.96C322.118 40.96 325.7 40.1508 328.861 38.5072L327.938 36.7328ZM318.139 38.96H304.099V40.96H318.139V38.96ZM303.099 39.96V63H305.099V39.96H303.099ZM304.099 62H292.219V64H304.099V62ZM304.099 30.16H316.969V28.16H304.099V30.16ZM316.969 30.16C319.982 30.16 322.517 29.3216 324.477 27.5646L323.142 26.0754C321.621 27.4384 319.596 28.16 316.969 28.16V30.16ZM324.477 27.5646C326.462 25.7847 327.419 23.3655 327.419 20.43H325.419C325.419 22.8945 324.636 24.7353 323.142 26.0754L324.477 27.5646ZM327.419 20.43V19.53H325.419V20.43H327.419ZM327.419 19.53C327.419 16.5945 326.462 14.1753 324.477 12.3954L323.142 13.8846C324.636 15.2247 325.419 17.0655 325.419 19.53H327.419ZM324.477 12.3954C322.517 10.6384 319.982 9.8 316.969 9.8V11.8C319.596 11.8 321.621 12.5216 323.142 13.8846L324.477 12.3954ZM316.969 9.8H304.099V11.8H316.969V9.8ZM303.099 10.8V29.16H305.099V10.8H303.099ZM5.25625 139.4L4.57267 140.13L4.57845 140.135L5.25625 139.4ZM0.216249 120.92V119.92H-0.783751V120.92H0.216249ZM10.7763 120.92H11.7763V119.92H10.7763V120.92ZM12.8563 132.12L12.1359 132.814L12.1425 132.82L12.1491 132.827L12.8563 132.12ZM24.1363 132.12L23.4154 131.427L23.4084 131.434L23.4015 131.442L24.1363 132.12ZM26.1362 96.6H27.1362V95.6H26.1362V96.6ZM16.5363 96.6H15.5363V97.6H16.5363V96.6ZM16.5363 87V86H15.5363V87H16.5363ZM43.0963 87H44.0963V86H43.0963V87ZM43.0963 96.6V97.6H44.0963V96.6H43.0963ZM36.6963 96.6V95.6H35.6963V96.6H36.6963ZM31.9762 139.56L32.6711 140.279L32.6773 140.273L31.9762 139.56ZM19.0163 143.12C13.4442 143.12 9.12096 141.603 5.93405 138.665L4.57845 140.135C8.21821 143.491 13.0683 145.12 19.0163 145.12V143.12ZM5.93981 138.67C2.82631 135.754 1.21625 131.644 1.21625 126.2H-0.783751C-0.783751 132.062 0.966187 136.752 4.57269 140.13L5.93981 138.67ZM1.21625 126.2V120.92H-0.783751V126.2H1.21625ZM0.216249 121.92H10.7763V119.92H0.216249V121.92ZM9.77625 120.92V126.2H11.7763V120.92H9.77625ZM9.77625 126.2C9.77625 128.896 10.5271 131.143 12.1359 132.814L13.5766 131.426C12.412 130.217 11.7763 128.517 11.7763 126.2H9.77625ZM12.1491 132.827C13.7718 134.45 16.0017 135.2 18.6963 135.2V133.2C16.3774 133.2 14.7141 132.564 13.5634 131.413L12.1491 132.827ZM18.6963 135.2C21.2492 135.2 23.3574 134.438 24.8711 132.798L23.4015 131.442C22.3551 132.575 20.8367 133.2 18.6963 133.2V135.2ZM24.8571 132.813C26.4224 131.185 27.1362 128.931 27.1362 126.2H25.1362C25.1362 128.589 24.5168 130.281 23.4154 131.427L24.8571 132.813ZM27.1362 126.2V96.6H25.1362V126.2H27.1362ZM26.1362 95.6H16.5363V97.6H26.1362V95.6ZM17.5363 96.6V87H15.5363V96.6H17.5363ZM16.5363 88H43.0963V86H16.5363V88ZM42.0963 87V96.6H44.0963V87H42.0963ZM43.0963 95.6H36.6963V97.6H43.0963V95.6ZM35.6963 96.6V126.2H37.6963V96.6H35.6963ZM35.6963 126.2C35.6963 131.834 34.1756 135.996 31.2752 138.847L32.6773 140.273C36.0703 136.938 37.6963 132.193 37.6963 126.2H35.6963ZM31.2814 138.841C28.3658 141.658 24.3198 143.12 19.0163 143.12V145.12C24.6993 145.12 29.2933 143.542 32.6711 140.279L31.2814 138.841ZM44.8775 143L43.9104 142.746L43.5807 144H44.8775V143ZM59.5975 87V86H58.8264L58.6304 86.7458L59.5975 87ZM77.9975 87L78.9646 86.7458L78.7686 86H77.9975V87ZM92.7175 143V144H94.0143L93.6847 142.746L92.7175 143ZM81.8375 143L80.8666 143.24L81.0543 144H81.8375V143ZM78.7975 130.68L79.7684 130.44L79.5807 129.68H78.7975V130.68ZM58.7975 130.68V129.68H58.0143L57.8266 130.44L58.7975 130.68ZM55.7575 143V144H56.5407L56.7284 143.24L55.7575 143ZM61.2775 120.92L60.3072 120.678L59.9976 121.92H61.2775V120.92ZM76.3175 120.92V121.92H77.5974L77.2878 120.678L76.3175 120.92ZM69.5175 93.64L70.4878 93.3981L70.2988 92.64H69.5175V93.64ZM68.0775 93.64V92.64H67.2962L67.1072 93.3981L68.0775 93.64ZM45.8446 143.254L60.5646 87.2542L58.6304 86.7458L43.9104 142.746L45.8446 143.254ZM59.5975 88H77.9975V86H59.5975V88ZM77.0304 87.2542L91.7504 143.254L93.6847 142.746L78.9646 86.7458L77.0304 87.2542ZM92.7175 142H81.8375V144H92.7175V142ZM82.8084 142.76L79.7684 130.44L77.8266 130.92L80.8666 143.24L82.8084 142.76ZM78.7975 129.68H58.7975V131.68H78.7975V129.68ZM57.8266 130.44L54.7866 142.76L56.7284 143.24L59.7684 130.92L57.8266 130.44ZM55.7575 142H44.8775V144H55.7575V142ZM61.2775 121.92H76.3175V119.92H61.2775V121.92ZM77.2878 120.678L70.4878 93.3981L68.5472 93.8819L75.3472 121.162L77.2878 120.678ZM69.5175 92.64H68.0775V94.64H69.5175V92.64ZM67.1072 93.3981L60.3072 120.678L62.2478 121.162L69.0478 93.8819L67.1072 93.3981ZM103.752 138.36L103.059 139.081L103.064 139.086L103.752 138.36ZM103.752 91.72L104.44 92.446L104.445 92.4412L103.752 91.72ZM136.152 91.56L135.44 92.2621L135.445 92.2671L135.45 92.2721L136.152 91.56ZM141.832 107.48V108.48H142.832V107.48H141.832ZM131.432 107.48H130.432V108.48H131.432V107.48ZM128.632 98.52L127.87 99.1676L127.875 99.1731L127.879 99.1785L128.632 98.52ZM111.432 131.24L110.692 131.913L110.7 131.921L111.432 131.24ZM128.632 131.48L127.871 130.831L127.87 130.832L128.632 131.48ZM131.432 121.88V120.88H130.432V121.88H131.432ZM141.832 121.88H142.832V120.88H141.832V121.88ZM136.152 138.52L135.445 137.813L136.152 138.52ZM120.232 143.12C113.489 143.12 108.265 141.258 104.44 137.634L103.064 139.086C107.346 143.142 113.108 145.12 120.232 145.12V143.12ZM104.445 137.639C100.639 133.983 98.6719 128.728 98.6719 121.72H96.6719C96.6719 129.112 98.7581 134.95 103.059 139.081L104.445 137.639ZM98.6719 121.72V108.28H96.6719V121.72H98.6719ZM98.6719 108.28C98.6719 101.271 100.639 96.0463 104.44 92.446L103.064 90.994C98.7578 95.0737 96.6719 100.889 96.6719 108.28H98.6719ZM104.445 92.4412C108.27 88.7664 113.493 86.88 120.232 86.88V84.88C113.104 84.88 107.34 86.8869 103.059 90.9988L104.445 92.4412ZM120.232 86.88C126.926 86.88 131.945 88.7176 135.44 92.2621L136.864 90.8579C132.892 86.8291 127.297 84.88 120.232 84.88V86.88ZM135.45 92.2721C139.003 95.7755 140.832 100.641 140.832 107H142.832C142.832 100.239 140.874 94.8112 136.854 90.8479L135.45 92.2721ZM140.832 107V107.48H142.832V107H140.832ZM141.832 106.48H131.432V108.48H141.832V106.48ZM132.432 107.48V106.68H130.432V107.48H132.432ZM132.432 106.68C132.432 103.174 131.437 100.207 129.384 97.8615L127.879 99.1785C129.56 101.1 130.432 103.573 130.432 106.68H132.432ZM129.394 97.8723C127.33 95.4439 124.203 94.32 120.232 94.32V96.32C123.834 96.32 126.307 97.3294 127.87 99.1676L129.394 97.8723ZM120.232 94.32C116.279 94.32 113.058 95.5434 110.7 98.0789L112.164 99.4411C114.072 97.3899 116.718 96.32 120.232 96.32V94.32ZM110.7 98.0789C108.353 100.602 107.232 103.989 107.232 108.12H109.232C109.232 104.358 110.244 101.505 112.164 99.4411L110.7 98.0789ZM107.232 108.12V121.88H109.232V108.12H107.232ZM107.232 121.88C107.232 125.963 108.355 129.342 110.692 131.913L112.172 130.567C110.242 128.444 109.232 125.584 109.232 121.88H107.232ZM110.7 131.921C113.058 134.457 116.279 135.68 120.232 135.68V133.68C116.718 133.68 114.072 132.61 112.164 130.559L110.7 131.921ZM120.232 135.68C124.203 135.68 127.33 134.556 129.394 132.128L127.87 130.832C126.307 132.671 123.834 133.68 120.232 133.68V135.68ZM129.392 132.129C131.434 129.738 132.432 126.778 132.432 123.32H130.432C130.432 126.369 129.563 128.849 127.871 130.831L129.392 132.129ZM132.432 123.32V121.88H130.432V123.32H132.432ZM131.432 122.88H141.832V120.88H131.432V122.88ZM140.832 121.88V123H142.832V121.88H140.832ZM140.832 123C140.832 129.358 139.003 134.254 135.445 137.813L136.859 139.227C140.874 135.212 142.832 129.762 142.832 123H140.832ZM135.445 137.813C131.951 141.307 126.93 143.12 120.232 143.12V145.12C127.293 145.12 132.886 143.2 136.859 139.227L135.445 137.813ZM150.436 143H149.436V144H150.436V143ZM150.436 87V86H149.436V87H150.436ZM160.996 87H161.996V86H160.996V87ZM160.996 109.24H159.996V110.24H160.996V109.24ZM162.436 109.24V110.24H162.911L163.211 109.872L162.436 109.24ZM180.596 87V86H180.122L179.822 86.3675L180.596 87ZM194.116 87L194.88 87.646L196.273 86H194.116V87ZM170.756 114.6L169.993 113.954L169.445 114.602L169.995 115.248L170.756 114.6ZM194.916 143V144H197.08L195.678 142.352L194.916 143ZM180.996 143L180.222 143.633L180.522 144H180.996V143ZM162.436 120.28L163.211 119.647L162.911 119.28H162.436V120.28ZM160.996 120.28V119.28H159.996V120.28H160.996ZM160.996 143V144H161.996V143H160.996ZM151.436 143V87H149.436V143H151.436ZM150.436 88H160.996V86H150.436V88ZM159.996 87V109.24H161.996V87H159.996ZM160.996 110.24H162.436V108.24H160.996V110.24ZM163.211 109.872L181.371 87.6325L179.822 86.3675L161.662 108.608L163.211 109.872ZM180.596 88H194.116V86H180.596V88ZM193.353 86.354L169.993 113.954L171.52 115.246L194.88 87.646L193.353 86.354ZM169.995 115.248L194.155 143.648L195.678 142.352L171.518 113.952L169.995 115.248ZM194.916 142H180.996V144H194.916V142ZM181.771 142.367L163.211 119.647L161.662 120.913L180.222 143.633L181.771 142.367ZM162.436 119.28H160.996V121.28H162.436V119.28ZM159.996 120.28V143H161.996V120.28H159.996ZM160.996 142H150.436V144H160.996V142ZM200.514 143H199.514V144H200.514V143ZM200.514 87V86H199.514V87H200.514ZM232.834 89.16L232.359 90.0399L232.37 90.0455L232.38 90.0509L232.834 89.16ZM239.154 95.08L238.291 95.5839L238.294 95.5905L238.298 95.5971L239.154 95.08ZM239.074 114.44L238.221 113.918L238.218 113.923L239.074 114.44ZM232.674 120.44L233.136 121.327L233.142 121.324L232.674 120.44ZM211.074 122.52V121.52H210.074V122.52H211.074ZM211.074 143V144H212.074V143H211.074ZM211.074 112.92H210.074V113.92H211.074V112.92ZM228.594 110.84L229.262 111.585L228.594 110.84ZM228.594 98.68L229.262 97.9354L228.594 98.68ZM211.074 96.6V95.6H210.074V96.6H211.074ZM201.514 143V87H199.514V143H201.514ZM200.514 88H223.554V86H200.514V88ZM223.554 88C226.935 88 229.861 88.6906 232.359 90.0399L233.31 88.2801C230.475 86.7494 227.213 86 223.554 86V88ZM232.38 90.0509C234.935 91.3533 236.897 93.1947 238.291 95.5839L240.018 94.5761C238.425 91.8453 236.174 89.7401 233.289 88.2691L232.38 90.0509ZM238.298 95.5971C239.735 97.9754 240.474 100.83 240.474 104.2H242.474C242.474 100.53 241.667 97.3046 240.01 94.5629L238.298 95.5971ZM240.474 104.2V105.32H242.474V104.2H240.474ZM240.474 105.32C240.474 108.627 239.713 111.482 238.222 113.918L239.927 114.962C241.636 112.172 242.474 108.946 242.474 105.32H240.474ZM238.218 113.923C236.768 116.323 234.771 118.198 232.206 119.556L233.142 121.324C236.018 119.802 238.287 117.677 239.93 114.957L238.218 113.923ZM232.213 119.553C229.707 120.856 226.829 121.52 223.554 121.52V123.52C227.106 123.52 230.308 122.798 233.136 121.327L232.213 119.553ZM223.554 121.52H211.074V123.52H223.554V121.52ZM210.074 122.52V143H212.074V122.52H210.074ZM211.074 142H200.514V144H211.074V142ZM211.074 113.92H222.514V111.92H211.074V113.92ZM222.514 113.92C225.214 113.92 227.496 113.168 229.262 111.585L227.927 110.095C226.6 111.285 224.828 111.92 222.514 111.92V113.92ZM229.262 111.585C231.054 109.978 231.914 107.795 231.914 105.16H229.914C229.914 107.325 229.228 108.929 227.927 110.095L229.262 111.585ZM231.914 105.16V104.36H229.914V105.16H231.914ZM231.914 104.36C231.914 101.725 231.054 99.542 229.262 97.9354L227.927 99.4246C229.228 100.591 229.914 102.195 229.914 104.36H231.914ZM229.262 97.9354C227.496 96.3518 225.214 95.6 222.514 95.6V97.6C224.828 97.6 226.6 98.2349 227.927 99.4246L229.262 97.9354ZM222.514 95.6H211.074V97.6H222.514V95.6ZM210.074 96.6V112.92H212.074V96.6H210.074ZM253.756 138.36L253.072 139.09L253.077 139.095L253.756 138.36ZM253.756 91.72L254.434 92.4548L254.439 92.4501L253.756 91.72ZM287.356 91.72L286.672 92.4501L286.677 92.4548L287.356 91.72ZM287.356 138.36L288.034 139.095L288.039 139.09L287.356 138.36ZM279.756 131.24L279.032 130.55L279.756 131.24ZM279.756 98.76L279.032 99.4501L279.756 98.76ZM261.356 98.76L260.64 98.0612L260.632 98.0699L261.356 98.76ZM261.356 131.24L260.632 131.93L260.64 131.939L261.356 131.24ZM270.556 143.12C263.703 143.12 258.367 141.256 254.434 137.625L253.077 139.095C257.464 143.144 263.328 145.12 270.556 145.12V143.12ZM254.439 137.63C250.531 133.973 248.516 128.721 248.516 121.72H246.516C246.516 129.119 248.66 134.961 253.072 139.09L254.439 137.63ZM248.516 121.72V108.28H246.516V121.72H248.516ZM248.516 108.28C248.516 101.278 250.532 96.0569 254.434 92.4548L253.077 90.9852C248.66 95.0631 246.516 100.882 246.516 108.28H248.516ZM254.439 92.4501C258.372 88.7688 263.707 86.88 270.556 86.88V84.88C263.325 84.88 257.459 86.8846 253.072 90.9899L254.439 92.4501ZM270.556 86.88C277.405 86.88 282.739 88.7688 286.672 92.4501L288.039 90.9899C283.652 86.8846 277.787 84.88 270.556 84.88V86.88ZM286.677 92.4548C290.58 96.0569 292.596 101.278 292.596 108.28H294.596C294.596 100.882 292.452 95.0631 288.034 90.9852L286.677 92.4548ZM292.596 108.28V121.72H294.596V108.28H292.596ZM292.596 121.72C292.596 128.721 290.58 133.973 286.672 137.63L288.039 139.09C292.451 134.961 294.596 129.119 294.596 121.72H292.596ZM286.677 137.625C282.744 141.256 277.408 143.12 270.556 143.12V145.12C277.783 145.12 283.647 143.144 288.034 139.095L286.677 137.625ZM270.556 135.68C274.704 135.68 278.06 134.468 280.479 131.93L279.032 130.55C277.078 132.599 274.3 133.68 270.556 133.68V135.68ZM280.479 131.93C282.88 129.413 284.036 126.079 284.036 122.04H282.036C282.036 125.681 281.005 128.48 279.032 130.55L280.479 131.93ZM284.036 122.04V107.96H282.036V122.04H284.036ZM284.036 107.96C284.036 103.921 282.88 100.587 280.479 98.0699L279.032 99.4501C281.005 101.52 282.036 104.319 282.036 107.96H284.036ZM280.479 98.0699C278.06 95.5323 274.704 94.32 270.556 94.32V96.32C274.3 96.32 277.078 97.4011 279.032 99.4501L280.479 98.0699ZM270.556 94.32C266.455 94.32 263.108 95.5351 260.64 98.0613L262.071 99.4587C264.084 97.3982 266.87 96.32 270.556 96.32V94.32ZM260.632 98.0699C258.232 100.587 257.076 103.921 257.076 107.96H259.076C259.076 104.319 260.106 101.52 262.079 99.4501L260.632 98.0699ZM257.076 107.96V122.04H259.076V107.96H257.076ZM257.076 122.04C257.076 126.079 258.232 129.413 260.632 131.93L262.079 130.55C260.106 128.48 259.076 125.681 259.076 122.04H257.076ZM260.64 131.939C263.108 134.465 266.455 135.68 270.556 135.68V133.68C266.87 133.68 264.084 132.602 262.071 130.541L260.64 131.939ZM313.552 143H312.552V144H313.552V143ZM313.552 96.6H314.552V95.6H313.552V96.6ZM297.233 96.6H296.233V97.6H297.233V96.6ZM297.233 87V86H296.233V87H297.233ZM340.432 87H341.432V86H340.432V87ZM340.432 96.6V97.6H341.432V96.6H340.432ZM324.112 96.6V95.6H323.112V96.6H324.112ZM324.112 143V144H325.112V143H324.112ZM314.552 143V96.6H312.552V143H314.552ZM313.552 95.6H297.233V97.6H313.552V95.6ZM298.233 96.6V87H296.233V96.6H298.233ZM297.233 88H340.432V86H297.233V88ZM339.432 87V96.6H341.432V87H339.432ZM340.432 95.6H324.112V97.6H340.432V95.6ZM323.112 96.6V143H325.112V96.6H323.112ZM324.112 142H313.552V144H324.112V142Z" fill="url(#paint1_linear_89_3393)" fill-opacity="0.3" mask="url(#path-1-outside-1_89_3393)"/>
<defs>
<linearGradient id="paint0_linear_89_3393" x1="170" y1="-1.5" x2="170" y2="143" gradientUnits="userSpaceOnUse">
<stop stop-color="#A6A6A6"/>
<stop offset="1" stop-color="#404040"/>
</linearGradient>
<linearGradient id="paint1_linear_89_3393" x1="170" y1="-1" x2="170" y2="143" gradientUnits="userSpaceOnUse">
<stop/>
<stop offset="0.9999" stop-color="#8E8E8E"/>
<stop offset="1" stop-opacity="0"/>
</linearGradient>
</defs>
</svg>
