<svg width="12" height="15" viewBox="0 0 12 15" fill="none" xmlns="http://www.w3.org/2000/svg">
<path d="M10.5 1.74998H8.34188C8.0392 1.43391 7.67567 1.18238 7.2732 1.01055C6.87072 0.838709 6.43762 0.750122 6 0.750122C5.56238 0.750122 5.12928 0.838709 4.72681 1.01055C4.32433 1.18238 3.9608 1.43391 3.65812 1.74998H1.5C1.16848 1.74998 0.850537 1.88168 0.616117 2.1161C0.381696 2.35052 0.25 2.66846 0.25 2.99998V13.5C0.25 13.8315 0.381696 14.1494 0.616117 14.3839C0.850537 14.6183 1.16848 14.75 1.5 14.75H10.5C10.8315 14.75 11.1495 14.6183 11.3839 14.3839C11.6183 14.1494 11.75 13.8315 11.75 13.5V2.99998C11.75 2.66846 11.6183 2.35052 11.3839 2.1161C11.1495 1.88168 10.8315 1.74998 10.5 1.74998ZM7.73188 3.74998H4.26813C4.3285 3.33374 4.53678 2.95316 4.85482 2.67792C5.17286 2.40268 5.5794 2.2512 6 2.2512C6.4206 2.2512 6.82714 2.40268 7.14518 2.67792C7.46322 2.95316 7.6715 3.33374 7.73188 3.74998ZM10.25 13.25H1.75V3.24998H2.83813C2.77978 3.49572 2.75021 3.74741 2.75 3.99998V4.49998C2.75 4.6989 2.82902 4.88966 2.96967 5.03031C3.11032 5.17097 3.30109 5.24998 3.5 5.24998H8.5C8.69891 5.24998 8.88968 5.17097 9.03033 5.03031C9.17098 4.88966 9.25 4.6989 9.25 4.49998V3.99998C9.24979 3.74741 9.22022 3.49572 9.16187 3.24998H10.25V13.25Z" fill="#A1A09A"/>
</svg>
