<svg width="48" height="49" viewBox="0 0 48 49" fill="none" xmlns="http://www.w3.org/2000/svg">
<rect y="0.5" width="48" height="48" rx="24" fill="#E3E1F9"/>
<path opacity="0.2" d="M31.5 17.75V31.25C31.5 31.4489 31.421 31.6397 31.2803 31.7803C31.1397 31.921 30.9489 32 30.75 32H17.25C17.0511 32 16.8603 31.921 16.7197 31.7803C16.579 31.6397 16.5 31.4489 16.5 31.25V17.75C16.5 17.5511 16.579 17.3603 16.7197 17.2197C16.8603 17.079 17.0511 17 17.25 17H30.75C30.9489 17 31.1397 17.079 31.2803 17.2197C31.421 17.3603 31.5 17.5511 31.5 17.75Z" fill="#2A297A"/>
<path d="M17.4695 22.0307L14.4695 19.0307C14.3997 18.961 14.3444 18.8783 14.3067 18.7873C14.2689 18.6962 14.2495 18.5986 14.2495 18.5001C14.2495 18.4015 14.2689 18.3039 14.3067 18.2128C14.3444 18.1218 14.3997 18.0391 14.4695 17.9694L17.4695 14.9694C17.6102 14.8287 17.8011 14.7496 18.0001 14.7496C18.1991 14.7496 18.39 14.8287 18.5307 14.9694C18.6715 15.1102 18.7505 15.301 18.7505 15.5001C18.7505 15.6991 18.6715 15.8899 18.5307 16.0307L16.0604 18.5001L18.5307 20.9694C18.6715 21.1102 18.7505 21.301 18.7505 21.5001C18.7505 21.6991 18.6715 21.8899 18.5307 22.0307C18.39 22.1714 18.1991 22.2505 18.0001 22.2505C17.8011 22.2505 17.6102 22.1714 17.4695 22.0307ZM21.2195 22.0307C21.2891 22.1004 21.3718 22.1557 21.4629 22.1935C21.5539 22.2312 21.6515 22.2506 21.7501 22.2506C21.8487 22.2506 21.9463 22.2312 22.0373 22.1935C22.1284 22.1557 22.2111 22.1004 22.2807 22.0307L25.2807 19.0307C25.3505 18.961 25.4058 18.8783 25.4435 18.7873C25.4813 18.6962 25.5007 18.5986 25.5007 18.5001C25.5007 18.4015 25.4813 18.3039 25.4435 18.2128C25.4058 18.1218 25.3505 18.0391 25.2807 17.9694L22.2807 14.9694C22.14 14.8287 21.9491 14.7496 21.7501 14.7496C21.5511 14.7496 21.3602 14.8287 21.2195 14.9694C21.0787 15.1102 20.9997 15.301 20.9997 15.5001C20.9997 15.6991 21.0787 15.8899 21.2195 16.0307L23.6898 18.5001L21.2195 20.9694C21.1497 21.0391 21.0944 21.1218 21.0567 21.2128C21.0189 21.3039 20.9995 21.4015 20.9995 21.5001C20.9995 21.5986 21.0189 21.6962 21.0567 21.7873C21.0944 21.8783 21.1497 21.961 21.2195 22.0307ZM30.7501 16.2501H28.5001C28.3012 16.2501 28.1104 16.3291 27.9698 16.4697C27.8291 16.6104 27.7501 16.8011 27.7501 17.0001C27.7501 17.199 27.8291 17.3897 27.9698 17.5304C28.1104 17.671 28.3012 17.7501 28.5001 17.7501H30.7501V31.2501H17.2501V25.2501C17.2501 25.0511 17.1711 24.8604 17.0304 24.7197C16.8898 24.5791 16.699 24.5001 16.5001 24.5001C16.3012 24.5001 16.1104 24.5791 15.9698 24.7197C15.8291 24.8604 15.7501 25.0511 15.7501 25.2501V31.2501C15.7501 31.6479 15.9081 32.0294 16.1894 32.3107C16.4707 32.592 16.8523 32.7501 17.2501 32.7501H30.7501C31.1479 32.7501 31.5295 32.592 31.8108 32.3107C32.0921 32.0294 32.2501 31.6479 32.2501 31.2501V17.7501C32.2501 17.3522 32.0921 16.9707 31.8108 16.6894C31.5295 16.4081 31.1479 16.2501 30.7501 16.2501Z" fill="#2A297A"/>
</svg>
