<svg width="42" height="42" viewBox="0 0 42 42" fill="none" xmlns="http://www.w3.org/2000/svg">
<rect width="42" height="42" rx="12" fill="#A55FFF"/>
<path fill-rule="evenodd" clip-rule="evenodd" d="M19.0159 7.48361C20.138 6.83872 21.5182 6.83872 22.6404 7.48361L31.6655 12.6704C32.7943 13.3192 33.4902 14.5218 33.4902 15.8238V26.1761C33.4902 27.4781 32.7943 28.6807 31.6655 29.3294L22.6403 34.5163C21.5182 35.1612 20.138 35.1612 19.0159 34.5163L9.99075 29.3294C8.86241 28.681 8.16602 27.4799 8.16602 26.1775V15.8208C8.16602 14.5177 8.86295 13.3186 9.99075 12.6704L19.0159 7.48361ZM10.0519 25.5542V26.1775C10.0519 26.8038 10.3865 27.3818 10.9304 27.6944L19.9555 32.8812C20.4958 33.1917 21.1604 33.1917 21.7007 32.8812L30.7258 27.6944C31.2693 27.382 31.6043 26.803 31.6043 26.1761V20.8715C30.7758 21.5668 29.7258 22.007 28.5607 22.007H13.0955C12.2694 22.007 11.5222 22.4147 10.9573 23.0941C10.3865 23.7807 10.0519 24.6916 10.0519 25.5542ZM31.6043 16.9588C31.6043 18.5516 30.1978 20.1212 28.5607 20.1212H13.0955C11.895 20.1212 10.8545 20.6035 10.0519 21.3226V15.8208C10.0519 15.1951 10.3859 14.6184 10.9304 14.3055L19.9555 9.11866C20.4958 8.80816 21.1604 8.80816 21.7007 9.11866L30.7258 14.3055C31.2693 14.6179 31.6043 15.1969 31.6043 15.8238V16.9588ZM15.8486 15.4095L15.8486 18.4403L13.9627 18.4403L13.9627 15.1401C13.9627 14.2474 14.6864 13.5237 15.5792 13.5237H18.2732C19.166 13.5237 19.8897 14.2474 19.8897 15.1401L19.8897 18.4403L18.0038 18.4403L18.0038 15.4095H15.8486ZM24.0655 15.4095L24.0655 18.4403L22.1796 18.4403L22.1796 15.1401C22.1796 14.2474 22.9033 13.5237 23.7961 13.5237H26.4901C27.3828 13.5237 28.1065 14.2474 28.1065 15.1401L28.1065 18.4403L26.2207 18.4403L26.2207 15.4095H24.0655ZM15.8486 23.6939L15.8486 26.7247H18.0038L18.0038 23.6939H19.8897L19.8897 26.9941C19.8897 27.8869 19.166 28.6106 18.2732 28.6106H15.5792C14.6864 28.6106 13.9627 27.8869 13.9627 26.9941L13.9627 23.6939H15.8486ZM24.0655 23.6939L24.0655 26.7247H26.2207L26.2207 23.6939H28.1065L28.1065 26.9941C28.1065 27.8869 27.3828 28.6106 26.4901 28.6106H23.7961C22.9033 28.6106 22.1796 27.8869 22.1796 26.9941L22.1796 23.6939H24.0655Z" fill="white"/>
</svg>
