<svg width="42" height="42" viewBox="0 0 42 42" fill="none" xmlns="http://www.w3.org/2000/svg">
<rect width="42" height="42" rx="12" fill="#FFEEDA"/>
<path d="M33.8379 26.6083V9.06622C33.8145 7.5984 32.673 6.41699 31.2402 6.41699H13.3705C9.51466 6.47666 6.41602 9.71063 6.41602 13.6725C6.41602 15.0091 6.76549 16.1547 7.30134 17.1571C7.75565 17.9924 8.46625 18.78 9.16519 19.3648C9.36322 19.5318 9.27004 19.4603 9.87578 19.8422C10.7145 20.3671 11.6697 20.6297 11.6697 20.6297L11.6581 31.1192C11.6814 31.6204 11.728 32.0977 11.8561 32.5393C12.2522 34.0191 13.254 35.1527 14.617 35.7016C15.1878 35.9284 15.8285 36.0835 16.5157 36.0955L30.7858 36.1432C33.6282 36.1432 35.9347 33.7804 35.9347 30.8566C35.9463 29.1263 35.1077 27.575 33.8379 26.6083Z" fill="#FFEEDA"/>
<path d="M34.1874 30.9879C34.1292 32.8615 32.6265 34.365 30.7859 34.365L20.9658 34.3292C21.7462 33.3985 22.2238 32.1931 22.2238 30.8805C22.2238 28.816 21.024 27.3959 21.024 27.3959H30.7975C32.6731 27.3959 34.199 28.9591 34.199 30.8805L34.1874 30.9879Z" fill="#EBC28E"/>
<path d="M10.0971 17.8848C8.96715 16.7869 8.17502 15.3669 8.17502 13.6842V13.5052C8.26822 10.6293 10.5747 8.31419 13.3821 8.23066H31.2518C31.7178 8.25452 32.0906 8.58867 32.0906 9.07793V24.5675C32.4982 24.6392 32.6962 24.6989 33.0923 24.8421C33.4069 24.9614 33.8379 25.212 33.8379 25.212V9.07793C33.8145 7.61011 32.673 6.42871 31.2402 6.42871H13.3705C9.51466 6.48838 6.41602 9.72234 6.41602 13.6842C6.41602 15.9874 7.44113 17.9564 9.11859 19.3406C9.23508 19.4362 9.33992 19.5556 9.64281 19.5556C10.167 19.5556 10.5398 19.1259 10.5165 18.6605C10.5048 18.2667 10.3417 18.1235 10.0971 17.8848Z" fill="#101010"/>
<path d="M30.7856 25.5823H16.7719C15.8283 25.5942 15.0711 26.37 15.0711 27.3365V29.401C15.0944 30.3557 15.8865 31.1672 16.8301 31.1672H17.8669V29.401H16.8301V27.3843C16.8301 27.3843 17.0864 27.3843 17.4009 27.3843C19.1716 27.3843 20.4763 29.0668 20.4763 30.8688C20.4763 32.468 19.0551 34.5085 16.6787 34.3415C14.5702 34.1983 13.4286 32.2769 13.4286 30.8688V13.3744C13.4286 12.5868 12.7995 11.9424 12.0307 11.9424H10.6328V13.7324H11.6696V30.8807C11.6113 34.3654 14.0926 36.1196 16.6787 36.1196L30.7974 36.1673C33.6397 36.1673 35.9462 33.8045 35.9462 30.8807C35.9462 27.9571 33.6281 25.5823 30.7856 25.5823ZM34.1871 30.9882C34.1289 32.8617 32.6262 34.3654 30.7856 34.3654L20.9655 34.3295C21.7461 33.3987 22.2237 32.1934 22.2237 30.8807C22.2237 28.8163 21.0237 27.3962 21.0237 27.3962H30.7974C32.6728 27.3962 34.1989 28.9595 34.1989 30.8807L34.1871 30.9882Z" fill="#101010"/>
<path d="M27.011 14.0548H16.4453V12.2648H27.011C27.4886 12.2648 27.8847 12.6586 27.8847 13.1598C27.8847 13.6491 27.5003 14.0548 27.011 14.0548Z" fill="#101010"/>
<path d="M27.011 22.4794H16.4453V20.6893H27.011C27.4886 20.6893 27.8847 21.0832 27.8847 21.5844C27.8847 22.0736 27.5003 22.4794 27.011 22.4794Z" fill="#101010"/>
<path d="M28.8749 18.2669H16.4453V16.4769H28.8631C29.3409 16.4769 29.7369 16.8707 29.7369 17.3719C29.7485 17.8612 29.3525 18.2669 28.8749 18.2669Z" fill="#101010"/>
</svg>
