<svg width="200" height="200" viewBox="0 0 200 200" fill="none" xmlns="http://www.w3.org/2000/svg">
<path fill-rule="evenodd" clip-rule="evenodd" d="M95.2114 26.164C97.8995 24.612 101.211 24.612 103.899 26.164L161.444 59.3871C164.132 60.9391 165.788 63.8072 165.788 66.9112V133.357C165.788 136.461 164.132 139.329 161.444 140.881L103.899 174.105C101.211 175.657 97.8995 175.657 95.2114 174.105L37.6673 140.881C34.9792 139.329 33.3232 136.461 33.3232 133.357V66.9112C33.3232 63.8072 34.9792 60.9391 37.6673 59.3871L95.2114 26.164ZM99.5554 35.1212L43.2525 67.6277V132.641L99.5554 165.147L155.858 132.641V67.6277L99.5554 35.1212ZM87.4716 59.995C87.6493 59.5033 88.1161 59.1756 88.6389 59.1756H95.9287C96.789 59.1756 97.3884 60.0295 97.096 60.8386L71.3082 132.205C71.1305 132.697 70.6638 133.024 70.1409 133.024H62.8511C61.9909 133.024 61.3915 132.17 61.6838 131.361L87.4716 59.995ZM102.909 59.1756C102.386 59.1756 101.919 59.5033 101.742 59.995L75.9538 131.361C75.6615 132.17 76.2609 133.024 77.1211 133.024H84.4109C84.9338 133.024 85.4006 132.697 85.5782 132.205L111.366 60.8386C111.658 60.0295 111.059 59.1756 110.199 59.1756H102.909ZM114.991 69.1983C114.598 68.1098 113.061 68.1041 112.66 69.1896L108.722 79.8454C108.619 80.1234 108.619 80.429 108.722 80.7069L127.81 132.215C127.991 132.702 128.455 133.025 128.974 133.025H136.272C137.132 133.025 137.732 132.171 137.439 131.362L114.991 69.1983ZM105.222 88.4157C105.623 87.3315 107.158 87.3355 107.553 88.4218L123.166 131.359C123.461 132.169 122.861 133.024 122 133.024H114.699C114.184 133.024 113.722 132.706 113.539 132.224L101.286 99.9479C101.18 99.6677 101.178 99.3584 101.282 99.0772L105.222 88.4157Z" fill="white"/>
</svg>
