<svg width="200" height="200" viewBox="0 0 200 200" fill="none" xmlns="http://www.w3.org/2000/svg">
<path fill-rule="evenodd" clip-rule="evenodd" d="M175 100C175 141.421 141.421 175 100 175C58.5787 175 25 141.421 25 100C25 58.5787 58.5787 25 100 25C141.421 25 175 58.5787 175 100ZM78.7473 129.845H64.192C61.1335 129.845 59.6226 129.845 58.7013 129.255C57.7065 128.61 57.0984 127.542 57.0247 126.362C56.9695 125.275 57.7248 123.949 59.2357 121.296L95.1747 57.9481C96.7039 55.258 97.4778 53.9131 98.4543 53.4156C99.5046 52.8815 100.757 52.8815 101.808 53.4156C102.784 53.9131 103.558 55.258 105.087 57.9481L112.476 70.8453L112.513 70.9111C114.165 73.7971 115.003 75.2604 115.368 76.7964C115.773 78.473 115.773 80.2417 115.368 81.9184C115 83.4662 114.17 84.9402 112.494 87.8697L93.6161 121.24L93.5672 121.326C91.9044 124.236 91.0619 125.71 89.8941 126.823C88.623 128.039 87.0937 128.923 85.4171 129.421C83.8879 129.845 82.1744 129.845 78.7473 129.845ZM115.504 129.846H136.361C139.438 129.846 140.986 129.846 141.907 129.238C142.902 128.593 143.528 127.506 143.584 126.327C143.637 125.276 142.898 124.001 141.45 121.502C141.4 121.417 141.35 121.33 141.299 121.242L130.852 103.37L130.733 103.169C129.265 100.686 128.524 99.4329 127.573 98.9484C126.522 98.414 125.288 98.414 124.238 98.9484C123.28 99.4457 122.506 100.754 120.977 103.389L110.567 121.26L110.531 121.322C109.007 123.952 108.246 125.267 108.301 126.346C108.374 127.525 108.982 128.612 109.977 129.257C110.88 129.846 112.428 129.846 115.504 129.846Z" fill="white"/>
</svg>
