<svg width="200" height="200" viewBox="0 0 200 200" fill="none" xmlns="http://www.w3.org/2000/svg">
<path fill-rule="evenodd" clip-rule="evenodd" d="M54.8452 41.2099L99.9875 14.9644L145.655 41.2099L129.907 50.6583L99.9875 34.3861L72.1673 50.6583L54.8452 41.2099ZM42.7722 47.5088L59.0445 57.4821L42.7722 67.4555V86.8772L26.5 76.9039V57.4821L42.7722 47.5088ZM43.2972 99.9999L26.5 89.5017V141.468L71.6423 168.238V148.292L43.2972 132.544V99.9999ZM55.3701 106.824V126.245L71.6423 135.169V116.797L55.3701 106.824ZM141.456 57.4821L157.728 47.5088L174 57.4821V76.9039L157.728 86.8772V67.4555L141.456 57.4821ZM173.475 89.5017L156.678 99.9999V132.544L128.333 148.292V168.238L173.475 141.468V89.5017ZM145.655 126.245V106.824L129.383 116.797V135.169L145.655 126.245ZM84.2401 57.4822L99.9875 47.5087L116.785 57.482L100.512 67.4554L84.2401 57.4822ZM72.1673 64.306L55.895 73.2295V93.1761L84.2402 109.448V142.518L101.037 152.491L117.31 142.518V109.448L145.655 93.1761V74.2793L129.383 64.306L99.9875 80.5782L72.1673 64.306ZM84.7651 155.641L100.512 165.614L116.785 155.641V175.587L100.512 185.036L84.7651 175.587V155.641Z" fill="white"/>
</svg>
