<svg width="200" height="200" viewBox="0 0 200 200" fill="none" xmlns="http://www.w3.org/2000/svg">
<path fill-rule="evenodd" clip-rule="evenodd" d="M47.9872 45.4174C78.0193 16.7902 125.579 17.9143 154.206 47.9464C156.068 49.9134 157.859 51.9507 159.475 54.0933L99.8322 113.771L40.1894 54.0933C41.8403 51.9507 43.5965 49.9134 45.4582 47.9464C46.2661 47.1034 47.1091 46.2604 47.9872 45.4174ZM146.057 53.6367C133.763 41.2726 117.395 34.4934 99.8322 34.4934C82.2695 34.4934 65.9011 41.2726 53.6072 53.6367L99.8322 99.8616L146.057 53.6367ZM164.146 60.8689L152.028 72.9871C161.793 84.6839 160.247 102.106 148.551 111.871C138.294 120.441 123.401 120.441 113.144 111.871L99.8317 125.183L86.5544 111.906C74.8576 121.671 57.4355 120.125 47.6707 108.429C39.1001 98.172 39.1001 83.2789 47.6707 73.0223L41.4535 66.8051L35.5524 60.8689C28.422 72.6008 24.6636 86.0889 24.6636 99.8229C24.6636 141.341 58.3136 174.991 99.8317 174.991C141.35 174.991 175 141.341 175 99.8229C175.035 86.0889 171.241 72.6008 164.146 60.8689ZM146.266 78.7567C148.9 82.1638 150.34 86.3789 150.34 90.6993C150.34 95.0197 148.9 99.2347 146.266 102.642C139.662 111.177 127.404 112.758 118.868 106.154L146.266 78.7567ZM80.7944 106.189C77.3872 108.823 73.1722 110.264 68.8518 110.264C64.5314 110.264 60.3514 108.823 56.9092 106.224C48.3737 99.6206 46.7931 87.3267 53.3966 78.7913L80.7944 106.189Z" fill="white"/>
</svg>
