<svg width="200" height="200" viewBox="0 0 200 200" fill="none" xmlns="http://www.w3.org/2000/svg">
<path fill-rule="evenodd" clip-rule="evenodd" d="M107.735 50.8458L111.589 25.8972C107.773 25.3054 103.88 25 99.9878 25H99.9308V75.8898H99.9878C102.114 75.8898 104.241 76.1571 106.273 76.7106L112.823 51.9147C111.152 51.4566 109.463 51.113 107.735 50.8458ZM87.7678 79.1726L75.1791 57.3545C73.6981 58.2325 72.2551 59.1679 70.869 60.1796L55.8309 39.4686C58.9828 37.1398 62.3626 35.0591 65.8373 33.2648L77.2677 55.732C79.5842 54.5485 81.9956 53.5368 84.483 52.716L76.6981 28.7027C80.4197 27.481 84.2741 26.5457 88.1476 25.9349L92.1539 51.2843C90.4451 51.5516 88.7552 51.9333 87.1033 52.3724L93.616 76.7293C91.5843 77.2828 89.6096 78.1036 87.7678 79.1726ZM33.1194 66.2313L55.8664 77.8752C54.6892 80.1849 53.7018 82.6092 52.9044 85.0907L28.6194 77.1881C29.8346 73.4276 31.3346 69.7436 33.1194 66.2313ZM142.796 75.4303L121.094 88.1051C122.157 89.9566 122.993 91.9418 123.543 93.9843L147.771 87.4179C148.227 89.0786 148.588 90.7774 148.853 92.4763L174.069 88.4486C173.461 84.5546 172.531 80.6796 171.297 76.9383L147.429 84.8027C146.613 82.3022 145.607 79.8779 144.429 77.5491L166.778 66.0197C164.993 62.5265 162.923 59.1288 160.607 55.9601L140.005 71.0972C140.993 72.4907 141.923 73.9414 142.796 75.4303ZM123.06 28.6275C126.8 29.8492 130.465 31.3572 133.959 33.1515L122.395 56.0195C120.079 54.836 117.667 53.8434 115.218 53.0417L123.06 28.6275ZM124.872 56.9164L112.132 79.1544C113.974 80.2234 115.682 81.5405 117.182 83.0485L152.917 46.9904C150.145 44.2035 147.126 41.6265 143.974 39.3168L129.239 59.7606C127.834 58.7298 126.391 57.7754 124.872 56.9164ZM78.8406 88.1807L56.7392 75.3533C57.6126 73.8453 58.562 72.3755 59.5683 70.9629L39.2517 56.1312C41.5492 52.9625 44.1125 49.9274 46.8847 47.1405L82.714 83.0841C81.214 84.6112 79.9039 86.3291 78.8406 88.1807ZM51.7723 87.4756L76.437 94.0802C75.9054 96.1227 75.6206 98.2415 75.6206 100.398H25C25 96.4854 25.3038 92.534 25.8924 88.6973L50.709 92.5913C50.9749 90.8733 51.3356 89.1554 51.7723 87.4756ZM144.135 122.924L166.882 134.568C168.666 131.056 170.166 127.371 171.382 123.611L147.097 115.708C146.299 118.19 145.312 120.614 144.135 122.924ZM112.208 121.606L124.797 143.425C126.297 142.566 127.74 141.63 129.126 140.58L144.164 161.31C141.012 163.639 137.632 165.72 134.158 167.514L122.708 145.047C120.392 146.231 117.98 147.242 115.493 148.063L123.278 172.076C119.556 173.298 115.702 174.233 111.828 174.844L107.822 149.495C109.531 149.227 111.221 148.846 112.873 148.407L106.36 124.05C108.392 123.496 110.366 122.675 112.208 121.606ZM57.2021 125.367L78.9048 112.673C77.8415 110.822 77.0061 108.837 76.4554 106.794L52.2274 113.361C51.7717 111.7 51.411 110.001 51.1451 108.302L25.9298 112.33C26.5374 116.224 27.4678 120.099 28.7019 123.84L52.5692 115.995C53.3856 118.476 54.392 120.92 55.5692 123.248L33.221 134.778C35.0058 138.271 37.0754 141.669 39.3919 144.838L59.9933 129.7C59.0059 128.307 58.0755 126.856 57.2021 125.367ZM76.949 172.173C73.2085 170.952 69.5439 169.444 66.0502 167.649L77.6136 144.781C79.93 145.965 82.3414 146.958 84.7908 147.759L76.949 172.173ZM75.1026 143.882L87.8432 121.644C86.0014 120.575 84.2925 119.258 82.7925 117.75L47.0581 153.808C49.8303 156.595 52.8493 159.172 56.0012 161.482L70.7355 141.038C72.1405 142.05 73.6026 143.004 75.1026 143.882ZM121.142 112.615L143.244 125.442C142.389 126.95 141.44 128.401 140.434 129.833L160.75 144.664C158.453 147.833 155.889 150.868 153.117 153.655L117.269 117.712C118.769 116.184 120.079 114.467 121.142 112.615ZM93.7109 124.089L87.1602 148.884C88.8311 149.323 90.54 149.686 92.2489 149.953L88.3944 174.902C92.2109 175.494 96.1033 175.799 99.9958 175.799H100.053V124.909H99.9958C97.8692 124.909 95.7426 124.623 93.7109 124.089ZM123.558 106.719C124.108 104.677 124.374 102.558 124.374 100.401H174.995C174.995 104.314 174.691 108.265 174.102 112.102L149.286 108.208C149.02 109.926 148.659 111.644 148.222 113.324L123.558 106.719Z" fill="white"/>
</svg>
