<svg xmlns="http://www.w3.org/2000/svg" width="20" height="20" viewBox="0 0 20 20" fill="none">
  <path fill-rule="evenodd" clip-rule="evenodd" d="M4.64946 17.1712C2.46739 15.5407 1.05163 12.9348 1.05163 10C1.05163 5.05978 5.05978 1.05163 10 1.05163C14.0788 1.05163 18.5326 3.48913 19.6087 7.22281C18.4049 3.05163 14.5598 0 10 0C4.47826 0 0 4.47826 0 10C0 15.5217 4.47826 20 10 20C15.5217 20 20 15.5217 20 10V9.47281H19.4511C19.4348 9.47281 19.4103 9.47281 19.3777 9.47281C19.3125 9.47281 19.2201 9.47013 19.1006 9.46469C18.8641 9.4565 18.5381 9.44019 18.1712 9.40763C17.4212 9.34237 16.5652 9.21469 15.9837 8.981C15.0462 8.606 14.5163 8.11144 13.9131 7.52987L13.8777 7.49731C13.2717 6.91575 12.5924 6.26088 11.4103 5.70652C10.2473 5.16033 8.96194 5.24728 8.019 5.44294C7.54075 5.54076 7.12769 5.67119 6.83694 5.77717C6.69019 5.82881 6.57338 5.87772 6.49188 5.91033C6.01631 6.11141 5.55435 6.34781 5.08967 6.56794C5.08967 6.56794 6.00544 6.81794 6.4565 6.95925C6.47281 6.96469 6.49731 6.97281 6.53263 6.98369C6.60056 7.00544 6.69837 7.04075 6.81519 7.08969C7.05437 7.1875 7.36688 7.3315 7.67663 7.53263C8.16575 7.84513 8.57063 8.24188 8.73644 8.72556C7.70106 8.86144 6.72825 9.31794 6 9.74456C5.55978 10.0027 5.19294 10.2636 4.93478 10.4565C4.80706 10.5544 4.70381 10.6359 4.63315 10.6929C4.57337 10.7419 3.63859 11.5652 3.63859 11.5652C3.63859 11.5652 4.84511 11.6929 5.44022 11.8125C5.83696 11.8913 6.36956 12.0218 6.92937 12.2147C7.48912 12.4103 8.05437 12.6657 8.52444 12.9946C8.99456 13.3234 9.33969 13.7011 9.50813 14.1359C10.0027 15.4022 9.51631 16.6331 8.54075 17.3261C7.57606 18.0109 6.11141 18.1739 4.64674 17.1685L4.64946 17.1712ZM8.0625 18.7364C8.4565 18.6087 8.82338 18.4212 9.15487 18.1875C10.481 17.2446 11.1794 15.5163 10.4919 13.7554C10.2201 13.0625 9.70381 12.5353 9.13044 12.1331C8.55437 11.731 7.894 11.4375 7.27988 11.2228C6.87769 11.0815 6.48644 10.9728 6.14674 10.8913C6.269 10.8125 6.39675 10.731 6.53531 10.6494C7.34513 10.1739 8.36687 9.73644 9.34513 9.73644C10.8206 9.73644 11.9185 10.1902 12.9674 10.6739C13.0625 10.7174 13.1576 10.7636 13.2554 10.8071C14.1929 11.2473 15.1766 11.7093 16.3206 11.7093C17.4647 11.7093 18.2935 11.3967 18.8886 11.0706C18.3587 15.5054 14.5842 18.9456 10.0054 18.9456C9.33969 18.9456 8.69019 18.8723 8.06794 18.7364H8.0625ZM17.7473 10.4266C17.3533 10.5598 16.875 10.6576 16.3179 10.6576C15.4212 10.6576 14.6494 10.2989 13.6712 9.84237C13.5842 9.80163 13.4973 9.76087 13.4076 9.72013C12.4266 9.26631 11.2935 8.78531 9.81794 8.69838C9.61956 7.72281 8.88044 7.05438 8.24456 6.64675C8.17394 6.60056 8.10325 6.55706 8.03263 6.51631C8.09513 6.50269 8.16031 6.48644 8.22825 6.47281C9.0815 6.29619 10.0978 6.25269 10.9592 6.66031C11.981 7.14131 12.5598 7.69563 13.1603 8.27175L13.1821 8.29075C13.7989 8.88312 14.4538 9.50544 15.5924 9.96194C16.2256 10.2147 17.0462 10.3506 17.7473 10.4266Z" fill="url(#paint0_linear_4074_482)"/>
  <defs>
    <linearGradient id="paint0_linear_4074_482" x1="-0.179348" y1="10.1848" x2="20.1794" y2="9.8125" gradientUnits="userSpaceOnUse">
      <stop stop-color="#29CCB9"/>
      <stop offset="0.49" stop-color="#0091FF"/>
      <stop offset="1" stop-color="#FF66B7"/>
    </linearGradient>
  </defs>
</svg>