<svg width="200" height="200" viewBox="0 0 200 200" fill="none" xmlns="http://www.w3.org/2000/svg">
<path fill-rule="evenodd" clip-rule="evenodd" d="M59.8709 153.784C43.5055 141.556 32.8872 122.011 32.8872 100C32.8872 62.9484 62.9484 32.8872 100 32.8872C130.591 32.8872 163.995 51.1685 172.065 79.1711C163.037 47.8872 134.199 25 100 25C58.587 25 25 58.587 25 100C25 141.413 58.587 175 100 175C141.413 175 175 141.413 175 100V96.0461H170.883C170.761 96.0461 170.577 96.0461 170.333 96.0461C169.844 96.0461 169.151 96.0259 168.254 95.9852C166.481 95.9238 164.035 95.8014 161.284 95.5572C155.659 95.0678 149.239 94.1102 144.878 92.3575C137.846 89.545 133.872 85.8358 129.348 81.4741L129.083 81.2298C124.538 76.8681 119.443 71.9566 110.577 67.7989C101.855 63.7024 92.2145 64.3546 85.1425 65.822C81.5556 66.5557 78.4577 67.534 76.277 68.3288C75.1764 68.716 74.3003 69.0829 73.6891 69.3274C70.1223 70.8356 66.6576 72.6086 63.1726 74.2595C63.1726 74.2595 70.0408 76.1345 73.4238 77.1944C73.5461 77.2352 73.7298 77.2961 73.9947 77.3777C74.5042 77.5408 75.2378 77.8056 76.1139 78.1727C77.9078 78.9062 80.2516 79.9863 82.5747 81.4947C86.2431 83.8384 89.2797 86.8141 90.5233 90.4417C82.758 91.4608 75.4619 94.8845 70 98.0842C66.6984 100.02 63.947 101.977 62.0109 103.424C61.053 104.158 60.2785 104.769 59.7486 105.197C59.3003 105.564 52.2894 111.739 52.2894 111.739C52.2894 111.739 61.3383 112.697 65.8016 113.594C68.7772 114.185 72.7717 115.163 76.9703 116.61C81.1684 118.077 85.4078 119.993 88.9333 122.459C92.4592 124.925 95.0477 127.758 96.3109 131.019C100.02 140.516 96.3723 149.748 89.0556 154.945C81.8205 160.082 70.8356 161.305 59.8505 153.764L59.8709 153.784ZM85.4688 165.523C88.4237 164.565 91.1753 163.159 93.6616 161.406C103.607 154.334 108.845 141.372 103.689 128.166C101.651 122.969 97.7786 119.015 93.4783 115.998C89.1578 112.982 84.205 110.781 79.5991 109.171C76.5827 108.111 73.6483 107.296 71.1005 106.685C72.0175 106.094 72.9756 105.483 74.0148 104.871C80.0884 101.305 87.7516 98.0233 95.0884 98.0233C106.155 98.0233 114.389 101.426 122.255 105.055C122.969 105.38 123.682 105.727 124.416 106.053C131.447 109.355 138.825 112.819 147.405 112.819C155.985 112.819 162.201 110.476 166.664 108.03C162.69 141.291 134.382 167.092 100.041 167.092C95.0477 167.092 90.1764 166.542 85.5095 165.523H85.4688ZM158.105 103.2C155.149 104.199 151.562 104.932 147.385 104.932C140.659 104.932 134.871 102.242 127.534 98.8178C126.882 98.5122 126.23 98.2066 125.557 97.9009C118.2 94.4973 109.701 90.8898 98.6345 90.2378C97.1467 82.9211 91.6033 77.9078 86.8342 74.8506C86.3045 74.5042 85.7744 74.178 85.2447 73.8723C85.7134 73.7702 86.2023 73.6483 86.7119 73.5461C93.1113 72.2214 100.734 71.8952 107.194 74.9523C114.857 78.5598 119.199 82.7172 123.702 87.0381L123.865 87.1806C128.492 91.6234 133.404 96.2908 141.943 99.7145C146.692 101.61 152.846 102.629 158.105 103.2Z" fill="white"/>
</svg>
