<svg width="200" height="200" viewBox="0 0 200 200" fill="none" xmlns="http://www.w3.org/2000/svg">
<path d="M73.8901 154.547C72.0141 160.629 68.247 171.524 63.7168 177.591C68.0613 180.571 91.7816 183.993 118.553 180.571C123.111 179.988 123.751 176.336 123.675 175.676C123.553 174.678 124.437 172.184 125.062 170.607C125.383 169.883 125.596 169.432 125.596 169.432C125.596 169.432 132.765 151.859 133.818 144.215C134.245 141.206 135.069 138.953 135.923 137.312C137.051 135.14 139.172 133.723 141.535 133.595C146.996 133.289 158.618 132.484 162.859 131.068C168.471 129.185 166.047 118.388 165.741 117.213C165.436 116.038 168.441 113.335 169.066 111.758C169.677 110.18 167.541 109.633 166.672 107.895C165.802 106.157 168.838 104.902 169.265 103.341C169.692 101.78 168.273 100.043 167.693 98.8837C167.114 97.7249 166.9 96.2606 166.9 96.2606C166.9 96.2606 171.019 93.0745 173.2 91.0791C175.381 89.0837 174.969 87.4261 174.969 87.0397C174.954 86.7504 170.027 83.4191 167.419 81.6812C166.29 80.925 165.253 80.056 164.307 79.0742C162.355 77.0465 159.106 73.4901 158.054 71.3177C157.383 69.9176 157.658 67.4073 158.176 65.0097C159.106 60.8095 158.389 56.3841 156.254 52.715L152.868 46.9058C151.328 44.2508 150.062 41.4183 149.146 38.4577C148.323 35.8023 146.645 31.9562 143.213 28.416C137.722 22.7515 122.485 19.9676 109.84 19.517C109.078 19.2756 108.285 19.0664 107.461 18.9216C101.833 17.9239 95.8236 16.2824 90.4395 17.3445C82.4315 18.9216 74.3476 21.5607 68.308 28.0941C67.0874 29.4137 65.181 30.0252 63.8691 31.2804C61.2611 33.7586 57.768 33.7586 55.4498 36.5103C54.1076 38.1037 53.467 43.3494 49.9284 45.3449C44.0714 48.6599 39.7244 52.3129 38.3059 54.1798C37.2383 55.5794 36.3994 57.2212 35.3622 58.6532C34.2945 60.1175 29.2459 62.596 27.7816 64.1569C26.3174 65.7178 24.3346 69.4993 25.2192 73.9731C25.2955 74.3753 25.3565 74.7132 25.4175 74.9868C25.9971 77.2558 27.5681 81.3756 27.202 83.2744C26.775 85.495 21.3146 102.183 33.5014 106.624C36.0333 107.541 37.1162 109.344 37.3908 112.095C37.6043 114.155 38.1687 116.247 39.1906 118.516C40.304 120.978 42.4852 122.33 42.6682 122.491C43.4003 123.167 46.8321 126.932 47.1067 127.48C51.4232 135.912 50.203 140.128 58.485 142.992C60.6052 143.733 62.649 144.73 64.5708 145.937C67.4843 147.788 70.123 148.834 72.0294 149.429C72.5479 149.59 73.0054 149.896 73.3716 150.282C74.8512 146.501 76.3914 142.815 77.9777 139.195C70.6565 131.744 67.7587 117.792 71.5263 107.493L71.6786 107.091L71.7089 107.123C78.3593 113.27 81.6843 124.583 80.1897 134.367C82.63 129.073 85.2077 123.971 87.8921 119.031C81.0744 111.404 78.8624 97.8539 82.9961 88.0377L83.1639 87.6674H83.1942C89.463 93.8307 92.3155 104.757 90.6221 114.171C93.3219 109.489 96.1283 104.967 99.0419 100.622C94.0845 91.4331 95.1066 77.5614 101.497 69.0648L101.772 68.7269V68.7592C105.997 75.7111 106.515 85.7848 103.618 94.072C105.387 91.6421 107.202 89.2769 109.048 86.9593C111.198 74.2306 121.936 62.1934 133.528 59.7473H133.574L133.513 60.2465C131.911 72.7016 121.921 84.7549 110.71 88.1019C108.788 90.5156 106.897 92.9779 105.051 95.5206C104.792 95.8746 104.548 96.2444 104.289 96.5985C111.519 91.2723 121.676 89.4216 129.41 92.5758H129.44L129.181 92.8975C122.638 101.12 110.13 104.95 100.643 101.845C97.5622 106.431 94.6184 111.226 91.7816 116.199C99.5758 110.647 110.847 109.344 118.84 113.527H118.87L118.58 113.833C111.396 121.333 98.7824 123.955 89.6158 120.093C86.7632 125.307 84.0486 130.73 81.4858 136.346C89.0209 130.199 100.445 128.204 108.742 132.05H108.773L108.498 132.372C101.665 140.225 89.1429 143.475 79.8235 140.047C77.749 144.746 75.7662 149.59 73.8901 154.547Z" fill="white"/>
</svg>
