<svg width="200" height="200" viewBox="0 0 200 200" fill="none" xmlns="http://www.w3.org/2000/svg">
<path fill-rule="evenodd" clip-rule="evenodd" d="M34.8943 148.781C39.3501 150.26 44.1772 151 49.3757 151C61.3406 151 70.8711 148.084 77.9671 142.253C85.0632 136.334 90.0141 127.413 92.8199 115.489C93.6452 111.746 94.4289 108.004 95.1715 104.261C95.9969 100.518 96.6979 96.7322 97.2757 92.9028C98.2659 86.9845 98.1011 81.8056 96.7806 77.3667C95.5429 72.9278 93.356 69.185 90.2206 66.1389C87.1674 63.0928 83.4131 60.8294 78.9573 59.35C74.5842 57.7833 69.7981 57 64.5997 57C52.5527 57 42.9805 60.0461 35.8845 66.1389C28.7884 72.2317 23.8785 81.1528 21.1555 92.9028C20.3301 96.7322 19.5054 100.518 18.6801 104.261C17.9374 108.004 17.2358 111.746 16.5759 115.489C15.6685 121.407 15.8333 126.586 17.071 131.025C18.3915 135.464 20.5777 139.163 23.631 142.122C26.6842 145.082 30.4385 147.301 34.8943 148.781ZM62.7431 128.022C59.3602 130.807 55.4405 132.2 50.9847 132.2C46.4462 132.2 43.187 130.807 41.2067 128.022C39.2263 125.237 38.7312 120.798 39.7214 114.706C40.3813 110.876 41.0419 107.264 41.7018 103.869C42.4444 100.475 43.2698 96.95 44.1772 93.2945C45.5798 87.2016 47.9314 82.7627 51.2323 79.9778C54.6152 77.1928 58.5348 75.8 62.9907 75.8C67.4465 75.8 70.7056 77.1928 72.7687 79.9778C74.8318 82.7627 75.3269 87.2016 74.254 93.2945C73.6761 96.95 73.0163 100.475 72.2736 103.869C71.6137 107.264 70.8294 110.876 69.9219 114.706C68.5194 120.798 66.126 125.237 62.7431 128.022ZM100.36 148.781C100.855 149.39 101.515 149.694 102.34 149.694H119.173C120.08 149.694 120.864 149.39 121.525 148.781C122.267 148.171 122.721 147.388 122.886 146.431L128.58 117.839H145.289C155.933 117.839 164.391 115.446 170.662 110.658C177.016 105.871 181.224 98.4734 183.287 88.4639C184.277 83.4155 184.236 79.0206 183.163 75.2778C182.091 71.4484 180.193 68.2711 177.47 65.7472C174.747 63.2234 171.322 61.3516 167.197 60.1333C163.153 58.915 158.615 58.3056 153.582 58.3056H120.658C119.833 58.3056 119.049 58.61 118.307 59.2194C117.564 59.8289 117.11 60.6123 116.945 61.5694L99.8645 146.431C99.699 147.388 99.8645 148.171 100.36 148.781ZM146.032 99.8222H131.798L136.625 76.4528H151.478C154.448 76.4528 156.634 76.975 158.038 78.0194C159.523 79.0639 160.389 80.4567 160.637 82.1972C160.884 83.9377 160.802 85.9401 160.389 88.2028C159.564 92.1195 157.79 95.035 155.067 96.95C152.426 98.865 149.415 99.8222 146.032 99.8222Z" fill="white"/>
</svg>
