<svg width="200" height="200" viewBox="0 0 200 200" fill="none" xmlns="http://www.w3.org/2000/svg">
<path d="M83.0375 100.807V81.2742L68.5303 72.5695C67.1497 71.7411 65.43 71.7203 64.0297 72.5151L27.2608 93.385C25.8634 94.1781 25 95.661 25 97.2678V140.622C25 142.228 25.8634 143.711 27.2608 144.504L64.1069 165.418C65.4657 166.189 67.1287 166.194 68.4919 165.431L105.867 144.5C107.277 143.71 108.15 142.22 108.15 140.604V68.6616C108.15 67.8372 108.604 67.0799 109.332 66.6919L132.187 54.5015C132.857 54.1442 133.663 54.1519 134.326 54.5219L156.114 66.6835C156.821 67.0778 157.258 67.8236 157.258 68.6328V95.0319C157.258 95.841 156.821 96.5868 156.114 96.9811L134.326 109.143C133.663 109.513 132.857 109.52 132.187 109.163L116.521 100.807V119.782L131.018 127.997C132.407 128.784 134.11 128.77 135.485 127.96L171.801 106.567C173.164 105.764 174 104.301 174 102.72V60.3568C174 58.7917 173.181 57.3409 171.84 56.533L135.521 34.6409C134.128 33.801 132.388 33.7856 130.98 34.6008L93.0778 56.5451C91.6991 57.3433 90.8502 58.8158 90.8502 60.4089V132.435C90.8502 133.238 90.4189 133.979 89.7207 134.376L67.4114 147.052C66.7207 147.444 65.8735 147.44 65.1867 147.041L43.4099 134.379C42.7225 133.98 42.2996 133.245 42.2996 132.45V106.556C42.2996 105.761 42.7225 105.026 43.4099 104.626L65.1882 91.9637C65.8742 91.5649 66.7203 91.5602 67.4106 91.9514L83.0375 100.807Z" fill="white"/>
</svg>
