<svg width="200" height="200" viewBox="0 0 200 200" fill="none" xmlns="http://www.w3.org/2000/svg">
<path fill-rule="evenodd" clip-rule="evenodd" d="M92.2246 27.3722C98.254 23.907 105.671 23.907 111.7 27.3722L160.195 55.2428C166.261 58.7287 170 65.1909 170 72.1866V127.813C170 134.809 166.261 141.271 160.195 144.757L111.7 172.628C105.671 176.093 98.254 176.093 92.2246 172.628L43.7297 144.757C37.6667 141.273 33.9248 134.819 33.9248 127.821V72.1707C33.9248 65.1687 37.6697 58.7256 43.7297 55.2428L92.2246 27.3722ZM44.0581 124.471V127.821C44.0581 131.186 45.8561 134.292 48.7789 135.971L97.2738 163.842C100.177 165.51 103.748 165.51 106.651 163.842L155.146 135.971C158.066 134.293 159.867 131.182 159.867 127.813V99.3097C155.415 103.046 149.773 105.411 143.512 105.411H60.4123C55.9739 105.411 51.9589 107.602 48.9234 111.253C45.8562 114.942 44.0581 119.836 44.0581 124.471ZM159.867 78.2858C159.867 86.8442 152.309 95.278 143.512 95.278H60.4123C53.9618 95.278 48.371 97.87 44.0581 101.734V72.1707C44.0581 68.8086 45.8531 65.71 48.7789 64.0285L97.2738 36.1579C100.177 34.4895 103.748 34.4895 106.651 36.1579L155.146 64.0285C158.066 65.7069 159.867 68.8183 159.867 72.1866V78.2858ZM75.2063 69.9599L75.2063 86.2455L65.0731 86.2455L65.0731 68.5123C65.0731 63.7154 68.9618 59.8267 73.7587 59.8267H88.2348C93.0318 59.8267 96.9205 63.7154 96.9205 68.5123L96.9205 86.2455L86.7872 86.2455L86.7872 69.9599H75.2063ZM119.358 69.9599L119.358 86.2455L109.225 86.2455L109.225 68.5123C109.225 63.7154 113.114 59.8267 117.911 59.8267H132.387C137.184 59.8267 141.072 63.7154 141.072 68.5123L141.072 86.2455L130.939 86.2455L130.939 69.9599H119.358ZM75.2063 114.475L75.2063 130.76H86.7872L86.7872 114.475L96.9205 114.475L96.9205 132.208C96.9205 137.005 93.0318 140.894 88.2348 140.894H73.7587C68.9618 140.894 65.0731 137.005 65.0731 132.208L65.0731 114.475L75.2063 114.475ZM119.358 114.475L119.358 130.76H130.939L130.939 114.475L141.072 114.475L141.072 132.208C141.072 137.005 137.184 140.894 132.387 140.894H117.911C113.114 140.894 109.225 137.005 109.225 132.208L109.225 114.475L119.358 114.475Z" fill="white"/>
</svg>
