<svg width="200" height="200" viewBox="0 0 200 200" fill="none" xmlns="http://www.w3.org/2000/svg">
<path d="M38.8686 83.5991C32.7867 77.6898 28.5231 70.0464 28.5231 60.9899V60.0264C29.0247 44.5469 41.4392 32.0861 56.5499 31.6365H152.732C155.24 31.765 157.246 33.5635 157.246 36.1969V119.568C159.44 119.954 160.506 120.275 162.638 121.046C164.331 121.688 166.651 123.037 166.651 123.037V36.1969C166.525 28.2965 160.381 21.9377 152.669 21.9377H56.4872C35.7335 22.2589 19.0554 39.6654 19.0554 60.9899C19.0554 73.3864 24.573 83.9845 33.6018 91.4349C34.2288 91.9493 34.7931 92.5916 36.4233 92.5916C39.2448 92.5916 41.2512 90.2789 41.1258 87.7741C41.063 85.6544 40.1853 84.8837 38.8686 83.5991Z" fill="white"/>
<path d="M150.223 125.028H74.7957C69.717 125.092 65.6415 129.267 65.6415 134.469V145.581C65.7669 150.72 70.0306 155.088 75.1093 155.088H80.6895V145.581H75.1093V134.727C75.1093 134.727 76.4886 134.727 78.1815 134.727C87.7119 134.727 94.7346 143.783 94.7346 153.482C94.7346 162.089 87.0849 173.072 74.2941 172.173C62.9455 171.402 56.8009 161.061 56.8009 153.482V59.3197C56.8009 55.0805 53.4151 51.6121 49.2769 51.6121H41.7529V61.2467H47.3332V153.546C47.0197 172.302 60.3748 181.744 74.2941 181.744L150.287 182C165.585 182 178 169.283 178 153.546C178 137.81 165.523 125.028 150.223 125.028ZM168.532 154.124C168.218 164.208 160.13 172.302 150.223 172.302L97.3677 172.108C101.569 167.099 104.139 160.611 104.139 153.546C104.139 142.434 97.681 134.791 97.681 134.791H150.287C160.381 134.791 168.595 143.205 168.595 153.546L168.532 154.124Z" fill="white"/>
<path d="M129.907 62.9829H73.0386V53.3484H129.907C132.478 53.3484 134.61 55.468 134.61 58.1657C134.61 60.7991 132.541 62.9829 129.907 62.9829Z" fill="white"/>
<path d="M129.907 108.328H73.0386V98.6931H129.907C132.478 98.6931 134.61 100.813 134.61 103.511C134.61 106.144 132.541 108.328 129.907 108.328Z" fill="white"/>
<path d="M139.94 85.6546H73.0386V76.02H139.876C142.448 76.02 144.579 78.1396 144.579 80.8373C144.642 83.4707 142.51 85.6546 139.94 85.6546Z" fill="white"/>
</svg>
