<svg width="20" height="20" viewBox="0 0 146 147" fill="none" xmlns="http://www.w3.org/2000/svg">
<path d="M135.496 99.7687V13.0903C135.381 5.83754 129.74 0 122.66 0H34.3632C15.3109 0.294827 0 16.2744 0 35.8508C0 42.4549 1.7268 48.1155 4.37455 53.0686C6.61937 57.1962 10.1305 61.0879 13.5841 63.9774C14.5626 64.8025 14.1022 64.449 17.0953 66.3359C21.2396 68.93 25.9595 70.2273 25.9595 70.2273L25.9019 122.058C26.0171 124.534 26.2473 126.893 26.8804 129.075C28.8375 136.386 33.7876 141.988 40.5222 144.7C43.3426 145.821 46.5084 146.587 49.9044 146.646L120.415 146.882C134.46 146.882 145.857 135.207 145.857 120.76C145.914 112.211 141.77 104.545 135.496 99.7687Z" fill="#FFEEDA"/>
<path d="M137.222 121.409C136.934 130.667 129.509 138.096 120.414 138.096L71.8916 137.919C75.7477 133.32 78.1076 127.364 78.1076 120.878C78.1076 110.678 72.1792 103.661 72.1792 103.661H120.472C129.739 103.661 137.279 111.385 137.279 120.878L137.222 121.409Z" fill="#EBC28E"/>
<path d="M18.1889 56.6653C12.6056 51.2405 8.69153 44.2237 8.69153 35.9096V35.0251C9.15202 20.8145 20.5489 9.37529 34.4208 8.96254H122.718C125.02 9.08047 126.862 10.7315 126.862 13.1491V89.6856C128.876 90.0398 129.855 90.3346 131.812 91.0423C133.366 91.632 135.496 92.8699 135.496 92.8699V13.1491C135.381 5.89635 129.74 0.0588379 122.66 0.0588379H34.3632C15.3109 0.353658 0 16.3332 0 35.9096C0 47.2898 5.06528 57.0191 13.3539 63.8588C13.9295 64.3311 14.4475 64.9207 15.9441 64.9207C18.5343 64.9207 20.3762 62.7976 20.2611 60.4981C20.2035 58.5522 19.3977 57.8446 18.1889 56.6653Z" fill="#101010"/>
<path d="M120.415 94.6977H51.1709C46.5086 94.7564 42.7672 98.5897 42.7672 103.366V113.566C42.8823 118.284 46.7964 122.293 51.4588 122.293H56.5815V113.566H51.4588V103.602C51.4588 103.602 52.7251 103.602 54.2792 103.602C63.0283 103.602 69.4752 111.915 69.4752 120.819C69.4752 128.721 62.4526 138.803 50.7104 137.978C40.2921 137.271 34.6513 127.777 34.6513 120.819V34.3764C34.6513 30.4847 31.5431 27.3005 27.7441 27.3005H20.8369V36.1453H25.9597V120.878C25.672 138.096 37.9322 146.764 50.7104 146.764L120.473 147C134.518 147 145.915 135.325 145.915 120.878C145.915 106.432 134.46 94.6977 120.415 94.6977ZM137.223 121.409C136.935 130.666 129.51 138.096 120.415 138.096L71.8925 137.919C75.7493 133.32 78.1092 127.364 78.1092 120.878C78.1092 110.677 72.1802 103.66 72.1802 103.66H120.473C129.74 103.66 137.281 111.385 137.281 120.878L137.223 121.409Z" fill="#101010"/>
<path d="M101.765 37.7393H49.5579V28.8945H101.765C104.124 28.8945 106.082 30.8403 106.082 33.3169C106.082 35.7344 104.182 37.7393 101.765 37.7393Z" fill="#101010"/>
<path d="M101.765 79.3675H49.5579V70.5222H101.765C104.124 70.5222 106.082 72.4686 106.082 74.9452C106.082 77.3624 104.182 79.3675 101.765 79.3675Z" fill="#101010"/>
<path d="M110.974 58.5523H49.5579V49.7075H110.916C113.277 49.7075 115.234 51.6533 115.234 54.1299C115.291 56.5474 113.334 58.5523 110.974 58.5523Z" fill="#101010"/>
</svg>
