<svg width="123" height="81" viewBox="0 0 123 81" fill="none" xmlns="http://www.w3.org/2000/svg">
<rect x="3.40186" y="28.6714" width="109.066" height="44.4874" rx="22.2437" transform="rotate(-10.4597 3.40186 28.6714)" fill="#0469FF"/>
<rect x="8.99848" y="32.5245" width="99.4555" height="34.877" rx="17.4385" transform="rotate(-10.4597 8.99848 32.5245)" stroke="url(#paint0_linear_89_3666)"/>
<path d="M40.5935 49.8826L38.6531 39.3722L45.8279 38.0477L46.0429 39.212L40.2212 40.2868L40.8428 43.6539L46.1924 42.6663L46.4016 43.7991L41.052 44.7867L41.9466 49.6328L40.5935 49.8826ZM52.5324 47.8413C51.7877 47.9788 51.0978 47.9434 50.4628 47.7352C49.8258 47.5166 49.2915 47.1488 48.8598 46.6319C48.4281 46.115 48.1407 45.4685 47.9974 44.6923C47.8541 43.916 47.8917 43.2095 48.1104 42.5725C48.3291 41.9356 48.6978 41.4065 49.2166 40.9853C49.7335 40.5536 50.3643 40.269 51.1091 40.1316C51.8643 39.9921 52.5552 40.0327 53.1816 40.2533C53.8167 40.4615 54.35 40.824 54.7817 41.3409C55.2134 41.8578 55.5008 42.5044 55.6441 43.2806C55.7874 44.0568 55.7498 44.7634 55.5311 45.4003C55.3124 46.0373 54.9446 46.5716 54.4278 47.0033C53.9194 47.4225 53.2876 47.7018 52.5324 47.8413ZM52.3262 46.7242C52.8297 46.6312 53.2499 46.4397 53.5868 46.1497C53.9238 45.8597 54.1594 45.4908 54.2937 45.043C54.4279 44.5952 54.4428 44.0881 54.3382 43.5217C54.2336 42.9552 54.0387 42.4868 53.7534 42.1165C53.4681 41.7461 53.1163 41.4857 52.698 41.3351C52.2797 41.1845 51.8188 41.1557 51.3153 41.2487C50.8118 41.3416 50.3916 41.5331 50.0547 41.8231C49.7177 42.1131 49.4821 42.482 49.3478 42.9298C49.2136 43.3776 49.1987 43.8847 49.3033 44.4512C49.4079 45.0176 49.6028 45.486 49.8881 45.8563C50.1734 46.2267 50.5252 46.4872 50.9435 46.6377C51.3618 46.7883 51.8227 46.8171 52.3262 46.7242ZM58.3855 46.598L56.4451 36.0876L57.7196 35.8524L59.6599 46.3627L58.3855 46.598ZM62.15 45.9031L60.2096 35.3927L61.4841 35.1574L63.4244 45.6678L62.15 45.9031ZM69.3421 44.738C68.5974 44.8755 67.9075 44.8402 67.2725 44.632C66.6355 44.4133 66.1012 44.0455 65.6695 43.5286C65.2378 43.0118 64.9504 42.3652 64.8071 41.589C64.6638 40.8128 64.7014 40.1062 64.9201 39.4692C65.1388 38.8323 65.5075 38.3032 66.0263 37.882C66.5432 37.4504 67.174 37.1658 67.9188 37.0283C68.674 36.8889 69.3649 36.9295 69.9913 37.1501C70.6264 37.3582 71.1597 37.7208 71.5914 38.2377C72.0231 38.7545 72.3105 39.4011 72.4538 40.1773C72.5971 40.9535 72.5595 41.6601 72.3408 42.2971C72.1221 42.934 71.7543 43.4683 71.2375 43.9C70.7291 44.3192 70.0973 44.5986 69.3421 44.738ZM69.1359 43.6209C69.6394 43.5279 70.0596 43.3365 70.3965 43.0465C70.7335 42.7565 70.9691 42.3876 71.1034 41.9398C71.2376 41.492 71.2525 40.9848 71.1479 40.4184C71.0433 39.852 70.8484 39.3836 70.5631 39.0132C70.2778 38.6429 69.926 38.3824 69.5077 38.2318C69.0894 38.0813 68.6285 38.0525 68.125 38.1454C67.6215 38.2384 67.2013 38.4298 66.8644 38.7198C66.5274 39.0098 66.2918 39.3787 66.1575 39.8265C66.0233 40.2744 66.0084 40.7815 66.113 41.3479C66.2176 41.9143 66.4125 42.3827 66.6978 42.7531C66.9831 43.1234 67.3349 43.3839 67.7532 43.5345C68.1715 43.685 68.6324 43.7138 69.1359 43.6209ZM76.375 43.277L72.3822 36.367L73.751 36.1143L76.7081 41.5559L77.6059 35.4026L78.8332 35.1761L81.8531 40.6061L82.688 34.4644L84.0569 34.2117L82.7945 42.0918L81.5515 42.3213L78.5158 36.8942L77.618 43.0475L76.375 43.277Z" fill="white"/>
<path d="M113.852 27.2893C113.852 27.2893 92.1425 16.171 84.4331 13.6561C89.3391 12.9019 93.5108 10.7285 101.22 13.7464C107.388 16.1608 112.417 22.9841 113.852 27.2893Z" fill="#16181D"/>
<g filter="url(#filter0_d_89_3666)">
<path d="M113.852 27.2893C112.417 22.984 90.1734 13.656 84.4331 13.656C88.0208 15.0911 89.6394 20.7504 97.3488 23.7016C106.721 27.2893 109.547 25.8542 113.852 27.2893Z" fill="url(#paint1_linear_89_3666)"/>
</g>
<defs>
<filter id="filter0_d_89_3666" x="80.4331" y="11.656" width="37.4189" height="21.6333" filterUnits="userSpaceOnUse" color-interpolation-filters="sRGB">
<feFlood flood-opacity="0" result="BackgroundImageFix"/>
<feColorMatrix in="SourceAlpha" type="matrix" values="0 0 0 0 0 0 0 0 0 0 0 0 0 0 0 0 0 0 127 0" result="hardAlpha"/>
<feOffset dy="2"/>
<feGaussianBlur stdDeviation="2"/>
<feComposite in2="hardAlpha" operator="out"/>
<feColorMatrix type="matrix" values="0 0 0 0 0 0 0 0 0 0 0 0 0 0 0 0 0 0 0.25 0"/>
<feBlend mode="normal" in2="BackgroundImageFix" result="effect1_dropShadow_89_3666"/>
<feBlend mode="normal" in="SourceGraphic" in2="effect1_dropShadow_89_3666" result="shape"/>
</filter>
<linearGradient id="paint0_linear_89_3666" x1="58.6438" y1="32.1235" x2="58.6438" y2="68.0005" gradientUnits="userSpaceOnUse">
<stop stop-color="white"/>
<stop offset="1" stop-color="white" stop-opacity="0.5"/>
</linearGradient>
<linearGradient id="paint1_linear_89_3666" x1="92.7425" y1="17.6644" x2="102.434" y2="22.1299" gradientUnits="userSpaceOnUse">
<stop stop-color="#979ABE"/>
<stop offset="1" stop-color="#6C6E7D"/>
</linearGradient>
</defs>
</svg>
