<svg width="93" height="69" viewBox="0 0 93 69" fill="none" xmlns="http://www.w3.org/2000/svg">
<path d="M82.5608 0.752158L9.49205 6.28168C5.95818 6.54911 4.49192 10.9403 7.15613 13.2773L27.2344 30.8899C28.0438 31.5998 28.5328 32.606 28.5909 33.681L29.9792 59.3656C30.1715 62.9229 34.5677 64.4731 36.9487 61.8232L85.8379 7.41423C88.2484 4.73161 86.157 0.480012 82.5608 0.752158Z" fill="#0469FF"/>
<path d="M80.5204 3.86614L12.3052 8.88185C10.5296 9.0124 9.7968 11.2234 11.1429 12.3886L30.4415 29.0944C31.2762 29.817 31.7752 30.8524 31.8202 31.9555L32.8265 56.6122C32.8995 58.4014 35.1066 59.2003 36.3079 57.8724L82.1502 7.20255C83.3608 5.86444 82.3201 3.73381 80.5204 3.86614Z" stroke="white" stroke-linecap="round"/>
<path d="M39.5064 31.7273C38.8481 32.0564 38.197 32.2567 37.553 32.3282C36.909 32.3997 36.203 32.3353 35.435 32.1349L35.478 30.897C36.203 31.0592 36.8423 31.1213 37.3956 31.0831C37.9442 31.0355 38.4666 30.8876 38.9627 30.6396C39.6973 30.2723 40.1911 29.8407 40.4439 29.3446C40.692 28.8389 40.6777 28.3094 40.4011 27.7561C40.2103 27.3744 39.9289 27.1216 39.5568 26.9975C39.1895 26.8592 38.7482 26.8591 38.233 26.9975L36.4298 27.5054C35.5235 27.7677 34.7793 27.782 34.1974 27.5482C33.6106 27.3049 33.1718 26.8922 32.8808 26.3102C32.6185 25.7855 32.4993 25.2488 32.5232 24.7002C32.547 24.1516 32.7379 23.6269 33.0957 23.1261C33.4487 22.6157 33.9878 22.1792 34.7129 21.8167C35.2853 21.5305 35.8769 21.3421 36.4875 21.2515C37.0933 21.1514 37.7349 21.1825 38.4123 21.3447L38.3693 22.5826C37.8064 22.4824 37.2769 22.4489 36.7808 22.4823C36.2799 22.5061 35.7814 22.642 35.2852 22.8901C34.6174 23.2239 34.1857 23.6246 33.99 24.0921C33.7897 24.55 33.8135 25.0271 34.0615 25.5232C34.2523 25.9048 34.5218 26.1457 34.87 26.2459C35.223 26.3318 35.6571 26.3056 36.1723 26.1673L37.9755 25.6594C38.8724 25.4018 39.6261 25.4186 40.2366 25.7096C40.8568 25.9958 41.3123 26.43 41.6032 27.012C42.0373 27.8802 42.0802 28.7412 41.7319 29.5951C41.3931 30.4442 40.6513 31.1549 39.5064 31.7273ZM44.8702 28.8669L40.091 19.3069L41.2502 18.7274L43.1605 22.5485C43.1939 22.0906 43.3466 21.6684 43.6185 21.282C43.9 20.8909 44.3126 20.5594 44.8564 20.2875C45.6293 19.9012 46.3448 19.8177 47.0031 20.0372C47.6614 20.2567 48.2266 20.8387 48.6988 21.7832L50.7665 25.9192L49.6073 26.4987L47.604 22.4915C47.2797 21.8428 46.9124 21.442 46.5021 21.2894C46.0967 21.1224 45.622 21.1748 45.0782 21.4467C44.4485 21.7615 44.0716 22.2242 43.9476 22.8348C43.8187 23.4358 43.9403 24.1085 44.3124 24.8526L46.0295 28.2873L44.8702 28.8669ZM55.2504 23.8564C54.7352 24.114 54.2486 24.2619 53.7906 24.3C53.3375 24.3238 52.932 24.2403 52.5742 24.0495C52.2117 23.8491 51.9255 23.539 51.7156 23.1192C51.5058 22.6994 51.4342 22.294 51.501 21.9028C51.5679 21.5116 51.7515 21.1396 52.0521 20.7866C52.3479 20.4241 52.7343 20.0878 53.2113 19.7777L55.494 18.2609C55.1601 17.7362 54.757 17.4309 54.2848 17.345C53.8173 17.2448 53.3212 17.3258 52.7964 17.5882C52.472 17.7503 52.1691 17.9912 51.8877 18.3108C51.6014 18.6209 51.3366 19.0096 51.0933 19.4771L50.1775 18.8259C50.3826 18.3536 50.6617 17.922 51.0147 17.5308C51.3773 17.1349 51.8019 16.8153 52.2885 16.5721C53.2998 16.0665 54.1799 15.9186 54.9288 16.1286C55.6778 16.3385 56.2812 16.9014 56.7391 17.8174L58.7853 21.9104L57.669 22.4684L57.1467 21.4237C57.099 21.9484 56.9105 22.4183 56.5813 22.8333C56.2474 23.2388 55.8037 23.5798 55.2504 23.8564ZM54.9571 22.733C55.4436 22.4898 55.8062 22.1893 56.0447 21.8315C56.2785 21.4642 56.3978 21.0826 56.4026 20.6867C56.4121 20.2764 56.3287 19.8948 56.1522 19.5418L55.9877 19.2126L53.9769 20.5577C53.476 20.8916 53.123 21.2112 52.9178 21.5165C52.7175 21.8075 52.7079 22.1342 52.8892 22.4968C53.0513 22.8212 53.3161 23.0048 53.6834 23.0478C54.0459 23.0812 54.4705 22.9763 54.9571 22.733ZM61.0403 20.783L57.6776 14.0567L58.7939 13.4987L59.4092 14.7295C59.3663 14.2143 59.457 13.7635 59.6812 13.3771C59.9102 12.9764 60.2394 12.6687 60.6687 12.4541C60.8023 12.3873 60.9263 12.3373 61.0408 12.3039C61.1601 12.2562 61.2602 12.2299 61.3413 12.2252L61.8851 13.3128C61.7467 13.3462 61.6132 13.3891 61.4844 13.4416C61.3508 13.4845 61.222 13.537 61.098 13.599C60.5923 13.8518 60.2822 14.2811 60.1677 14.8869C60.0484 15.4832 60.1843 16.1725 60.5754 16.9549L62.1995 20.2035L61.0403 20.783ZM69.0397 16.9628C68.3719 17.2967 67.7016 17.4588 67.029 17.4492C66.3564 17.4397 65.7387 17.2536 65.1758 16.891C64.6082 16.5189 64.1383 15.9607 63.7663 15.2166C63.4085 14.501 63.2464 13.8069 63.2798 13.1343C63.3133 12.4617 63.5113 11.8559 63.8738 11.3169C64.2364 10.7778 64.7278 10.3533 65.3479 10.0433C66.0062 9.71418 66.6383 9.55918 67.2441 9.5783C67.85 9.59742 68.3914 9.76202 68.8684 10.0721C69.3406 10.3727 69.7151 10.7996 69.9917 11.353C70.068 11.5057 70.13 11.6893 70.1777 11.904C70.2302 12.1043 70.2516 12.2785 70.2421 12.4263L65.133 14.9805C65.4096 15.4146 65.7292 15.7438 66.0917 15.968C66.459 16.1779 66.8597 16.2757 67.2938 16.2615C67.7279 16.2472 68.174 16.1256 68.6319 15.8966C69.0803 15.6724 69.4381 15.4101 69.7053 15.1096C69.9772 14.7948 70.2062 14.4298 70.3923 14.0148L71.2867 14.6589C71.0815 15.155 70.7905 15.5986 70.4136 15.9897C70.032 16.3713 69.574 16.6957 69.0397 16.9628ZM64.6465 14.0073L68.7824 11.9397C68.7824 11.9158 68.7777 11.8944 68.7681 11.8753C68.7586 11.8562 68.7443 11.8276 68.7252 11.7894C68.5535 11.4459 68.3317 11.1812 68.0598 10.9951C67.7831 10.7995 67.4611 10.7041 67.0938 10.7088C66.736 10.7088 66.3377 10.8185 65.8988 11.0379C65.5554 11.2096 65.2691 11.4481 65.0401 11.7534C64.8064 12.0492 64.6537 12.3878 64.5821 12.7695C64.5106 13.1511 64.532 13.5637 64.6465 14.0073Z" fill="white"/>
</svg>
