<svg width="42" height="42" viewBox="0 0 42 42" fill="none" xmlns="http://www.w3.org/2000/svg">
<rect width="42" height="42" rx="12" fill="white"/>
<path fill-rule="evenodd" clip-rule="evenodd" d="M12.5729 32.2946C9.13614 29.7267 6.90632 25.6223 6.90632 21C6.90632 13.2192 13.2192 6.90632 21 6.90632C27.4241 6.90632 34.4389 10.7454 36.1337 16.6259C34.2377 10.0563 28.1817 5.25 21 5.25C12.3033 5.25 5.25 12.3033 5.25 21C5.25 29.6968 12.3033 36.75 21 36.75C29.6968 36.75 36.75 29.6968 36.75 21V20.1697H35.8854C35.8598 20.1697 35.8212 20.1697 35.7699 20.1697C35.6672 20.1697 35.5217 20.1654 35.3334 20.1569C34.961 20.144 34.4474 20.1183 33.8696 20.067C32.6884 19.9642 31.3402 19.7631 30.4243 19.3951C28.9477 18.8045 28.1132 18.0255 27.1631 17.1096L27.1074 17.0583C26.153 16.1423 25.083 15.1109 23.2212 14.2378C21.3895 13.3775 19.3651 13.5145 17.8799 13.8226C17.1267 13.9767 16.4761 14.1821 16.0182 14.3491C15.787 14.4304 15.6031 14.5074 15.4747 14.5588C14.7257 14.8755 13.9981 15.2478 13.2662 15.5945C13.2662 15.5945 14.7086 15.9883 15.419 16.2108C15.4447 16.2194 15.4833 16.2322 15.5389 16.2493C15.6459 16.2836 15.7999 16.3392 15.9839 16.4163C16.3606 16.5703 16.8528 16.7971 17.3407 17.1139C18.1111 17.6061 18.7487 18.231 19.0099 18.9928C17.3792 19.2068 15.847 19.9258 14.7 20.5977C14.0067 21.0042 13.4289 21.4151 13.0223 21.719C12.8211 21.8731 12.6585 22.0015 12.5472 22.0914C12.4531 22.1685 10.9808 23.4652 10.9808 23.4652C10.9808 23.4652 12.881 23.6664 13.8183 23.8547C14.4432 23.9788 15.2821 24.1843 16.1638 24.4881C17.0454 24.7962 17.9356 25.1986 18.676 25.7164C19.4164 26.2343 19.96 26.8292 20.2253 27.514C21.0042 29.5084 20.2382 31.4472 18.7017 32.5385C17.1823 33.6171 14.8755 33.874 12.5686 32.2904L12.5729 32.2946ZM17.9484 34.7599C18.569 34.5587 19.1468 34.2634 19.6689 33.8953C21.7576 32.4102 22.8575 29.6882 21.7747 26.9148C21.3467 25.8234 20.5335 24.9931 19.6304 24.3597C18.7231 23.7263 17.6831 23.2641 16.7158 22.9259C16.0824 22.7034 15.4661 22.5322 14.9311 22.4038C15.1237 22.2797 15.3249 22.1513 15.5431 22.0229C16.8186 21.274 18.4278 20.5849 19.9686 20.5849C22.2925 20.5849 24.0216 21.2995 25.6736 22.0615C25.8234 22.1299 25.9733 22.2026 26.1273 22.2711C27.6039 22.9645 29.1532 23.6921 30.955 23.6921C32.7569 23.6921 34.0623 23.1999 34.9995 22.6862C34.1649 29.6711 28.2202 35.0894 21.0086 35.0894C19.96 35.0894 18.937 34.9739 17.957 34.7599H17.9484ZM33.202 21.6719C32.5814 21.8817 31.8281 22.0358 30.9508 22.0358C29.5384 22.0358 28.3229 21.4708 26.7821 20.7517C26.6452 20.6876 26.5083 20.6234 26.367 20.5592C24.8219 19.8444 23.0373 19.0869 20.7133 18.9499C20.4008 17.4134 19.2367 16.3606 18.2352 15.7186C18.124 15.6459 18.0126 15.5774 17.9014 15.5132C17.9998 15.4917 18.1025 15.4661 18.2095 15.4447C19.5534 15.1665 21.1541 15.098 22.5108 15.74C24.1201 16.4976 25.0317 17.3706 25.9775 18.278L26.0117 18.3079C26.9833 19.2409 28.0148 20.2211 29.808 20.9401C30.8053 21.3381 32.0977 21.5521 33.202 21.6719Z" fill="url(#paint0_linear_5049_7308)"/>
<defs>
<linearGradient id="paint0_linear_5049_7308" x1="4.96753" y1="21.2911" x2="37.0325" y2="20.7047" gradientUnits="userSpaceOnUse">
<stop stop-color="#29CCB9"/>
<stop offset="0.49" stop-color="#0091FF"/>
<stop offset="1" stop-color="#FF66B7"/>
</linearGradient>
</defs>
</svg>
