<svg width="424" height="67" viewBox="0 0 424 67" fill="none" xmlns="http://www.w3.org/2000/svg">
<mask id="path-1-outside-1_4734_1018" maskUnits="userSpaceOnUse" x="-1" y="-1" width="426" height="69" fill="black">
<rect fill="white" x="-1" y="-1" width="426" height="69"/>
<path d="M23.7395 66.26C19.4195 66.26 15.4895 65.3 11.9495 63.38C8.46953 61.4 5.67953 58.55 3.57953 54.83C1.53953 51.05 0.519531 46.46 0.519531 41.06V25.94C0.519531 17.84 2.79953 11.63 7.35953 7.31C11.9195 2.93 18.0995 0.739996 25.8995 0.739996C33.6395 0.739996 39.6095 2.81 43.8095 6.95C48.0695 11.03 50.1995 16.58 50.1995 23.6V23.96H38.4995V23.24C38.4995 21.02 38.0195 19.01 37.0595 17.21C36.1595 15.41 34.7795 14 32.9195 12.98C31.0595 11.9 28.7195 11.36 25.8995 11.36C21.6995 11.36 18.3995 12.65 15.9995 15.23C13.5995 17.81 12.3995 21.32 12.3995 25.76V41.24C12.3995 45.62 13.5995 49.16 15.9995 51.86C18.3995 54.5 21.7595 55.82 26.0795 55.82C30.3995 55.82 33.5495 54.68 35.5295 52.4C37.5095 50.12 38.4995 47.24 38.4995 43.76V42.86H23.5595V32.78H50.1995V65H39.2195V58.97H37.5995C37.1795 59.99 36.4895 61.07 35.5295 62.21C34.6295 63.35 33.2495 64.31 31.3895 65.09C29.5295 65.87 26.9795 66.26 23.7395 66.26ZM61.5494 65V2H102.049V12.8H73.4294V27.83H99.5294V38.63H73.4294V54.2H102.589V65H61.5494ZM125.963 65V12.8H107.603V2H156.203V12.8H137.843V65H125.963ZM206.29 66.26C201.43 66.26 197.14 65.39 193.42 63.65C189.7 61.91 186.79 59.42 184.69 56.18C182.59 52.94 181.54 49.04 181.54 44.48V41.96H193.24V44.48C193.24 48.26 194.41 51.11 196.75 53.03C199.09 54.89 202.27 55.82 206.29 55.82C210.37 55.82 213.4 55.01 215.38 53.39C217.42 51.77 218.44 49.7 218.44 47.18C218.44 45.44 217.93 44.03 216.91 42.95C215.95 41.87 214.51 41 212.59 40.34C210.73 39.62 208.45 38.96 205.75 38.36L203.68 37.91C199.36 36.95 195.64 35.75 192.52 34.31C189.46 32.81 187.09 30.86 185.41 28.46C183.79 26.06 182.98 22.94 182.98 19.1C182.98 15.26 183.88 11.99 185.68 9.29C187.54 6.53 190.12 4.43 193.42 2.99C196.78 1.49 200.71 0.739996 205.21 0.739996C209.71 0.739996 213.7 1.52 217.18 3.08C220.72 4.58 223.48 6.86 225.46 9.92C227.5 12.92 228.52 16.7 228.52 21.26V23.96H216.82V21.26C216.82 18.86 216.34 16.94 215.38 15.5C214.48 14 213.16 12.92 211.42 12.26C209.68 11.54 207.61 11.18 205.21 11.18C201.61 11.18 198.94 11.87 197.2 13.25C195.52 14.57 194.68 16.4 194.68 18.74C194.68 20.3 195.07 21.62 195.85 22.7C196.69 23.78 197.92 24.68 199.54 25.4C201.16 26.12 203.23 26.75 205.75 27.29L207.82 27.74C212.32 28.7 216.22 29.93 219.52 31.43C222.88 32.93 225.49 34.91 227.35 37.37C229.21 39.83 230.14 42.98 230.14 46.82C230.14 50.66 229.15 54.05 227.17 56.99C225.25 59.87 222.49 62.15 218.89 63.83C215.35 65.45 211.15 66.26 206.29 66.26ZM239.001 65V2H264.921C268.881 2 272.361 2.81 275.361 4.43C278.421 5.99 280.791 8.21 282.471 11.09C284.211 13.97 285.081 17.39 285.081 21.35V22.61C285.081 26.51 284.181 29.93 282.381 32.87C280.641 35.75 278.241 38 275.181 39.62C272.181 41.18 268.761 41.96 264.921 41.96H250.881V65H239.001ZM250.881 31.16H263.751C266.571 31.16 268.851 30.38 270.591 28.82C272.331 27.26 273.201 25.13 273.201 22.43V21.53C273.201 18.83 272.331 16.7 270.591 15.14C268.851 13.58 266.571 12.8 263.751 12.8H250.881V31.16ZM293.317 65V2H305.197V65H293.317ZM317.047 65V2H339.637L352.147 56.9H353.767V2H365.467V65H342.877L330.367 10.1H328.747V65H317.047ZM399.21 66.26C394.35 66.26 390.06 65.39 386.34 63.65C382.62 61.91 379.71 59.42 377.61 56.18C375.51 52.94 374.46 49.04 374.46 44.48V41.96H386.16V44.48C386.16 48.26 387.33 51.11 389.67 53.03C392.01 54.89 395.19 55.82 399.21 55.82C403.29 55.82 406.32 55.01 408.3 53.39C410.34 51.77 411.36 49.7 411.36 47.18C411.36 45.44 410.85 44.03 409.83 42.95C408.87 41.87 407.43 41 405.51 40.34C403.65 39.62 401.37 38.96 398.67 38.36L396.6 37.91C392.28 36.95 388.56 35.75 385.44 34.31C382.38 32.81 380.01 30.86 378.33 28.46C376.71 26.06 375.9 22.94 375.9 19.1C375.9 15.26 376.8 11.99 378.6 9.29C380.46 6.53 383.04 4.43 386.34 2.99C389.7 1.49 393.63 0.739996 398.13 0.739996C402.63 0.739996 406.62 1.52 410.1 3.08C413.64 4.58 416.4 6.86 418.38 9.92C420.42 12.92 421.44 16.7 421.44 21.26V23.96H409.74V21.26C409.74 18.86 409.26 16.94 408.3 15.5C407.4 14 406.08 12.92 404.34 12.26C402.6 11.54 400.53 11.18 398.13 11.18C394.53 11.18 391.86 11.87 390.12 13.25C388.44 14.57 387.6 16.4 387.6 18.74C387.6 20.3 387.99 21.62 388.77 22.7C389.61 23.78 390.84 24.68 392.46 25.4C394.08 26.12 396.15 26.75 398.67 27.29L400.74 27.74C405.24 28.7 409.14 29.93 412.44 31.43C415.8 32.93 418.41 34.91 420.27 37.37C422.13 39.83 423.06 42.98 423.06 46.82C423.06 50.66 422.07 54.05 420.09 56.99C418.17 59.87 415.41 62.15 411.81 63.83C408.27 65.45 404.07 66.26 399.21 66.26Z"/>
</mask>
<path d="M23.7395 66.26C19.4195 66.26 15.4895 65.3 11.9495 63.38C8.46953 61.4 5.67953 58.55 3.57953 54.83C1.53953 51.05 0.519531 46.46 0.519531 41.06V25.94C0.519531 17.84 2.79953 11.63 7.35953 7.31C11.9195 2.93 18.0995 0.739996 25.8995 0.739996C33.6395 0.739996 39.6095 2.81 43.8095 6.95C48.0695 11.03 50.1995 16.58 50.1995 23.6V23.96H38.4995V23.24C38.4995 21.02 38.0195 19.01 37.0595 17.21C36.1595 15.41 34.7795 14 32.9195 12.98C31.0595 11.9 28.7195 11.36 25.8995 11.36C21.6995 11.36 18.3995 12.65 15.9995 15.23C13.5995 17.81 12.3995 21.32 12.3995 25.76V41.24C12.3995 45.62 13.5995 49.16 15.9995 51.86C18.3995 54.5 21.7595 55.82 26.0795 55.82C30.3995 55.82 33.5495 54.68 35.5295 52.4C37.5095 50.12 38.4995 47.24 38.4995 43.76V42.86H23.5595V32.78H50.1995V65H39.2195V58.97H37.5995C37.1795 59.99 36.4895 61.07 35.5295 62.21C34.6295 63.35 33.2495 64.31 31.3895 65.09C29.5295 65.87 26.9795 66.26 23.7395 66.26ZM61.5494 65V2H102.049V12.8H73.4294V27.83H99.5294V38.63H73.4294V54.2H102.589V65H61.5494ZM125.963 65V12.8H107.603V2H156.203V12.8H137.843V65H125.963ZM206.29 66.26C201.43 66.26 197.14 65.39 193.42 63.65C189.7 61.91 186.79 59.42 184.69 56.18C182.59 52.94 181.54 49.04 181.54 44.48V41.96H193.24V44.48C193.24 48.26 194.41 51.11 196.75 53.03C199.09 54.89 202.27 55.82 206.29 55.82C210.37 55.82 213.4 55.01 215.38 53.39C217.42 51.77 218.44 49.7 218.44 47.18C218.44 45.44 217.93 44.03 216.91 42.95C215.95 41.87 214.51 41 212.59 40.34C210.73 39.62 208.45 38.96 205.75 38.36L203.68 37.91C199.36 36.95 195.64 35.75 192.52 34.31C189.46 32.81 187.09 30.86 185.41 28.46C183.79 26.06 182.98 22.94 182.98 19.1C182.98 15.26 183.88 11.99 185.68 9.29C187.54 6.53 190.12 4.43 193.42 2.99C196.78 1.49 200.71 0.739996 205.21 0.739996C209.71 0.739996 213.7 1.52 217.18 3.08C220.72 4.58 223.48 6.86 225.46 9.92C227.5 12.92 228.52 16.7 228.52 21.26V23.96H216.82V21.26C216.82 18.86 216.34 16.94 215.38 15.5C214.48 14 213.16 12.92 211.42 12.26C209.68 11.54 207.61 11.18 205.21 11.18C201.61 11.18 198.94 11.87 197.2 13.25C195.52 14.57 194.68 16.4 194.68 18.74C194.68 20.3 195.07 21.62 195.85 22.7C196.69 23.78 197.92 24.68 199.54 25.4C201.16 26.12 203.23 26.75 205.75 27.29L207.82 27.74C212.32 28.7 216.22 29.93 219.52 31.43C222.88 32.93 225.49 34.91 227.35 37.37C229.21 39.83 230.14 42.98 230.14 46.82C230.14 50.66 229.15 54.05 227.17 56.99C225.25 59.87 222.49 62.15 218.89 63.83C215.35 65.45 211.15 66.26 206.29 66.26ZM239.001 65V2H264.921C268.881 2 272.361 2.81 275.361 4.43C278.421 5.99 280.791 8.21 282.471 11.09C284.211 13.97 285.081 17.39 285.081 21.35V22.61C285.081 26.51 284.181 29.93 282.381 32.87C280.641 35.75 278.241 38 275.181 39.62C272.181 41.18 268.761 41.96 264.921 41.96H250.881V65H239.001ZM250.881 31.16H263.751C266.571 31.16 268.851 30.38 270.591 28.82C272.331 27.26 273.201 25.13 273.201 22.43V21.53C273.201 18.83 272.331 16.7 270.591 15.14C268.851 13.58 266.571 12.8 263.751 12.8H250.881V31.16ZM293.317 65V2H305.197V65H293.317ZM317.047 65V2H339.637L352.147 56.9H353.767V2H365.467V65H342.877L330.367 10.1H328.747V65H317.047ZM399.21 66.26C394.35 66.26 390.06 65.39 386.34 63.65C382.62 61.91 379.71 59.42 377.61 56.18C375.51 52.94 374.46 49.04 374.46 44.48V41.96H386.16V44.48C386.16 48.26 387.33 51.11 389.67 53.03C392.01 54.89 395.19 55.82 399.21 55.82C403.29 55.82 406.32 55.01 408.3 53.39C410.34 51.77 411.36 49.7 411.36 47.18C411.36 45.44 410.85 44.03 409.83 42.95C408.87 41.87 407.43 41 405.51 40.34C403.65 39.62 401.37 38.96 398.67 38.36L396.6 37.91C392.28 36.95 388.56 35.75 385.44 34.31C382.38 32.81 380.01 30.86 378.33 28.46C376.71 26.06 375.9 22.94 375.9 19.1C375.9 15.26 376.8 11.99 378.6 9.29C380.46 6.53 383.04 4.43 386.34 2.99C389.7 1.49 393.63 0.739996 398.13 0.739996C402.63 0.739996 406.62 1.52 410.1 3.08C413.64 4.58 416.4 6.86 418.38 9.92C420.42 12.92 421.44 16.7 421.44 21.26V23.96H409.74V21.26C409.74 18.86 409.26 16.94 408.3 15.5C407.4 14 406.08 12.92 404.34 12.26C402.6 11.54 400.53 11.18 398.13 11.18C394.53 11.18 391.86 11.87 390.12 13.25C388.44 14.57 387.6 16.4 387.6 18.74C387.6 20.3 387.99 21.62 388.77 22.7C389.61 23.78 390.84 24.68 392.46 25.4C394.08 26.12 396.15 26.75 398.67 27.29L400.74 27.74C405.24 28.7 409.14 29.93 412.44 31.43C415.8 32.93 418.41 34.91 420.27 37.37C422.13 39.83 423.06 42.98 423.06 46.82C423.06 50.66 422.07 54.05 420.09 56.99C418.17 59.87 415.41 62.15 411.81 63.83C408.27 65.45 404.07 66.26 399.21 66.26Z" fill="url(#paint0_linear_4734_1018)" fill-opacity="0.2"/>
<path d="M11.9495 63.38L11.455 64.2492L11.4638 64.2542L11.4728 64.259L11.9495 63.38ZM3.57953 54.83L2.69951 55.3049L2.70403 55.3133L2.70871 55.3216L3.57953 54.83ZM7.35953 7.31L8.04729 8.03596L8.05226 8.0312L7.35953 7.31ZM43.8095 6.95L43.1075 7.66217L43.1127 7.66722L43.1178 7.6722L43.8095 6.95ZM50.1995 23.96V24.96H51.1995V23.96H50.1995ZM38.4995 23.96H37.4995V24.96H38.4995V23.96ZM37.0595 17.21L36.1651 17.6572L36.171 17.669L36.1772 17.6806L37.0595 17.21ZM32.9195 12.98L32.4174 13.8448L32.428 13.8509L32.4387 13.8568L32.9195 12.98ZM15.9995 51.86L15.2521 52.5244L15.2596 52.5327L15.9995 51.86ZM35.5295 52.4L34.7745 51.7443L35.5295 52.4ZM38.4995 42.86H39.4995V41.86H38.4995V42.86ZM23.5595 42.86H22.5595V43.86H23.5595V42.86ZM23.5595 32.78V31.78H22.5595V32.78H23.5595ZM50.1995 32.78H51.1995V31.78H50.1995V32.78ZM50.1995 65V66H51.1995V65H50.1995ZM39.2195 65H38.2195V66H39.2195V65ZM39.2195 58.97H40.2195V57.97H39.2195V58.97ZM37.5995 58.97V57.97H36.9298L36.6749 58.5892L37.5995 58.97ZM35.5295 62.21L34.7646 61.5659L34.7544 61.5779L34.7446 61.5904L35.5295 62.21ZM31.3895 65.09L31.0028 64.1678L31.3895 65.09ZM23.7395 65.26C19.5736 65.26 15.8094 64.3358 12.4263 62.501L11.4728 64.259C15.1697 66.2642 19.2655 67.26 23.7395 67.26V65.26ZM12.4441 62.5108C9.13193 60.6264 6.46759 57.9118 4.45036 54.3384L2.70871 55.3216C4.89148 59.1882 7.80713 62.1736 11.455 64.2492L12.4441 62.5108ZM4.45955 54.3551C2.51602 50.7538 1.51953 46.336 1.51953 41.06H-0.480469C-0.480469 46.584 0.563034 51.3462 2.69951 55.3049L4.45955 54.3551ZM1.51953 41.06V25.94H-0.480469V41.06H1.51953ZM1.51953 25.94C1.51953 18.0308 3.74023 12.1163 8.04727 8.03595L6.67178 6.58405C1.85884 11.1437 -0.480469 17.6492 -0.480469 25.94H1.51953ZM8.05226 8.0312C12.3847 3.86978 18.2942 1.73999 25.8995 1.73999V-0.260006C17.9049 -0.260006 11.4544 1.99022 6.66681 6.5888L8.05226 8.0312ZM25.8995 1.73999C33.4619 1.73999 39.1476 3.75878 43.1075 7.66217L44.5115 6.23782C40.0715 1.86121 33.8172 -0.260006 25.8995 -0.260006V1.73999ZM43.1178 7.6722C47.1438 11.528 49.1995 16.7967 49.1995 23.6H51.1995C51.1995 16.3633 48.9953 10.5319 44.5012 6.22779L43.1178 7.6722ZM49.1995 23.6V23.96H51.1995V23.6H49.1995ZM50.1995 22.96H38.4995V24.96H50.1995V22.96ZM39.4995 23.96V23.24H37.4995V23.96H39.4995ZM39.4995 23.24C39.4995 20.8707 38.9858 18.6968 37.9419 16.7394L36.1772 17.6806C37.0533 19.3232 37.4995 21.1693 37.4995 23.24H39.4995ZM37.954 16.7628C36.9579 14.7707 35.4285 13.2154 33.4004 12.1032L32.4387 13.8568C34.1306 14.7846 35.3611 16.0493 36.1651 17.6572L37.954 16.7628ZM33.4217 12.1152C31.3688 10.9232 28.8425 10.36 25.8995 10.36V12.36C28.5965 12.36 30.7503 12.8768 32.4174 13.8448L33.4217 12.1152ZM25.8995 10.36C21.4796 10.36 17.8926 11.7267 15.2673 14.5489L16.7317 15.9111C18.9064 13.5733 21.9194 12.36 25.8995 12.36V10.36ZM15.2673 14.5489C12.6537 17.3586 11.3995 21.1358 11.3995 25.76H13.3995C13.3995 21.5042 14.5454 18.2614 16.7317 15.9111L15.2673 14.5489ZM11.3995 25.76V41.24H13.3995V25.76H11.3995ZM11.3995 41.24C11.3995 45.8104 12.6565 49.6043 15.2521 52.5244L16.7469 51.1956C14.5426 48.7157 13.3995 45.4296 13.3995 41.24H11.3995ZM15.2596 52.5327C17.8885 55.4244 21.5422 56.82 26.0795 56.82V54.82C21.9769 54.82 18.9106 53.5756 16.7395 51.1873L15.2596 52.5327ZM26.0795 56.82C30.5608 56.82 34.0441 55.6356 36.2846 53.0557L34.7745 51.7443C33.055 53.7244 30.2383 54.82 26.0795 54.82V56.82ZM36.2846 53.0557C38.4464 50.5664 39.4995 47.442 39.4995 43.76H37.4995C37.4995 47.038 36.5727 49.6736 34.7745 51.7443L36.2846 53.0557ZM39.4995 43.76V42.86H37.4995V43.76H39.4995ZM38.4995 41.86H23.5595V43.86H38.4995V41.86ZM24.5595 42.86V32.78H22.5595V42.86H24.5595ZM23.5595 33.78H50.1995V31.78H23.5595V33.78ZM49.1995 32.78V65H51.1995V32.78H49.1995ZM50.1995 64H39.2195V66H50.1995V64ZM40.2195 65V58.97H38.2195V65H40.2195ZM39.2195 57.97H37.5995V59.97H39.2195V57.97ZM36.6749 58.5892C36.3053 59.4869 35.6798 60.4791 34.7646 61.5659L36.2944 62.8541C37.2992 61.6609 38.0538 60.4931 38.5242 59.3507L36.6749 58.5892ZM34.7446 61.5904C33.9825 62.5557 32.7643 63.4291 31.0028 64.1678L31.7763 66.0122C33.7348 65.1909 35.2766 64.1443 36.3144 62.8296L34.7446 61.5904ZM31.0028 64.1678C29.3171 64.8747 26.9177 65.26 23.7395 65.26V67.26C27.0413 67.26 29.742 66.8653 31.7763 66.0122L31.0028 64.1678ZM61.5494 65H60.5494V66H61.5494V65ZM61.5494 2V0.999996H60.5494V2H61.5494ZM102.049 2H103.049V0.999996H102.049V2ZM102.049 12.8V13.8H103.049V12.8H102.049ZM73.4294 12.8V11.8H72.4294V12.8H73.4294ZM73.4294 27.83H72.4294V28.83H73.4294V27.83ZM99.5294 27.83H100.529V26.83H99.5294V27.83ZM99.5294 38.63V39.63H100.529V38.63H99.5294ZM73.4294 38.63V37.63H72.4294V38.63H73.4294ZM73.4294 54.2H72.4294V55.2H73.4294V54.2ZM102.589 54.2H103.589V53.2H102.589V54.2ZM102.589 65V66H103.589V65H102.589ZM62.5494 65V2H60.5494V65H62.5494ZM61.5494 3H102.049V0.999996H61.5494V3ZM101.049 2V12.8H103.049V2H101.049ZM102.049 11.8H73.4294V13.8H102.049V11.8ZM72.4294 12.8V27.83H74.4294V12.8H72.4294ZM73.4294 28.83H99.5294V26.83H73.4294V28.83ZM98.5294 27.83V38.63H100.529V27.83H98.5294ZM99.5294 37.63H73.4294V39.63H99.5294V37.63ZM72.4294 38.63V54.2H74.4294V38.63H72.4294ZM73.4294 55.2H102.589V53.2H73.4294V55.2ZM101.589 54.2V65H103.589V54.2H101.589ZM102.589 64H61.5494V66H102.589V64ZM125.963 65H124.963V66H125.963V65ZM125.963 12.8H126.963V11.8H125.963V12.8ZM107.603 12.8H106.603V13.8H107.603V12.8ZM107.603 2V0.999996H106.603V2H107.603ZM156.203 2H157.203V0.999996H156.203V2ZM156.203 12.8V13.8H157.203V12.8H156.203ZM137.843 12.8V11.8H136.843V12.8H137.843ZM137.843 65V66H138.843V65H137.843ZM126.963 65V12.8H124.963V65H126.963ZM125.963 11.8H107.603V13.8H125.963V11.8ZM108.603 12.8V2H106.603V12.8H108.603ZM107.603 3H156.203V0.999996H107.603V3ZM155.203 2V12.8H157.203V2H155.203ZM156.203 11.8H137.843V13.8H156.203V11.8ZM136.843 12.8V65H138.843V12.8H136.843ZM137.843 64H125.963V66H137.843V64ZM193.42 63.65L192.997 64.5558L193.42 63.65ZM184.69 56.18L185.53 55.6361L184.69 56.18ZM181.54 41.96V40.96H180.54V41.96H181.54ZM193.24 41.96H194.24V40.96H193.24V41.96ZM196.75 53.03L196.116 53.8031L196.122 53.808L196.128 53.8128L196.75 53.03ZM215.38 53.39L214.759 52.6069L214.753 52.6114L214.747 52.616L215.38 53.39ZM216.91 42.95L216.163 43.6144L216.173 43.6256L216.183 43.6366L216.91 42.95ZM212.59 40.34L212.229 41.2726L212.247 41.2795L212.265 41.2857L212.59 40.34ZM205.75 38.36L205.967 37.3838L205.963 37.3828L205.75 38.36ZM203.68 37.91L203.464 38.8862L203.468 38.8872L203.68 37.91ZM192.52 34.31L192.08 35.2079L192.091 35.2131L192.101 35.218L192.52 34.31ZM185.41 28.46L184.582 29.0195L184.586 29.0265L184.591 29.0335L185.41 28.46ZM185.68 9.29L184.851 8.73114L184.848 8.7353L185.68 9.29ZM193.42 2.99L193.82 3.90657L193.828 3.90314L193.42 2.99ZM217.18 3.08L216.771 3.99251L216.781 3.99673L216.79 4.00075L217.18 3.08ZM225.46 9.91999L224.621 10.4632L224.627 10.4728L224.634 10.4823L225.46 9.91999ZM228.52 23.96V24.96H229.52V23.96H228.52ZM216.82 23.96H215.82V24.96H216.82V23.96ZM215.38 15.5L214.523 16.0145L214.535 16.0349L214.548 16.0547L215.38 15.5ZM211.42 12.26L211.038 13.184L211.052 13.1897L211.066 13.195L211.42 12.26ZM197.2 13.25L197.818 14.0363L197.822 14.0335L197.2 13.25ZM195.85 22.7L195.04 23.2855L195.05 23.2999L195.061 23.3139L195.85 22.7ZM205.75 27.29L205.963 26.3128L205.96 26.3122L205.75 27.29ZM207.82 27.74L207.608 28.7172L207.612 28.718L207.82 27.74ZM219.52 31.43L219.107 32.3404L219.113 32.3431L219.52 31.43ZM227.35 37.37L228.148 36.7669L227.35 37.37ZM227.17 56.99L226.341 56.4314L226.338 56.4353L227.17 56.99ZM218.89 63.83L219.307 64.7393L219.313 64.7362L218.89 63.83ZM206.29 65.26C201.55 65.26 197.409 64.4118 193.844 62.7442L192.997 64.5558C196.872 66.3682 201.311 67.26 206.29 67.26V65.26ZM193.844 62.7442C190.283 61.0783 187.521 58.7088 185.53 55.6361L183.851 56.7239C186.06 60.1312 189.118 62.7417 192.997 64.5558L193.844 62.7442ZM185.53 55.6361C183.552 52.5855 182.54 48.8825 182.54 44.48H180.54C180.54 49.1975 181.629 53.2945 183.851 56.7239L185.53 55.6361ZM182.54 44.48V41.96H180.54V44.48H182.54ZM181.54 42.96H193.24V40.96H181.54V42.96ZM192.24 41.96V44.48H194.24V41.96H192.24ZM192.24 44.48C192.24 48.4781 193.488 51.6469 196.116 53.8031L197.385 52.2569C195.333 50.5731 194.24 48.0419 194.24 44.48H192.24ZM196.128 53.8128C198.698 55.8552 202.122 56.82 206.29 56.82V54.82C202.419 54.82 199.483 53.9248 197.373 52.2472L196.128 53.8128ZM206.29 56.82C210.473 56.82 213.776 55.9949 216.014 54.164L214.747 52.616C213.025 54.0251 210.268 54.82 206.29 54.82V56.82ZM216.002 54.1731C218.272 52.3708 219.44 50.0168 219.44 47.18H217.44C217.44 49.3832 216.569 51.1692 214.759 52.6069L216.002 54.1731ZM219.44 47.18C219.44 45.2314 218.862 43.5604 217.637 42.2634L216.183 43.6366C216.998 44.4996 217.44 45.6486 217.44 47.18H219.44ZM217.658 42.2856C216.547 41.0355 214.936 40.0888 212.916 39.3943L212.265 41.2857C214.085 41.9112 215.354 42.7045 216.163 43.6144L217.658 42.2856ZM212.951 39.4074C211.031 38.6639 208.699 37.9909 205.967 37.3838L205.534 39.3362C208.202 39.9291 210.43 40.5761 212.229 41.2726L212.951 39.4074ZM205.963 37.3828L203.893 36.9328L203.468 38.8872L205.538 39.3372L205.963 37.3828ZM203.897 36.9338C199.628 35.9851 195.979 34.805 192.94 33.402L192.101 35.218C195.302 36.695 199.093 37.9149 203.464 38.8862L203.897 36.9338ZM192.961 33.4121C190.027 31.9742 187.798 30.127 186.23 27.8865L184.591 29.0335C186.383 31.593 188.894 33.6458 192.08 35.2079L192.961 33.4121ZM186.239 27.9005C184.762 25.7118 183.98 22.8046 183.98 19.1H181.98C181.98 23.0754 182.819 26.4082 184.582 29.0195L186.239 27.9005ZM183.98 19.1C183.98 15.4205 184.841 12.3522 186.513 9.8447L184.848 8.7353C182.92 11.6278 181.98 15.0995 181.98 19.1H183.98ZM186.51 9.84885C188.255 7.25936 190.68 5.277 193.82 3.90654L193.021 2.07346C189.561 3.58299 186.826 5.80064 184.851 8.73114L186.51 9.84885ZM193.828 3.90314C197.035 2.47168 200.82 1.73999 205.21 1.73999V-0.260006C200.601 -0.260006 196.526 0.508316 193.013 2.07686L193.828 3.90314ZM205.21 1.73999C209.595 1.73999 213.441 2.49962 216.771 3.99251L217.59 2.16749C213.96 0.540371 209.826 -0.260006 205.21 -0.260006V1.73999ZM216.79 4.00075C220.157 5.42722 222.756 7.58067 224.621 10.4632L226.3 9.37674C224.205 6.13932 221.284 3.73277 217.571 2.15924L216.79 4.00075ZM224.634 10.4823C226.535 13.2784 227.52 16.8489 227.52 21.26H229.52C229.52 16.5511 228.466 12.5616 226.287 9.35769L224.634 10.4823ZM227.52 21.26V23.96H229.52V21.26H227.52ZM228.52 22.96H216.82V24.96H228.52V22.96ZM217.82 23.96V21.26H215.82V23.96H217.82ZM217.82 21.26C217.82 18.7364 217.317 16.6018 216.213 14.9453L214.548 16.0547C215.364 17.2782 215.82 18.9836 215.82 21.26H217.82ZM216.238 14.9855C215.215 13.28 213.711 12.0592 211.775 11.325L211.066 13.195C212.61 13.7808 213.746 14.72 214.523 16.0145L216.238 14.9855ZM211.803 11.336C209.913 10.5541 207.707 10.18 205.21 10.18V12.18C207.514 12.18 209.448 12.5259 211.038 13.184L211.803 11.336ZM205.21 10.18C201.515 10.18 198.576 10.8826 196.579 12.4665L197.822 14.0335C199.305 12.8573 201.706 12.18 205.21 12.18V10.18ZM196.583 12.4637C194.636 13.993 193.68 16.1266 193.68 18.74H195.68C195.68 16.6734 196.405 15.147 197.818 14.0363L196.583 12.4637ZM193.68 18.74C193.68 20.4731 194.117 22.0073 195.04 23.2855L196.661 22.1145C196.024 21.2327 195.68 20.1269 195.68 18.74H193.68ZM195.061 23.3139C196.028 24.5567 197.407 25.5461 199.134 26.3138L199.947 24.4862C198.434 23.8139 197.353 23.0033 196.64 22.0861L195.061 23.3139ZM199.134 26.3138C200.839 27.0714 202.981 27.7192 205.541 28.2678L205.96 26.3122C203.48 25.7808 201.482 25.1686 199.947 24.4862L199.134 26.3138ZM205.538 28.2672L207.608 28.7172L208.033 26.7628L205.963 26.3128L205.538 28.2672ZM207.612 28.718C212.059 29.6667 215.887 30.877 219.107 32.3404L219.934 30.5196C216.554 28.983 212.582 27.7332 208.029 26.762L207.612 28.718ZM219.113 32.3431C222.348 33.7876 224.813 35.6715 226.553 37.9731L228.148 36.7669C226.168 34.1485 223.412 32.0724 219.928 30.5169L219.113 32.3431ZM226.553 37.9731C228.252 40.2206 229.14 43.1434 229.14 46.82H231.14C231.14 42.8166 230.169 39.4394 228.148 36.7669L226.553 37.9731ZM229.14 46.82C229.14 50.4783 228.201 53.6703 226.341 56.4314L228 57.5486C230.1 54.4297 231.14 50.8417 231.14 46.82H229.14ZM226.338 56.4353C224.534 59.1414 221.927 61.3096 218.468 62.9238L219.313 64.7362C223.054 62.9904 225.967 60.5986 228.003 57.5447L226.338 56.4353ZM218.474 62.9207C215.093 64.468 211.042 65.26 206.29 65.26V67.26C211.259 67.26 215.608 66.432 219.307 64.7393L218.474 62.9207ZM239.001 65H238.001V66H239.001V65ZM239.001 2V0.999996H238.001V2H239.001ZM275.361 4.43L274.885 5.3099L274.896 5.31553L274.906 5.3209L275.361 4.43ZM282.471 11.09L281.607 11.5939L281.611 11.6005L281.615 11.6071L282.471 11.09ZM282.381 32.87L281.528 32.3478L281.525 32.3529L282.381 32.87ZM275.181 39.62L275.642 40.5072L275.648 40.5038L275.181 39.62ZM250.881 41.96V40.96H249.881V41.96H250.881ZM250.881 65V66H251.881V65H250.881ZM250.881 31.16H249.881V32.16H250.881V31.16ZM270.591 28.82L271.258 29.5646L270.591 28.82ZM270.591 15.14L271.258 14.3954L270.591 15.14ZM250.881 12.8V11.8H249.881V12.8H250.881ZM240.001 65V2H238.001V65H240.001ZM239.001 3H264.921V0.999996H239.001V3ZM264.921 3C268.742 3 272.053 3.7806 274.885 5.3099L275.836 3.55009C272.668 1.83939 269.02 0.999996 264.921 0.999996V3ZM274.906 5.3209C277.801 6.7966 280.026 8.88467 281.607 11.5939L283.334 10.5861C281.555 7.53532 279.04 5.1834 275.815 3.53909L274.906 5.3209ZM281.615 11.6071C283.245 14.3054 284.081 17.5397 284.081 21.35H286.081C286.081 17.2403 285.176 13.6346 283.326 10.5729L281.615 11.6071ZM284.081 21.35V22.61H286.081V21.35H284.081ZM284.081 22.61C284.081 26.3505 283.219 29.5849 281.528 32.3478L283.233 33.3922C285.142 30.2751 286.081 26.6695 286.081 22.61H284.081ZM281.525 32.3529C279.881 35.0731 277.617 37.1984 274.713 38.7362L275.648 40.5038C278.864 38.8016 281.4 36.4269 283.236 33.3871L281.525 32.3529ZM274.719 38.7328C271.88 40.2092 268.622 40.96 264.921 40.96V42.96C268.899 42.96 272.481 42.1508 275.642 40.5072L274.719 38.7328ZM264.921 40.96H250.881V42.96H264.921V40.96ZM249.881 41.96V65H251.881V41.96H249.881ZM250.881 64H239.001V66H250.881V64ZM250.881 32.16H263.751V30.16H250.881V32.16ZM263.751 32.16C266.763 32.16 269.298 31.3216 271.258 29.5646L269.923 28.0754C268.403 29.4384 266.378 30.16 263.751 30.16V32.16ZM271.258 29.5646C273.243 27.7847 274.201 25.3655 274.201 22.43H272.201C272.201 24.8945 271.418 26.7353 269.923 28.0754L271.258 29.5646ZM274.201 22.43V21.53H272.201V22.43H274.201ZM274.201 21.53C274.201 18.5945 273.243 16.1753 271.258 14.3954L269.923 15.8846C271.418 17.2247 272.201 19.0655 272.201 21.53H274.201ZM271.258 14.3954C269.298 12.6384 266.763 11.8 263.751 11.8V13.8C266.378 13.8 268.403 14.5216 269.923 15.8846L271.258 14.3954ZM263.751 11.8H250.881V13.8H263.751V11.8ZM249.881 12.8V31.16H251.881V12.8H249.881ZM293.317 65H292.317V66H293.317V65ZM293.317 2V0.999996H292.317V2H293.317ZM305.197 2H306.197V0.999996H305.197V2ZM305.197 65V66H306.197V65H305.197ZM294.317 65V2H292.317V65H294.317ZM293.317 3H305.197V0.999996H293.317V3ZM304.197 2V65H306.197V2H304.197ZM305.197 64H293.317V66H305.197V64ZM317.047 65H316.047V66H317.047V65ZM317.047 2V0.999996H316.047V2H317.047ZM339.637 2L340.612 1.77782L340.435 0.999996H339.637V2ZM352.147 56.9L351.172 57.1222L351.35 57.9H352.147V56.9ZM353.767 56.9V57.9H354.767V56.9H353.767ZM353.767 2V0.999996H352.767V2H353.767ZM365.467 2H366.467V0.999996H365.467V2ZM365.467 65V66H366.467V65H365.467ZM342.877 65L341.902 65.2222L342.08 66H342.877V65ZM330.367 10.1L331.342 9.87783L331.165 9.1H330.367V10.1ZM328.747 10.1V9.1H327.747V10.1H328.747ZM328.747 65V66H329.747V65H328.747ZM318.047 65V2H316.047V65H318.047ZM317.047 3H339.637V0.999996H317.047V3ZM338.662 2.22217L351.172 57.1222L353.122 56.6778L340.612 1.77782L338.662 2.22217ZM352.147 57.9H353.767V55.9H352.147V57.9ZM354.767 56.9V2H352.767V56.9H354.767ZM353.767 3H365.467V0.999996H353.767V3ZM364.467 2V65H366.467V2H364.467ZM365.467 64H342.877V66H365.467V64ZM343.852 64.7778L331.342 9.87783L329.392 10.3222L341.902 65.2222L343.852 64.7778ZM330.367 9.1H328.747V11.1H330.367V9.1ZM327.747 10.1V65H329.747V10.1H327.747ZM328.747 64H317.047V66H328.747V64ZM386.34 63.65L385.917 64.5558L386.34 63.65ZM377.61 56.18L378.45 55.6361L377.61 56.18ZM374.46 41.96V40.96H373.46V41.96H374.46ZM386.16 41.96H387.16V40.96H386.16V41.96ZM389.67 53.03L389.036 53.8031L389.042 53.808L389.048 53.8128L389.67 53.03ZM408.3 53.39L407.679 52.6069L407.673 52.6114L407.667 52.616L408.3 53.39ZM409.83 42.95L409.083 43.6144L409.093 43.6256L409.103 43.6366L409.83 42.95ZM405.51 40.34L405.149 41.2726L405.167 41.2795L405.185 41.2857L405.51 40.34ZM398.67 38.36L398.887 37.3838L398.883 37.3828L398.67 38.36ZM396.6 37.91L396.383 38.8862L396.388 38.8872L396.6 37.91ZM385.44 34.31L385 35.2079L385.011 35.2131L385.021 35.218L385.44 34.31ZM378.33 28.46L377.502 29.0195L377.506 29.0265L377.511 29.0335L378.33 28.46ZM378.6 9.29L377.771 8.73114L377.768 8.7353L378.6 9.29ZM386.34 2.99L386.74 3.90657L386.748 3.90314L386.34 2.99ZM410.1 3.08L409.691 3.99251L409.701 3.99673L409.71 4.00075L410.1 3.08ZM418.38 9.91999L417.541 10.4632L417.547 10.4728L417.553 10.4823L418.38 9.91999ZM421.44 23.96V24.96H422.44V23.96H421.44ZM409.74 23.96H408.74V24.96H409.74V23.96ZM408.3 15.5L407.443 16.0145L407.455 16.0349L407.468 16.0547L408.3 15.5ZM404.34 12.26L403.958 13.184L403.972 13.1897L403.986 13.195L404.34 12.26ZM390.12 13.25L390.738 14.0363L390.742 14.0335L390.12 13.25ZM388.77 22.7L387.96 23.2855L387.97 23.2999L387.981 23.3139L388.77 22.7ZM398.67 27.29L398.883 26.3128L398.88 26.3122L398.67 27.29ZM400.74 27.74L400.528 28.7172L400.532 28.718L400.74 27.74ZM412.44 31.43L412.027 32.3404L412.033 32.3431L412.44 31.43ZM420.27 37.37L421.068 36.7669L420.27 37.37ZM420.09 56.99L419.261 56.4314L419.258 56.4353L420.09 56.99ZM411.81 63.83L412.227 64.7393L412.233 64.7362L411.81 63.83ZM399.21 65.26C394.47 65.26 390.329 64.4118 386.764 62.7442L385.917 64.5558C389.791 66.3682 394.231 67.26 399.21 67.26V65.26ZM386.764 62.7442C383.202 61.0783 380.441 58.7088 378.45 55.6361L376.771 56.7239C378.98 60.1312 382.038 62.7417 385.917 64.5558L386.764 62.7442ZM378.45 55.6361C376.472 52.5855 375.46 48.8825 375.46 44.48H373.46C373.46 49.1975 374.548 53.2945 376.771 56.7239L378.45 55.6361ZM375.46 44.48V41.96H373.46V44.48H375.46ZM374.46 42.96H386.16V40.96H374.46V42.96ZM385.16 41.96V44.48H387.16V41.96H385.16ZM385.16 44.48C385.16 48.4781 386.408 51.6469 389.036 53.8031L390.305 52.2569C388.253 50.5731 387.16 48.0419 387.16 44.48H385.16ZM389.048 53.8128C391.618 55.8552 395.042 56.82 399.21 56.82V54.82C395.339 54.82 392.403 53.9248 390.293 52.2472L389.048 53.8128ZM399.21 56.82C403.393 56.82 406.696 55.9949 408.934 54.164L407.667 52.616C405.945 54.0251 403.188 54.82 399.21 54.82V56.82ZM408.922 54.1731C411.192 52.3708 412.36 50.0168 412.36 47.18H410.36C410.36 49.3832 409.489 51.1692 407.679 52.6069L408.922 54.1731ZM412.36 47.18C412.36 45.2314 411.782 43.5604 410.557 42.2634L409.103 43.6366C409.918 44.4996 410.36 45.6486 410.36 47.18H412.36ZM410.578 42.2856C409.467 41.0355 407.856 40.0888 405.835 39.3943L405.185 41.2857C407.005 41.9112 408.274 42.7045 409.083 43.6144L410.578 42.2856ZM405.871 39.4074C403.951 38.6639 401.619 37.9909 398.887 37.3838L398.453 39.3362C401.122 39.9291 403.35 40.5761 405.149 41.2726L405.871 39.4074ZM398.883 37.3828L396.813 36.9328L396.388 38.8872L398.458 39.3372L398.883 37.3828ZM396.817 36.9338C392.548 35.9851 388.899 34.805 385.859 33.402L385.021 35.218C388.221 36.695 392.013 37.9149 396.383 38.8862L396.817 36.9338ZM385.881 33.4121C382.947 31.9742 380.718 30.127 379.15 27.8865L377.511 29.0335C379.303 31.593 381.813 33.6458 385 35.2079L385.881 33.4121ZM379.159 27.9005C377.682 25.7118 376.9 22.8046 376.9 19.1H374.9C374.9 23.0754 375.739 26.4082 377.502 29.0195L379.159 27.9005ZM376.9 19.1C376.9 15.4205 377.761 12.3522 379.432 9.8447L377.768 8.7353C375.84 11.6278 374.9 15.0995 374.9 19.1H376.9ZM379.43 9.84885C381.175 7.25936 383.6 5.277 386.74 3.90654L385.94 2.07346C382.481 3.58299 379.746 5.80064 377.771 8.73114L379.43 9.84885ZM386.748 3.90314C389.955 2.47168 393.74 1.73999 398.13 1.73999V-0.260006C393.521 -0.260006 389.446 0.508316 385.933 2.07686L386.748 3.90314ZM398.13 1.73999C402.514 1.73999 406.361 2.49962 409.691 3.99251L410.509 2.16749C406.88 0.540371 402.746 -0.260006 398.13 -0.260006V1.73999ZM409.71 4.00075C413.077 5.42722 415.676 7.58067 417.541 10.4632L419.22 9.37674C417.125 6.13932 414.204 3.73277 410.491 2.15924L409.71 4.00075ZM417.553 10.4823C419.455 13.2784 420.44 16.8489 420.44 21.26H422.44C422.44 16.5511 421.386 12.5616 419.207 9.35769L417.553 10.4823ZM420.44 21.26V23.96H422.44V21.26H420.44ZM421.44 22.96H409.74V24.96H421.44V22.96ZM410.74 23.96V21.26H408.74V23.96H410.74ZM410.74 21.26C410.74 18.7364 410.237 16.6018 409.132 14.9453L407.468 16.0547C408.284 17.2782 408.74 18.9836 408.74 21.26H410.74ZM409.158 14.9855C408.135 13.28 406.631 12.0592 404.695 11.325L403.986 13.195C405.53 13.7808 406.666 14.72 407.443 16.0145L409.158 14.9855ZM404.723 11.336C402.833 10.5541 400.627 10.18 398.13 10.18V12.18C400.434 12.18 402.368 12.5259 403.958 13.184L404.723 11.336ZM398.13 10.18C394.435 10.18 391.496 10.8826 389.499 12.4665L390.742 14.0335C392.225 12.8573 394.626 12.18 398.13 12.18V10.18ZM389.503 12.4637C387.556 13.993 386.6 16.1266 386.6 18.74H388.6C388.6 16.6734 389.325 15.147 390.738 14.0363L389.503 12.4637ZM386.6 18.74C386.6 20.4731 387.037 22.0073 387.96 23.2855L389.581 22.1145C388.944 21.2327 388.6 20.1269 388.6 18.74H386.6ZM387.981 23.3139C388.948 24.5567 390.327 25.5461 392.054 26.3138L392.867 24.4862C391.354 23.8139 390.273 23.0033 389.56 22.0861L387.981 23.3139ZM392.054 26.3138C393.759 27.0714 395.901 27.7192 398.461 28.2678L398.88 26.3122C396.4 25.7808 394.402 25.1686 392.867 24.4862L392.054 26.3138ZM398.458 28.2672L400.528 28.7172L400.953 26.7628L398.883 26.3128L398.458 28.2672ZM400.532 28.718C404.979 29.6667 408.807 30.877 412.027 32.3404L412.854 30.5196C409.474 28.983 405.502 27.7332 400.949 26.762L400.532 28.718ZM412.033 32.3431C415.268 33.7876 417.732 35.6715 419.473 37.9731L421.068 36.7669C419.088 34.1485 416.332 32.0724 412.848 30.5169L412.033 32.3431ZM419.473 37.9731C421.172 40.2206 422.06 43.1434 422.06 46.82H424.06C424.06 42.8166 423.089 39.4394 421.068 36.7669L419.473 37.9731ZM422.06 46.82C422.06 50.4783 421.12 53.6703 419.261 56.4314L420.92 57.5486C423.02 54.4297 424.06 50.8417 424.06 46.82H422.06ZM419.258 56.4353C417.454 59.1414 414.846 61.3096 411.388 62.9238L412.233 64.7362C415.974 62.9904 418.887 60.5986 420.922 57.5447L419.258 56.4353ZM411.394 62.9207C408.013 64.468 403.961 65.26 399.21 65.26V67.26C404.179 67.26 408.528 66.432 412.227 64.7393L411.394 62.9207Z" fill="url(#paint1_linear_4734_1018)" fill-opacity="0.3" mask="url(#path-1-outside-1_4734_1018)"/>
<defs>
<linearGradient id="paint0_linear_4734_1018" x1="211" y1="-0.25" x2="211" y2="65" gradientUnits="userSpaceOnUse">
<stop stop-color="#A6A6A6"/>
<stop offset="1" stop-color="#404040"/>
</linearGradient>
<linearGradient id="paint1_linear_4734_1018" x1="211" y1="4.5" x2="211" y2="68.75" gradientUnits="userSpaceOnUse">
<stop/>
<stop offset="0.501035" stop-opacity="0"/>
<stop offset="0.9999" stop-color="#8E8E8E"/>
</linearGradient>
</defs>
</svg>
