<svg width="367" height="58" viewBox="0 0 367 58" fill="none" xmlns="http://www.w3.org/2000/svg">
<mask id="path-1-outside-1_4734_1017" maskUnits="userSpaceOnUse" x="-1" y="-1" width="369" height="60" fill="black">
<rect fill="white" x="-1" y="-1" width="369" height="60"/>
<path d="M20.7076 57.092C16.9636 57.092 13.5576 56.26 10.4896 54.596C7.47359 52.88 5.05559 50.41 3.23559 47.186C1.46759 43.91 0.583594 39.932 0.583594 35.252V22.148C0.583594 15.128 2.55959 9.746 6.51159 6.002C10.4636 2.206 15.8196 0.307996 22.5796 0.307996C29.2876 0.307996 34.4616 2.102 38.1016 5.69C41.7936 9.226 43.6396 14.036 43.6396 20.12V20.432H33.4996V19.808C33.4996 17.884 33.0836 16.142 32.2516 14.582C31.4716 13.022 30.2756 11.8 28.6636 10.916C27.0516 9.98 25.0236 9.512 22.5796 9.512C18.9396 9.512 16.0796 10.63 13.9996 12.866C11.9196 15.102 10.8796 18.144 10.8796 21.992V35.408C10.8796 39.204 11.9196 42.272 13.9996 44.612C16.0796 46.9 18.9916 48.044 22.7356 48.044C26.4796 48.044 29.2096 47.056 30.9256 45.08C32.6416 43.104 33.4996 40.608 33.4996 37.592V36.812H20.5516V28.076H43.6396V56H34.1236V50.774H32.7196C32.3556 51.658 31.7576 52.594 30.9256 53.582C30.1456 54.57 28.9496 55.402 27.3376 56.078C25.7256 56.754 23.5156 57.092 20.7076 57.092ZM53.4761 56V1.4H88.5761V10.76H63.7721V23.786H86.3921V33.146H63.7721V46.64H89.0441V56H53.4761ZM109.302 56V10.76H93.3896V1.4H135.51V10.76H119.598V56H109.302ZM178.918 57.092C174.706 57.092 170.988 56.338 167.764 54.83C164.54 53.322 162.018 51.164 160.198 48.356C158.378 45.548 157.468 42.168 157.468 38.216V36.032H167.608V38.216C167.608 41.492 168.622 43.962 170.65 45.626C172.678 47.238 175.434 48.044 178.918 48.044C182.454 48.044 185.08 47.342 186.796 45.938C188.564 44.534 189.448 42.74 189.448 40.556C189.448 39.048 189.006 37.826 188.122 36.89C187.29 35.954 186.042 35.2 184.378 34.628C182.766 34.004 180.79 33.432 178.45 32.912L176.656 32.522C172.912 31.69 169.688 30.65 166.984 29.402C164.332 28.102 162.278 26.412 160.822 24.332C159.418 22.252 158.716 19.548 158.716 16.22C158.716 12.892 159.496 10.058 161.056 7.718C162.668 5.326 164.904 3.506 167.764 2.258C170.676 0.957997 174.082 0.307996 177.982 0.307996C181.882 0.307996 185.34 0.983997 188.356 2.336C191.424 3.636 193.816 5.612 195.532 8.264C197.3 10.864 198.184 14.14 198.184 18.092V20.432H188.044V18.092C188.044 16.012 187.628 14.348 186.796 13.1C186.016 11.8 184.872 10.864 183.364 10.292C181.856 9.668 180.062 9.356 177.982 9.356C174.862 9.356 172.548 9.954 171.04 11.15C169.584 12.294 168.856 13.88 168.856 15.908C168.856 17.26 169.194 18.404 169.87 19.34C170.598 20.276 171.664 21.056 173.068 21.68C174.472 22.304 176.266 22.85 178.45 23.318L180.244 23.708C184.144 24.54 187.524 25.606 190.384 26.906C193.296 28.206 195.558 29.922 197.17 32.054C198.782 34.186 199.588 36.916 199.588 40.244C199.588 43.572 198.73 46.51 197.014 49.058C195.35 51.554 192.958 53.53 189.838 54.986C186.77 56.39 183.13 57.092 178.918 57.092ZM207.267 56V1.4H229.731C233.163 1.4 236.179 2.102 238.779 3.506C241.431 4.858 243.485 6.782 244.941 9.278C246.449 11.774 247.203 14.738 247.203 18.17V19.262C247.203 22.642 246.423 25.606 244.863 28.154C243.355 30.65 241.275 32.6 238.623 34.004C236.023 35.356 233.059 36.032 229.731 36.032H217.563V56H207.267ZM217.563 26.672H228.717C231.161 26.672 233.137 25.996 234.645 24.644C236.153 23.292 236.907 21.446 236.907 19.106V18.326C236.907 15.986 236.153 14.14 234.645 12.788C233.137 11.436 231.161 10.76 228.717 10.76H217.563V26.672ZM254.341 56V1.4H264.637V56H254.341ZM274.908 56V1.4H294.486L305.328 48.98H306.732V1.4H316.872V56H297.294L286.452 8.42H285.048V56H274.908ZM346.116 57.092C341.904 57.092 338.186 56.338 334.962 54.83C331.738 53.322 329.216 51.164 327.396 48.356C325.576 45.548 324.666 42.168 324.666 38.216V36.032H334.806V38.216C334.806 41.492 335.82 43.962 337.848 45.626C339.876 47.238 342.632 48.044 346.116 48.044C349.652 48.044 352.278 47.342 353.994 45.938C355.762 44.534 356.646 42.74 356.646 40.556C356.646 39.048 356.204 37.826 355.32 36.89C354.488 35.954 353.24 35.2 351.576 34.628C349.964 34.004 347.988 33.432 345.648 32.912L343.854 32.522C340.11 31.69 336.886 30.65 334.182 29.402C331.53 28.102 329.476 26.412 328.02 24.332C326.616 22.252 325.914 19.548 325.914 16.22C325.914 12.892 326.694 10.058 328.254 7.718C329.866 5.326 332.102 3.506 334.962 2.258C337.874 0.957997 341.28 0.307996 345.18 0.307996C349.08 0.307996 352.538 0.983997 355.554 2.336C358.622 3.636 361.014 5.612 362.73 8.264C364.498 10.864 365.382 14.14 365.382 18.092V20.432H355.242V18.092C355.242 16.012 354.826 14.348 353.994 13.1C353.214 11.8 352.07 10.864 350.562 10.292C349.054 9.668 347.26 9.356 345.18 9.356C342.06 9.356 339.746 9.954 338.238 11.15C336.782 12.294 336.054 13.88 336.054 15.908C336.054 17.26 336.392 18.404 337.068 19.34C337.796 20.276 338.862 21.056 340.266 21.68C341.67 22.304 343.464 22.85 345.648 23.318L347.442 23.708C351.342 24.54 354.722 25.606 357.582 26.906C360.494 28.206 362.756 29.922 364.368 32.054C365.98 34.186 366.786 36.916 366.786 40.244C366.786 43.572 365.928 46.51 364.212 49.058C362.548 51.554 360.156 53.53 357.036 54.986C353.968 56.39 350.328 57.092 346.116 57.092Z"/>
</mask>
<path d="M20.7076 57.092C16.9636 57.092 13.5576 56.26 10.4896 54.596C7.47359 52.88 5.05559 50.41 3.23559 47.186C1.46759 43.91 0.583594 39.932 0.583594 35.252V22.148C0.583594 15.128 2.55959 9.746 6.51159 6.002C10.4636 2.206 15.8196 0.307996 22.5796 0.307996C29.2876 0.307996 34.4616 2.102 38.1016 5.69C41.7936 9.226 43.6396 14.036 43.6396 20.12V20.432H33.4996V19.808C33.4996 17.884 33.0836 16.142 32.2516 14.582C31.4716 13.022 30.2756 11.8 28.6636 10.916C27.0516 9.98 25.0236 9.512 22.5796 9.512C18.9396 9.512 16.0796 10.63 13.9996 12.866C11.9196 15.102 10.8796 18.144 10.8796 21.992V35.408C10.8796 39.204 11.9196 42.272 13.9996 44.612C16.0796 46.9 18.9916 48.044 22.7356 48.044C26.4796 48.044 29.2096 47.056 30.9256 45.08C32.6416 43.104 33.4996 40.608 33.4996 37.592V36.812H20.5516V28.076H43.6396V56H34.1236V50.774H32.7196C32.3556 51.658 31.7576 52.594 30.9256 53.582C30.1456 54.57 28.9496 55.402 27.3376 56.078C25.7256 56.754 23.5156 57.092 20.7076 57.092ZM53.4761 56V1.4H88.5761V10.76H63.7721V23.786H86.3921V33.146H63.7721V46.64H89.0441V56H53.4761ZM109.302 56V10.76H93.3896V1.4H135.51V10.76H119.598V56H109.302ZM178.918 57.092C174.706 57.092 170.988 56.338 167.764 54.83C164.54 53.322 162.018 51.164 160.198 48.356C158.378 45.548 157.468 42.168 157.468 38.216V36.032H167.608V38.216C167.608 41.492 168.622 43.962 170.65 45.626C172.678 47.238 175.434 48.044 178.918 48.044C182.454 48.044 185.08 47.342 186.796 45.938C188.564 44.534 189.448 42.74 189.448 40.556C189.448 39.048 189.006 37.826 188.122 36.89C187.29 35.954 186.042 35.2 184.378 34.628C182.766 34.004 180.79 33.432 178.45 32.912L176.656 32.522C172.912 31.69 169.688 30.65 166.984 29.402C164.332 28.102 162.278 26.412 160.822 24.332C159.418 22.252 158.716 19.548 158.716 16.22C158.716 12.892 159.496 10.058 161.056 7.718C162.668 5.326 164.904 3.506 167.764 2.258C170.676 0.957997 174.082 0.307996 177.982 0.307996C181.882 0.307996 185.34 0.983997 188.356 2.336C191.424 3.636 193.816 5.612 195.532 8.264C197.3 10.864 198.184 14.14 198.184 18.092V20.432H188.044V18.092C188.044 16.012 187.628 14.348 186.796 13.1C186.016 11.8 184.872 10.864 183.364 10.292C181.856 9.668 180.062 9.356 177.982 9.356C174.862 9.356 172.548 9.954 171.04 11.15C169.584 12.294 168.856 13.88 168.856 15.908C168.856 17.26 169.194 18.404 169.87 19.34C170.598 20.276 171.664 21.056 173.068 21.68C174.472 22.304 176.266 22.85 178.45 23.318L180.244 23.708C184.144 24.54 187.524 25.606 190.384 26.906C193.296 28.206 195.558 29.922 197.17 32.054C198.782 34.186 199.588 36.916 199.588 40.244C199.588 43.572 198.73 46.51 197.014 49.058C195.35 51.554 192.958 53.53 189.838 54.986C186.77 56.39 183.13 57.092 178.918 57.092ZM207.267 56V1.4H229.731C233.163 1.4 236.179 2.102 238.779 3.506C241.431 4.858 243.485 6.782 244.941 9.278C246.449 11.774 247.203 14.738 247.203 18.17V19.262C247.203 22.642 246.423 25.606 244.863 28.154C243.355 30.65 241.275 32.6 238.623 34.004C236.023 35.356 233.059 36.032 229.731 36.032H217.563V56H207.267ZM217.563 26.672H228.717C231.161 26.672 233.137 25.996 234.645 24.644C236.153 23.292 236.907 21.446 236.907 19.106V18.326C236.907 15.986 236.153 14.14 234.645 12.788C233.137 11.436 231.161 10.76 228.717 10.76H217.563V26.672ZM254.341 56V1.4H264.637V56H254.341ZM274.908 56V1.4H294.486L305.328 48.98H306.732V1.4H316.872V56H297.294L286.452 8.42H285.048V56H274.908ZM346.116 57.092C341.904 57.092 338.186 56.338 334.962 54.83C331.738 53.322 329.216 51.164 327.396 48.356C325.576 45.548 324.666 42.168 324.666 38.216V36.032H334.806V38.216C334.806 41.492 335.82 43.962 337.848 45.626C339.876 47.238 342.632 48.044 346.116 48.044C349.652 48.044 352.278 47.342 353.994 45.938C355.762 44.534 356.646 42.74 356.646 40.556C356.646 39.048 356.204 37.826 355.32 36.89C354.488 35.954 353.24 35.2 351.576 34.628C349.964 34.004 347.988 33.432 345.648 32.912L343.854 32.522C340.11 31.69 336.886 30.65 334.182 29.402C331.53 28.102 329.476 26.412 328.02 24.332C326.616 22.252 325.914 19.548 325.914 16.22C325.914 12.892 326.694 10.058 328.254 7.718C329.866 5.326 332.102 3.506 334.962 2.258C337.874 0.957997 341.28 0.307996 345.18 0.307996C349.08 0.307996 352.538 0.983997 355.554 2.336C358.622 3.636 361.014 5.612 362.73 8.264C364.498 10.864 365.382 14.14 365.382 18.092V20.432H355.242V18.092C355.242 16.012 354.826 14.348 353.994 13.1C353.214 11.8 352.07 10.864 350.562 10.292C349.054 9.668 347.26 9.356 345.18 9.356C342.06 9.356 339.746 9.954 338.238 11.15C336.782 12.294 336.054 13.88 336.054 15.908C336.054 17.26 336.392 18.404 337.068 19.34C337.796 20.276 338.862 21.056 340.266 21.68C341.67 22.304 343.464 22.85 345.648 23.318L347.442 23.708C351.342 24.54 354.722 25.606 357.582 26.906C360.494 28.206 362.756 29.922 364.368 32.054C365.98 34.186 366.786 36.916 366.786 40.244C366.786 43.572 365.928 46.51 364.212 49.058C362.548 51.554 360.156 53.53 357.036 54.986C353.968 56.39 350.328 57.092 346.116 57.092Z" fill="url(#paint0_linear_4734_1017)" fill-opacity="0.3"/>
<path d="M10.4896 54.596L9.99507 55.4652L10.0039 55.4702L10.0128 55.475L10.4896 54.596ZM3.23559 47.186L2.35557 47.6609L2.36009 47.6693L2.36477 47.6776L3.23559 47.186ZM6.51159 6.002L7.19936 6.72797L7.20432 6.72319L6.51159 6.002ZM38.1016 5.69L37.3996 6.40217L37.4047 6.40722L37.4099 6.4122L38.1016 5.69ZM43.6396 20.432V21.432H44.6396V20.432H43.6396ZM33.4996 20.432H32.4996V21.432H33.4996V20.432ZM32.2516 14.582L31.3572 15.0292L31.3631 15.041L31.3692 15.0526L32.2516 14.582ZM28.6636 10.916L28.1615 11.7808L28.172 11.7869L28.1828 11.7928L28.6636 10.916ZM13.9996 44.612L13.2521 45.2764L13.2597 45.2847L13.9996 44.612ZM30.9256 45.08L30.1706 44.4243L30.9256 45.08ZM33.4996 36.812H34.4996V35.812H33.4996V36.812ZM20.5516 36.812H19.5516V37.812H20.5516V36.812ZM20.5516 28.076V27.076H19.5516V28.076H20.5516ZM43.6396 28.076H44.6396V27.076H43.6396V28.076ZM43.6396 56V57H44.6396V56H43.6396ZM34.1236 56H33.1236V57H34.1236V56ZM34.1236 50.774H35.1236V49.774H34.1236V50.774ZM32.7196 50.774V49.774H32.0499L31.7949 50.3932L32.7196 50.774ZM30.9256 53.582L30.1607 52.9379L30.1505 52.95L30.1407 52.9624L30.9256 53.582ZM27.3376 56.078L26.9509 55.1558L27.3376 56.078ZM20.7076 56.092C17.1177 56.092 13.8774 55.2958 10.9664 53.717L10.0128 55.475C13.2378 57.2242 16.8095 58.092 20.7076 58.092V56.092ZM10.9841 53.7268C8.136 52.1064 5.84365 49.7718 4.10642 46.6944L2.36477 47.6776C4.26754 51.0482 6.81119 53.6536 9.99507 55.4652L10.9841 53.7268ZM4.11562 46.7111C2.44409 43.6138 1.58359 39.808 1.58359 35.252H-0.416406C-0.416406 40.056 0.491103 44.2062 2.35557 47.6609L4.11562 46.7111ZM1.58359 35.252V22.148H-0.416406V35.252H1.58359ZM1.58359 22.148C1.58359 15.3188 3.50029 10.2323 7.19934 6.72795L5.82385 5.27605C1.6189 9.25969 -0.416406 14.9372 -0.416406 22.148H1.58359ZM7.20432 6.72319C10.9288 3.14578 16.0142 1.308 22.5796 1.308V-0.692003C15.625 -0.692003 9.99843 1.26622 5.81886 5.2808L7.20432 6.72319ZM22.5796 1.308C29.11 1.308 33.9996 3.05078 37.3996 6.40217L38.8036 4.97782C34.9236 1.15321 29.4652 -0.692003 22.5796 -0.692003V1.308ZM37.4099 6.4122C40.8679 9.72405 42.6396 14.2527 42.6396 20.12H44.6396C44.6396 13.8193 42.7193 8.72794 38.7933 4.9678L37.4099 6.4122ZM42.6396 20.12V20.432H44.6396V20.12H42.6396ZM43.6396 19.432H33.4996V21.432H43.6396V19.432ZM34.4996 20.432V19.808H32.4996V20.432H34.4996ZM34.4996 19.808C34.4996 17.7347 34.0499 15.8288 33.1339 14.1114L31.3692 15.0526C32.1173 16.4552 32.4996 18.0333 32.4996 19.808H34.4996ZM33.146 14.1348C32.27 12.3827 30.9246 11.0154 29.1444 10.0392L28.1828 11.7928C29.6266 12.5846 30.6732 13.6613 31.3572 15.0292L33.146 14.1348ZM29.1657 10.0512C27.3609 9.00322 25.1466 8.512 22.5796 8.512V10.512C24.9006 10.512 26.7423 10.9568 28.1615 11.7808L29.1657 10.0512ZM22.5796 8.512C18.7197 8.512 15.5727 9.70672 13.2674 12.1849L14.7318 13.5471C16.5865 11.5533 19.1595 10.512 22.5796 10.512V8.512ZM13.2674 12.1849C10.9737 14.6506 9.87959 17.9598 9.87959 21.992H11.8796C11.8796 18.3282 12.8655 15.5534 14.7318 13.5471L13.2674 12.1849ZM9.87959 21.992V35.408H11.8796V21.992H9.87959ZM9.87959 35.408C9.87959 39.3944 10.9766 42.7163 13.2522 45.2764L14.747 43.9476C12.8626 41.8277 11.8796 39.0136 11.8796 35.408H9.87959ZM13.2597 45.2847C15.5685 47.8244 18.7742 49.044 22.7356 49.044V47.044C19.209 47.044 16.5907 45.9756 14.7395 43.9393L13.2597 45.2847ZM22.7356 49.044C26.6408 49.044 29.7042 48.0116 31.6806 45.7357L30.1706 44.4243C28.715 46.1004 26.3184 47.044 22.7356 47.044V49.044ZM31.6806 45.7357C33.5784 43.5504 34.4996 40.81 34.4996 37.592H32.4996C32.4996 40.406 31.7048 42.6576 30.1706 44.4243L31.6806 45.7357ZM34.4996 37.592V36.812H32.4996V37.592H34.4996ZM33.4996 35.812H20.5516V37.812H33.4996V35.812ZM21.5516 36.812V28.076H19.5516V36.812H21.5516ZM20.5516 29.076H43.6396V27.076H20.5516V29.076ZM42.6396 28.076V56H44.6396V28.076H42.6396ZM43.6396 55H34.1236V57H43.6396V55ZM35.1236 56V50.774H33.1236V56H35.1236ZM34.1236 49.774H32.7196V51.774H34.1236V49.774ZM31.7949 50.3932C31.4813 51.1549 30.9479 52.0031 30.1607 52.9379L31.6905 54.2261C32.5673 53.1849 33.2299 52.1611 33.6443 51.1547L31.7949 50.3932ZM30.1407 52.9624C29.4986 53.7757 28.4643 54.5211 26.9509 55.1558L27.7243 57.0002C29.4349 56.2829 30.7926 55.3643 31.7105 54.2016L30.1407 52.9624ZM26.9509 55.1558C25.5132 55.7587 23.4538 56.092 20.7076 56.092V58.092C23.5774 58.092 25.938 57.7493 27.7243 57.0002L26.9509 55.1558ZM53.4761 56H52.4761V57H53.4761V56ZM53.4761 1.4V0.399996H52.4761V1.4H53.4761ZM88.5761 1.4H89.5761V0.399996H88.5761V1.4ZM88.5761 10.76V11.76H89.5761V10.76H88.5761ZM63.7721 10.76V9.76H62.7721V10.76H63.7721ZM63.7721 23.786H62.7721V24.786H63.7721V23.786ZM86.3921 23.786H87.3921V22.786H86.3921V23.786ZM86.3921 33.146V34.146H87.3921V33.146H86.3921ZM63.7721 33.146V32.146H62.7721V33.146H63.7721ZM63.7721 46.64H62.7721V47.64H63.7721V46.64ZM89.0441 46.64H90.0441V45.64H89.0441V46.64ZM89.0441 56V57H90.0441V56H89.0441ZM54.4761 56V1.4H52.4761V56H54.4761ZM53.4761 2.4H88.5761V0.399996H53.4761V2.4ZM87.5761 1.4V10.76H89.5761V1.4H87.5761ZM88.5761 9.76H63.7721V11.76H88.5761V9.76ZM62.7721 10.76V23.786H64.7721V10.76H62.7721ZM63.7721 24.786H86.3921V22.786H63.7721V24.786ZM85.3921 23.786V33.146H87.3921V23.786H85.3921ZM86.3921 32.146H63.7721V34.146H86.3921V32.146ZM62.7721 33.146V46.64H64.7721V33.146H62.7721ZM63.7721 47.64H89.0441V45.64H63.7721V47.64ZM88.0441 46.64V56H90.0441V46.64H88.0441ZM89.0441 55H53.4761V57H89.0441V55ZM109.302 56H108.302V57H109.302V56ZM109.302 10.76H110.302V9.76H109.302V10.76ZM93.3896 10.76H92.3896V11.76H93.3896V10.76ZM93.3896 1.4V0.399996H92.3896V1.4H93.3896ZM135.51 1.4H136.51V0.399996H135.51V1.4ZM135.51 10.76V11.76H136.51V10.76H135.51ZM119.598 10.76V9.76H118.598V10.76H119.598ZM119.598 56V57H120.598V56H119.598ZM110.302 56V10.76H108.302V56H110.302ZM109.302 9.76H93.3896V11.76H109.302V9.76ZM94.3896 10.76V1.4H92.3896V10.76H94.3896ZM93.3896 2.4H135.51V0.399996H93.3896V2.4ZM134.51 1.4V10.76H136.51V1.4H134.51ZM135.51 9.76H119.598V11.76H135.51V9.76ZM118.598 10.76V56H120.598V10.76H118.598ZM119.598 55H109.302V57H119.598V55ZM167.764 54.83L167.341 55.7358L167.764 54.83ZM160.198 48.356L161.038 47.8121L160.198 48.356ZM157.468 36.032V35.032H156.468V36.032H157.468ZM167.608 36.032H168.608V35.032H167.608V36.032ZM170.65 45.626L170.016 46.3991L170.022 46.404L170.028 46.4088L170.65 45.626ZM186.796 45.938L186.175 45.1549L186.169 45.1594L186.163 45.164L186.796 45.938ZM188.122 36.89L187.375 37.5544L187.385 37.5657L187.395 37.5766L188.122 36.89ZM184.378 34.628L184.017 35.5606L184.035 35.5675L184.053 35.5737L184.378 34.628ZM178.45 32.912L178.667 31.9358L178.663 31.9348L178.45 32.912ZM176.656 32.522L176.439 33.4982L176.444 33.4992L176.656 32.522ZM166.984 29.402L166.544 30.2999L166.555 30.3051L166.565 30.31L166.984 29.402ZM160.822 24.332L159.994 24.8915L159.998 24.8985L160.003 24.9055L160.822 24.332ZM161.056 7.718L160.227 7.15914L160.224 7.1633L161.056 7.718ZM167.764 2.258L168.164 3.17457L168.172 3.17114L167.764 2.258ZM188.356 2.336L187.947 3.24851L187.957 3.25273L187.966 3.25675L188.356 2.336ZM195.532 8.264L194.693 8.80725L194.699 8.81685L194.705 8.82631L195.532 8.264ZM198.184 20.432V21.432H199.184V20.432H198.184ZM188.044 20.432H187.044V21.432H188.044V20.432ZM186.796 13.1L185.939 13.6145L185.951 13.6349L185.964 13.6547L186.796 13.1ZM183.364 10.292L182.982 11.216L182.996 11.2217L183.01 11.227L183.364 10.292ZM171.04 11.15L171.658 11.9363L171.662 11.9335L171.04 11.15ZM169.87 19.34L169.06 19.9255L169.07 19.9399L169.081 19.9539L169.87 19.34ZM178.45 23.318L178.663 22.3408L178.66 22.3402L178.45 23.318ZM180.244 23.708L180.032 24.6852L180.036 24.686L180.244 23.708ZM190.384 26.906L189.971 27.8164L189.977 27.8191L190.384 26.906ZM197.17 32.054L197.968 31.4509L197.17 32.054ZM197.014 49.058L196.185 48.4994L196.182 48.5033L197.014 49.058ZM189.838 54.986L190.255 55.8953L190.261 55.8922L189.838 54.986ZM178.918 56.092C174.826 56.092 171.257 55.3598 168.188 53.9242L167.341 55.7358C170.719 57.3162 174.587 58.092 178.918 58.092V56.092ZM168.188 53.9242C165.122 52.4903 162.749 50.4528 161.038 47.8121L159.359 48.8999C161.288 51.8752 163.958 54.1537 167.341 55.7358L168.188 53.9242ZM161.038 47.8121C159.34 45.1935 158.468 42.0105 158.468 38.216H156.468C156.468 42.3255 157.416 45.9025 159.359 48.8999L161.038 47.8121ZM158.468 38.216V36.032H156.468V38.216H158.468ZM157.468 37.032H167.608V35.032H157.468V37.032ZM166.608 36.032V38.216H168.608V36.032H166.608ZM166.608 38.216C166.608 41.7101 167.7 44.4989 170.016 46.3991L171.285 44.8529C169.545 43.4251 168.608 41.2739 168.608 38.216H166.608ZM170.028 46.4088C172.286 48.2032 175.286 49.044 178.918 49.044V47.044C175.583 47.044 173.071 46.2728 171.273 44.8432L170.028 46.4088ZM178.918 49.044C182.557 49.044 185.456 48.3269 187.43 46.712L186.163 45.164C184.705 46.3571 182.352 47.044 178.918 47.044V49.044ZM187.418 46.7211C189.416 45.1348 190.448 43.0568 190.448 40.556H188.448C188.448 42.4232 187.713 43.9332 186.175 45.1549L187.418 46.7211ZM190.448 40.556C190.448 38.8394 189.938 37.3564 188.849 36.2034L187.395 37.5766C188.074 38.2956 188.448 39.2566 188.448 40.556H190.448ZM188.87 36.2256C187.887 35.1195 186.468 34.2888 184.703 33.6823L184.053 35.5737C185.617 36.1112 186.694 36.7885 187.375 37.5544L188.87 36.2256ZM184.739 33.6954C183.067 33.0479 181.039 32.4629 178.667 31.9358L178.233 33.8882C180.542 34.4011 182.466 34.9601 184.017 35.5606L184.739 33.6954ZM178.663 31.9348L176.869 31.5448L176.444 33.4992L178.238 33.8892L178.663 31.9348ZM176.873 31.5458C173.18 30.7251 170.027 29.705 167.403 28.494L166.565 30.31C169.35 31.595 172.645 32.6549 176.439 33.4982L176.873 31.5458ZM167.425 28.5041C164.899 27.2662 162.986 25.679 161.642 23.7585L160.003 24.9055C161.571 27.145 163.765 28.9378 166.544 30.2999L167.425 28.5041ZM161.651 23.7725C160.39 21.9038 159.716 19.4126 159.716 16.22H157.716C157.716 19.6834 158.447 22.6002 159.994 24.8915L161.651 23.7725ZM159.716 16.22C159.716 13.0525 160.457 10.4202 161.888 8.2727L160.224 7.1633C158.536 9.69579 157.716 12.7315 157.716 16.22H159.716ZM161.886 8.27685C163.383 6.05536 165.464 4.353 168.164 3.17454L167.364 1.34146C164.345 2.65899 161.954 4.59663 160.227 7.15915L161.886 8.27685ZM168.172 3.17114C170.931 1.93968 174.192 1.308 177.982 1.308V-0.692003C173.973 -0.692003 170.422 -0.0236835 167.357 1.34486L168.172 3.17114ZM177.982 1.308C181.766 1.308 185.081 1.96362 187.947 3.24851L188.765 1.42349C185.6 0.00437164 181.998 -0.692003 177.982 -0.692003V1.308ZM187.966 3.25675C190.861 4.48322 193.092 6.33267 194.693 8.80725L196.372 7.72075C194.541 4.89132 191.988 2.78877 188.747 1.41525L187.966 3.25675ZM194.705 8.82631C196.335 11.2224 197.184 14.2889 197.184 18.092H199.184C199.184 13.9911 198.266 10.5056 196.359 7.70169L194.705 8.82631ZM197.184 18.092V20.432H199.184V18.092H197.184ZM198.184 19.432H188.044V21.432H198.184V19.432ZM189.044 20.432V18.092H187.044V20.432H189.044ZM189.044 18.092C189.044 15.8884 188.605 14.0098 187.628 12.5453L185.964 13.6547C186.652 14.6862 187.044 16.1356 187.044 18.092H189.044ZM187.654 12.5855C186.751 11.08 185.423 10.0032 183.719 9.357L183.01 11.227C184.322 11.7248 185.282 12.52 185.939 13.6145L187.654 12.5855ZM183.747 9.36798C182.089 8.68211 180.159 8.356 177.982 8.356V10.356C179.966 10.356 181.624 10.6539 182.982 11.216L183.747 9.36798ZM177.982 8.356C174.767 8.356 172.184 8.96665 170.419 10.3665L171.662 11.9335C172.913 10.9413 174.958 10.356 177.982 10.356V8.356ZM170.423 10.3637C168.7 11.717 167.856 13.6066 167.856 15.908H169.856C169.856 14.1534 170.469 12.871 171.658 11.9363L170.423 10.3637ZM167.856 15.908C167.856 17.4331 168.241 18.7913 169.06 19.9255L170.681 18.7545C170.148 18.0167 169.856 17.0869 169.856 15.908H167.856ZM169.081 19.9539C169.936 21.0527 171.151 21.9221 172.662 22.5938L173.475 20.7662C172.178 20.1899 171.261 19.4993 170.66 18.7261L169.081 19.9539ZM172.662 22.5938C174.151 23.2554 176.017 23.8192 178.241 24.2958L178.66 22.3402C176.516 21.8808 174.794 21.3526 173.475 20.7662L172.662 22.5938ZM178.238 24.2952L180.032 24.6852L180.457 22.7308L178.663 22.3408L178.238 24.2952ZM180.036 24.686C183.883 25.5067 187.191 26.553 189.971 27.8164L190.798 25.9956C187.858 24.659 184.406 23.5732 180.453 22.73L180.036 24.686ZM189.977 27.8191C192.764 29.0636 194.88 30.6835 196.373 32.6571L197.968 31.4509C196.236 29.1605 193.828 27.3484 190.792 25.9929L189.977 27.8191ZM196.373 32.6571C197.824 34.5766 198.588 37.0794 198.588 40.244H200.588C200.588 36.7526 199.741 33.7954 197.968 31.4509L196.373 32.6571ZM198.588 40.244C198.588 43.3903 197.78 46.1303 196.185 48.4994L197.844 49.6166C199.68 46.8897 200.588 43.7537 200.588 40.244H198.588ZM196.182 48.5033C194.634 50.8254 192.395 52.6896 189.416 54.0798L190.261 55.8922C193.522 54.3704 196.067 52.2826 197.846 49.6127L196.182 48.5033ZM189.422 54.0767C186.513 55.408 183.021 56.092 178.918 56.092V58.092C183.239 58.092 187.028 57.372 190.255 55.8953L189.422 54.0767ZM207.267 56H206.267V57H207.267V56ZM207.267 1.4V0.399996H206.267V1.4H207.267ZM238.779 3.506L238.304 4.3859L238.314 4.39153L238.325 4.3969L238.779 3.506ZM244.941 9.278L244.077 9.78187L244.081 9.78852L244.085 9.79511L244.941 9.278ZM244.863 28.154L244.01 27.6318L244.007 27.6369L244.863 28.154ZM238.623 34.004L239.085 34.8912L239.091 34.8878L238.623 34.004ZM217.563 36.032V35.032H216.563V36.032H217.563ZM217.563 56V57H218.563V56H217.563ZM217.563 26.672H216.563V27.672H217.563V26.672ZM234.645 24.644L235.313 25.3886L234.645 24.644ZM234.645 12.788L235.313 12.0434L234.645 12.788ZM217.563 10.76V9.76H216.563V10.76H217.563ZM208.267 56V1.4H206.267V56H208.267ZM207.267 2.4H229.731V0.399996H207.267V2.4ZM229.731 2.4C233.024 2.4 235.872 3.0726 238.304 4.3859L239.254 2.62609C236.486 1.13139 233.302 0.399996 229.731 0.399996V2.4ZM238.325 4.3969C240.812 5.6646 242.721 7.45667 244.077 9.78187L245.805 8.77412C244.249 6.10732 242.051 4.0514 239.233 2.61509L238.325 4.3969ZM244.085 9.79511C245.483 12.1094 246.203 14.8877 246.203 18.17H248.203C248.203 14.5883 247.415 11.4386 245.797 8.76088L244.085 9.79511ZM246.203 18.17V19.262H248.203V18.17H246.203ZM246.203 19.262C246.203 22.4825 245.462 25.2609 244.01 27.6318L245.716 28.6762C247.384 25.9511 248.203 22.8015 248.203 19.262H246.203ZM244.007 27.6369C242.596 29.9731 240.652 31.7984 238.155 33.1202L239.091 34.8878C241.898 33.4016 244.115 31.3269 245.719 28.6711L244.007 27.6369ZM238.162 33.1168C235.723 34.3852 232.921 35.032 229.731 35.032V37.032C233.198 37.032 236.324 36.3268 239.084 34.8912L238.162 33.1168ZM229.731 35.032H217.563V37.032H229.731V35.032ZM216.563 36.032V56H218.563V36.032H216.563ZM217.563 55H207.267V57H217.563V55ZM217.563 27.672H228.717V25.672H217.563V27.672ZM228.717 27.672C231.354 27.672 233.585 26.9376 235.313 25.3886L233.978 23.8994C232.689 25.0544 230.968 25.672 228.717 25.672V27.672ZM235.313 25.3886C237.066 23.8167 237.907 21.6815 237.907 19.106H235.907C235.907 21.2105 235.24 22.7673 233.978 23.8994L235.313 25.3886ZM237.907 19.106V18.326H235.907V19.106H237.907ZM237.907 18.326C237.907 15.7505 237.066 13.6153 235.313 12.0434L233.978 13.5326C235.24 14.6647 235.907 16.2215 235.907 18.326H237.907ZM235.313 12.0434C233.585 10.4944 231.354 9.76 228.717 9.76V11.76C230.968 11.76 232.689 12.3776 233.978 13.5326L235.313 12.0434ZM228.717 9.76H217.563V11.76H228.717V9.76ZM216.563 10.76V26.672H218.563V10.76H216.563ZM254.341 56H253.341V57H254.341V56ZM254.341 1.4V0.399996H253.341V1.4H254.341ZM264.637 1.4H265.637V0.399996H264.637V1.4ZM264.637 56V57H265.637V56H264.637ZM255.341 56V1.4H253.341V56H255.341ZM254.341 2.4H264.637V0.399996H254.341V2.4ZM263.637 1.4V56H265.637V1.4H263.637ZM264.637 55H254.341V57H264.637V55ZM274.908 56H273.908V57H274.908V56ZM274.908 1.4V0.399996H273.908V1.4H274.908ZM294.486 1.4L295.461 1.17782L295.284 0.399996H294.486V1.4ZM305.328 48.98L304.353 49.2022L304.53 49.98H305.328V48.98ZM306.732 48.98V49.98H307.732V48.98H306.732ZM306.732 1.4V0.399996H305.732V1.4H306.732ZM316.872 1.4H317.872V0.399996H316.872V1.4ZM316.872 56V57H317.872V56H316.872ZM297.294 56L296.319 56.2222L296.496 57H297.294V56ZM286.452 8.42L287.427 8.19783L287.25 7.42H286.452V8.42ZM285.048 8.42V7.42H284.048V8.42H285.048ZM285.048 56V57H286.048V56H285.048ZM275.908 56V1.4H273.908V56H275.908ZM274.908 2.4H294.486V0.399996H274.908V2.4ZM293.511 1.62217L304.353 49.2022L306.303 48.7578L295.461 1.17782L293.511 1.62217ZM305.328 49.98H306.732V47.98H305.328V49.98ZM307.732 48.98V1.4H305.732V48.98H307.732ZM306.732 2.4H316.872V0.399996H306.732V2.4ZM315.872 1.4V56H317.872V1.4H315.872ZM316.872 55H297.294V57H316.872V55ZM298.269 55.7778L287.427 8.19783L285.477 8.64217L296.319 56.2222L298.269 55.7778ZM286.452 7.42H285.048V9.42H286.452V7.42ZM284.048 8.42V56H286.048V8.42H284.048ZM285.048 55H274.908V57H285.048V55ZM334.962 54.83L334.538 55.7358L334.962 54.83ZM327.396 48.356L328.235 47.8121L327.396 48.356ZM324.666 36.032V35.032H323.666V36.032H324.666ZM334.806 36.032H335.806V35.032H334.806V36.032ZM337.848 45.626L337.213 46.3991L337.219 46.404L337.225 46.4088L337.848 45.626ZM353.994 45.938L353.372 45.1549L353.366 45.1594L353.36 45.164L353.994 45.938ZM355.32 36.89L354.572 37.5544L354.582 37.5657L354.593 37.5766L355.32 36.89ZM351.576 34.628L351.215 35.5606L351.233 35.5675L351.251 35.5737L351.576 34.628ZM345.648 32.912L345.865 31.9358L345.86 31.9348L345.648 32.912ZM343.854 32.522L343.637 33.4982L343.641 33.4992L343.854 32.522ZM334.182 29.402L333.742 30.2999L333.752 30.3051L333.763 30.31L334.182 29.402ZM328.02 24.332L327.191 24.8915L327.196 24.8985L327.2 24.9055L328.02 24.332ZM328.254 7.718L327.424 7.15914L327.422 7.1633L328.254 7.718ZM334.962 2.258L335.362 3.17457L335.369 3.17114L334.962 2.258ZM355.554 2.336L355.145 3.24851L355.154 3.25273L355.164 3.25675L355.554 2.336ZM362.73 8.264L361.89 8.80725L361.896 8.81685L361.903 8.82631L362.73 8.264ZM365.382 20.432V21.432H366.382V20.432H365.382ZM355.242 20.432H354.242V21.432H355.242V20.432ZM353.994 13.1L353.136 13.6145L353.148 13.6349L353.162 13.6547L353.994 13.1ZM350.562 10.292L350.179 11.216L350.193 11.2217L350.207 11.227L350.562 10.292ZM338.238 11.15L338.855 11.9363L338.859 11.9335L338.238 11.15ZM337.068 19.34L336.257 19.9255L336.267 19.9399L336.278 19.9539L337.068 19.34ZM345.648 23.318L345.86 22.3408L345.857 22.3402L345.648 23.318ZM347.442 23.708L347.229 24.6852L347.233 24.686L347.442 23.708ZM357.582 26.906L357.168 27.8164L357.174 27.8191L357.582 26.906ZM364.368 32.054L365.165 31.4509L364.368 32.054ZM364.212 49.058L363.382 48.4994L363.38 48.5033L364.212 49.058ZM357.036 54.986L357.452 55.8953L357.459 55.8922L357.036 54.986ZM346.116 56.092C342.024 56.092 338.455 55.3598 335.385 53.9242L334.538 55.7358C337.917 57.3162 341.784 58.092 346.116 58.092V56.092ZM335.385 53.9242C332.32 52.4903 329.946 50.4528 328.235 47.8121L326.557 48.8999C328.485 51.8752 331.156 54.1537 334.538 55.7358L335.385 53.9242ZM328.235 47.8121C326.538 45.1935 325.666 42.0105 325.666 38.216H323.666C323.666 42.3255 324.614 45.9025 326.557 48.8999L328.235 47.8121ZM325.666 38.216V36.032H323.666V38.216H325.666ZM324.666 37.032H334.806V35.032H324.666V37.032ZM333.806 36.032V38.216H335.806V36.032H333.806ZM333.806 38.216C333.806 41.7101 334.898 44.4989 337.213 46.3991L338.482 44.8529C336.742 43.4251 335.806 41.2739 335.806 38.216H333.806ZM337.225 46.4088C339.483 48.2032 342.483 49.044 346.116 49.044V47.044C342.78 47.044 340.268 46.2728 338.47 44.8432L337.225 46.4088ZM346.116 49.044C349.754 49.044 352.653 48.3269 354.627 46.712L353.36 45.164C351.902 46.3571 349.549 47.044 346.116 47.044V49.044ZM354.616 46.7211C356.613 45.1348 357.646 43.0568 357.646 40.556H355.646C355.646 42.4232 354.91 43.9332 353.372 45.1549L354.616 46.7211ZM357.646 40.556C357.646 38.8394 357.136 37.3564 356.047 36.2034L354.593 37.5766C355.272 38.2956 355.646 39.2566 355.646 40.556H357.646ZM356.067 36.2256C355.084 35.1195 353.665 34.2888 351.901 33.6823L351.251 35.5737C352.814 36.1112 353.892 36.7885 354.572 37.5544L356.067 36.2256ZM351.937 33.6954C350.264 33.0479 348.236 32.4629 345.865 31.9358L345.431 33.8882C347.739 34.4011 349.664 34.9601 351.215 35.5606L351.937 33.6954ZM345.86 31.9348L344.066 31.5448L343.641 33.4992L345.435 33.8892L345.86 31.9348ZM344.071 31.5458C340.377 30.7251 337.225 29.705 334.601 28.494L333.763 30.31C336.547 31.595 339.842 32.6549 343.637 33.4982L344.071 31.5458ZM334.622 28.5041C332.097 27.2662 330.183 25.679 328.839 23.7585L327.2 24.9055C328.768 27.145 330.963 28.9378 333.742 30.2999L334.622 28.5041ZM328.849 23.7725C327.587 21.9038 326.914 19.4126 326.914 16.22H324.914C324.914 19.6834 325.644 22.6002 327.191 24.8915L328.849 23.7725ZM326.914 16.22C326.914 13.0525 327.654 10.4202 329.086 8.2727L327.422 7.1633C325.733 9.69579 324.914 12.7315 324.914 16.22H326.914ZM329.083 8.27685C330.58 6.05536 332.661 4.353 335.362 3.17454L334.562 1.34146C331.542 2.65899 329.151 4.59663 327.424 7.15915L329.083 8.27685ZM335.369 3.17114C338.128 1.93968 341.39 1.308 345.18 1.308V-0.692003C341.17 -0.692003 337.62 -0.0236835 334.554 1.34486L335.369 3.17114ZM345.18 1.308C348.964 1.308 352.278 1.96362 355.145 3.24851L355.963 1.42349C352.797 0.00437164 349.196 -0.692003 345.18 -0.692003V1.308ZM355.164 3.25675C358.058 4.48322 360.289 6.33267 361.89 8.80725L363.569 7.72075C361.738 4.89132 359.185 2.78877 355.944 1.41525L355.164 3.25675ZM361.903 8.82631C363.532 11.2224 364.382 14.2889 364.382 18.092H366.382C366.382 13.9911 365.463 10.5056 363.557 7.70169L361.903 8.82631ZM364.382 18.092V20.432H366.382V18.092H364.382ZM365.382 19.432H355.242V21.432H365.382V19.432ZM356.242 20.432V18.092H354.242V20.432H356.242ZM356.242 18.092C356.242 15.8884 355.802 14.0098 354.826 12.5453L353.162 13.6547C353.849 14.6862 354.242 16.1356 354.242 18.092H356.242ZM354.851 12.5855C353.948 11.08 352.62 10.0032 350.916 9.357L350.207 11.227C351.519 11.7248 352.479 12.52 353.136 13.6145L354.851 12.5855ZM350.944 9.36798C349.286 8.68211 347.356 8.356 345.18 8.356V10.356C347.163 10.356 348.821 10.6539 350.179 11.216L350.944 9.36798ZM345.18 8.356C341.964 8.356 339.381 8.96665 337.616 10.3665L338.859 11.9335C340.11 10.9413 342.155 10.356 345.18 10.356V8.356ZM337.62 10.3637C335.897 11.717 335.054 13.6066 335.054 15.908H337.054C337.054 14.1534 337.666 12.871 338.855 11.9363L337.62 10.3637ZM335.054 15.908C335.054 17.4331 335.438 18.7913 336.257 19.9255L337.878 18.7545C337.345 18.0167 337.054 17.0869 337.054 15.908H335.054ZM336.278 19.9539C337.133 21.0527 338.348 21.9221 339.86 22.5938L340.672 20.7662C339.375 20.1899 338.458 19.4993 337.857 18.7261L336.278 19.9539ZM339.86 22.5938C341.348 23.2554 343.214 23.8192 345.438 24.2958L345.857 22.3402C343.713 21.8808 341.991 21.3526 340.672 20.7662L339.86 22.5938ZM345.435 24.2952L347.229 24.6852L347.654 22.7308L345.86 22.3408L345.435 24.2952ZM347.233 24.686C351.08 25.5067 354.388 26.553 357.168 27.8164L357.995 25.9956C355.055 24.659 351.603 23.5732 347.65 22.73L347.233 24.686ZM357.174 27.8191C359.962 29.0636 362.078 30.6835 363.57 32.6571L365.165 31.4509C363.434 29.1605 361.026 27.3484 357.989 25.9929L357.174 27.8191ZM363.57 32.6571C365.021 34.5766 365.786 37.0794 365.786 40.244H367.786C367.786 36.7526 366.938 33.7954 365.165 31.4509L363.57 32.6571ZM365.786 40.244C365.786 43.3903 364.978 46.1303 363.382 48.4994L365.041 49.6166C366.878 46.8897 367.786 43.7537 367.786 40.244H365.786ZM363.38 48.5033C361.832 50.8254 359.592 52.6896 356.613 54.0798L357.459 55.8922C360.72 54.3704 363.264 52.2826 365.044 49.6127L363.38 48.5033ZM356.62 54.0767C353.71 55.408 350.219 56.092 346.116 56.092V58.092C350.437 58.092 354.225 57.372 357.452 55.8953L356.62 54.0767Z" fill="url(#paint1_linear_4734_1017)" fill-opacity="0.3" mask="url(#path-1-outside-1_4734_1017)"/>
<defs>
<linearGradient id="paint0_linear_4734_1017" x1="183" y1="0.25" x2="183" y2="56.8" gradientUnits="userSpaceOnUse">
<stop stop-color="#A6A6A6"/>
<stop offset="1" stop-color="#7C7C7C"/>
</linearGradient>
<linearGradient id="paint1_linear_4734_1017" x1="183" y1="-1.5" x2="183" y2="56" gradientUnits="userSpaceOnUse">
<stop/>
<stop offset="0.58898" stop-opacity="0"/>
<stop offset="1" stop-color="#8E8E8E"/>
</linearGradient>
</defs>
</svg>
