<svg width="746" height="67" viewBox="0 0 746 67" fill="none" xmlns="http://www.w3.org/2000/svg">
<mask id="path-1-outside-1_89_3394" maskUnits="userSpaceOnUse" x="-1" y="-1" width="748" height="69" fill="black">
<rect fill="white" x="-1" y="-1" width="748" height="69"/>
<path d="M0.231797 65V54.56H8.5118V12.44H0.231797V2H26.1518C34.6118 2 41.0318 4.16 45.4118 8.48C49.8518 12.74 52.0718 19.1 52.0718 27.56V39.44C52.0718 47.9 49.8518 54.29 45.4118 58.61C41.0318 62.87 34.6118 65 26.1518 65H0.231797ZM20.3918 54.2H26.3318C31.1318 54.2 34.6418 52.94 36.8618 50.42C39.0818 47.9 40.1918 44.36 40.1918 39.8V27.2C40.1918 22.58 39.0818 19.04 36.8618 16.58C34.6418 14.06 31.1318 12.8 26.3318 12.8H20.3918V54.2ZM57.1259 65L73.6859 2H94.3859L110.946 65H98.7059L95.2859 51.14H72.7859L69.3659 65H57.1259ZM75.5759 40.16H92.4959L84.8459 9.47H83.2259L75.5759 40.16ZM118.487 65V2H144.407C148.367 2 151.847 2.81 154.847 4.43C157.907 5.99 160.277 8.21 161.957 11.09C163.697 13.97 164.567 17.39 164.567 21.35V22.61C164.567 26.51 163.667 29.93 161.867 32.87C160.127 35.75 157.727 38 154.667 39.62C151.667 41.18 148.247 41.96 144.407 41.96H130.367V65H118.487ZM130.367 31.16H143.237C146.057 31.16 148.337 30.38 150.077 28.82C151.817 27.26 152.687 25.13 152.687 22.43V21.53C152.687 18.83 151.817 16.7 150.077 15.14C148.337 13.58 146.057 12.8 143.237 12.8H130.367V31.16ZM170.652 65V54.56H178.932V12.44H170.652V2H196.572C205.032 2 211.452 4.16 215.832 8.48C220.272 12.74 222.492 19.1 222.492 27.56V39.44C222.492 47.9 220.272 54.29 215.832 58.61C211.452 62.87 205.032 65 196.572 65H170.652ZM190.812 54.2H196.752C201.552 54.2 205.062 52.94 207.282 50.42C209.502 47.9 210.612 44.36 210.612 39.8V27.2C210.612 22.58 209.502 19.04 207.282 16.58C205.062 14.06 201.552 12.8 196.752 12.8H190.812V54.2ZM227.546 65L244.106 2H264.806L281.366 65H269.126L265.706 51.14H243.206L239.786 65H227.546ZM245.996 40.16H262.916L255.266 9.47H253.646L245.996 40.16ZM288.907 65V2H314.827C318.787 2 322.267 2.81 325.267 4.43C328.327 5.99 330.697 8.21 332.377 11.09C334.117 13.97 334.987 17.39 334.987 21.35V22.61C334.987 26.51 334.087 29.93 332.287 32.87C330.547 35.75 328.147 38 325.087 39.62C322.087 41.18 318.667 41.96 314.827 41.96H300.787V65H288.907ZM300.787 31.16H313.657C316.477 31.16 318.757 30.38 320.497 28.82C322.237 27.26 323.107 25.13 323.107 22.43V21.53C323.107 18.83 322.237 16.7 320.497 15.14C318.757 13.58 316.477 12.8 313.657 12.8H300.787V31.16ZM384.165 66.26C377.685 66.26 372.525 64.49 368.685 60.95C364.905 57.41 363.015 52.46 363.015 46.1V40.16H374.895V46.1C374.895 48.92 375.675 51.14 377.235 52.76C378.795 54.32 380.985 55.1 383.805 55.1C386.445 55.1 388.485 54.32 389.925 52.76C391.425 51.2 392.175 48.98 392.175 46.1V12.8H381.375V2H411.255V12.8H404.055V46.1C404.055 52.64 402.285 57.65 398.745 61.13C395.205 64.55 390.345 66.26 384.165 66.26ZM413.259 65L429.819 2H450.519L467.079 65H454.839L451.419 51.14H428.919L425.499 65H413.259ZM431.709 40.16H448.629L440.979 9.47H439.359L431.709 40.16ZM498.032 66.26C490.232 66.26 484.052 64.1 479.492 59.78C474.932 55.4 472.652 49.16 472.652 41.06V25.94C472.652 17.84 474.932 11.63 479.492 7.31C484.052 2.93 490.232 0.739996 498.032 0.739996C505.772 0.739996 511.742 2.87 515.942 7.13C520.202 11.33 522.332 17.12 522.332 24.5V25.04H510.632V24.14C510.632 20.42 509.582 17.36 507.482 14.96C505.442 12.56 502.292 11.36 498.032 11.36C493.832 11.36 490.532 12.65 488.132 15.23C485.732 17.81 484.532 21.32 484.532 25.76V41.24C484.532 45.62 485.732 49.13 488.132 51.77C490.532 54.35 493.832 55.64 498.032 55.64C502.292 55.64 505.442 54.44 507.482 52.04C509.582 49.58 510.632 46.52 510.632 42.86V41.24H522.332V42.5C522.332 49.88 520.202 55.7 515.942 59.96C511.742 64.16 505.772 66.26 498.032 66.26ZM532.012 65V2H543.892V27.02H545.512L565.942 2H581.152L554.872 33.05L582.052 65H566.392L545.512 39.44H543.892V65H532.012ZM588.35 65V2H614.27C618.23 2 621.71 2.81 624.71 4.43C627.77 5.99 630.14 8.21 631.82 11.09C633.56 13.97 634.43 17.39 634.43 21.35V22.61C634.43 26.51 633.53 29.93 631.73 32.87C629.99 35.75 627.59 38 624.53 39.62C621.53 41.18 618.11 41.96 614.27 41.96H600.23V65H588.35ZM600.23 31.16H613.1C615.92 31.16 618.2 30.38 619.94 28.82C621.68 27.26 622.55 25.13 622.55 22.43V21.53C622.55 18.83 621.68 16.7 619.94 15.14C618.2 13.58 615.92 12.8 613.1 12.8H600.23V31.16ZM667.147 66.26C659.227 66.26 652.927 64.1 648.247 59.78C643.567 55.4 641.227 49.16 641.227 41.06V25.94C641.227 17.84 643.567 11.63 648.247 7.31C652.927 2.93 659.227 0.739996 667.147 0.739996C675.067 0.739996 681.367 2.93 686.047 7.31C690.727 11.63 693.067 17.84 693.067 25.94V41.06C693.067 49.16 690.727 55.4 686.047 59.78C681.367 64.1 675.067 66.26 667.147 66.26ZM667.147 55.64C671.587 55.64 675.037 54.35 677.497 51.77C679.957 49.19 681.187 45.74 681.187 41.42V25.58C681.187 21.26 679.957 17.81 677.497 15.23C675.037 12.65 671.587 11.36 667.147 11.36C662.767 11.36 659.317 12.65 656.797 15.23C654.337 17.81 653.107 21.26 653.107 25.58V41.42C653.107 45.74 654.337 49.19 656.797 51.77C659.317 54.35 662.767 55.64 667.147 55.64ZM715.518 65V12.8H697.158V2H745.758V12.8H727.398V65H715.518Z"/>
</mask>
<path d="M0.231797 65V54.56H8.5118V12.44H0.231797V2H26.1518C34.6118 2 41.0318 4.16 45.4118 8.48C49.8518 12.74 52.0718 19.1 52.0718 27.56V39.44C52.0718 47.9 49.8518 54.29 45.4118 58.61C41.0318 62.87 34.6118 65 26.1518 65H0.231797ZM20.3918 54.2H26.3318C31.1318 54.2 34.6418 52.94 36.8618 50.42C39.0818 47.9 40.1918 44.36 40.1918 39.8V27.2C40.1918 22.58 39.0818 19.04 36.8618 16.58C34.6418 14.06 31.1318 12.8 26.3318 12.8H20.3918V54.2ZM57.1259 65L73.6859 2H94.3859L110.946 65H98.7059L95.2859 51.14H72.7859L69.3659 65H57.1259ZM75.5759 40.16H92.4959L84.8459 9.47H83.2259L75.5759 40.16ZM118.487 65V2H144.407C148.367 2 151.847 2.81 154.847 4.43C157.907 5.99 160.277 8.21 161.957 11.09C163.697 13.97 164.567 17.39 164.567 21.35V22.61C164.567 26.51 163.667 29.93 161.867 32.87C160.127 35.75 157.727 38 154.667 39.62C151.667 41.18 148.247 41.96 144.407 41.96H130.367V65H118.487ZM130.367 31.16H143.237C146.057 31.16 148.337 30.38 150.077 28.82C151.817 27.26 152.687 25.13 152.687 22.43V21.53C152.687 18.83 151.817 16.7 150.077 15.14C148.337 13.58 146.057 12.8 143.237 12.8H130.367V31.16ZM170.652 65V54.56H178.932V12.44H170.652V2H196.572C205.032 2 211.452 4.16 215.832 8.48C220.272 12.74 222.492 19.1 222.492 27.56V39.44C222.492 47.9 220.272 54.29 215.832 58.61C211.452 62.87 205.032 65 196.572 65H170.652ZM190.812 54.2H196.752C201.552 54.2 205.062 52.94 207.282 50.42C209.502 47.9 210.612 44.36 210.612 39.8V27.2C210.612 22.58 209.502 19.04 207.282 16.58C205.062 14.06 201.552 12.8 196.752 12.8H190.812V54.2ZM227.546 65L244.106 2H264.806L281.366 65H269.126L265.706 51.14H243.206L239.786 65H227.546ZM245.996 40.16H262.916L255.266 9.47H253.646L245.996 40.16ZM288.907 65V2H314.827C318.787 2 322.267 2.81 325.267 4.43C328.327 5.99 330.697 8.21 332.377 11.09C334.117 13.97 334.987 17.39 334.987 21.35V22.61C334.987 26.51 334.087 29.93 332.287 32.87C330.547 35.75 328.147 38 325.087 39.62C322.087 41.18 318.667 41.96 314.827 41.96H300.787V65H288.907ZM300.787 31.16H313.657C316.477 31.16 318.757 30.38 320.497 28.82C322.237 27.26 323.107 25.13 323.107 22.43V21.53C323.107 18.83 322.237 16.7 320.497 15.14C318.757 13.58 316.477 12.8 313.657 12.8H300.787V31.16ZM384.165 66.26C377.685 66.26 372.525 64.49 368.685 60.95C364.905 57.41 363.015 52.46 363.015 46.1V40.16H374.895V46.1C374.895 48.92 375.675 51.14 377.235 52.76C378.795 54.32 380.985 55.1 383.805 55.1C386.445 55.1 388.485 54.32 389.925 52.76C391.425 51.2 392.175 48.98 392.175 46.1V12.8H381.375V2H411.255V12.8H404.055V46.1C404.055 52.64 402.285 57.65 398.745 61.13C395.205 64.55 390.345 66.26 384.165 66.26ZM413.259 65L429.819 2H450.519L467.079 65H454.839L451.419 51.14H428.919L425.499 65H413.259ZM431.709 40.16H448.629L440.979 9.47H439.359L431.709 40.16ZM498.032 66.26C490.232 66.26 484.052 64.1 479.492 59.78C474.932 55.4 472.652 49.16 472.652 41.06V25.94C472.652 17.84 474.932 11.63 479.492 7.31C484.052 2.93 490.232 0.739996 498.032 0.739996C505.772 0.739996 511.742 2.87 515.942 7.13C520.202 11.33 522.332 17.12 522.332 24.5V25.04H510.632V24.14C510.632 20.42 509.582 17.36 507.482 14.96C505.442 12.56 502.292 11.36 498.032 11.36C493.832 11.36 490.532 12.65 488.132 15.23C485.732 17.81 484.532 21.32 484.532 25.76V41.24C484.532 45.62 485.732 49.13 488.132 51.77C490.532 54.35 493.832 55.64 498.032 55.64C502.292 55.64 505.442 54.44 507.482 52.04C509.582 49.58 510.632 46.52 510.632 42.86V41.24H522.332V42.5C522.332 49.88 520.202 55.7 515.942 59.96C511.742 64.16 505.772 66.26 498.032 66.26ZM532.012 65V2H543.892V27.02H545.512L565.942 2H581.152L554.872 33.05L582.052 65H566.392L545.512 39.44H543.892V65H532.012ZM588.35 65V2H614.27C618.23 2 621.71 2.81 624.71 4.43C627.77 5.99 630.14 8.21 631.82 11.09C633.56 13.97 634.43 17.39 634.43 21.35V22.61C634.43 26.51 633.53 29.93 631.73 32.87C629.99 35.75 627.59 38 624.53 39.62C621.53 41.18 618.11 41.96 614.27 41.96H600.23V65H588.35ZM600.23 31.16H613.1C615.92 31.16 618.2 30.38 619.94 28.82C621.68 27.26 622.55 25.13 622.55 22.43V21.53C622.55 18.83 621.68 16.7 619.94 15.14C618.2 13.58 615.92 12.8 613.1 12.8H600.23V31.16ZM667.147 66.26C659.227 66.26 652.927 64.1 648.247 59.78C643.567 55.4 641.227 49.16 641.227 41.06V25.94C641.227 17.84 643.567 11.63 648.247 7.31C652.927 2.93 659.227 0.739996 667.147 0.739996C675.067 0.739996 681.367 2.93 686.047 7.31C690.727 11.63 693.067 17.84 693.067 25.94V41.06C693.067 49.16 690.727 55.4 686.047 59.78C681.367 64.1 675.067 66.26 667.147 66.26ZM667.147 55.64C671.587 55.64 675.037 54.35 677.497 51.77C679.957 49.19 681.187 45.74 681.187 41.42V25.58C681.187 21.26 679.957 17.81 677.497 15.23C675.037 12.65 671.587 11.36 667.147 11.36C662.767 11.36 659.317 12.65 656.797 15.23C654.337 17.81 653.107 21.26 653.107 25.58V41.42C653.107 45.74 654.337 49.19 656.797 51.77C659.317 54.35 662.767 55.64 667.147 55.64ZM715.518 65V12.8H697.158V2H745.758V12.8H727.398V65H715.518Z" fill="url(#paint0_linear_89_3394)" fill-opacity="0.2"/>
<path d="M0.231796 65H-0.768204V66H0.231796V65ZM0.231796 54.56V53.56H-0.768204V54.56H0.231796ZM8.5118 54.56V55.56H9.5118V54.56H8.5118ZM8.5118 12.44H9.5118V11.44H8.5118V12.44ZM0.231796 12.44H-0.768204V13.44H0.231796V12.44ZM0.231796 2V0.999996H-0.768204V2H0.231796ZM45.4118 8.48L44.7095 9.19203L44.7195 9.20158L45.4118 8.48ZM45.4118 58.61L46.109 59.3269L46.1092 59.3267L45.4118 58.61ZM20.3918 54.2H19.3918V55.2H20.3918V54.2ZM36.8618 50.42L37.6122 51.081L36.8618 50.42ZM36.8618 16.58L36.1114 17.2411L36.1194 17.25L36.8618 16.58ZM20.3918 12.8V11.8H19.3918V12.8H20.3918ZM1.2318 65V54.56H-0.768204V65H1.2318ZM0.231796 55.56H8.5118V53.56H0.231796V55.56ZM9.5118 54.56V12.44H7.5118V54.56H9.5118ZM8.5118 11.44H0.231796V13.44H8.5118V11.44ZM1.2318 12.44V2H-0.768204V12.44H1.2318ZM0.231796 3H26.1518V0.999996H0.231796V3ZM26.1518 3C34.4495 3 40.5778 5.11679 44.7096 9.19196L46.114 7.76803C41.4858 3.2032 34.7741 0.999996 26.1518 0.999996V3ZM44.7195 9.20158C48.8982 13.2109 51.0718 19.2674 51.0718 27.56H53.0718C53.0718 18.9326 50.8054 12.2691 46.1041 7.75842L44.7195 9.20158ZM51.0718 27.56V39.44H53.0718V27.56H51.0718ZM51.0718 39.44C51.0718 47.7316 48.8986 53.8222 44.7144 57.8933L46.1092 59.3267C50.805 54.7578 53.0718 48.0684 53.0718 39.44H51.0718ZM44.7146 57.8931C40.5833 61.9113 34.453 64 26.1518 64V66C34.7706 66 41.4803 63.8287 46.109 59.3269L44.7146 57.8931ZM26.1518 64H0.231796V66H26.1518V64ZM20.3918 55.2H26.3318V53.2H20.3918V55.2ZM26.3318 55.2C31.2923 55.2 35.1321 53.8962 37.6122 51.081L36.1114 49.759C34.1514 51.9838 30.9713 53.2 26.3318 53.2V55.2ZM37.6122 51.081C40.0429 48.3219 41.1918 44.5157 41.1918 39.8H39.1918C39.1918 44.2043 38.1207 47.4781 36.1114 49.759L37.6122 51.081ZM41.1918 39.8V27.2H39.1918V39.8H41.1918ZM41.1918 27.2C41.1918 22.4302 40.0455 18.6153 37.6042 15.91L36.1194 17.25C38.1181 19.4647 39.1918 22.7298 39.1918 27.2H41.1918ZM37.6122 15.919C35.1321 13.1038 31.2923 11.8 26.3318 11.8V13.8C30.9713 13.8 34.1514 15.0162 36.1114 17.241L37.6122 15.919ZM26.3318 11.8H20.3918V13.8H26.3318V11.8ZM19.3918 12.8V54.2H21.3918V12.8H19.3918ZM57.1259 65L56.1587 64.7458L55.829 66H57.1259V65ZM73.6859 2V0.999996H72.9147L72.7187 1.74577L73.6859 2ZM94.3859 2L95.353 1.74577L95.157 0.999996H94.3859V2ZM110.946 65V66H112.243L111.913 64.7458L110.946 65ZM98.7059 65L97.735 65.2396L97.9226 66H98.7059V65ZM95.2859 51.14L96.2567 50.9004L96.0691 50.14H95.2859V51.14ZM72.7859 51.14V50.14H72.0026L71.815 50.9004L72.7859 51.14ZM69.3659 65V66H70.1491L70.3367 65.2396L69.3659 65ZM75.5759 40.16L74.6056 39.9181L74.296 41.16H75.5759V40.16ZM92.4959 40.16V41.16H93.7757L93.4662 39.9181L92.4959 40.16ZM84.8459 9.47L85.8162 9.22813L85.6272 8.47H84.8459V9.47ZM83.2259 9.47V8.47H82.4445L82.2556 9.22813L83.2259 9.47ZM58.093 65.2542L74.653 2.25422L72.7187 1.74577L56.1587 64.7458L58.093 65.2542ZM73.6859 3H94.3859V0.999996H73.6859V3ZM93.4187 2.25422L109.979 65.2542L111.913 64.7458L95.353 1.74577L93.4187 2.25422ZM110.946 64H98.7059V66H110.946V64ZM99.6767 64.7604L96.2567 50.9004L94.315 51.3796L97.735 65.2396L99.6767 64.7604ZM95.2859 50.14H72.7859V52.14H95.2859V50.14ZM71.815 50.9004L68.395 64.7604L70.3367 65.2396L73.7567 51.3796L71.815 50.9004ZM69.3659 64H57.1259V66H69.3659V64ZM75.5759 41.16H92.4959V39.16H75.5759V41.16ZM93.4662 39.9181L85.8162 9.22813L83.8755 9.71186L91.5256 40.4019L93.4662 39.9181ZM84.8459 8.47H83.2259V10.47H84.8459V8.47ZM82.2556 9.22813L74.6056 39.9181L76.5462 40.4019L84.1962 9.71186L82.2556 9.22813ZM118.487 65H117.487V66H118.487V65ZM118.487 2V0.999996H117.487V2H118.487ZM154.847 4.43L154.372 5.3099L154.382 5.31553L154.393 5.3209L154.847 4.43ZM161.957 11.09L161.093 11.5939L161.097 11.6005L161.101 11.6071L161.957 11.09ZM161.867 32.87L161.014 32.3478L161.011 32.3529L161.867 32.87ZM154.667 39.62L155.128 40.5072L155.135 40.5038L154.667 39.62ZM130.367 41.96V40.96H129.367V41.96H130.367ZM130.367 65V66H131.367V65H130.367ZM130.367 31.16H129.367V32.16H130.367V31.16ZM150.077 28.82L150.744 29.5646L150.077 28.82ZM150.077 15.14L150.744 14.3954L150.077 15.14ZM130.367 12.8V11.8H129.367V12.8H130.367ZM119.487 65V2H117.487V65H119.487ZM118.487 3H144.407V0.999996H118.487V3ZM144.407 3C148.228 3 151.54 3.7806 154.372 5.3099L155.322 3.55009C152.154 1.83939 148.506 0.999996 144.407 0.999996V3ZM154.393 5.3209C157.287 6.7966 159.513 8.88467 161.093 11.5939L162.821 10.5861C161.041 7.53532 158.526 5.1834 155.301 3.53909L154.393 5.3209ZM161.101 11.6071C162.731 14.3054 163.567 17.5397 163.567 21.35H165.567C165.567 17.2403 164.663 13.6346 162.813 10.5729L161.101 11.6071ZM163.567 21.35V22.61H165.567V21.35H163.567ZM163.567 22.61C163.567 26.3505 162.706 29.5849 161.014 32.3478L162.72 33.3922C164.628 30.2751 165.567 26.6695 165.567 22.61H163.567ZM161.011 32.3529C159.367 35.0731 157.104 37.1984 154.199 38.7362L155.135 40.5038C158.35 38.8016 160.886 36.4269 162.723 33.3871L161.011 32.3529ZM154.206 38.7328C151.366 40.2092 148.108 40.96 144.407 40.96V42.96C148.385 42.96 151.967 42.1508 155.128 40.5072L154.206 38.7328ZM144.407 40.96H130.367V42.96H144.407V40.96ZM129.367 41.96V65H131.367V41.96H129.367ZM130.367 64H118.487V66H130.367V64ZM130.367 32.16H143.237V30.16H130.367V32.16ZM143.237 32.16C146.25 32.16 148.785 31.3216 150.744 29.5646L149.409 28.0754C147.889 29.4384 145.864 30.16 143.237 30.16V32.16ZM150.744 29.5646C152.73 27.7847 153.687 25.3655 153.687 22.43H151.687C151.687 24.8945 150.904 26.7353 149.409 28.0754L150.744 29.5646ZM153.687 22.43V21.53H151.687V22.43H153.687ZM153.687 21.53C153.687 18.5945 152.73 16.1753 150.744 14.3954L149.409 15.8846C150.904 17.2247 151.687 19.0655 151.687 21.53H153.687ZM150.744 14.3954C148.785 12.6384 146.25 11.8 143.237 11.8V13.8C145.864 13.8 147.889 14.5216 149.409 15.8846L150.744 14.3954ZM143.237 11.8H130.367V13.8H143.237V11.8ZM129.367 12.8V31.16H131.367V12.8H129.367ZM170.652 65H169.652V66H170.652V65ZM170.652 54.56V53.56H169.652V54.56H170.652ZM178.932 54.56V55.56H179.932V54.56H178.932ZM178.932 12.44H179.932V11.44H178.932V12.44ZM170.652 12.44H169.652V13.44H170.652V12.44ZM170.652 2V0.999996H169.652V2H170.652ZM215.832 8.48L215.129 9.19203L215.139 9.20158L215.832 8.48ZM215.832 58.61L216.529 59.3269L216.529 59.3267L215.832 58.61ZM190.812 54.2H189.812V55.2H190.812V54.2ZM207.282 50.42L208.032 51.081L207.282 50.42ZM207.282 16.58L206.531 17.2411L206.539 17.25L207.282 16.58ZM190.812 12.8V11.8H189.812V12.8H190.812ZM171.652 65V54.56H169.652V65H171.652ZM170.652 55.56H178.932V53.56H170.652V55.56ZM179.932 54.56V12.44H177.932V54.56H179.932ZM178.932 11.44H170.652V13.44H178.932V11.44ZM171.652 12.44V2H169.652V12.44H171.652ZM170.652 3H196.572V0.999996H170.652V3ZM196.572 3C204.869 3 210.998 5.11679 215.13 9.19196L216.534 7.76803C211.906 3.2032 205.194 0.999996 196.572 0.999996V3ZM215.139 9.20158C219.318 13.2109 221.492 19.2674 221.492 27.56H223.492C223.492 18.9326 221.225 12.2691 216.524 7.75842L215.139 9.20158ZM221.492 27.56V39.44H223.492V27.56H221.492ZM221.492 39.44C221.492 47.7316 219.319 53.8222 215.134 57.8933L216.529 59.3267C221.225 54.7578 223.492 48.0684 223.492 39.44H221.492ZM215.135 57.8931C211.003 61.9113 204.873 64 196.572 64V66C205.19 66 211.9 63.8287 216.529 59.3269L215.135 57.8931ZM196.572 64H170.652V66H196.572V64ZM190.812 55.2H196.752V53.2H190.812V55.2ZM196.752 55.2C201.712 55.2 205.552 53.8962 208.032 51.081L206.531 49.759C204.571 51.9838 201.391 53.2 196.752 53.2V55.2ZM208.032 51.081C210.463 48.3219 211.612 44.5157 211.612 39.8H209.612C209.612 44.2043 208.541 47.4781 206.531 49.759L208.032 51.081ZM211.612 39.8V27.2H209.612V39.8H211.612ZM211.612 27.2C211.612 22.4302 210.465 18.6153 208.024 15.91L206.539 17.25C208.538 19.4647 209.612 22.7298 209.612 27.2H211.612ZM208.032 15.919C205.552 13.1038 201.712 11.8 196.752 11.8V13.8C201.391 13.8 204.571 15.0162 206.531 17.241L208.032 15.919ZM196.752 11.8H190.812V13.8H196.752V11.8ZM189.812 12.8V54.2H191.812V12.8H189.812ZM227.546 65L226.579 64.7458L226.249 66H227.546V65ZM244.106 2V0.999996H243.335L243.139 1.74577L244.106 2ZM264.806 2L265.773 1.74577L265.577 0.999996H264.806V2ZM281.366 65V66H282.663L282.333 64.7458L281.366 65ZM269.126 65L268.155 65.2396L268.343 66H269.126V65ZM265.706 51.14L266.677 50.9004L266.489 50.14H265.706V51.14ZM243.206 51.14V50.14H242.423L242.235 50.9004L243.206 51.14ZM239.786 65V66H240.569L240.757 65.2396L239.786 65ZM245.996 40.16L245.025 39.9181L244.716 41.16H245.996V40.16ZM262.916 40.16V41.16H264.196L263.886 39.9181L262.916 40.16ZM255.266 9.47L256.236 9.22813L256.047 8.47H255.266V9.47ZM253.646 9.47V8.47H252.864L252.675 9.22813L253.646 9.47ZM228.513 65.2542L245.073 2.25422L243.139 1.74577L226.579 64.7458L228.513 65.2542ZM244.106 3H264.806V0.999996H244.106V3ZM263.839 2.25422L280.399 65.2542L282.333 64.7458L265.773 1.74577L263.839 2.25422ZM281.366 64H269.126V66H281.366V64ZM270.097 64.7604L266.677 50.9004L264.735 51.3796L268.155 65.2396L270.097 64.7604ZM265.706 50.14H243.206V52.14H265.706V50.14ZM242.235 50.9004L238.815 64.7604L240.757 65.2396L244.177 51.3796L242.235 50.9004ZM239.786 64H227.546V66H239.786V64ZM245.996 41.16H262.916V39.16H245.996V41.16ZM263.886 39.9181L256.236 9.22813L254.295 9.71186L261.945 40.4019L263.886 39.9181ZM255.266 8.47H253.646V10.47H255.266V8.47ZM252.675 9.22813L245.025 39.9181L246.966 40.4019L254.616 9.71186L252.675 9.22813ZM288.907 65H287.907V66H288.907V65ZM288.907 2V0.999996H287.907V2H288.907ZM325.267 4.43L324.792 5.3099L324.802 5.31553L324.813 5.3209L325.267 4.43ZM332.377 11.09L331.513 11.5939L331.517 11.6005L331.521 11.6071L332.377 11.09ZM332.287 32.87L331.434 32.3478L331.431 32.3529L332.287 32.87ZM325.087 39.62L325.548 40.5072L325.555 40.5038L325.087 39.62ZM300.787 41.96V40.96H299.787V41.96H300.787ZM300.787 65V66H301.787V65H300.787ZM300.787 31.16H299.787V32.16H300.787V31.16ZM320.497 28.82L321.164 29.5646L320.497 28.82ZM320.497 15.14L321.164 14.3954L320.497 15.14ZM300.787 12.8V11.8H299.787V12.8H300.787ZM289.907 65V2H287.907V65H289.907ZM288.907 3H314.827V0.999996H288.907V3ZM314.827 3C318.648 3 321.96 3.7806 324.792 5.3099L325.742 3.55009C322.574 1.83939 318.926 0.999996 314.827 0.999996V3ZM324.813 5.3209C327.707 6.7966 329.933 8.88467 331.513 11.5939L333.241 10.5861C331.461 7.53532 328.946 5.1834 325.721 3.53909L324.813 5.3209ZM331.521 11.6071C333.151 14.3054 333.987 17.5397 333.987 21.35H335.987C335.987 17.2403 335.083 13.6346 333.233 10.5729L331.521 11.6071ZM333.987 21.35V22.61H335.987V21.35H333.987ZM333.987 22.61C333.987 26.3505 333.126 29.5849 331.434 32.3478L333.14 33.3922C335.048 30.2751 335.987 26.6695 335.987 22.61H333.987ZM331.431 32.3529C329.787 35.0731 327.524 37.1984 324.619 38.7362L325.555 40.5038C328.77 38.8016 331.306 36.4269 333.143 33.3871L331.431 32.3529ZM324.625 38.7328C321.786 40.2092 318.528 40.96 314.827 40.96V42.96C318.805 42.96 322.387 42.1508 325.548 40.5072L324.625 38.7328ZM314.827 40.96H300.787V42.96H314.827V40.96ZM299.787 41.96V65H301.787V41.96H299.787ZM300.787 64H288.907V66H300.787V64ZM300.787 32.16H313.657V30.16H300.787V32.16ZM313.657 32.16C316.67 32.16 319.205 31.3216 321.164 29.5646L319.829 28.0754C318.309 29.4384 316.284 30.16 313.657 30.16V32.16ZM321.164 29.5646C323.15 27.7847 324.107 25.3655 324.107 22.43H322.107C322.107 24.8945 321.324 26.7353 319.829 28.0754L321.164 29.5646ZM324.107 22.43V21.53H322.107V22.43H324.107ZM324.107 21.53C324.107 18.5945 323.15 16.1753 321.164 14.3954L319.829 15.8846C321.324 17.2247 322.107 19.0655 322.107 21.53H324.107ZM321.164 14.3954C319.205 12.6384 316.67 11.8 313.657 11.8V13.8C316.284 13.8 318.309 14.5216 319.829 15.8846L321.164 14.3954ZM313.657 11.8H300.787V13.8H313.657V11.8ZM299.787 12.8V31.16H301.787V12.8H299.787ZM368.685 60.95L368.001 61.6799L368.007 61.6852L368.685 60.95ZM363.015 40.16V39.16H362.015V40.16H363.015ZM374.895 40.16H375.895V39.16H374.895V40.16ZM377.235 52.76L376.514 53.4536L376.521 53.4604L376.528 53.4671L377.235 52.76ZM389.925 52.76L389.204 52.0669L389.197 52.0742L389.19 52.0817L389.925 52.76ZM392.175 12.8H393.175V11.8H392.175V12.8ZM381.375 12.8H380.375V13.8H381.375V12.8ZM381.375 2V0.999996H380.375V2H381.375ZM411.255 2H412.255V0.999996H411.255V2ZM411.255 12.8V13.8H412.255V12.8H411.255ZM404.055 12.8V11.8H403.055V12.8H404.055ZM398.745 61.13L399.44 61.8492L399.446 61.8431L398.745 61.13ZM384.165 65.26C377.873 65.26 372.976 63.546 369.363 60.2148L368.007 61.6852C372.073 65.434 377.497 67.26 384.165 67.26V65.26ZM369.368 60.2201C365.835 56.911 364.015 52.2511 364.015 46.1H362.015C362.015 52.6689 363.975 57.909 368.001 61.6799L369.368 60.2201ZM364.015 46.1V40.16H362.015V46.1H364.015ZM363.015 41.16H374.895V39.16H363.015V41.16ZM373.895 40.16V46.1H375.895V40.16H373.895ZM373.895 46.1C373.895 49.1098 374.732 51.603 376.514 53.4536L377.955 52.0664C376.617 50.677 375.895 48.7302 375.895 46.1H373.895ZM376.528 53.4671C378.324 55.2631 380.797 56.1 383.805 56.1V54.1C381.173 54.1 379.266 53.3769 377.942 52.0529L376.528 53.4671ZM383.805 56.1C386.651 56.1 388.986 55.2514 390.66 53.4383L389.19 52.0817C387.984 53.3886 386.238 54.1 383.805 54.1V56.1ZM390.646 53.4531C392.378 51.6519 393.175 49.1506 393.175 46.1H391.175C391.175 48.8094 390.472 50.7481 389.204 52.0669L390.646 53.4531ZM393.175 46.1V12.8H391.175V46.1H393.175ZM392.175 11.8H381.375V13.8H392.175V11.8ZM382.375 12.8V2H380.375V12.8H382.375ZM381.375 3H411.255V0.999996H381.375V3ZM410.255 2V12.8H412.255V2H410.255ZM411.255 11.8H404.055V13.8H411.255V11.8ZM403.055 12.8V46.1H405.055V12.8H403.055ZM403.055 46.1C403.055 52.4604 401.337 57.179 398.044 60.4169L399.446 61.8431C403.232 58.121 405.055 52.8196 405.055 46.1H403.055ZM398.05 60.4108C394.741 63.6076 390.155 65.26 384.165 65.26V67.26C390.535 67.26 395.668 65.4924 399.44 61.8492L398.05 60.4108ZM413.259 65L412.292 64.7458L411.962 66H413.259V65ZM429.819 2V0.999996H429.048L428.852 1.74577L429.819 2ZM450.519 2L451.486 1.74577L451.29 0.999996H450.519V2ZM467.079 65V66H468.376L468.046 64.7458L467.079 65ZM454.839 65L453.868 65.2396L454.055 66H454.839V65ZM451.419 51.14L452.39 50.9004L452.202 50.14H451.419V51.14ZM428.919 51.14V50.14H428.135L427.948 50.9004L428.919 51.14ZM425.499 65V66H426.282L426.47 65.2396L425.499 65ZM431.709 40.16L430.738 39.9181L430.429 41.16H431.709V40.16ZM448.629 40.16V41.16H449.909L449.599 39.9181L448.629 40.16ZM440.979 9.47L441.949 9.22813L441.76 8.47H440.979V9.47ZM439.359 9.47V8.47H438.577L438.388 9.22813L439.359 9.47ZM414.226 65.2542L430.786 2.25422L428.852 1.74577L412.292 64.7458L414.226 65.2542ZM429.819 3H450.519V0.999996H429.819V3ZM449.552 2.25422L466.112 65.2542L468.046 64.7458L451.486 1.74577L449.552 2.25422ZM467.079 64H454.839V66H467.079V64ZM455.81 64.7604L452.39 50.9004L450.448 51.3796L453.868 65.2396L455.81 64.7604ZM451.419 50.14H428.919V52.14H451.419V50.14ZM427.948 50.9004L424.528 64.7604L426.47 65.2396L429.89 51.3796L427.948 50.9004ZM425.499 64H413.259V66H425.499V64ZM431.709 41.16H448.629V39.16H431.709V41.16ZM449.599 39.9181L441.949 9.22813L440.008 9.71186L447.658 40.4019L449.599 39.9181ZM440.979 8.47H439.359V10.47H440.979V8.47ZM438.388 9.22813L430.738 39.9181L432.679 40.4019L440.329 9.71186L438.388 9.22813ZM479.492 59.78L478.8 60.5012L478.805 60.506L479.492 59.78ZM479.492 7.31L480.18 8.03596L480.185 8.0312L479.492 7.31ZM515.942 7.13L515.23 7.83207L515.235 7.83712L515.24 7.8421L515.942 7.13ZM522.332 25.04V26.04H523.332V25.04H522.332ZM510.632 25.04H509.632V26.04H510.632V25.04ZM507.482 14.96L506.72 15.6076L506.725 15.6131L506.73 15.6185L507.482 14.96ZM488.132 51.77L487.392 52.4427L487.4 52.4511L488.132 51.77ZM507.482 52.04L506.722 51.3907L506.72 51.3923L507.482 52.04ZM510.632 41.24V40.24H509.632V41.24H510.632ZM522.332 41.24H523.332V40.24H522.332V41.24ZM515.942 59.96L515.235 59.2529L515.942 59.96ZM498.032 65.26C490.423 65.26 484.512 63.158 480.18 59.054L478.805 60.506C483.593 65.042 490.041 67.26 498.032 67.26V65.26ZM480.185 59.0588C475.873 54.9168 473.652 48.9685 473.652 41.06H471.652C471.652 49.3515 473.992 55.8832 478.8 60.5012L480.185 59.0588ZM473.652 41.06V25.94H471.652V41.06H473.652ZM473.652 25.94C473.652 18.0308 475.873 12.1163 480.18 8.03595L478.805 6.58405C473.992 11.1437 471.652 17.6492 471.652 25.94H473.652ZM480.185 8.0312C484.518 3.86978 490.427 1.73999 498.032 1.73999V-0.260006C490.038 -0.260006 483.587 1.99022 478.8 6.5888L480.185 8.0312ZM498.032 1.73999C505.587 1.73999 511.269 3.81424 515.23 7.83207L516.654 6.42793C512.216 1.92576 505.958 -0.260006 498.032 -0.260006V1.73999ZM515.24 7.8421C519.267 11.8121 521.332 17.3212 521.332 24.5H523.332C523.332 16.9188 521.138 10.8479 516.644 6.4179L515.24 7.8421ZM521.332 24.5V25.04H523.332V24.5H521.332ZM522.332 24.04H510.632V26.04H522.332V24.04ZM511.632 25.04V24.14H509.632V25.04H511.632ZM511.632 24.14C511.632 20.2205 510.52 16.9135 508.235 14.3015L506.73 15.6185C508.644 17.8065 509.632 20.6195 509.632 24.14H511.632ZM508.244 14.3123C505.953 11.6172 502.477 10.36 498.032 10.36V12.36C502.108 12.36 504.931 13.5028 506.72 15.6076L508.244 14.3123ZM498.032 10.36C493.612 10.36 490.025 11.7267 487.4 14.5489L488.865 15.9111C491.039 13.5733 494.052 12.36 498.032 12.36V10.36ZM487.4 14.5489C484.786 17.3586 483.532 21.1358 483.532 25.76H485.532C485.532 21.5042 486.678 18.2614 488.865 15.9111L487.4 14.5489ZM483.532 25.76V41.24H485.532V25.76H483.532ZM483.532 41.24C483.532 45.8095 484.789 49.579 487.392 52.4427L488.872 51.0973C486.676 48.681 485.532 45.4305 485.532 41.24H483.532ZM487.4 52.4511C490.025 55.2733 493.612 56.64 498.032 56.64V54.64C494.052 54.64 491.039 53.4267 488.865 51.0889L487.4 52.4511ZM498.032 56.64C502.477 56.64 505.953 55.3828 508.244 52.6876L506.72 51.3923C504.931 53.4972 502.108 54.64 498.032 54.64V56.64ZM508.243 52.6893C510.518 50.0244 511.632 46.7247 511.632 42.86H509.632C509.632 46.3153 508.647 49.1356 506.722 51.3907L508.243 52.6893ZM511.632 42.86V41.24H509.632V42.86H511.632ZM510.632 42.24H522.332V40.24H510.632V42.24ZM521.332 41.24V42.5H523.332V41.24H521.332ZM521.332 42.5C521.332 49.6782 519.267 55.221 515.235 59.2529L516.649 60.6671C521.138 56.179 523.332 50.0818 523.332 42.5H521.332ZM515.235 59.2529C511.275 63.2135 505.591 65.26 498.032 65.26V67.26C505.954 67.26 512.21 65.1065 516.649 60.6671L515.235 59.2529ZM532.012 65H531.012V66H532.012V65ZM532.012 2V0.999996H531.012V2H532.012ZM543.892 2H544.892V0.999996H543.892V2ZM543.892 27.02H542.892V28.02H543.892V27.02ZM545.512 27.02V28.02H545.987L546.287 27.6525L545.512 27.02ZM565.942 2V0.999996H565.468L565.168 1.36752L565.942 2ZM581.152 2L581.916 2.64604L583.309 0.999996H581.152V2ZM554.872 33.05L554.109 32.404L553.561 33.0517L554.111 33.698L554.872 33.05ZM582.052 65V66H584.216L582.814 64.352L582.052 65ZM566.392 65L565.618 65.6326L565.918 66H566.392V65ZM545.512 39.44L546.287 38.8074L545.987 38.44H545.512V39.44ZM543.892 39.44V38.44H542.892V39.44H543.892ZM543.892 65V66H544.892V65H543.892ZM533.012 65V2H531.012V65H533.012ZM532.012 3H543.892V0.999996H532.012V3ZM542.892 2V27.02H544.892V2H542.892ZM543.892 28.02H545.512V26.02H543.892V28.02ZM546.287 27.6525L566.717 2.63247L565.168 1.36752L544.738 26.3875L546.287 27.6525ZM565.942 3H581.152V0.999996H565.942V3ZM580.389 1.35395L554.109 32.404L555.636 33.696L581.916 2.64604L580.389 1.35395ZM554.111 33.698L581.291 65.648L582.814 64.352L555.634 32.402L554.111 33.698ZM582.052 64H566.392V66H582.052V64ZM567.167 64.3674L546.287 38.8074L544.738 40.0726L565.618 65.6326L567.167 64.3674ZM545.512 38.44H543.892V40.44H545.512V38.44ZM542.892 39.44V65H544.892V39.44H542.892ZM543.892 64H532.012V66H543.892V64ZM588.35 65H587.35V66H588.35V65ZM588.35 2V0.999996H587.35V2H588.35ZM624.71 4.43L624.235 5.3099L624.245 5.31553L624.256 5.3209L624.71 4.43ZM631.82 11.09L630.956 11.5939L630.96 11.6005L630.964 11.6071L631.82 11.09ZM631.73 32.87L630.877 32.3478L630.874 32.3529L631.73 32.87ZM624.53 39.62L624.992 40.5072L624.998 40.5038L624.53 39.62ZM600.23 41.96V40.96H599.23V41.96H600.23ZM600.23 65V66H601.23V65H600.23ZM600.23 31.16H599.23V32.16H600.23V31.16ZM619.94 28.82L620.608 29.5646L619.94 28.82ZM619.94 15.14L620.608 14.3954L619.94 15.14ZM600.23 12.8V11.8H599.23V12.8H600.23ZM589.35 65V2H587.35V65H589.35ZM588.35 3H614.27V0.999996H588.35V3ZM614.27 3C618.091 3 621.403 3.7806 624.235 5.3099L625.185 3.55009C622.017 1.83939 618.369 0.999996 614.27 0.999996V3ZM624.256 5.3209C627.151 6.7966 629.376 8.88467 630.956 11.5939L632.684 10.5861C630.904 7.53532 628.39 5.1834 625.164 3.53909L624.256 5.3209ZM630.964 11.6071C632.594 14.3054 633.43 17.5397 633.43 21.35H635.43C635.43 17.2403 634.526 13.6346 632.676 10.5729L630.964 11.6071ZM633.43 21.35V22.61H635.43V21.35H633.43ZM633.43 22.61C633.43 26.3505 632.569 29.5849 630.877 32.3478L632.583 33.3922C634.491 30.2751 635.43 26.6695 635.43 22.61H633.43ZM630.874 32.3529C629.231 35.0731 626.967 37.1984 624.062 38.7362L624.998 40.5038C628.213 38.8016 630.75 36.4269 632.586 33.3871L630.874 32.3529ZM624.069 38.7328C621.23 40.2092 617.972 40.96 614.27 40.96V42.96C618.249 42.96 621.831 42.1508 624.992 40.5072L624.069 38.7328ZM614.27 40.96H600.23V42.96H614.27V40.96ZM599.23 41.96V65H601.23V41.96H599.23ZM600.23 64H588.35V66H600.23V64ZM600.23 32.16H613.1V30.16H600.23V32.16ZM613.1 32.16C616.113 32.16 618.648 31.3216 620.608 29.5646L619.273 28.0754C617.752 29.4384 615.727 30.16 613.1 30.16V32.16ZM620.608 29.5646C622.593 27.7847 623.55 25.3655 623.55 22.43H621.55C621.55 24.8945 620.767 26.7353 619.273 28.0754L620.608 29.5646ZM623.55 22.43V21.53H621.55V22.43H623.55ZM623.55 21.53C623.55 18.5945 622.593 16.1753 620.608 14.3954L619.273 15.8846C620.767 17.2247 621.55 19.0655 621.55 21.53H623.55ZM620.608 14.3954C618.648 12.6384 616.113 11.8 613.1 11.8V13.8C615.727 13.8 617.752 14.5216 619.273 15.8846L620.608 14.3954ZM613.1 11.8H600.23V13.8H613.1V11.8ZM599.23 12.8V31.16H601.23V12.8H599.23ZM648.247 59.78L647.563 60.5101L647.568 60.5148L648.247 59.78ZM648.247 7.31L648.925 8.04482L648.93 8.04012L648.247 7.31ZM686.047 7.31L685.363 8.04013L685.368 8.0448L686.047 7.31ZM686.047 59.78L686.725 60.5148L686.73 60.5101L686.047 59.78ZM677.497 51.77L676.773 51.0799L677.497 51.77ZM677.497 15.23L676.773 15.9201V15.9201L677.497 15.23ZM656.797 15.23L656.081 14.5312L656.073 14.5399L656.797 15.23ZM656.797 51.77L656.073 52.4601L656.081 52.4687L656.797 51.77ZM667.147 65.26C659.414 65.26 653.378 63.1557 648.925 59.0452L647.568 60.5148C652.475 65.0443 659.039 67.26 667.147 67.26V65.26ZM648.93 59.0499C644.502 54.9062 642.227 48.9609 642.227 41.06H640.227C640.227 49.3591 642.631 55.8939 647.563 60.5101L648.93 59.0499ZM642.227 41.06V25.94H640.227V41.06H642.227ZM642.227 25.94C642.227 18.0384 644.503 12.1269 648.925 8.0448L647.568 6.5752C642.631 11.1331 640.227 17.6416 640.227 25.94H642.227ZM648.93 8.04012C653.383 3.87211 659.418 1.73999 667.147 1.73999V-0.260006C659.036 -0.260006 652.47 1.98788 647.563 6.57988L648.93 8.04012ZM667.147 1.73999C674.876 1.73999 680.91 3.87211 685.363 8.04012L686.73 6.57988C681.823 1.98788 675.258 -0.260006 667.147 -0.260006V1.73999ZM685.368 8.0448C689.791 12.1269 692.067 18.0384 692.067 25.94H694.067C694.067 17.6416 691.663 11.1331 686.725 6.5752L685.368 8.0448ZM692.067 25.94V41.06H694.067V25.94H692.067ZM692.067 41.06C692.067 48.9609 689.791 54.9062 685.363 59.0499L686.73 60.5101C691.662 55.8939 694.067 49.3591 694.067 41.06H692.067ZM685.368 59.0452C680.915 63.1557 674.879 65.26 667.147 65.26V67.26C675.254 67.26 681.818 65.0443 686.725 60.5148L685.368 59.0452ZM667.147 56.64C671.789 56.64 675.527 55.2844 678.22 52.4601L676.773 51.0799C674.546 53.4156 671.385 54.64 667.147 54.64V56.64ZM678.22 52.4601C680.894 49.6562 682.187 45.9393 682.187 41.42H680.187C680.187 45.5407 679.019 48.7238 676.773 51.0799L678.22 52.4601ZM682.187 41.42V25.58H680.187V41.42H682.187ZM682.187 25.58C682.187 21.0607 680.894 17.3438 678.22 14.5399L676.773 15.9201C679.019 18.2762 680.187 21.4593 680.187 25.58H682.187ZM678.22 14.5399C675.527 11.7156 671.789 10.36 667.147 10.36V12.36C671.385 12.36 674.546 13.5844 676.773 15.9201L678.22 14.5399ZM667.147 10.36C662.559 10.36 658.829 11.7185 656.081 14.5313L657.512 15.9287C659.805 13.5815 662.974 12.36 667.147 12.36V10.36ZM656.073 14.5399C653.399 17.3438 652.107 21.0607 652.107 25.58H654.107C654.107 21.4593 655.274 18.2762 657.52 15.9201L656.073 14.5399ZM652.107 25.58V41.42H654.107V25.58H652.107ZM652.107 41.42C652.107 45.9393 653.399 49.6562 656.073 52.4601L657.52 51.0799C655.274 48.7238 654.107 45.5407 654.107 41.42H652.107ZM656.081 52.4687C658.829 55.2815 662.559 56.64 667.147 56.64V54.64C662.974 54.64 659.805 53.4185 657.512 51.0713L656.081 52.4687ZM715.518 65H714.518V66H715.518V65ZM715.518 12.8H716.518V11.8H715.518V12.8ZM697.158 12.8H696.158V13.8H697.158V12.8ZM697.158 2V0.999996H696.158V2H697.158ZM745.758 2H746.758V0.999996H745.758V2ZM745.758 12.8V13.8H746.758V12.8H745.758ZM727.398 12.8V11.8H726.398V12.8H727.398ZM727.398 65V66H728.398V65H727.398ZM716.518 65V12.8H714.518V65H716.518ZM715.518 11.8H697.158V13.8H715.518V11.8ZM698.158 12.8V2H696.158V12.8H698.158ZM697.158 3H745.758V0.999996H697.158V3ZM744.758 2V12.8H746.758V2H744.758ZM745.758 11.8H727.398V13.8H745.758V11.8ZM726.398 12.8V65H728.398V12.8H726.398ZM727.398 64H715.518V66H727.398V64Z" fill="url(#paint1_linear_89_3394)" fill-opacity="0.3" mask="url(#path-1-outside-1_89_3394)"/>
<defs>
<linearGradient id="paint0_linear_89_3394" x1="372" y1="-0.25" x2="372" y2="65" gradientUnits="userSpaceOnUse">
<stop stop-color="#A6A6A6"/>
<stop offset="1" stop-color="#404040"/>
</linearGradient>
<linearGradient id="paint1_linear_89_3394" x1="372" y1="1.25" x2="372" y2="68.75" gradientUnits="userSpaceOnUse">
<stop/>
<stop offset="0.9999" stop-color="#8E8E8E"/>
<stop offset="1" stop-opacity="0"/>
</linearGradient>
</defs>
</svg>
