<svg width="173" height="170" viewBox="0 0 173 170" fill="none" xmlns="http://www.w3.org/2000/svg">
<g filter="url(#filter0_d_89_4190)">
<path d="M63.3354 48.1095C66.2016 37.4127 79.5726 33.83 87.4032 41.6606L142.903 97.16C150.733 104.991 147.15 118.362 136.454 121.228L60.64 141.542C49.9432 144.408 40.155 134.62 43.0212 123.923L63.3354 48.1095Z" fill="#EBF479"/>
<path fill-rule="evenodd" clip-rule="evenodd" d="M85.6149 45.1057L139.352 98.8432C145.617 105.108 142.751 115.804 134.193 118.097L60.7865 137.767C52.2291 140.06 44.3985 132.229 46.6914 123.672L66.3607 50.2649C68.6537 41.7075 79.3505 38.8412 85.6149 45.1057ZM83.5805 47.1402C78.8821 42.4418 70.8595 44.5915 69.1398 51.0096L49.4705 124.416C47.7508 130.834 53.6238 136.707 60.0419 134.988L133.449 115.318C139.867 113.599 142.016 105.576 137.318 100.878L83.5805 47.1402Z" fill="black"/>
<path d="M72.3578 84.3624L66.7246 75.7261L68.9964 75.1173L73.934 82.7805L72.7981 83.0849L73.3643 73.9469L75.3928 73.4034L80.3439 81.063L79.2486 81.3565L79.7607 72.233L81.8568 71.6714L81.2964 81.9673L78.9434 82.5977L74.5787 75.8826L75.2008 75.7159L74.7108 83.7319L72.3578 84.3624ZM85.6162 80.8098L83.0797 71.3437L85.2705 70.7567L87.8069 80.2228L85.6162 80.8098ZM90.0534 79.6208L87.517 70.1548L89.329 69.6692L96.7403 74.9883L95.8613 75.2238L94.035 68.4082L96.1987 67.8285L98.7351 77.2946L96.9366 77.7765L89.5119 72.461L90.3908 72.2255L92.2171 79.0411L90.0534 79.6208Z" fill="black"/>
<path d="M73.8886 104.052L70.6275 91.8818L75.8956 90.4702C76.9852 90.1783 77.9722 90.1063 78.8567 90.2545C79.7381 90.391 80.4817 90.7322 81.0876 91.2779C81.6935 91.8237 82.1191 92.5545 82.3645 93.4702C82.6068 94.3743 82.602 95.2141 82.3501 95.9897C82.0983 96.7653 81.6264 97.4384 80.9345 98.0089C80.2395 98.5679 79.3472 98.9933 78.2576 99.2852L74.5543 100.278L75.466 98.6729L76.7052 103.298L73.8886 104.052ZM75.5499 98.9859L73.9393 97.9825L77.4862 97.0321C78.3555 96.7992 78.9549 96.4398 79.2844 95.954C79.6139 95.4681 79.6901 94.8949 79.5131 94.2342C79.333 93.5619 78.9788 93.0978 78.4505 92.8418C77.9222 92.5858 77.2234 92.5742 76.3541 92.8072L72.8072 93.7576L73.7004 92.0833L75.5499 98.9859ZM88.6347 100.101L85.9885 90.2256L82.0939 91.2692L81.4789 88.9742L92.0848 86.1323L92.6998 88.4274L88.8051 89.4709L91.4513 99.3466L88.6347 100.101ZM100.831 97.0568C99.8577 97.3177 98.8905 97.4402 97.9296 97.4243C96.9657 97.3969 96.1554 97.2475 95.4988 96.9762L95.8867 94.5988C96.5077 94.83 97.2043 94.9725 97.9766 95.0265C98.7574 95.0657 99.5129 94.9875 100.243 94.7919C100.799 94.6428 101.232 94.4711 101.54 94.2767C101.857 94.0676 102.07 93.8428 102.179 93.6022C102.289 93.3617 102.309 93.1139 102.241 92.8589C102.154 92.5344 101.958 92.3135 101.653 92.1964C101.346 92.0677 100.968 92.0013 100.519 91.9972C100.068 91.9815 99.573 91.9898 99.0351 92.0222C98.5056 92.0398 97.9641 92.0358 97.4106 92.0102C96.8687 91.9815 96.355 91.8955 95.8694 91.7523C95.3838 91.6091 94.9518 91.3646 94.5734 91.0187C94.2065 90.6698 93.9362 90.1708 93.7622 89.5217C93.5759 88.8262 93.5921 88.1448 93.8108 87.4774C94.038 86.7954 94.4833 86.1854 95.1467 85.6473C95.8185 85.0946 96.7282 84.6645 97.8757 84.357C98.6407 84.1521 99.419 84.0429 100.211 84.0296C100.999 84.0047 101.725 84.0958 102.39 84.3029L102.093 86.6744C101.438 86.5021 100.807 86.4166 100.198 86.4181C99.5868 86.408 99.0087 86.476 98.464 86.622C97.9192 86.7679 97.49 86.9513 97.1764 87.1719C96.8629 87.3926 96.6587 87.6275 96.5639 87.8765C96.466 88.1139 96.4528 88.3659 96.5242 88.6325C96.6081 88.9455 96.8039 89.1663 97.1117 89.295C97.4164 89.4122 97.7929 89.4728 98.2413 89.4769C98.6896 89.481 99.1785 89.4742 99.708 89.4566C100.249 89.4358 100.789 89.434 101.328 89.4512C101.878 89.4652 102.396 89.5438 102.882 89.687C103.367 89.8302 103.794 90.0763 104.16 90.4252C104.539 90.7711 104.813 91.2627 104.984 91.9002C105.167 92.5841 105.144 93.2613 104.914 93.9317C104.683 94.6022 104.232 95.2138 103.56 95.7665C102.9 96.3161 101.99 96.7462 100.831 97.0568Z" fill="black"/>
<path d="M62.0674 128.333C61.2328 128.557 60.3618 128.691 59.4544 128.735C58.5469 128.779 57.7205 128.709 56.9751 128.524L57.5555 125.126C58.1578 125.287 58.7632 125.367 59.3715 125.366C59.9883 125.35 60.5517 125.273 61.0617 125.136C61.5254 125.012 61.8819 124.836 62.1313 124.608C62.3892 124.365 62.4762 124.087 62.3924 123.774C62.3209 123.507 62.1565 123.334 61.899 123.254C61.6383 123.162 61.2472 123.186 60.7256 123.326L59.1087 123.759L58.4332 121.238L60.7229 117.196L61.4561 118.471L55.3882 120.097L54.5589 117.002L63.6347 114.57L64.3103 117.092L62.0205 121.134L59.7576 120.548L60.8356 120.259C62.3656 119.849 63.6222 119.879 64.6052 120.348C65.5882 120.818 66.2242 121.592 66.513 122.67C66.6993 123.365 66.6809 124.084 66.4576 124.827C66.2459 125.567 65.7829 126.25 65.0687 126.877C64.366 127.5 63.3656 127.985 62.0674 128.333ZM74.0686 125.117C72.9907 125.406 71.9676 125.413 70.9995 125.138C70.043 124.861 69.1998 124.31 68.4699 123.487C67.7515 122.661 67.2122 121.575 66.852 120.231C66.4917 118.886 66.416 117.676 66.625 116.602C66.8456 115.524 67.3006 114.626 67.99 113.907C68.691 113.185 69.5805 112.679 70.6584 112.39C71.7364 112.102 72.7537 112.096 73.7102 112.374C74.6783 112.649 75.5215 113.199 76.2398 114.025C76.9697 114.849 77.5148 115.932 77.8751 117.277C78.2354 118.622 78.3053 119.833 78.0847 120.911C77.8757 121.985 77.4207 122.884 76.7197 123.606C76.0303 124.325 75.1466 124.829 74.0686 125.117ZM73.1881 121.831C73.4547 121.76 73.6675 121.603 73.8265 121.362C73.9854 121.121 74.0623 120.759 74.0571 120.275C74.0634 119.789 73.9626 119.158 73.7545 118.381C73.5433 117.593 73.3149 116.996 73.0694 116.589C72.8324 116.168 72.5847 115.893 72.3263 115.764C72.068 115.634 71.8055 115.605 71.5389 115.676C71.2724 115.748 71.0596 115.904 70.9006 116.146C70.7417 116.387 70.659 116.751 70.6527 117.237C70.6548 117.709 70.7614 118.338 70.9726 119.127C71.1807 119.903 71.4033 120.502 71.6403 120.923C71.8889 121.341 72.1424 121.615 72.4007 121.744C72.6591 121.874 72.9215 121.903 73.1881 121.831ZM86.1069 121.892C85.0289 122.181 84.0059 122.188 83.0377 121.913C82.0812 121.635 81.238 121.084 80.5081 120.261C79.7898 119.435 79.2505 118.35 78.8902 117.005C78.5299 115.66 78.4543 114.451 78.6632 113.376C78.8838 112.298 79.3388 111.4 80.0282 110.681C80.7292 109.959 81.6187 109.454 82.6967 109.165C83.7746 108.876 84.7919 108.87 85.7484 109.148C86.7165 109.423 87.5597 109.974 88.2781 110.8C89.008 111.623 89.5531 112.707 89.9133 114.051C90.2736 115.396 90.3435 116.607 90.1229 117.685C89.914 118.76 89.459 119.658 88.758 120.38C88.0685 121.099 87.1848 121.603 86.1069 121.892ZM85.2264 118.606C85.493 118.534 85.7057 118.378 85.8647 118.136C86.0236 117.895 86.1005 117.533 86.0953 117.05C86.1017 116.564 86.0008 115.932 85.7927 115.156C85.5815 114.367 85.3531 113.77 85.1076 113.364C84.8706 112.943 84.6229 112.668 84.3646 112.538C84.1062 112.408 83.8438 112.379 83.5772 112.451C83.3106 112.522 83.0978 112.679 82.9389 112.92C82.7799 113.161 82.6973 113.525 82.6909 114.011C82.693 114.483 82.7996 115.113 83.0108 115.901C83.2189 116.678 83.4415 117.276 83.6785 117.697C83.9272 118.115 84.1806 118.389 84.439 118.518C84.6973 118.648 84.9598 118.677 85.2264 118.606ZM93.154 122.687L93.3054 117.41L94.4662 119.447C93.7939 119.627 93.192 119.583 92.6607 119.316C92.1262 119.037 91.7689 118.561 91.5888 117.889C91.4055 117.205 91.4755 116.608 91.7988 116.099C92.1306 115.575 92.6268 115.225 93.2875 115.048C93.9482 114.871 94.5473 114.928 95.0849 115.219C95.631 115.495 95.9956 115.975 96.1789 116.659C96.2285 116.844 96.2608 117.034 96.2758 117.229C96.3023 117.421 96.3049 117.662 96.2836 117.954C96.2592 118.233 96.2017 118.622 96.1111 119.118L95.5882 122.035L93.154 122.687ZM102.916 117.388C101.838 117.677 100.815 117.684 99.8471 117.409C98.8906 117.131 98.0474 116.58 97.3175 115.757C96.5991 114.931 96.0598 113.846 95.6996 112.501C95.3393 111.156 95.2636 109.947 95.4726 108.872C95.6932 107.794 96.1482 106.896 96.8376 106.177C97.5386 105.455 98.4281 104.949 99.506 104.661C100.584 104.372 101.601 104.366 102.558 104.644C103.526 104.919 104.369 105.47 105.087 106.296C105.817 107.119 106.362 108.203 106.723 109.547C107.083 110.892 107.153 112.103 106.932 113.181C106.723 114.256 106.268 115.154 105.567 115.876C104.878 116.595 103.994 117.099 102.916 117.388ZM102.036 114.102C102.302 114.03 102.515 113.874 102.674 113.632C102.833 113.391 102.91 113.029 102.905 112.546C102.911 112.059 102.81 111.428 102.602 110.651C102.391 109.863 102.163 109.266 101.917 108.86C101.68 108.439 101.432 108.163 101.174 108.034C100.916 107.904 100.653 107.875 100.387 107.947C100.12 108.018 99.9072 108.175 99.7482 108.416C99.5893 108.657 99.5066 109.021 99.5003 109.507C99.5024 109.979 99.609 110.609 99.8202 111.397C100.028 112.173 100.251 112.772 100.488 113.193C100.737 113.611 100.99 113.885 101.248 114.014C101.507 114.144 101.769 114.173 102.036 114.102ZM114.954 114.162C113.876 114.451 112.853 114.458 111.885 114.183C110.929 113.905 110.086 113.355 109.356 112.532C108.637 111.705 108.098 110.62 107.738 109.275C107.378 107.931 107.302 106.721 107.511 105.646C107.731 104.569 108.186 103.67 108.876 102.951C109.577 102.229 110.466 101.724 111.544 101.435C112.622 101.146 113.639 101.141 114.596 101.419C115.564 101.693 116.407 102.244 117.126 103.07C117.856 103.893 118.401 104.977 118.761 106.322C119.121 107.666 119.191 108.877 118.971 109.955C118.762 111.03 118.307 111.928 117.606 112.65C116.916 113.369 116.032 113.873 114.954 114.162ZM114.074 110.876C114.341 110.805 114.553 110.648 114.712 110.407C114.871 110.165 114.948 109.803 114.943 109.32C114.949 108.834 114.848 108.202 114.64 107.426C114.429 106.638 114.201 106.04 113.955 105.634C113.718 105.213 113.471 104.938 113.212 104.808C112.954 104.679 112.691 104.65 112.425 104.721C112.158 104.793 111.945 104.949 111.786 105.19C111.628 105.432 111.545 105.795 111.538 106.282C111.541 106.753 111.647 107.383 111.858 108.171C112.067 108.948 112.289 109.547 112.526 109.968C112.775 110.386 113.028 110.659 113.287 110.789C113.545 110.918 113.807 110.947 114.074 110.876ZM126.993 110.936C125.915 111.225 124.892 111.232 123.924 110.957C122.967 110.68 122.124 110.129 121.394 109.306C120.676 108.48 120.136 107.394 119.776 106.05C119.416 104.705 119.34 103.496 119.549 102.421C119.77 101.343 120.225 100.445 120.914 99.7257C121.615 99.0037 122.505 98.4982 123.583 98.2094C124.66 97.9205 125.678 97.9151 126.634 98.193C127.602 98.4678 128.446 99.0183 129.164 99.8445C129.894 100.668 130.439 101.752 130.799 103.096C131.159 104.441 131.229 105.652 131.009 106.73C130.8 107.804 130.345 108.703 129.644 109.425C128.954 110.144 128.071 110.648 126.993 110.936ZM126.112 107.65C126.379 107.579 126.592 107.423 126.751 107.181C126.909 106.94 126.986 106.578 126.981 106.094C126.987 105.608 126.887 104.977 126.679 104.2C126.467 103.412 126.239 102.815 125.993 102.408C125.756 101.987 125.509 101.712 125.25 101.583C124.992 101.453 124.73 101.424 124.463 101.495C124.196 101.567 123.984 101.723 123.825 101.965C123.666 102.206 123.583 102.57 123.577 103.056C123.579 103.528 123.685 104.157 123.897 104.946C124.105 105.722 124.327 106.321 124.564 106.742C124.813 107.16 125.066 107.434 125.325 107.563C125.583 107.693 125.846 107.722 126.112 107.65Z" fill="black"/>
</g>
<defs>
<filter id="filter0_d_89_4190" x="40.5156" y="37.4385" width="106.609" height="106.609" filterUnits="userSpaceOnUse" color-interpolation-filters="sRGB">
<feFlood flood-opacity="0" result="BackgroundImageFix"/>
<feColorMatrix in="SourceAlpha" type="matrix" values="0 0 0 0 0 0 0 0 0 0 0 0 0 0 0 0 0 0 127 0" result="hardAlpha"/>
<feOffset dx="-2" dy="2"/>
<feComposite in2="hardAlpha" operator="out"/>
<feColorMatrix type="matrix" values="0 0 0 0 0 0 0 0 0 0 0 0 0 0 0 0 0 0 0.25 0"/>
<feBlend mode="normal" in2="BackgroundImageFix" result="effect1_dropShadow_89_4190"/>
<feBlend mode="normal" in="SourceGraphic" in2="effect1_dropShadow_89_4190" result="shape"/>
</filter>
</defs>
</svg>
