<svg width="122" height="32" viewBox="0 0 122 32" fill="none" xmlns="http://www.w3.org/2000/svg">
<path d="M60.8711 6.68444V25.3511C60.8711 25.4933 60.7644 25.6355 60.5867 25.6355H58.6311C57.7422 25.6355 56.8889 25.1733 56.3911 24.4267L47.5733 10.8089L47.8578 17.6V25.3867C47.8578 25.5289 47.7511 25.6711 47.5733 25.6711H45.0133C44.8711 25.6711 44.7289 25.5644 44.7289 25.3867V6.68444C44.7289 6.54222 44.8355 6.39999 45.0133 6.39999H46.9333C47.8222 6.39999 48.6755 6.86222 49.1733 7.60888L57.9911 21.1911L57.7067 14.4V6.68444C57.7067 6.54222 57.8133 6.39999 57.9911 6.39999H60.5511C60.7644 6.39999 60.8711 6.50666 60.8711 6.68444Z" fill="black"/>
<path d="M87.1111 25.6H84.4089C84.2311 25.6 84.0889 25.4222 84.16 25.2444L91.3422 6.64888C91.4133 6.50666 91.5556 6.39999 91.6978 6.39999H95.1111C95.2889 6.39999 95.4311 6.50666 95.4667 6.64888L102.684 25.2444C102.756 25.4222 102.613 25.6 102.436 25.6H99.7333C99.6267 25.6 99.52 25.5289 99.4844 25.4222L93.6889 10.1333C93.6178 9.91999 93.2622 9.91999 93.1911 10.1333L87.3956 25.4222C87.3244 25.5289 87.2178 25.6 87.1111 25.6Z" fill="black"/>
<path d="M121.529 25.1733L116.124 18.2755C119.182 17.7067 120.96 15.6444 120.96 12.48C120.96 8.85333 118.613 6.39999 114.418 6.39999H106.88C106.667 6.39999 106.489 6.57777 106.489 6.79111C106.489 8.21333 107.627 9.3511 109.049 9.3511H114.133C116.658 9.3511 117.867 10.6311 117.867 12.5155C117.867 14.4 116.693 15.68 114.133 15.68H106.951C106.738 15.68 106.56 15.8578 106.56 16.0711V25.3155C106.56 25.4578 106.667 25.6 106.844 25.6H109.404C109.547 25.6 109.689 25.4933 109.689 25.3155V18.4533H112.64L117.333 24.5689C117.831 25.2444 118.613 25.6 119.467 25.6H121.422C121.564 25.6 121.671 25.3511 121.529 25.1733Z" fill="black"/>
<path d="M79.0045 6.39999H67.0933C66.88 6.39999 66.7378 6.54222 66.7378 6.75555C66.7378 8.17777 67.9111 9.3511 69.3333 9.3511H79.0045C79.1467 9.3511 79.2889 9.24444 79.2889 9.06666V6.64888C79.2533 6.50666 79.1467 6.39999 79.0045 6.39999ZM79.0045 22.6489H70.1156C69.9733 22.6489 69.8311 22.5422 69.8311 22.3644V17.5644C69.8311 17.4222 69.9378 17.28 70.1156 17.28H78.3289C78.4711 17.28 78.6134 17.1733 78.6134 16.9955V14.5778C78.6134 14.4355 78.5067 14.2933 78.3289 14.2933H67.1289C66.9156 14.2933 66.7378 14.4711 66.7378 14.6844V25.1733C66.7378 25.3867 66.9156 25.5644 67.1289 25.5644H79.0045C79.1467 25.5644 79.2889 25.4578 79.2889 25.28V22.8622C79.2533 22.7556 79.1467 22.6489 79.0045 22.6489Z" fill="black"/>
<path d="M25.6711 1.63556L18.9867 11.5556C18.5244 12.2311 19.4133 13.0489 20.0533 12.48L26.6311 6.75556C26.8089 6.61333 27.0578 6.72 27.0578 6.96889V24.8533C27.0578 25.1022 26.7378 25.2089 26.5956 25.0311L6.68444 1.20889C6.04444 0.426667 5.12 0 4.08889 0H3.37778C1.52889 0 0 1.52889 0 3.41333V28.5867C0 30.4711 1.52889 32 3.41333 32C4.58667 32 5.68889 31.3956 6.32889 30.3644L13.0133 20.4444C13.4756 19.7689 12.5867 18.9511 11.9467 19.52L5.36889 25.2089C5.19111 25.3511 4.94222 25.2444 4.94222 24.9956V7.14667C4.94222 6.89778 5.26222 6.79111 5.40444 6.96889L25.3156 30.7911C25.9556 31.5733 26.9156 32 27.9111 32H28.6222C30.5067 32 32.0356 30.4711 32.0356 28.5867V3.41333C32 1.52889 30.4711 0 28.5867 0C27.4133 0 26.3111 0.604444 25.6711 1.63556Z" fill="black"/>
</svg>
